<svg width="50" height="100" viewBox="0 0 50 100" fill="none" xmlns="http://www.w3.org/2000/svg">
<path d="M50 100C43.4339 100 36.9321 98.7067 30.8658 96.194C24.7995 93.6812 19.2876 89.9983 14.6447 85.3553C10.0017 80.7124 6.31876 75.2004 3.80602 69.1342C1.29329 63.0679 -1.14805e-06 56.5661 0 50C1.14805e-06 43.4339 1.29329 36.9321 3.80603 30.8658C6.31876 24.7995 10.0017 19.2876 14.6447 14.6447C19.2876 10.0017 24.7996 6.31875 30.8658 3.80602C36.9321 1.29328 43.4339 -2.2178e-06 50 0L50 25C46.717 25 43.4661 25.6466 40.4329 26.903C37.3998 28.1594 34.6438 30.0009 32.3223 32.3223C30.0009 34.6438 28.1594 37.3998 26.903 40.4329C25.6466 43.466 25 46.7169 25 50C25 53.283 25.6466 56.5339 26.903 59.5671C28.1594 62.6002 30.0009 65.3562 32.3223 67.6777C34.6438 69.9991 37.3998 71.8406 40.4329 73.097C43.4661 74.3534 46.717 75 50 75L50 100Z" fill="#2E004A"/>
</svg>
