<svg width="33" height="21" viewBox="0 0 33 21" fill="none" xmlns="http://www.w3.org/2000/svg">
<circle cx="3.61546" cy="3.61546" r="3.11546" transform="matrix(0.728167 0.685399 0.685399 -0.728167 21.9302 8.02393)" stroke="white"/>
<mask id="path-2-inside-1_2204_11139" fill="white">
<path d="M29.4171 10.9675C28.6553 11.5518 27.7049 11.8349 26.7476 11.7628C25.7902 11.6907 24.893 11.2684 24.2273 10.5767L24.4629 10.3499C25.0729 10.9837 25.895 11.3706 26.7721 11.4367C27.6493 11.5028 28.52 11.2433 29.218 10.708L29.4171 10.9675Z"/>
</mask>
<path d="M29.4171 10.9675C28.6553 11.5518 27.7049 11.8349 26.7476 11.7628C25.7902 11.6907 24.893 11.2684 24.2273 10.5767L24.4629 10.3499C25.0729 10.9837 25.895 11.3706 26.7721 11.4367C27.6493 11.5028 28.52 11.2433 29.218 10.708L29.4171 10.9675Z" stroke="white" stroke-width="2" mask="url(#path-2-inside-1_2204_11139)"/>
<mask id="path-3-inside-2_2204_11139" fill="white">
<path d="M29.5409 4.86978C30.1493 5.37693 30.5891 6.0571 30.8019 6.82004C31.0147 7.58298 30.9905 8.39259 30.7324 9.14143L30.4232 9.03487C30.6597 8.34875 30.6819 7.60695 30.4869 6.90791C30.2919 6.20887 29.889 5.58566 29.3315 5.12099L29.5409 4.86978Z"/>
</mask>
<path d="M29.5409 4.86978C30.1493 5.37693 30.5891 6.0571 30.8019 6.82004C31.0147 7.58298 30.9905 8.39259 30.7324 9.14143L30.4232 9.03487C30.6597 8.34875 30.6819 7.60695 30.4869 6.90791C30.2919 6.20887 29.889 5.58566 29.3315 5.12099L29.5409 4.86978Z" stroke="white" stroke-width="2" mask="url(#path-3-inside-2_2204_11139)"/>
<mask id="path-4-inside-3_2204_11139" fill="white">
<path d="M28.3553 4.19236C28.7167 4.32157 29.0571 4.50334 29.3654 4.73182L29.1707 4.99459C28.8882 4.78524 28.5763 4.61869 28.2452 4.50031L28.3553 4.19236Z"/>
</mask>
<path d="M28.3553 4.19236C28.7167 4.32157 29.0571 4.50334 29.3654 4.73182L29.1707 4.99459C28.8882 4.78524 28.5763 4.61869 28.2452 4.50031L28.3553 4.19236Z" stroke="white" stroke-width="2" mask="url(#path-4-inside-3_2204_11139)"/>
<mask id="path-5-inside-4_2204_11139" fill="white">
<path d="M26.9227 3.96623C27.3063 3.95462 27.6895 3.99963 28.06 4.09981L27.9746 4.41551C27.6352 4.32372 27.2841 4.28248 26.9326 4.29312L26.9227 3.96623Z"/>
</mask>
<path d="M26.9227 3.96623C27.3063 3.95462 27.6895 3.99963 28.06 4.09981L27.9746 4.41551C27.6352 4.32372 27.2841 4.28248 26.9326 4.29312L26.9227 3.96623Z" stroke="white" stroke-width="2" mask="url(#path-5-inside-4_2204_11139)"/>
<mask id="path-6-inside-5_2204_11139" fill="white">
<path d="M24.1975 5.19286C24.4606 4.9134 24.7634 4.67425 25.0962 4.48312L25.259 4.76672C24.9541 4.94184 24.6767 5.16096 24.4357 5.41701L24.1975 5.19286Z"/>
</mask>
<path d="M24.1975 5.19286C24.4606 4.9134 24.7634 4.67425 25.0962 4.48312L25.259 4.76672C24.9541 4.94184 24.6767 5.16096 24.4357 5.41701L24.1975 5.19286Z" stroke="white" stroke-width="2" mask="url(#path-6-inside-5_2204_11139)"/>
<mask id="path-7-inside-6_2204_11139" fill="white">
<path d="M24.0836 10.419C23.833 10.1284 23.6266 9.80237 23.4711 9.45152L23.7701 9.31898C23.9126 9.64045 24.1017 9.93916 24.3313 10.2055L24.0836 10.419Z"/>
</mask>
<path d="M24.0836 10.419C23.833 10.1284 23.6266 9.80237 23.4711 9.45152L23.7701 9.31898C23.9126 9.64045 24.1017 9.93916 24.3313 10.2055L24.0836 10.419Z" stroke="white" stroke-width="2" mask="url(#path-7-inside-6_2204_11139)"/>
<mask id="path-8-inside-7_2204_11139" fill="white">
<path d="M23.4083 9.30148C23.3614 9.18266 23.3204 9.06161 23.2855 8.93877L23.6 8.84918C23.632 8.96174 23.6696 9.07265 23.7125 9.18152L23.4083 9.30148Z"/>
</mask>
<path d="M23.4083 9.30148C23.3614 9.18266 23.3204 9.06161 23.2855 8.93877L23.6 8.84918C23.632 8.96174 23.6696 9.07265 23.7125 9.18152L23.4083 9.30148Z" stroke="white" stroke-width="2" mask="url(#path-8-inside-7_2204_11139)"/>
<mask id="path-9-inside-8_2204_11139" fill="white">
<path d="M26.3986 4.01761C26.5228 3.99691 26.6478 3.98223 26.7734 3.97361L26.7958 4.29988C26.6807 4.30777 26.5661 4.32123 26.4524 4.34019L26.3986 4.01761Z"/>
</mask>
<path d="M26.3986 4.01761C26.5228 3.99691 26.6478 3.98223 26.7734 3.97361L26.7958 4.29988C26.6807 4.30777 26.5661 4.32123 26.4524 4.34019L26.3986 4.01761Z" stroke="white" stroke-width="2" mask="url(#path-9-inside-8_2204_11139)"/>
<circle cx="3.61546" cy="3.61546" r="3.11546" transform="matrix(0.728167 0.685399 0.685399 -0.728167 7.84961 8.6709)" stroke="white"/>
<mask id="path-11-inside-9_2204_11139" fill="white">
<path d="M15.3365 11.6145C14.5747 12.1988 13.6243 12.4819 12.667 12.4098C11.7096 12.3377 10.8124 11.9154 10.1467 11.2237L10.3824 10.9969C10.9923 11.6307 11.8144 12.0176 12.6916 12.0837C13.5687 12.1497 14.4395 11.8903 15.1375 11.355L15.3365 11.6145Z"/>
</mask>
<path d="M15.3365 11.6145C14.5747 12.1988 13.6243 12.4819 12.667 12.4098C11.7096 12.3377 10.8124 11.9154 10.1467 11.2237L10.3824 10.9969C10.9923 11.6307 11.8144 12.0176 12.6916 12.0837C13.5687 12.1497 14.4395 11.8903 15.1375 11.355L15.3365 11.6145Z" stroke="white" stroke-width="2" mask="url(#path-11-inside-9_2204_11139)"/>
<mask id="path-12-inside-10_2204_11139" fill="white">
<path d="M15.4603 5.51676C16.0687 6.0239 16.5085 6.70408 16.7213 7.46701C16.9342 8.22995 16.9099 9.03957 16.6518 9.7884L16.3426 9.68184C16.5791 8.99572 16.6013 8.25392 16.4063 7.55488C16.2113 6.85584 15.8084 6.23263 15.2509 5.76797L15.4603 5.51676Z"/>
</mask>
<path d="M15.4603 5.51676C16.0687 6.0239 16.5085 6.70408 16.7213 7.46701C16.9342 8.22995 16.9099 9.03957 16.6518 9.7884L16.3426 9.68184C16.5791 8.99572 16.6013 8.25392 16.4063 7.55488C16.2113 6.85584 15.8084 6.23263 15.2509 5.76797L15.4603 5.51676Z" stroke="white" stroke-width="2" mask="url(#path-12-inside-10_2204_11139)"/>
<mask id="path-13-inside-11_2204_11139" fill="white">
<path d="M14.2748 4.83934C14.6361 4.96854 14.9765 5.15031 15.2849 5.37879L15.0902 5.64156C14.8076 5.43222 14.4958 5.26567 14.1647 5.14729L14.2748 4.83934Z"/>
</mask>
<path d="M14.2748 4.83934C14.6361 4.96854 14.9765 5.15031 15.2849 5.37879L15.0902 5.64156C14.8076 5.43222 14.4958 5.26567 14.1647 5.14729L14.2748 4.83934Z" stroke="white" stroke-width="2" mask="url(#path-13-inside-11_2204_11139)"/>
<mask id="path-14-inside-12_2204_11139" fill="white">
<path d="M12.8421 4.6132C13.2257 4.60159 13.609 4.64661 13.9794 4.74678L13.8941 5.06248C13.5546 4.9707 13.2035 4.92945 12.852 4.94009L12.8421 4.6132Z"/>
</mask>
<path d="M12.8421 4.6132C13.2257 4.60159 13.609 4.64661 13.9794 4.74678L13.8941 5.06248C13.5546 4.9707 13.2035 4.92945 12.852 4.94009L12.8421 4.6132Z" stroke="white" stroke-width="2" mask="url(#path-14-inside-12_2204_11139)"/>
<mask id="path-15-inside-13_2204_11139" fill="white">
<path d="M10.1169 5.83983C10.38 5.56038 10.6828 5.32122 11.0156 5.13009L11.1785 5.41369C10.8735 5.58881 10.5961 5.80793 10.3551 6.06399L10.1169 5.83983Z"/>
</mask>
<path d="M10.1169 5.83983C10.38 5.56038 10.6828 5.32122 11.0156 5.13009L11.1785 5.41369C10.8735 5.58881 10.5961 5.80793 10.3551 6.06399L10.1169 5.83983Z" stroke="white" stroke-width="2" mask="url(#path-15-inside-13_2204_11139)"/>
<mask id="path-16-inside-14_2204_11139" fill="white">
<path d="M10.0031 11.066C9.75246 10.7754 9.54605 10.4493 9.39053 10.0985L9.68951 9.96596C9.83201 10.2874 10.0211 10.5861 10.2508 10.8524L10.0031 11.066Z"/>
</mask>
<path d="M10.0031 11.066C9.75246 10.7754 9.54605 10.4493 9.39053 10.0985L9.68951 9.96596C9.83201 10.2874 10.0211 10.5861 10.2508 10.8524L10.0031 11.066Z" stroke="white" stroke-width="2" mask="url(#path-16-inside-14_2204_11139)"/>
<mask id="path-17-inside-15_2204_11139" fill="white">
<path d="M9.32772 9.94845C9.28087 9.82963 9.23988 9.70858 9.20489 9.58574L9.51942 9.49616C9.55147 9.60871 9.58904 9.71962 9.63196 9.82849L9.32772 9.94845Z"/>
</mask>
<path d="M9.32772 9.94845C9.28087 9.82963 9.23988 9.70858 9.20489 9.58574L9.51942 9.49616C9.55147 9.60871 9.58904 9.71962 9.63196 9.82849L9.32772 9.94845Z" stroke="white" stroke-width="2" mask="url(#path-17-inside-15_2204_11139)"/>
<mask id="path-18-inside-16_2204_11139" fill="white">
<path d="M12.318 4.66458C12.4422 4.64388 12.5673 4.6292 12.6928 4.62058L12.7152 4.94685C12.6002 4.95475 12.4856 4.9682 12.3718 4.98717L12.318 4.66458Z"/>
</mask>
<path d="M12.318 4.66458C12.4422 4.64388 12.5673 4.6292 12.6928 4.62058L12.7152 4.94685C12.6002 4.95475 12.4856 4.9682 12.3718 4.98717L12.318 4.66458Z" stroke="white" stroke-width="2" mask="url(#path-18-inside-16_2204_11139)"/>
<circle cx="2.41031" cy="2.41031" r="1.91031" transform="matrix(0.728167 0.685399 0.685399 -0.728167 1.58032 4.50488)" stroke="white"/>
<mask id="path-20-inside-17_2204_11139" fill="white">
<path d="M6.5715 6.46744C6.06363 6.85695 5.43006 7.0457 4.79183 6.99763C4.1536 6.94957 3.55545 6.66806 3.11164 6.20688L3.26874 6.0557C3.67537 6.47825 4.22343 6.73618 4.8082 6.78022C5.39298 6.82426 5.97348 6.65132 6.43881 6.29444L6.5715 6.46744Z"/>
</mask>
<path d="M6.5715 6.46744C6.06363 6.85695 5.43006 7.0457 4.79183 6.99763C4.1536 6.94957 3.55545 6.66806 3.11164 6.20688L3.26874 6.0557C3.67537 6.47825 4.22343 6.73618 4.8082 6.78022C5.39298 6.82426 5.97348 6.65132 6.43881 6.29444L6.5715 6.46744Z" stroke="white" stroke-width="2" mask="url(#path-20-inside-17_2204_11139)"/>
<mask id="path-21-inside-18_2204_11139" fill="white">
<path d="M6.65405 2.40228C7.05966 2.74038 7.35286 3.19383 7.49473 3.70246C7.6366 4.21108 7.62044 4.75082 7.44838 5.25005L7.24226 5.17901C7.3999 4.7216 7.41471 4.22706 7.28472 3.76103C7.15473 3.29501 6.88609 2.87954 6.51446 2.56976L6.65405 2.40228Z"/>
</mask>
<path d="M6.65405 2.40228C7.05966 2.74038 7.35286 3.19383 7.49473 3.70246C7.6366 4.21108 7.62044 4.75082 7.44838 5.25005L7.24226 5.17901C7.3999 4.7216 7.41471 4.22706 7.28472 3.76103C7.15473 3.29501 6.88609 2.87954 6.51446 2.56976L6.65405 2.40228Z" stroke="white" stroke-width="2" mask="url(#path-21-inside-18_2204_11139)"/>
<mask id="path-22-inside-19_2204_11139" fill="white">
<path d="M5.86367 1.95067C6.10459 2.03681 6.3315 2.15799 6.53707 2.31031L6.40727 2.48549C6.21891 2.34592 6.01101 2.23489 5.79027 2.15597L5.86367 1.95067Z"/>
</mask>
<path d="M5.86367 1.95067C6.10459 2.03681 6.3315 2.15799 6.53707 2.31031L6.40727 2.48549C6.21891 2.34592 6.01101 2.23489 5.79027 2.15597L5.86367 1.95067Z" stroke="white" stroke-width="2" mask="url(#path-22-inside-19_2204_11139)"/>
<mask id="path-23-inside-20_2204_11139" fill="white">
<path d="M4.90859 1.79991C5.16433 1.79218 5.41981 1.82218 5.6668 1.88897L5.60989 2.09943C5.38359 2.03824 5.14951 2.01075 4.91519 2.01784L4.90859 1.79991Z"/>
</mask>
<path d="M4.90859 1.79991C5.16433 1.79218 5.41981 1.82218 5.6668 1.88897L5.60989 2.09943C5.38359 2.03824 5.14951 2.01075 4.91519 2.01784L4.90859 1.79991Z" stroke="white" stroke-width="2" mask="url(#path-23-inside-20_2204_11139)"/>
<mask id="path-24-inside-21_2204_11139" fill="white">
<path d="M3.0918 2.61767C3.26716 2.43136 3.46904 2.27193 3.6909 2.14451L3.79948 2.33357C3.5962 2.45032 3.41124 2.5964 3.25056 2.7671L3.0918 2.61767Z"/>
</mask>
<path d="M3.0918 2.61767C3.26716 2.43136 3.46904 2.27193 3.6909 2.14451L3.79948 2.33357C3.5962 2.45032 3.41124 2.5964 3.25056 2.7671L3.0918 2.61767Z" stroke="white" stroke-width="2" mask="url(#path-24-inside-21_2204_11139)"/>
<mask id="path-25-inside-22_2204_11139" fill="white">
<path d="M3.01589 6.10178C2.84881 5.90802 2.7112 5.69068 2.60752 5.45677L2.80684 5.36842C2.90184 5.58273 3.02792 5.78187 3.18101 5.95941L3.01589 6.10178Z"/>
</mask>
<path d="M3.01589 6.10178C2.84881 5.90802 2.7112 5.69068 2.60752 5.45677L2.80684 5.36842C2.90184 5.58273 3.02792 5.78187 3.18101 5.95941L3.01589 6.10178Z" stroke="white" stroke-width="2" mask="url(#path-25-inside-22_2204_11139)"/>
<mask id="path-26-inside-23_2204_11139" fill="white">
<path d="M2.56565 5.35675C2.53442 5.27754 2.50709 5.19684 2.48376 5.11494L2.69345 5.05522C2.71482 5.13025 2.73986 5.20419 2.76848 5.27677L2.56565 5.35675Z"/>
</mask>
<path d="M2.56565 5.35675C2.53442 5.27754 2.50709 5.19684 2.48376 5.11494L2.69345 5.05522C2.71482 5.13025 2.73986 5.20419 2.76848 5.27677L2.56565 5.35675Z" stroke="white" stroke-width="2" mask="url(#path-26-inside-23_2204_11139)"/>
<mask id="path-27-inside-24_2204_11139" fill="white">
<path d="M4.5592 1.83417C4.64197 1.82037 4.72535 1.81058 4.80906 1.80483L4.82399 2.02235C4.74729 2.02761 4.67089 2.03658 4.59506 2.04922L4.5592 1.83417Z"/>
</mask>
<path d="M4.5592 1.83417C4.64197 1.82037 4.72535 1.81058 4.80906 1.80483L4.82399 2.02235C4.74729 2.02761 4.67089 2.03658 4.59506 2.04922L4.5592 1.83417Z" stroke="white" stroke-width="2" mask="url(#path-27-inside-24_2204_11139)"/>
<circle cx="2.41031" cy="2.41031" r="1.91031" transform="matrix(0.728167 0.685399 0.685399 -0.728167 1.85278 13.3662)" stroke="white"/>
<mask id="path-29-inside-25_2204_11139" fill="white">
<path d="M6.84396 15.3288C6.33609 15.7183 5.70252 15.907 5.06429 15.859C4.42606 15.8109 3.82791 15.5294 3.3841 15.0682L3.5412 14.917C3.94784 15.3396 4.49589 15.5975 5.08066 15.6416C5.66544 15.6856 6.24594 15.5126 6.71127 15.1558L6.84396 15.3288Z"/>
</mask>
<path d="M6.84396 15.3288C6.33609 15.7183 5.70252 15.907 5.06429 15.859C4.42606 15.8109 3.82791 15.5294 3.3841 15.0682L3.5412 14.917C3.94784 15.3396 4.49589 15.5975 5.08066 15.6416C5.66544 15.6856 6.24594 15.5126 6.71127 15.1558L6.84396 15.3288Z" stroke="white" stroke-width="2" mask="url(#path-29-inside-25_2204_11139)"/>
<mask id="path-30-inside-26_2204_11139" fill="white">
<path d="M6.92651 11.2636C7.33212 11.6017 7.62532 12.0552 7.76719 12.5638C7.90906 13.0724 7.8929 13.6122 7.72085 14.1114L7.51472 14.0403C7.67236 13.5829 7.68717 13.0884 7.55718 12.6224C7.42719 12.1563 7.15855 11.7409 6.78692 11.4311L6.92651 11.2636Z"/>
</mask>
<path d="M6.92651 11.2636C7.33212 11.6017 7.62532 12.0552 7.76719 12.5638C7.90906 13.0724 7.8929 13.6122 7.72085 14.1114L7.51472 14.0403C7.67236 13.5829 7.68717 13.0884 7.55718 12.6224C7.42719 12.1563 7.15855 11.7409 6.78692 11.4311L6.92651 11.2636Z" stroke="white" stroke-width="2" mask="url(#path-30-inside-26_2204_11139)"/>
<mask id="path-31-inside-27_2204_11139" fill="white">
<path d="M6.13613 10.812C6.37705 10.8981 6.60396 11.0193 6.80953 11.1716L6.67973 11.3468C6.49138 11.2073 6.28347 11.0962 6.06273 11.0173L6.13613 10.812Z"/>
</mask>
<path d="M6.13613 10.812C6.37705 10.8981 6.60396 11.0193 6.80953 11.1716L6.67973 11.3468C6.49138 11.2073 6.28347 11.0962 6.06273 11.0173L6.13613 10.812Z" stroke="white" stroke-width="2" mask="url(#path-31-inside-27_2204_11139)"/>
<mask id="path-32-inside-28_2204_11139" fill="white">
<path d="M5.18105 10.6612C5.43679 10.6535 5.69227 10.6835 5.93926 10.7503L5.88235 10.9608C5.65605 10.8996 5.42197 10.8721 5.18765 10.8792L5.18105 10.6612Z"/>
</mask>
<path d="M5.18105 10.6612C5.43679 10.6535 5.69227 10.6835 5.93926 10.7503L5.88235 10.9608C5.65605 10.8996 5.42197 10.8721 5.18765 10.8792L5.18105 10.6612Z" stroke="white" stroke-width="2" mask="url(#path-32-inside-28_2204_11139)"/>
<mask id="path-33-inside-29_2204_11139" fill="white">
<path d="M3.36426 11.479C3.53963 11.2927 3.7415 11.1333 3.96336 11.0058L4.07195 11.1949C3.86866 11.3116 3.6837 11.4577 3.52302 11.6284L3.36426 11.479Z"/>
</mask>
<path d="M3.36426 11.479C3.53963 11.2927 3.7415 11.1333 3.96336 11.0058L4.07195 11.1949C3.86866 11.3116 3.6837 11.4577 3.52302 11.6284L3.36426 11.479Z" stroke="white" stroke-width="2" mask="url(#path-33-inside-29_2204_11139)"/>
<mask id="path-34-inside-30_2204_11139" fill="white">
<path d="M3.28835 14.9631C3.12127 14.7693 2.98367 14.552 2.87998 14.3181L3.0793 14.2297C3.1743 14.4441 3.30038 14.6432 3.45347 14.8207L3.28835 14.9631Z"/>
</mask>
<path d="M3.28835 14.9631C3.12127 14.7693 2.98367 14.552 2.87998 14.3181L3.0793 14.2297C3.1743 14.4441 3.30038 14.6432 3.45347 14.8207L3.28835 14.9631Z" stroke="white" stroke-width="2" mask="url(#path-34-inside-30_2204_11139)"/>
<mask id="path-35-inside-31_2204_11139" fill="white">
<path d="M2.83811 14.2181C2.80688 14.1389 2.77955 14.0582 2.75622 13.9763L2.96591 13.9165C2.98728 13.9916 3.01232 14.0655 3.04094 14.1381L2.83811 14.2181Z"/>
</mask>
<path d="M2.83811 14.2181C2.80688 14.1389 2.77955 14.0582 2.75622 13.9763L2.96591 13.9165C2.98728 13.9916 3.01232 14.0655 3.04094 14.1381L2.83811 14.2181Z" stroke="white" stroke-width="2" mask="url(#path-35-inside-31_2204_11139)"/>
<mask id="path-36-inside-32_2204_11139" fill="white">
<path d="M4.83166 10.6955C4.91443 10.6817 4.99781 10.6719 5.08152 10.6662L5.09645 10.8837C5.01975 10.8889 4.94335 10.8979 4.86752 10.9106L4.83166 10.6955Z"/>
</mask>
<path d="M4.83166 10.6955C4.91443 10.6817 4.99781 10.6719 5.08152 10.6662L5.09645 10.8837C5.01975 10.8889 4.94335 10.8979 4.86752 10.9106L4.83166 10.6955Z" stroke="white" stroke-width="2" mask="url(#path-36-inside-32_2204_11139)"/>
<line y1="-0.5" x2="6.26917" y2="-0.5" transform="matrix(0.728502 0.685044 0.685044 -0.728502 20.1499 1.21143)" stroke="white"/>
<line y1="-0.5" x2="6.76814" y2="-0.5" transform="matrix(0.999607 0.0280181 0.0280181 -0.999607 16.8379 7.88965)" stroke="white"/>
<line y1="-0.5" x2="3.75429" y2="-0.5" transform="matrix(0.816182 0.577795 0.577795 -0.816182 7.02271 5.01025)" stroke="white"/>
<line y1="-0.5" x2="3.03575" y2="-0.5" transform="matrix(0.871572 -0.490268 -0.490268 -0.871572 7.35352 11.7905)" stroke="white"/>
<circle cx="2.41031" cy="2.41031" r="1.91031" transform="matrix(0.728167 0.685399 0.685399 -0.728167 10.6123 16.7368)" stroke="white"/>
<mask id="path-42-inside-33_2204_11139" fill="white">
<path d="M15.6035 18.6994C15.0956 19.0889 14.462 19.2776 13.8238 19.2296C13.1856 19.1815 12.5874 18.9 12.1436 18.4388L12.3007 18.2876C12.7074 18.7102 13.2554 18.9681 13.8402 19.0122C14.425 19.0562 15.0055 18.8833 15.4708 18.5264L15.6035 18.6994Z"/>
</mask>
<path d="M15.6035 18.6994C15.0956 19.0889 14.462 19.2776 13.8238 19.2296C13.1856 19.1815 12.5874 18.9 12.1436 18.4388L12.3007 18.2876C12.7074 18.7102 13.2554 18.9681 13.8402 19.0122C14.425 19.0562 15.0055 18.8833 15.4708 18.5264L15.6035 18.6994Z" stroke="white" stroke-width="2" mask="url(#path-42-inside-33_2204_11139)"/>
<mask id="path-43-inside-34_2204_11139" fill="white">
<path d="M15.686 14.6342C16.0916 14.9723 16.3848 15.4258 16.5267 15.9344C16.6686 16.443 16.6524 16.9828 16.4804 17.482L16.2742 17.4109C16.4319 16.9535 16.4467 16.459 16.3167 15.993C16.1867 15.5269 15.9181 15.1115 15.5464 14.8017L15.686 14.6342Z"/>
</mask>
<path d="M15.686 14.6342C16.0916 14.9723 16.3848 15.4258 16.5267 15.9344C16.6686 16.443 16.6524 16.9828 16.4804 17.482L16.2742 17.4109C16.4319 16.9535 16.4467 16.459 16.3167 15.993C16.1867 15.5269 15.9181 15.1115 15.5464 14.8017L15.686 14.6342Z" stroke="white" stroke-width="2" mask="url(#path-43-inside-34_2204_11139)"/>
<mask id="path-44-inside-35_2204_11139" fill="white">
<path d="M14.8957 14.1826C15.1366 14.2687 15.3635 14.3899 15.5691 14.5422L15.4393 14.7174C15.2509 14.5779 15.043 14.4668 14.8223 14.3879L14.8957 14.1826Z"/>
</mask>
<path d="M14.8957 14.1826C15.1366 14.2687 15.3635 14.3899 15.5691 14.5422L15.4393 14.7174C15.2509 14.5779 15.043 14.4668 14.8223 14.3879L14.8957 14.1826Z" stroke="white" stroke-width="2" mask="url(#path-44-inside-35_2204_11139)"/>
<mask id="path-45-inside-36_2204_11139" fill="white">
<path d="M13.9406 14.0318C14.1963 14.0241 14.4518 14.0541 14.6988 14.1209L14.6419 14.3314C14.4156 14.2702 14.1815 14.2427 13.9472 14.2498L13.9406 14.0318Z"/>
</mask>
<path d="M13.9406 14.0318C14.1963 14.0241 14.4518 14.0541 14.6988 14.1209L14.6419 14.3314C14.4156 14.2702 14.1815 14.2427 13.9472 14.2498L13.9406 14.0318Z" stroke="white" stroke-width="2" mask="url(#path-45-inside-36_2204_11139)"/>
<mask id="path-46-inside-37_2204_11139" fill="white">
<path d="M12.1238 14.8496C12.2991 14.6633 12.501 14.5039 12.7229 14.3764L12.8315 14.5655C12.6282 14.6823 12.4432 14.8283 12.2825 14.999L12.1238 14.8496Z"/>
</mask>
<path d="M12.1238 14.8496C12.2991 14.6633 12.501 14.5039 12.7229 14.3764L12.8315 14.5655C12.6282 14.6823 12.4432 14.8283 12.2825 14.999L12.1238 14.8496Z" stroke="white" stroke-width="2" mask="url(#path-46-inside-37_2204_11139)"/>
<mask id="path-47-inside-38_2204_11139" fill="white">
<path d="M12.0479 18.3337C11.8808 18.14 11.7432 17.9226 11.6395 17.6887L11.8388 17.6004C11.9338 17.8147 12.0599 18.0138 12.213 18.1913L12.0479 18.3337Z"/>
</mask>
<path d="M12.0479 18.3337C11.8808 18.14 11.7432 17.9226 11.6395 17.6887L11.8388 17.6004C11.9338 17.8147 12.0599 18.0138 12.213 18.1913L12.0479 18.3337Z" stroke="white" stroke-width="2" mask="url(#path-47-inside-38_2204_11139)"/>
<mask id="path-48-inside-39_2204_11139" fill="white">
<path d="M11.5976 17.5887C11.5664 17.5095 11.5391 17.4288 11.5157 17.3469L11.7254 17.2872C11.7468 17.3622 11.7718 17.4361 11.8005 17.5087L11.5976 17.5887Z"/>
</mask>
<path d="M11.5976 17.5887C11.5664 17.5095 11.5391 17.4288 11.5157 17.3469L11.7254 17.2872C11.7468 17.3622 11.7718 17.4361 11.8005 17.5087L11.5976 17.5887Z" stroke="white" stroke-width="2" mask="url(#path-48-inside-39_2204_11139)"/>
<mask id="path-49-inside-40_2204_11139" fill="white">
<path d="M13.5912 14.0661C13.6739 14.0523 13.7573 14.0425 13.841 14.0368L13.856 14.2543C13.7793 14.2595 13.7029 14.2685 13.627 14.2812L13.5912 14.0661Z"/>
</mask>
<path d="M13.5912 14.0661C13.6739 14.0523 13.7573 14.0425 13.841 14.0368L13.856 14.2543C13.7793 14.2595 13.7029 14.2685 13.627 14.2812L13.5912 14.0661Z" stroke="white" stroke-width="2" mask="url(#path-49-inside-40_2204_11139)"/>
<line y1="-0.5" x2="2.65468" y2="-0.5" transform="matrix(-0.168565 -0.985691 -0.985691 0.168565 13.5256 14.5674)" stroke="white"/>
</svg>
