<svg width="33" height="21" viewBox="0 0 33 21" fill="none" xmlns="http://www.w3.org/2000/svg">
<circle cx="3.61546" cy="3.61546" r="3.11546" transform="matrix(0.728167 0.685399 0.685399 -0.728167 21.9302 8.02344)" stroke="white"/>
<mask id="path-2-inside-1_2204_10868" fill="white">
<path d="M29.4171 10.9673C28.6553 11.5515 27.7049 11.8347 26.7476 11.7626C25.7902 11.6905 24.893 11.2682 24.2273 10.5764L24.4629 10.3497C25.0729 10.9835 25.895 11.3704 26.7721 11.4364C27.6493 11.5025 28.52 11.2431 29.218 10.7078L29.4171 10.9673Z"/>
</mask>
<path d="M29.4171 10.9673C28.6553 11.5515 27.7049 11.8347 26.7476 11.7626C25.7902 11.6905 24.893 11.2682 24.2273 10.5764L24.4629 10.3497C25.0729 10.9835 25.895 11.3704 26.7721 11.4364C27.6493 11.5025 28.52 11.2431 29.218 10.7078L29.4171 10.9673Z" stroke="white" stroke-width="2" mask="url(#path-2-inside-1_2204_10868)"/>
<mask id="path-3-inside-2_2204_10868" fill="white">
<path d="M29.5409 4.86954C30.1493 5.37668 30.5891 6.05686 30.8019 6.8198C31.0147 7.58273 30.9905 8.39235 30.7324 9.14118L30.4232 9.03462C30.6597 8.34851 30.6819 7.6067 30.4869 6.90766C30.2919 6.20863 29.889 5.58542 29.3315 5.12075L29.5409 4.86954Z"/>
</mask>
<path d="M29.5409 4.86954C30.1493 5.37668 30.5891 6.05686 30.8019 6.8198C31.0147 7.58273 30.9905 8.39235 30.7324 9.14118L30.4232 9.03462C30.6597 8.34851 30.6819 7.6067 30.4869 6.90766C30.2919 6.20863 29.889 5.58542 29.3315 5.12075L29.5409 4.86954Z" stroke="white" stroke-width="2" mask="url(#path-3-inside-2_2204_10868)"/>
<mask id="path-4-inside-3_2204_10868" fill="white">
<path d="M28.3553 4.19212C28.7167 4.32132 29.0571 4.5031 29.3654 4.73158L29.1707 4.99434C28.8882 4.785 28.5763 4.61845 28.2452 4.50007L28.3553 4.19212Z"/>
</mask>
<path d="M28.3553 4.19212C28.7167 4.32132 29.0571 4.5031 29.3654 4.73158L29.1707 4.99434C28.8882 4.785 28.5763 4.61845 28.2452 4.50007L28.3553 4.19212Z" stroke="white" stroke-width="2" mask="url(#path-4-inside-3_2204_10868)"/>
<mask id="path-5-inside-4_2204_10868" fill="white">
<path d="M26.9227 3.96598C27.3063 3.95438 27.6895 3.99939 28.06 4.09957L27.9746 4.41527C27.6352 4.32348 27.2841 4.28224 26.9326 4.29287L26.9227 3.96598Z"/>
</mask>
<path d="M26.9227 3.96598C27.3063 3.95438 27.6895 3.99939 28.06 4.09957L27.9746 4.41527C27.6352 4.32348 27.2841 4.28224 26.9326 4.29287L26.9227 3.96598Z" stroke="white" stroke-width="2" mask="url(#path-5-inside-4_2204_10868)"/>
<mask id="path-6-inside-5_2204_10868" fill="white">
<path d="M24.1975 5.19262C24.4606 4.91316 24.7634 4.67401 25.0962 4.48288L25.259 4.76647C24.9541 4.9416 24.6767 5.16072 24.4357 5.41677L24.1975 5.19262Z"/>
</mask>
<path d="M24.1975 5.19262C24.4606 4.91316 24.7634 4.67401 25.0962 4.48288L25.259 4.76647C24.9541 4.9416 24.6767 5.16072 24.4357 5.41677L24.1975 5.19262Z" stroke="white" stroke-width="2" mask="url(#path-6-inside-5_2204_10868)"/>
<mask id="path-7-inside-6_2204_10868" fill="white">
<path d="M24.0836 10.4188C23.833 10.1281 23.6266 9.80213 23.4711 9.45127L23.7701 9.31874C23.9126 9.64021 24.1017 9.93892 24.3313 10.2052L24.0836 10.4188Z"/>
</mask>
<path d="M24.0836 10.4188C23.833 10.1281 23.6266 9.80213 23.4711 9.45127L23.7701 9.31874C23.9126 9.64021 24.1017 9.93892 24.3313 10.2052L24.0836 10.4188Z" stroke="white" stroke-width="2" mask="url(#path-7-inside-6_2204_10868)"/>
<mask id="path-8-inside-7_2204_10868" fill="white">
<path d="M23.4083 9.30124C23.3614 9.18242 23.3204 9.06137 23.2855 8.93853L23.6 8.84894C23.632 8.96149 23.6696 9.0724 23.7125 9.18127L23.4083 9.30124Z"/>
</mask>
<path d="M23.4083 9.30124C23.3614 9.18242 23.3204 9.06137 23.2855 8.93853L23.6 8.84894C23.632 8.96149 23.6696 9.0724 23.7125 9.18127L23.4083 9.30124Z" stroke="white" stroke-width="2" mask="url(#path-8-inside-7_2204_10868)"/>
<mask id="path-9-inside-8_2204_10868" fill="white">
<path d="M26.3986 4.01737C26.5228 3.99667 26.6478 3.98198 26.7734 3.97336L26.7958 4.29963C26.6807 4.30753 26.5661 4.32099 26.4524 4.33995L26.3986 4.01737Z"/>
</mask>
<path d="M26.3986 4.01737C26.5228 3.99667 26.6478 3.98198 26.7734 3.97336L26.7958 4.29963C26.6807 4.30753 26.5661 4.32099 26.4524 4.33995L26.3986 4.01737Z" stroke="white" stroke-width="2" mask="url(#path-9-inside-8_2204_10868)"/>
<circle cx="3.61546" cy="3.61546" r="3.11546" transform="matrix(0.728167 0.685399 0.685399 -0.728167 7.84961 8.67041)" stroke="white"/>
<mask id="path-11-inside-9_2204_10868" fill="white">
<path d="M15.3365 11.6142C14.5747 12.1985 13.6243 12.4816 12.667 12.4095C11.7096 12.3374 10.8124 11.9152 10.1467 11.2234L10.3824 10.9966C10.9923 11.6305 11.8144 12.0174 12.6916 12.0834C13.5687 12.1495 14.4395 11.8901 15.1375 11.3547L15.3365 11.6142Z"/>
</mask>
<path d="M15.3365 11.6142C14.5747 12.1985 13.6243 12.4816 12.667 12.4095C11.7096 12.3374 10.8124 11.9152 10.1467 11.2234L10.3824 10.9966C10.9923 11.6305 11.8144 12.0174 12.6916 12.0834C13.5687 12.1495 14.4395 11.8901 15.1375 11.3547L15.3365 11.6142Z" stroke="white" stroke-width="2" mask="url(#path-11-inside-9_2204_10868)"/>
<mask id="path-12-inside-10_2204_10868" fill="white">
<path d="M15.4603 5.51651C16.0687 6.02365 16.5085 6.70383 16.7213 7.46677C16.9342 8.22971 16.9099 9.03932 16.6518 9.78816L16.3426 9.6816C16.5791 8.99548 16.6013 8.25367 16.4063 7.55464C16.2113 6.8556 15.8084 6.23239 15.2509 5.76772L15.4603 5.51651Z"/>
</mask>
<path d="M15.4603 5.51651C16.0687 6.02365 16.5085 6.70383 16.7213 7.46677C16.9342 8.22971 16.9099 9.03932 16.6518 9.78816L16.3426 9.6816C16.5791 8.99548 16.6013 8.25367 16.4063 7.55464C16.2113 6.8556 15.8084 6.23239 15.2509 5.76772L15.4603 5.51651Z" stroke="white" stroke-width="2" mask="url(#path-12-inside-10_2204_10868)"/>
<mask id="path-13-inside-11_2204_10868" fill="white">
<path d="M14.2748 4.83909C14.6361 4.9683 14.9765 5.15007 15.2849 5.37855L15.0902 5.64132C14.8076 5.43197 14.4958 5.26542 14.1647 5.14704L14.2748 4.83909Z"/>
</mask>
<path d="M14.2748 4.83909C14.6361 4.9683 14.9765 5.15007 15.2849 5.37855L15.0902 5.64132C14.8076 5.43197 14.4958 5.26542 14.1647 5.14704L14.2748 4.83909Z" stroke="white" stroke-width="2" mask="url(#path-13-inside-11_2204_10868)"/>
<mask id="path-14-inside-12_2204_10868" fill="white">
<path d="M12.8421 4.61296C13.2257 4.60135 13.609 4.64636 13.9794 4.74654L13.8941 5.06224C13.5546 4.97045 13.2035 4.92921 12.852 4.93984L12.8421 4.61296Z"/>
</mask>
<path d="M12.8421 4.61296C13.2257 4.60135 13.609 4.64636 13.9794 4.74654L13.8941 5.06224C13.5546 4.97045 13.2035 4.92921 12.852 4.93984L12.8421 4.61296Z" stroke="white" stroke-width="2" mask="url(#path-14-inside-12_2204_10868)"/>
<mask id="path-15-inside-13_2204_10868" fill="white">
<path d="M10.1169 5.83959C10.38 5.56013 10.6828 5.32098 11.0156 5.12985L11.1785 5.41345C10.8735 5.58857 10.5961 5.80769 10.3551 6.06374L10.1169 5.83959Z"/>
</mask>
<path d="M10.1169 5.83959C10.38 5.56013 10.6828 5.32098 11.0156 5.12985L11.1785 5.41345C10.8735 5.58857 10.5961 5.80769 10.3551 6.06374L10.1169 5.83959Z" stroke="white" stroke-width="2" mask="url(#path-15-inside-13_2204_10868)"/>
<mask id="path-16-inside-14_2204_10868" fill="white">
<path d="M10.0031 11.0658C9.75246 10.7751 9.54605 10.4491 9.39053 10.0982L9.68951 9.96571C9.83201 10.2872 10.0211 10.5859 10.2508 10.8522L10.0031 11.0658Z"/>
</mask>
<path d="M10.0031 11.0658C9.75246 10.7751 9.54605 10.4491 9.39053 10.0982L9.68951 9.96571C9.83201 10.2872 10.0211 10.5859 10.2508 10.8522L10.0031 11.0658Z" stroke="white" stroke-width="2" mask="url(#path-16-inside-14_2204_10868)"/>
<mask id="path-17-inside-15_2204_10868" fill="white">
<path d="M9.32772 9.94821C9.28087 9.82939 9.23988 9.70834 9.20489 9.5855L9.51942 9.49591C9.55147 9.60846 9.58904 9.71937 9.63196 9.82824L9.32772 9.94821Z"/>
</mask>
<path d="M9.32772 9.94821C9.28087 9.82939 9.23988 9.70834 9.20489 9.5855L9.51942 9.49591C9.55147 9.60846 9.58904 9.71937 9.63196 9.82824L9.32772 9.94821Z" stroke="white" stroke-width="2" mask="url(#path-17-inside-15_2204_10868)"/>
<mask id="path-18-inside-16_2204_10868" fill="white">
<path d="M12.318 4.66434C12.4422 4.64364 12.5673 4.62895 12.6928 4.62034L12.7152 4.94661C12.6002 4.9545 12.4856 4.96796 12.3718 4.98692L12.318 4.66434Z"/>
</mask>
<path d="M12.318 4.66434C12.4422 4.64364 12.5673 4.62895 12.6928 4.62034L12.7152 4.94661C12.6002 4.9545 12.4856 4.96796 12.3718 4.98692L12.318 4.66434Z" stroke="white" stroke-width="2" mask="url(#path-18-inside-16_2204_10868)"/>
<circle cx="2.41031" cy="2.41031" r="1.91031" transform="matrix(0.728167 0.685399 0.685399 -0.728167 1.58032 4.50464)" stroke="white"/>
<mask id="path-20-inside-17_2204_10868" fill="white">
<path d="M6.5715 6.4672C6.06363 6.8567 5.43006 7.04545 4.79183 6.99739C4.1536 6.94932 3.55545 6.66782 3.11164 6.20664L3.26874 6.05546C3.67537 6.47801 4.22343 6.73594 4.8082 6.77998C5.39298 6.82402 5.97348 6.65108 6.43881 6.2942L6.5715 6.4672Z"/>
</mask>
<path d="M6.5715 6.4672C6.06363 6.8567 5.43006 7.04545 4.79183 6.99739C4.1536 6.94932 3.55545 6.66782 3.11164 6.20664L3.26874 6.05546C3.67537 6.47801 4.22343 6.73594 4.8082 6.77998C5.39298 6.82402 5.97348 6.65108 6.43881 6.2942L6.5715 6.4672Z" stroke="white" stroke-width="2" mask="url(#path-20-inside-17_2204_10868)"/>
<mask id="path-21-inside-18_2204_10868" fill="white">
<path d="M6.65405 2.40204C7.05966 2.74013 7.35286 3.19359 7.49473 3.70221C7.6366 4.21084 7.62044 4.75058 7.44838 5.2498L7.24226 5.17876C7.3999 4.72135 7.41471 4.22681 7.28472 3.76079C7.15473 3.29476 6.88609 2.87929 6.51446 2.56951L6.65405 2.40204Z"/>
</mask>
<path d="M6.65405 2.40204C7.05966 2.74013 7.35286 3.19359 7.49473 3.70221C7.6366 4.21084 7.62044 4.75058 7.44838 5.2498L7.24226 5.17876C7.3999 4.72135 7.41471 4.22681 7.28472 3.76079C7.15473 3.29476 6.88609 2.87929 6.51446 2.56951L6.65405 2.40204Z" stroke="white" stroke-width="2" mask="url(#path-21-inside-18_2204_10868)"/>
<mask id="path-22-inside-19_2204_10868" fill="white">
<path d="M5.86367 1.95043C6.10459 2.03656 6.3315 2.15774 6.53707 2.31007L6.40727 2.48524C6.21891 2.34568 6.01101 2.23465 5.79027 2.15573L5.86367 1.95043Z"/>
</mask>
<path d="M5.86367 1.95043C6.10459 2.03656 6.3315 2.15774 6.53707 2.31007L6.40727 2.48524C6.21891 2.34568 6.01101 2.23465 5.79027 2.15573L5.86367 1.95043Z" stroke="white" stroke-width="2" mask="url(#path-22-inside-19_2204_10868)"/>
<mask id="path-23-inside-20_2204_10868" fill="white">
<path d="M4.90859 1.79967C5.16433 1.79193 5.41981 1.82194 5.6668 1.88872L5.60989 2.09919C5.38359 2.038 5.14951 2.01051 4.91519 2.01759L4.90859 1.79967Z"/>
</mask>
<path d="M4.90859 1.79967C5.16433 1.79193 5.41981 1.82194 5.6668 1.88872L5.60989 2.09919C5.38359 2.038 5.14951 2.01051 4.91519 2.01759L4.90859 1.79967Z" stroke="white" stroke-width="2" mask="url(#path-23-inside-20_2204_10868)"/>
<mask id="path-24-inside-21_2204_10868" fill="white">
<path d="M3.0918 2.61743C3.26716 2.43112 3.46904 2.27169 3.6909 2.14426L3.79948 2.33333C3.5962 2.45008 3.41124 2.59616 3.25056 2.76686L3.0918 2.61743Z"/>
</mask>
<path d="M3.0918 2.61743C3.26716 2.43112 3.46904 2.27169 3.6909 2.14426L3.79948 2.33333C3.5962 2.45008 3.41124 2.59616 3.25056 2.76686L3.0918 2.61743Z" stroke="white" stroke-width="2" mask="url(#path-24-inside-21_2204_10868)"/>
<mask id="path-25-inside-22_2204_10868" fill="white">
<path d="M3.01589 6.10154C2.84881 5.90777 2.7112 5.69043 2.60752 5.45653L2.80684 5.36817C2.90184 5.58249 3.02792 5.78162 3.18101 5.95916L3.01589 6.10154Z"/>
</mask>
<path d="M3.01589 6.10154C2.84881 5.90777 2.7112 5.69043 2.60752 5.45653L2.80684 5.36817C2.90184 5.58249 3.02792 5.78162 3.18101 5.95916L3.01589 6.10154Z" stroke="white" stroke-width="2" mask="url(#path-25-inside-22_2204_10868)"/>
<mask id="path-26-inside-23_2204_10868" fill="white">
<path d="M2.56565 5.35651C2.53442 5.27729 2.50709 5.19659 2.48376 5.1147L2.69345 5.05497C2.71482 5.13001 2.73986 5.20395 2.76848 5.27653L2.56565 5.35651Z"/>
</mask>
<path d="M2.56565 5.35651C2.53442 5.27729 2.50709 5.19659 2.48376 5.1147L2.69345 5.05497C2.71482 5.13001 2.73986 5.20395 2.76848 5.27653L2.56565 5.35651Z" stroke="white" stroke-width="2" mask="url(#path-26-inside-23_2204_10868)"/>
<mask id="path-27-inside-24_2204_10868" fill="white">
<path d="M4.5592 1.83392C4.64197 1.82012 4.72535 1.81033 4.80906 1.80459L4.82399 2.0221C4.74729 2.02737 4.67089 2.03634 4.59506 2.04898L4.5592 1.83392Z"/>
</mask>
<path d="M4.5592 1.83392C4.64197 1.82012 4.72535 1.81033 4.80906 1.80459L4.82399 2.0221C4.74729 2.02737 4.67089 2.03634 4.59506 2.04898L4.5592 1.83392Z" stroke="white" stroke-width="2" mask="url(#path-27-inside-24_2204_10868)"/>
<circle cx="2.41031" cy="2.41031" r="1.91031" transform="matrix(0.728167 0.685399 0.685399 -0.728167 1.85278 13.3665)" stroke="white"/>
<mask id="path-29-inside-25_2204_10868" fill="white">
<path d="M6.84396 15.329C6.33609 15.7185 5.70252 15.9073 5.06429 15.8592C4.42606 15.8111 3.82791 15.5296 3.3841 15.0685L3.5412 14.9173C3.94784 15.3398 4.49589 15.5978 5.08066 15.6418C5.66544 15.6858 6.24594 15.5129 6.71127 15.156L6.84396 15.329Z"/>
</mask>
<path d="M6.84396 15.329C6.33609 15.7185 5.70252 15.9073 5.06429 15.8592C4.42606 15.8111 3.82791 15.5296 3.3841 15.0685L3.5412 14.9173C3.94784 15.3398 4.49589 15.5978 5.08066 15.6418C5.66544 15.6858 6.24594 15.5129 6.71127 15.156L6.84396 15.329Z" stroke="white" stroke-width="2" mask="url(#path-29-inside-25_2204_10868)"/>
<mask id="path-30-inside-26_2204_10868" fill="white">
<path d="M6.92651 11.2639C7.33212 11.602 7.62532 12.0554 7.76719 12.564C7.90906 13.0727 7.8929 13.6124 7.72085 14.1116L7.51472 14.0406C7.67236 13.5832 7.68717 13.0886 7.55718 12.6226C7.42719 12.1566 7.15855 11.7411 6.78692 11.4313L6.92651 11.2639Z"/>
</mask>
<path d="M6.92651 11.2639C7.33212 11.602 7.62532 12.0554 7.76719 12.564C7.90906 13.0727 7.8929 13.6124 7.72085 14.1116L7.51472 14.0406C7.67236 13.5832 7.68717 13.0886 7.55718 12.6226C7.42719 12.1566 7.15855 11.7411 6.78692 11.4313L6.92651 11.2639Z" stroke="white" stroke-width="2" mask="url(#path-30-inside-26_2204_10868)"/>
<mask id="path-31-inside-27_2204_10868" fill="white">
<path d="M6.13613 10.8122C6.37705 10.8984 6.60396 11.0196 6.80953 11.1719L6.67973 11.3471C6.49138 11.2075 6.28347 11.0965 6.06273 11.0175L6.13613 10.8122Z"/>
</mask>
<path d="M6.13613 10.8122C6.37705 10.8984 6.60396 11.0196 6.80953 11.1719L6.67973 11.3471C6.49138 11.2075 6.28347 11.0965 6.06273 11.0175L6.13613 10.8122Z" stroke="white" stroke-width="2" mask="url(#path-31-inside-27_2204_10868)"/>
<mask id="path-32-inside-28_2204_10868" fill="white">
<path d="M5.18105 10.6615C5.43679 10.6537 5.69227 10.6838 5.93926 10.7505L5.88235 10.961C5.65605 10.8998 5.42197 10.8723 5.18765 10.8794L5.18105 10.6615Z"/>
</mask>
<path d="M5.18105 10.6615C5.43679 10.6537 5.69227 10.6838 5.93926 10.7505L5.88235 10.961C5.65605 10.8998 5.42197 10.8723 5.18765 10.8794L5.18105 10.6615Z" stroke="white" stroke-width="2" mask="url(#path-32-inside-28_2204_10868)"/>
<mask id="path-33-inside-29_2204_10868" fill="white">
<path d="M3.36426 11.4792C3.53963 11.2929 3.7415 11.1335 3.96336 11.0061L4.07195 11.1951C3.86866 11.3119 3.6837 11.458 3.52302 11.6287L3.36426 11.4792Z"/>
</mask>
<path d="M3.36426 11.4792C3.53963 11.2929 3.7415 11.1335 3.96336 11.0061L4.07195 11.1951C3.86866 11.3119 3.6837 11.458 3.52302 11.6287L3.36426 11.4792Z" stroke="white" stroke-width="2" mask="url(#path-33-inside-29_2204_10868)"/>
<mask id="path-34-inside-30_2204_10868" fill="white">
<path d="M3.28835 14.9634C3.12127 14.7696 2.98367 14.5522 2.87998 14.3183L3.0793 14.23C3.1743 14.4443 3.30038 14.6434 3.45347 14.821L3.28835 14.9634Z"/>
</mask>
<path d="M3.28835 14.9634C3.12127 14.7696 2.98367 14.5522 2.87998 14.3183L3.0793 14.23C3.1743 14.4443 3.30038 14.6434 3.45347 14.821L3.28835 14.9634Z" stroke="white" stroke-width="2" mask="url(#path-34-inside-30_2204_10868)"/>
<mask id="path-35-inside-31_2204_10868" fill="white">
<path d="M2.83811 14.2183C2.80688 14.1391 2.77955 14.0584 2.75622 13.9765L2.96591 13.9168C2.98728 13.9918 3.01232 14.0658 3.04094 14.1383L2.83811 14.2183Z"/>
</mask>
<path d="M2.83811 14.2183C2.80688 14.1391 2.77955 14.0584 2.75622 13.9765L2.96591 13.9168C2.98728 13.9918 3.01232 14.0658 3.04094 14.1383L2.83811 14.2183Z" stroke="white" stroke-width="2" mask="url(#path-35-inside-31_2204_10868)"/>
<mask id="path-36-inside-32_2204_10868" fill="white">
<path d="M4.83166 10.6957C4.91443 10.6819 4.99781 10.6722 5.08152 10.6664L5.09645 10.8839C5.01975 10.8892 4.94335 10.8982 4.86752 10.9108L4.83166 10.6957Z"/>
</mask>
<path d="M4.83166 10.6957C4.91443 10.6819 4.99781 10.6722 5.08152 10.6664L5.09645 10.8839C5.01975 10.8892 4.94335 10.8982 4.86752 10.9108L4.83166 10.6957Z" stroke="white" stroke-width="2" mask="url(#path-36-inside-32_2204_10868)"/>
<line y1="-0.5" x2="6.26917" y2="-0.5" transform="matrix(0.728502 0.685044 0.685044 -0.728502 20.1499 1.21167)" stroke="white"/>
<line y1="-0.5" x2="6.76814" y2="-0.5" transform="matrix(0.999607 0.0280181 0.0280181 -0.999607 16.8379 7.88965)" stroke="white"/>
<line y1="-0.5" x2="3.75429" y2="-0.5" transform="matrix(0.816182 0.577795 0.577795 -0.816182 7.02271 5.01025)" stroke="white"/>
<line y1="-0.5" x2="3.03575" y2="-0.5" transform="matrix(0.871572 -0.490268 -0.490268 -0.871572 7.35352 11.7903)" stroke="white"/>
<circle cx="2.41031" cy="2.41031" r="1.91031" transform="matrix(0.728167 0.685399 0.685399 -0.728167 10.6123 16.7371)" stroke="white"/>
<mask id="path-42-inside-33_2204_10868" fill="white">
<path d="M15.6035 18.6996C15.0956 19.0891 14.462 19.2779 13.8238 19.2298C13.1856 19.1817 12.5874 18.9002 12.1436 18.4391L12.3007 18.2879C12.7074 18.7104 13.2554 18.9684 13.8402 19.0124C14.425 19.0564 15.0055 18.8835 15.4708 18.5266L15.6035 18.6996Z"/>
</mask>
<path d="M15.6035 18.6996C15.0956 19.0891 14.462 19.2779 13.8238 19.2298C13.1856 19.1817 12.5874 18.9002 12.1436 18.4391L12.3007 18.2879C12.7074 18.7104 13.2554 18.9684 13.8402 19.0124C14.425 19.0564 15.0055 18.8835 15.4708 18.5266L15.6035 18.6996Z" stroke="white" stroke-width="2" mask="url(#path-42-inside-33_2204_10868)"/>
<mask id="path-43-inside-34_2204_10868" fill="white">
<path d="M15.686 14.6345C16.0916 14.9726 16.3848 15.426 16.5267 15.9346C16.6686 16.4433 16.6524 16.983 16.4804 17.4822L16.2742 17.4112C16.4319 16.9538 16.4467 16.4592 16.3167 15.9932C16.1867 15.5272 15.9181 15.1117 15.5464 14.8019L15.686 14.6345Z"/>
</mask>
<path d="M15.686 14.6345C16.0916 14.9726 16.3848 15.426 16.5267 15.9346C16.6686 16.4433 16.6524 16.983 16.4804 17.4822L16.2742 17.4112C16.4319 16.9538 16.4467 16.4592 16.3167 15.9932C16.1867 15.5272 15.9181 15.1117 15.5464 14.8019L15.686 14.6345Z" stroke="white" stroke-width="2" mask="url(#path-43-inside-34_2204_10868)"/>
<mask id="path-44-inside-35_2204_10868" fill="white">
<path d="M14.8957 14.1828C15.1366 14.269 15.3635 14.3902 15.5691 14.5425L15.4393 14.7177C15.2509 14.5781 15.043 14.4671 14.8223 14.3881L14.8957 14.1828Z"/>
</mask>
<path d="M14.8957 14.1828C15.1366 14.269 15.3635 14.3902 15.5691 14.5425L15.4393 14.7177C15.2509 14.5781 15.043 14.4671 14.8223 14.3881L14.8957 14.1828Z" stroke="white" stroke-width="2" mask="url(#path-44-inside-35_2204_10868)"/>
<mask id="path-45-inside-36_2204_10868" fill="white">
<path d="M13.9406 14.0321C14.1963 14.0244 14.4518 14.0544 14.6988 14.1211L14.6419 14.3316C14.4156 14.2704 14.1815 14.2429 13.9472 14.25L13.9406 14.0321Z"/>
</mask>
<path d="M13.9406 14.0321C14.1963 14.0244 14.4518 14.0544 14.6988 14.1211L14.6419 14.3316C14.4156 14.2704 14.1815 14.2429 13.9472 14.25L13.9406 14.0321Z" stroke="white" stroke-width="2" mask="url(#path-45-inside-36_2204_10868)"/>
<mask id="path-46-inside-37_2204_10868" fill="white">
<path d="M12.1238 14.8498C12.2991 14.6635 12.501 14.5041 12.7229 14.3767L12.8315 14.5658C12.6282 14.6825 12.4432 14.8286 12.2825 14.9993L12.1238 14.8498Z"/>
</mask>
<path d="M12.1238 14.8498C12.2991 14.6635 12.501 14.5041 12.7229 14.3767L12.8315 14.5658C12.6282 14.6825 12.4432 14.8286 12.2825 14.9993L12.1238 14.8498Z" stroke="white" stroke-width="2" mask="url(#path-46-inside-37_2204_10868)"/>
<mask id="path-47-inside-38_2204_10868" fill="white">
<path d="M12.0479 18.334C11.8808 18.1402 11.7432 17.9229 11.6395 17.689L11.8388 17.6006C11.9338 17.8149 12.0599 18.014 12.213 18.1916L12.0479 18.334Z"/>
</mask>
<path d="M12.0479 18.334C11.8808 18.1402 11.7432 17.9229 11.6395 17.689L11.8388 17.6006C11.9338 17.8149 12.0599 18.014 12.213 18.1916L12.0479 18.334Z" stroke="white" stroke-width="2" mask="url(#path-47-inside-38_2204_10868)"/>
<mask id="path-48-inside-39_2204_10868" fill="white">
<path d="M11.5976 17.5889C11.5664 17.5097 11.5391 17.429 11.5157 17.3471L11.7254 17.2874C11.7468 17.3624 11.7718 17.4364 11.8005 17.509L11.5976 17.5889Z"/>
</mask>
<path d="M11.5976 17.5889C11.5664 17.5097 11.5391 17.429 11.5157 17.3471L11.7254 17.2874C11.7468 17.3624 11.7718 17.4364 11.8005 17.509L11.5976 17.5889Z" stroke="white" stroke-width="2" mask="url(#path-48-inside-39_2204_10868)"/>
<mask id="path-49-inside-40_2204_10868" fill="white">
<path d="M13.5912 14.0663C13.6739 14.0525 13.7573 14.0428 13.841 14.037L13.856 14.2545C13.7793 14.2598 13.7029 14.2688 13.627 14.2814L13.5912 14.0663Z"/>
</mask>
<path d="M13.5912 14.0663C13.6739 14.0525 13.7573 14.0428 13.841 14.037L13.856 14.2545C13.7793 14.2598 13.7029 14.2688 13.627 14.2814L13.5912 14.0663Z" stroke="white" stroke-width="2" mask="url(#path-49-inside-40_2204_10868)"/>
<line y1="-0.5" x2="2.65468" y2="-0.5" transform="matrix(-0.168565 -0.985691 -0.985691 0.168565 13.5256 14.5676)" stroke="white"/>
</svg>
