<svg width="36" height="29" viewBox="0 0 36 29" fill="none" xmlns="http://www.w3.org/2000/svg">
<circle cx="3.61546" cy="3.61546" r="3.11546" transform="matrix(0.506003 0.862531 0.862531 -0.506003 23.5571 13.8337)" stroke="white"/>
<mask id="path-2-inside-1_2204_9524" fill="white">
<path d="M29.9139 18.7645C29.0186 19.1109 28.027 19.1153 27.1285 18.7769C26.2301 18.4384 25.4879 17.7809 25.0436 16.9298L25.3335 16.7785C25.7406 17.5582 26.4206 18.1607 27.2438 18.4708C28.067 18.7809 28.9756 18.7769 29.7959 18.4595L29.9139 18.7645Z"/>
</mask>
<path d="M29.9139 18.7645C29.0186 19.1109 28.027 19.1153 27.1285 18.7769C26.2301 18.4384 25.4879 17.7809 25.0436 16.9298L25.3335 16.7785C25.7406 17.5582 26.4206 18.1607 27.2438 18.4708C28.067 18.7809 28.9756 18.7769 29.7959 18.4595L29.9139 18.7645Z" stroke="white" stroke-width="2" mask="url(#path-2-inside-1_2204_9524)"/>
<mask id="path-3-inside-2_2204_9524" fill="white">
<path d="M31.7478 12.9477C32.189 13.6055 32.4198 14.3819 32.4094 15.1739C32.399 15.9659 32.1481 16.736 31.6898 17.3821L31.423 17.1928C31.8429 16.6009 32.0729 15.8953 32.0824 15.1696C32.0919 14.444 31.8805 13.7326 31.4762 13.1299L31.7478 12.9477Z"/>
</mask>
<path d="M31.7478 12.9477C32.189 13.6055 32.4198 14.3819 32.4094 15.1739C32.399 15.9659 32.1481 16.736 31.6898 17.3821L31.423 17.1928C31.8429 16.6009 32.0729 15.8953 32.0824 15.1696C32.0919 14.444 31.8805 13.7326 31.4762 13.1299L31.7478 12.9477Z" stroke="white" stroke-width="2" mask="url(#path-3-inside-2_2204_9524)"/>
<mask id="path-4-inside-3_2204_9524" fill="white">
<path d="M30.8006 11.9642C31.1111 12.1898 31.3865 12.46 31.6182 12.766L31.3575 12.9634C31.1452 12.683 30.8928 12.4355 30.6083 12.2288L30.8006 11.9642Z"/>
</mask>
<path d="M30.8006 11.9642C31.1111 12.1898 31.3865 12.46 31.6182 12.766L31.3575 12.9634C31.1452 12.683 30.8928 12.4355 30.6083 12.2288L30.8006 11.9642Z" stroke="white" stroke-width="2" mask="url(#path-4-inside-3_2204_9524)"/>
<mask id="path-5-inside-4_2204_9524" fill="white">
<path d="M29.4894 11.3443C29.8608 11.441 30.2159 11.592 30.5432 11.7923L30.3725 12.0713C30.0726 11.8877 29.7472 11.7494 29.407 11.6607L29.4894 11.3443Z"/>
</mask>
<path d="M29.4894 11.3443C29.8608 11.441 30.2159 11.592 30.5432 11.7923L30.3725 12.0713C30.0726 11.8877 29.7472 11.7494 29.407 11.6607L29.4894 11.3443Z" stroke="white" stroke-width="2" mask="url(#path-5-inside-4_2204_9524)"/>
<mask id="path-6-inside-5_2204_9524" fill="white">
<path d="M26.5292 11.7549C26.8603 11.5607 27.2181 11.4164 27.5912 11.3266L27.6678 11.6445C27.3259 11.7268 26.998 11.8591 26.6947 12.037L26.5292 11.7549Z"/>
</mask>
<path d="M26.5292 11.7549C26.8603 11.5607 27.2181 11.4164 27.5912 11.3266L27.6678 11.6445C27.3259 11.7268 26.998 11.8591 26.6947 12.037L26.5292 11.7549Z" stroke="white" stroke-width="2" mask="url(#path-6-inside-5_2204_9524)"/>
<mask id="path-7-inside-6_2204_9524" fill="white">
<path d="M24.9501 16.7381C24.7913 16.3887 24.6849 16.0178 24.6344 15.6374L24.9586 15.5943C25.0049 15.9428 25.1024 16.2827 25.2478 16.6028L24.9501 16.7381Z"/>
</mask>
<path d="M24.9501 16.7381C24.7913 16.3887 24.6849 16.0178 24.6344 15.6374L24.9586 15.5943C25.0049 15.9428 25.1024 16.2827 25.2478 16.6028L24.9501 16.7381Z" stroke="white" stroke-width="2" mask="url(#path-7-inside-6_2204_9524)"/>
<mask id="path-8-inside-7_2204_9524" fill="white">
<path d="M24.6163 15.4757C24.6048 15.3485 24.5995 15.2208 24.6004 15.0931L24.9275 15.0956C24.9266 15.2126 24.9314 15.3296 24.942 15.4462L24.6163 15.4757Z"/>
</mask>
<path d="M24.6163 15.4757C24.6048 15.3485 24.5995 15.2208 24.6004 15.0931L24.9275 15.0956C24.9266 15.2126 24.9314 15.3296 24.942 15.4462L24.6163 15.4757Z" stroke="white" stroke-width="2" mask="url(#path-8-inside-7_2204_9524)"/>
<mask id="path-9-inside-8_2204_9524" fill="white">
<path d="M28.972 11.2462C29.097 11.2612 29.2211 11.2823 29.3441 11.3094L29.2738 11.6288C29.1612 11.604 29.0474 11.5847 28.9329 11.5709L28.972 11.2462Z"/>
</mask>
<path d="M28.972 11.2462C29.097 11.2612 29.2211 11.2823 29.3441 11.3094L29.2738 11.6288C29.1612 11.604 29.0474 11.5847 28.9329 11.5709L28.972 11.2462Z" stroke="white" stroke-width="2" mask="url(#path-9-inside-8_2204_9524)"/>
<circle cx="3.61546" cy="3.61546" r="3.11546" transform="matrix(0.506003 0.862531 0.862531 -0.506003 9.86298 10.4944)" stroke="white"/>
<mask id="path-11-inside-9_2204_9524" fill="white">
<path d="M16.2198 15.4251C15.3244 15.7716 14.3328 15.776 13.4344 15.4375C12.536 15.0991 11.7937 14.4415 11.3494 13.5904L11.6393 13.4391C12.0464 14.2189 12.7265 14.8214 13.5497 15.1315C14.3728 15.4416 15.2814 15.4375 16.1018 15.1201L16.2198 15.4251Z"/>
</mask>
<path d="M16.2198 15.4251C15.3244 15.7716 14.3328 15.776 13.4344 15.4375C12.536 15.0991 11.7937 14.4415 11.3494 13.5904L11.6393 13.4391C12.0464 14.2189 12.7265 14.8214 13.5497 15.1315C14.3728 15.4416 15.2814 15.4375 16.1018 15.1201L16.2198 15.4251Z" stroke="white" stroke-width="2" mask="url(#path-11-inside-9_2204_9524)"/>
<mask id="path-12-inside-10_2204_9524" fill="white">
<path d="M18.0536 9.60837C18.4949 10.2662 18.7256 11.0426 18.7152 11.8346C18.7049 12.6266 18.4539 13.3967 17.9956 14.0427L17.7289 13.8535C18.1488 13.2616 18.3787 12.556 18.3882 11.8303C18.3977 11.1046 18.1863 10.3932 17.782 9.79055L18.0536 9.60837Z"/>
</mask>
<path d="M18.0536 9.60837C18.4949 10.2662 18.7256 11.0426 18.7152 11.8346C18.7049 12.6266 18.4539 13.3967 17.9956 14.0427L17.7289 13.8535C18.1488 13.2616 18.3787 12.556 18.3882 11.8303C18.3977 11.1046 18.1863 10.3932 17.782 9.79055L18.0536 9.60837Z" stroke="white" stroke-width="2" mask="url(#path-12-inside-10_2204_9524)"/>
<mask id="path-13-inside-11_2204_9524" fill="white">
<path d="M17.1064 8.62485C17.4169 8.85048 17.6924 9.12064 17.924 9.42663L17.6633 9.62403C17.4511 9.34367 17.1986 9.09613 16.9142 8.8894L17.1064 8.62485Z"/>
</mask>
<path d="M17.1064 8.62485C17.4169 8.85048 17.6924 9.12064 17.924 9.42663L17.6633 9.62403C17.4511 9.34367 17.1986 9.09613 16.9142 8.8894L17.1064 8.62485Z" stroke="white" stroke-width="2" mask="url(#path-13-inside-11_2204_9524)"/>
<mask id="path-14-inside-12_2204_9524" fill="white">
<path d="M15.7953 8.00492C16.1666 8.10167 16.5217 8.25265 16.8491 8.45298L16.6784 8.73192C16.3784 8.54837 16.0531 8.41004 15.7128 8.32139L15.7953 8.00492Z"/>
</mask>
<path d="M15.7953 8.00492C16.1666 8.10167 16.5217 8.25265 16.8491 8.45298L16.6784 8.73192C16.3784 8.54837 16.0531 8.41004 15.7128 8.32139L15.7953 8.00492Z" stroke="white" stroke-width="2" mask="url(#path-14-inside-12_2204_9524)"/>
<mask id="path-15-inside-13_2204_9524" fill="white">
<path d="M12.8351 8.41557C13.1661 8.22137 13.524 8.07704 13.8971 7.98723L13.9736 8.30518C13.6317 8.38747 13.3039 8.51972 13.0006 8.69765L12.8351 8.41557Z"/>
</mask>
<path d="M12.8351 8.41557C13.1661 8.22137 13.524 8.07704 13.8971 7.98723L13.9736 8.30518C13.6317 8.38747 13.3039 8.51972 13.0006 8.69765L12.8351 8.41557Z" stroke="white" stroke-width="2" mask="url(#path-15-inside-13_2204_9524)"/>
<mask id="path-16-inside-14_2204_9524" fill="white">
<path d="M11.2559 13.3988C11.0972 13.0493 10.9908 12.6784 10.9402 12.298L11.2644 12.2549C11.3107 12.6035 11.4082 12.9433 11.5537 13.2635L11.2559 13.3988Z"/>
</mask>
<path d="M11.2559 13.3988C11.0972 13.0493 10.9908 12.6784 10.9402 12.298L11.2644 12.2549C11.3107 12.6035 11.4082 12.9433 11.5537 13.2635L11.2559 13.3988Z" stroke="white" stroke-width="2" mask="url(#path-16-inside-14_2204_9524)"/>
<mask id="path-17-inside-15_2204_9524" fill="white">
<path d="M10.9222 12.1364C10.9106 12.0092 10.9053 11.8815 10.9063 11.7537L11.2333 11.7562C11.2324 11.8733 11.2373 11.9903 11.2479 12.1068L10.9222 12.1364Z"/>
</mask>
<path d="M10.9222 12.1364C10.9106 12.0092 10.9053 11.8815 10.9063 11.7537L11.2333 11.7562C11.2324 11.8733 11.2373 11.9903 11.2479 12.1068L10.9222 12.1364Z" stroke="white" stroke-width="2" mask="url(#path-17-inside-15_2204_9524)"/>
<mask id="path-18-inside-16_2204_9524" fill="white">
<path d="M15.2779 7.90682C15.4028 7.92188 15.527 7.94296 15.6499 7.97001L15.5796 8.28941C15.467 8.26463 15.3533 8.24531 15.2388 8.23151L15.2779 7.90682Z"/>
</mask>
<path d="M15.2779 7.90682C15.4028 7.92188 15.527 7.94296 15.6499 7.97001L15.5796 8.28941C15.467 8.26463 15.3533 8.24531 15.2388 8.23151L15.2779 7.90682Z" stroke="white" stroke-width="2" mask="url(#path-18-inside-16_2204_9524)"/>
<circle cx="2.41031" cy="2.41031" r="1.91031" transform="matrix(0.506003 0.862531 0.862531 -0.506003 5.01843 4.73364)" stroke="white"/>
<mask id="path-20-inside-17_2204_9524" fill="white">
<path d="M9.25627 8.02065C8.65935 8.25159 7.99827 8.25453 7.39933 8.0289C6.80038 7.80327 6.30555 7.3649 6.00936 6.79751L6.20264 6.69662C6.47401 7.21648 6.9274 7.61814 7.47618 7.82487C8.02497 8.0316 8.63068 8.02891 9.1776 7.81731L9.25627 8.02065Z"/>
</mask>
<path d="M9.25627 8.02065C8.65935 8.25159 7.99827 8.25453 7.39933 8.0289C6.80038 7.80327 6.30555 7.3649 6.00936 6.79751L6.20264 6.69662C6.47401 7.21648 6.9274 7.61814 7.47618 7.82487C8.02497 8.0316 8.63068 8.02891 9.1776 7.81731L9.25627 8.02065Z" stroke="white" stroke-width="2" mask="url(#path-20-inside-17_2204_9524)"/>
<mask id="path-21-inside-18_2204_9524" fill="white">
<path d="M10.4788 4.1428C10.773 4.58133 10.9268 5.09894 10.9199 5.62694C10.913 6.15493 10.7457 6.66834 10.4402 7.09902L10.2623 6.97288C10.5423 6.57827 10.6956 6.10786 10.7019 5.62408C10.7082 5.14031 10.5673 4.66605 10.2978 4.26426L10.4788 4.1428Z"/>
</mask>
<path d="M10.4788 4.1428C10.773 4.58133 10.9268 5.09894 10.9199 5.62694C10.913 6.15493 10.7457 6.66834 10.4402 7.09902L10.2623 6.97288C10.5423 6.57827 10.6956 6.10786 10.7019 5.62408C10.7082 5.14031 10.5673 4.66605 10.2978 4.26426L10.4788 4.1428Z" stroke="white" stroke-width="2" mask="url(#path-21-inside-18_2204_9524)"/>
<mask id="path-22-inside-19_2204_9524" fill="white">
<path d="M9.84737 3.48712C10.0543 3.63754 10.238 3.81765 10.3924 4.02164L10.2186 4.15324C10.0771 3.96634 9.90883 3.80131 9.7192 3.66349L9.84737 3.48712Z"/>
</mask>
<path d="M9.84737 3.48712C10.0543 3.63754 10.238 3.81765 10.3924 4.02164L10.2186 4.15324C10.0771 3.96634 9.90883 3.80131 9.7192 3.66349L9.84737 3.48712Z" stroke="white" stroke-width="2" mask="url(#path-22-inside-19_2204_9524)"/>
<mask id="path-23-inside-20_2204_9524" fill="white">
<path d="M8.97325 3.07383C9.22084 3.13834 9.45757 3.23899 9.6758 3.37254L9.56199 3.55851C9.36204 3.43614 9.14514 3.34392 8.91828 3.28482L8.97325 3.07383Z"/>
</mask>
<path d="M8.97325 3.07383C9.22084 3.13834 9.45757 3.23899 9.6758 3.37254L9.56199 3.55851C9.36204 3.43614 9.14514 3.34392 8.91828 3.28482L8.97325 3.07383Z" stroke="white" stroke-width="2" mask="url(#path-23-inside-20_2204_9524)"/>
<mask id="path-24-inside-21_2204_9524" fill="white">
<path d="M6.9998 3.3476C7.22048 3.21814 7.45905 3.12192 7.7078 3.06204L7.75882 3.27401C7.5309 3.32887 7.31232 3.41704 7.11012 3.53566L6.9998 3.3476Z"/>
</mask>
<path d="M6.9998 3.3476C7.22048 3.21814 7.45905 3.12192 7.7078 3.06204L7.75882 3.27401C7.5309 3.32887 7.31232 3.41704 7.11012 3.53566L6.9998 3.3476Z" stroke="white" stroke-width="2" mask="url(#path-24-inside-21_2204_9524)"/>
<mask id="path-25-inside-22_2204_9524" fill="white">
<path d="M5.94703 6.66973C5.84119 6.43679 5.77027 6.18952 5.73656 5.9359L5.95268 5.90717C5.98357 6.13955 6.04855 6.36611 6.14553 6.57953L5.94703 6.66973Z"/>
</mask>
<path d="M5.94703 6.66973C5.84119 6.43679 5.77027 6.18952 5.73656 5.9359L5.95268 5.90717C5.98357 6.13955 6.04855 6.36611 6.14553 6.57953L5.94703 6.66973Z" stroke="white" stroke-width="2" mask="url(#path-25-inside-22_2204_9524)"/>
<mask id="path-26-inside-23_2204_9524" fill="white">
<path d="M5.72451 5.82813C5.71682 5.74333 5.71329 5.6582 5.71394 5.57306L5.93196 5.57472C5.93136 5.65273 5.9346 5.73073 5.94165 5.80843L5.72451 5.82813Z"/>
</mask>
<path d="M5.72451 5.82813C5.71682 5.74333 5.71329 5.6582 5.71394 5.57306L5.93196 5.57472C5.93136 5.65273 5.9346 5.73073 5.94165 5.80843L5.72451 5.82813Z" stroke="white" stroke-width="2" mask="url(#path-26-inside-23_2204_9524)"/>
<mask id="path-27-inside-24_2204_9524" fill="white">
<path d="M8.62833 3.00844C8.71163 3.01847 8.7944 3.03253 8.87635 3.05056L8.8295 3.26349C8.75442 3.24697 8.67858 3.23409 8.60225 3.2249L8.62833 3.00844Z"/>
</mask>
<path d="M8.62833 3.00844C8.71163 3.01847 8.7944 3.03253 8.87635 3.05056L8.8295 3.26349C8.75442 3.24697 8.67858 3.23409 8.60225 3.2249L8.62833 3.00844Z" stroke="white" stroke-width="2" mask="url(#path-27-inside-24_2204_9524)"/>
<circle cx="2.41031" cy="2.41031" r="1.91031" transform="matrix(0.506003 0.862531 0.862531 -0.506003 2.78748 13.3142)" stroke="white"/>
<mask id="path-29-inside-25_2204_9524" fill="white">
<path d="M7.02531 16.6012C6.4284 16.8322 5.76732 16.8351 5.16837 16.6095C4.56942 16.3838 4.07459 15.9455 3.7784 15.3781L3.97168 15.2772C4.24306 15.797 4.69644 16.1987 5.24523 16.4054C5.79401 16.6122 6.39972 16.6095 6.94665 16.3979L7.02531 16.6012Z"/>
</mask>
<path d="M7.02531 16.6012C6.4284 16.8322 5.76732 16.8351 5.16837 16.6095C4.56942 16.3838 4.07459 15.9455 3.7784 15.3781L3.97168 15.2772C4.24306 15.797 4.69644 16.1987 5.24523 16.4054C5.79401 16.6122 6.39972 16.6095 6.94665 16.3979L7.02531 16.6012Z" stroke="white" stroke-width="2" mask="url(#path-29-inside-25_2204_9524)"/>
<mask id="path-30-inside-26_2204_9524" fill="white">
<path d="M8.24788 12.7234C8.54202 13.1619 8.69585 13.6795 8.68894 14.2075C8.68203 14.7355 8.51472 15.2489 8.2092 15.6796L8.03138 15.5534C8.3113 15.1588 8.46461 14.6884 8.47094 14.2047C8.47726 13.7209 8.33632 13.2466 8.06681 12.8448L8.24788 12.7234Z"/>
</mask>
<path d="M8.24788 12.7234C8.54202 13.1619 8.69585 13.6795 8.68894 14.2075C8.68203 14.7355 8.51472 15.2489 8.2092 15.6796L8.03138 15.5534C8.3113 15.1588 8.46461 14.6884 8.47094 14.2047C8.47726 13.7209 8.33632 13.2466 8.06681 12.8448L8.24788 12.7234Z" stroke="white" stroke-width="2" mask="url(#path-30-inside-26_2204_9524)"/>
<mask id="path-31-inside-27_2204_9524" fill="white">
<path d="M7.61642 12.0677C7.82338 12.2181 8.00705 12.3982 8.16148 12.6022L7.98765 12.7338C7.84615 12.5469 7.67787 12.3819 7.48824 12.2441L7.61642 12.0677Z"/>
</mask>
<path d="M7.61642 12.0677C7.82338 12.2181 8.00705 12.3982 8.16148 12.6022L7.98765 12.7338C7.84615 12.5469 7.67787 12.3819 7.48824 12.2441L7.61642 12.0677Z" stroke="white" stroke-width="2" mask="url(#path-31-inside-27_2204_9524)"/>
<mask id="path-32-inside-28_2204_9524" fill="white">
<path d="M6.74229 11.6544C6.98988 11.7189 7.22661 11.8196 7.44484 11.9531L7.33104 12.1391C7.13108 12.0167 6.91418 11.9245 6.68733 11.8654L6.74229 11.6544Z"/>
</mask>
<path d="M6.74229 11.6544C6.98988 11.7189 7.22661 11.8196 7.44484 11.9531L7.33104 12.1391C7.13108 12.0167 6.91418 11.9245 6.68733 11.8654L6.74229 11.6544Z" stroke="white" stroke-width="2" mask="url(#path-32-inside-28_2204_9524)"/>
<mask id="path-33-inside-29_2204_9524" fill="white">
<path d="M4.76884 11.9282C4.98952 11.7987 5.22809 11.7025 5.47684 11.6426L5.52786 11.8546C5.29995 11.9094 5.08136 11.9976 4.87916 12.1162L4.76884 11.9282Z"/>
</mask>
<path d="M4.76884 11.9282C4.98952 11.7987 5.22809 11.7025 5.47684 11.6426L5.52786 11.8546C5.29995 11.9094 5.08136 11.9976 4.87916 12.1162L4.76884 11.9282Z" stroke="white" stroke-width="2" mask="url(#path-33-inside-29_2204_9524)"/>
<mask id="path-34-inside-30_2204_9524" fill="white">
<path d="M3.71608 15.2503C3.61024 15.0174 3.53932 14.7701 3.5056 14.5165L3.72173 14.4877C3.75262 14.7201 3.8176 14.9467 3.91457 15.1601L3.71608 15.2503Z"/>
</mask>
<path d="M3.71608 15.2503C3.61024 15.0174 3.53932 14.7701 3.5056 14.5165L3.72173 14.4877C3.75262 14.7201 3.8176 14.9467 3.91457 15.1601L3.71608 15.2503Z" stroke="white" stroke-width="2" mask="url(#path-34-inside-30_2204_9524)"/>
<mask id="path-35-inside-31_2204_9524" fill="white">
<path d="M3.49356 14.4087C3.48586 14.3239 3.48233 14.2388 3.48298 14.1536L3.701 14.1553C3.7004 14.2333 3.70364 14.3113 3.71069 14.389L3.49356 14.4087Z"/>
</mask>
<path d="M3.49356 14.4087C3.48586 14.3239 3.48233 14.2388 3.48298 14.1536L3.701 14.1553C3.7004 14.2333 3.70364 14.3113 3.71069 14.389L3.49356 14.4087Z" stroke="white" stroke-width="2" mask="url(#path-35-inside-31_2204_9524)"/>
<mask id="path-36-inside-32_2204_9524" fill="white">
<path d="M6.39737 11.589C6.48067 11.599 6.56345 11.6131 6.64539 11.6311L6.59854 11.8441C6.52346 11.8275 6.44762 11.8147 6.37129 11.8055L6.39737 11.589Z"/>
</mask>
<path d="M6.39737 11.589C6.48067 11.599 6.56345 11.6131 6.64539 11.6311L6.59854 11.8441C6.52346 11.8275 6.44762 11.8147 6.37129 11.8055L6.39737 11.589Z" stroke="white" stroke-width="2" mask="url(#path-36-inside-32_2204_9524)"/>
<line y1="-0.5" x2="6.26917" y2="-0.5" transform="matrix(0.506424 0.862285 0.862285 -0.506424 23.7648 6.79614)" stroke="white"/>
<line y1="-0.5" x2="6.76814" y2="-0.5" transform="matrix(0.951377 0.30803 0.30803 -0.951377 18.7082 12.2729)" stroke="white"/>
<line y1="-0.5" x2="3.75429" y2="-0.5" transform="matrix(0.620729 0.784025 0.784025 -0.620729 10.0991 6.74951)" stroke="white"/>
<line y1="-0.5" x2="3.03575" y2="-0.5" transform="matrix(0.974279 -0.225346 -0.225346 -0.974279 8.50964 13.3489)" stroke="white"/>
<circle cx="2.41031" cy="2.41031" r="1.91031" transform="matrix(0.506003 0.862531 0.862531 -0.506003 10.2455 19.0125)" stroke="white"/>
<mask id="path-42-inside-33_2204_9524" fill="white">
<path d="M14.4834 22.2995C13.8865 22.5304 13.2254 22.5333 12.6264 22.3077C12.0275 22.0821 11.5327 21.6437 11.2365 21.0763L11.4297 20.9754C11.7011 21.4953 12.1545 21.897 12.7033 22.1037C13.2521 22.3104 13.8578 22.3077 14.4047 22.0961L14.4834 22.2995Z"/>
</mask>
<path d="M14.4834 22.2995C13.8865 22.5304 13.2254 22.5333 12.6264 22.3077C12.0275 22.0821 11.5327 21.6437 11.2365 21.0763L11.4297 20.9754C11.7011 21.4953 12.1545 21.897 12.7033 22.1037C13.2521 22.3104 13.8578 22.3077 14.4047 22.0961L14.4834 22.2995Z" stroke="white" stroke-width="2" mask="url(#path-42-inside-33_2204_9524)"/>
<mask id="path-43-inside-34_2204_9524" fill="white">
<path d="M15.7059 18.4216C16.0001 18.8601 16.1539 19.3778 16.147 19.9057C16.1401 20.4337 15.9728 20.9471 15.6673 21.3778L15.4894 21.2517C15.7694 20.8571 15.9227 20.3867 15.929 19.9029C15.9353 19.4191 15.7944 18.9449 15.5249 18.5431L15.7059 18.4216Z"/>
</mask>
<path d="M15.7059 18.4216C16.0001 18.8601 16.1539 19.3778 16.147 19.9057C16.1401 20.4337 15.9728 20.9471 15.6673 21.3778L15.4894 21.2517C15.7694 20.8571 15.9227 20.3867 15.929 19.9029C15.9353 19.4191 15.7944 18.9449 15.5249 18.5431L15.7059 18.4216Z" stroke="white" stroke-width="2" mask="url(#path-43-inside-34_2204_9524)"/>
<mask id="path-44-inside-35_2204_9524" fill="white">
<path d="M15.0745 17.7659C15.2815 17.9164 15.4651 18.0965 15.6196 18.3004L15.4457 18.432C15.3042 18.2451 15.1359 18.0801 14.9463 17.9423L15.0745 17.7659Z"/>
</mask>
<path d="M15.0745 17.7659C15.2815 17.9164 15.4651 18.0965 15.6196 18.3004L15.4457 18.432C15.3042 18.2451 15.1359 18.0801 14.9463 17.9423L15.0745 17.7659Z" stroke="white" stroke-width="2" mask="url(#path-44-inside-35_2204_9524)"/>
<mask id="path-45-inside-36_2204_9524" fill="white">
<path d="M14.2004 17.3526C14.448 17.4171 14.6847 17.5178 14.9029 17.6513L14.7891 17.8373C14.5892 17.7149 14.3723 17.6227 14.1454 17.5636L14.2004 17.3526Z"/>
</mask>
<path d="M14.2004 17.3526C14.448 17.4171 14.6847 17.5178 14.9029 17.6513L14.7891 17.8373C14.5892 17.7149 14.3723 17.6227 14.1454 17.5636L14.2004 17.3526Z" stroke="white" stroke-width="2" mask="url(#path-45-inside-36_2204_9524)"/>
<mask id="path-46-inside-37_2204_9524" fill="white">
<path d="M12.2269 17.6264C12.4476 17.4969 12.6862 17.4007 12.9349 17.3408L12.9859 17.5528C12.758 17.6077 12.5394 17.6958 12.3372 17.8145L12.2269 17.6264Z"/>
</mask>
<path d="M12.2269 17.6264C12.4476 17.4969 12.6862 17.4007 12.9349 17.3408L12.9859 17.5528C12.758 17.6077 12.5394 17.6958 12.3372 17.8145L12.2269 17.6264Z" stroke="white" stroke-width="2" mask="url(#path-46-inside-37_2204_9524)"/>
<mask id="path-47-inside-38_2204_9524" fill="white">
<path d="M11.1741 20.9485C11.0683 20.7156 10.9974 20.4683 10.9637 20.2147L11.1798 20.186C11.2107 20.4184 11.2757 20.6449 11.3726 20.8583L11.1741 20.9485Z"/>
</mask>
<path d="M11.1741 20.9485C11.0683 20.7156 10.9974 20.4683 10.9637 20.2147L11.1798 20.186C11.2107 20.4184 11.2757 20.6449 11.3726 20.8583L11.1741 20.9485Z" stroke="white" stroke-width="2" mask="url(#path-47-inside-38_2204_9524)"/>
<mask id="path-48-inside-39_2204_9524" fill="white">
<path d="M10.9516 20.1069C10.9439 20.0221 10.9404 19.937 10.941 19.8519L11.1591 19.8535C11.1585 19.9315 11.1617 20.0095 11.1688 20.0872L10.9516 20.1069Z"/>
</mask>
<path d="M10.9516 20.1069C10.9439 20.0221 10.9404 19.937 10.941 19.8519L11.1591 19.8535C11.1585 19.9315 11.1617 20.0095 11.1688 20.0872L10.9516 20.1069Z" stroke="white" stroke-width="2" mask="url(#path-48-inside-39_2204_9524)"/>
<mask id="path-49-inside-40_2204_9524" fill="white">
<path d="M13.8554 17.2872C13.9387 17.2973 14.0215 17.3113 14.1035 17.3294L14.0566 17.5423C13.9815 17.5258 13.9057 17.5129 13.8294 17.5037L13.8554 17.2872Z"/>
</mask>
<path d="M13.8554 17.2872C13.9387 17.2973 14.0215 17.3113 14.1035 17.3294L14.0566 17.5423C13.9815 17.5258 13.9057 17.5129 13.8294 17.5037L13.8554 17.2872Z" stroke="white" stroke-width="2" mask="url(#path-49-inside-40_2204_9524)"/>
<line y1="-0.5" x2="2.65468" y2="-0.5" transform="matrix(0.115468 -0.993311 -0.993311 -0.115468 13.6516 17.7498)" stroke="white"/>
</svg>
