<svg width="36" height="29" viewBox="0 0 36 29" fill="none" xmlns="http://www.w3.org/2000/svg">
<circle cx="3.61546" cy="3.61546" r="3.11546" transform="matrix(0.506003 0.862531 0.862531 -0.506003 23.5571 13.8339)" stroke="white"/>
<mask id="path-2-inside-1_2204_10310" fill="white">
<path d="M29.914 18.7646C29.0186 19.111 28.027 19.1154 27.1286 18.7769C26.2302 18.4385 25.4879 17.7809 25.0436 16.9299L25.3336 16.7785C25.7406 17.5583 26.4207 18.1608 27.2439 18.4709C28.0671 18.781 28.9756 18.7769 29.796 18.4595L29.914 18.7646Z"/>
</mask>
<path d="M29.914 18.7646C29.0186 19.111 28.027 19.1154 27.1286 18.7769C26.2302 18.4385 25.4879 17.7809 25.0436 16.9299L25.3336 16.7785C25.7406 17.5583 26.4207 18.1608 27.2439 18.4709C28.0671 18.781 28.9756 18.7769 29.796 18.4595L29.914 18.7646Z" stroke="white" stroke-width="2" mask="url(#path-2-inside-1_2204_10310)"/>
<mask id="path-3-inside-2_2204_10310" fill="white">
<path d="M31.7479 12.9478C32.1891 13.6056 32.4198 14.382 32.4094 15.174C32.3991 15.966 32.1481 16.7361 31.6898 17.3821L31.4231 17.1929C31.843 16.601 32.0729 15.8954 32.0824 15.1697C32.0919 14.444 31.8805 13.7327 31.4763 13.13L31.7479 12.9478Z"/>
</mask>
<path d="M31.7479 12.9478C32.1891 13.6056 32.4198 14.382 32.4094 15.174C32.3991 15.966 32.1481 16.7361 31.6898 17.3821L31.4231 17.1929C31.843 16.601 32.0729 15.8954 32.0824 15.1697C32.0919 14.444 31.8805 13.7327 31.4763 13.13L31.7479 12.9478Z" stroke="white" stroke-width="2" mask="url(#path-3-inside-2_2204_10310)"/>
<mask id="path-4-inside-3_2204_10310" fill="white">
<path d="M30.8007 11.9643C31.1111 12.1899 31.3866 12.4601 31.6183 12.766L31.3575 12.9634C31.1453 12.6831 30.8928 12.4355 30.6084 12.2288L30.8007 11.9643Z"/>
</mask>
<path d="M30.8007 11.9643C31.1111 12.1899 31.3866 12.4601 31.6183 12.766L31.3575 12.9634C31.1453 12.6831 30.8928 12.4355 30.6084 12.2288L30.8007 11.9643Z" stroke="white" stroke-width="2" mask="url(#path-4-inside-3_2204_10310)"/>
<mask id="path-5-inside-4_2204_10310" fill="white">
<path d="M29.4895 11.3443C29.8609 11.4411 30.216 11.5921 30.5433 11.7924L30.3726 12.0713C30.0727 11.8878 29.7473 11.7495 29.407 11.6608L29.4895 11.3443Z"/>
</mask>
<path d="M29.4895 11.3443C29.8609 11.4411 30.216 11.5921 30.5433 11.7924L30.3726 12.0713C30.0727 11.8878 29.7473 11.7495 29.407 11.6608L29.4895 11.3443Z" stroke="white" stroke-width="2" mask="url(#path-5-inside-4_2204_10310)"/>
<mask id="path-6-inside-5_2204_10310" fill="white">
<path d="M26.5293 11.755C26.8603 11.5608 27.2182 11.4165 27.5913 11.3266L27.6678 11.6446C27.326 11.7269 26.9981 11.8591 26.6948 12.0371L26.5293 11.755Z"/>
</mask>
<path d="M26.5293 11.755C26.8603 11.5608 27.2182 11.4165 27.5913 11.3266L27.6678 11.6446C27.326 11.7269 26.9981 11.8591 26.6948 12.0371L26.5293 11.755Z" stroke="white" stroke-width="2" mask="url(#path-6-inside-5_2204_10310)"/>
<mask id="path-7-inside-6_2204_10310" fill="white">
<path d="M24.9502 16.7382C24.7914 16.3888 24.685 16.0179 24.6344 15.6374L24.9586 15.5943C25.005 15.9429 25.1024 16.2827 25.2479 16.6029L24.9502 16.7382Z"/>
</mask>
<path d="M24.9502 16.7382C24.7914 16.3888 24.685 16.0179 24.6344 15.6374L24.9586 15.5943C25.005 15.9429 25.1024 16.2827 25.2479 16.6029L24.9502 16.7382Z" stroke="white" stroke-width="2" mask="url(#path-7-inside-6_2204_10310)"/>
<mask id="path-8-inside-7_2204_10310" fill="white">
<path d="M24.6164 15.4758C24.6048 15.3486 24.5995 15.2209 24.6005 15.0932L24.9275 15.0957C24.9266 15.2127 24.9315 15.3297 24.9421 15.4462L24.6164 15.4758Z"/>
</mask>
<path d="M24.6164 15.4758C24.6048 15.3486 24.5995 15.2209 24.6005 15.0932L24.9275 15.0957C24.9266 15.2127 24.9315 15.3297 24.9421 15.4462L24.6164 15.4758Z" stroke="white" stroke-width="2" mask="url(#path-8-inside-7_2204_10310)"/>
<mask id="path-9-inside-8_2204_10310" fill="white">
<path d="M28.9721 11.2462C29.097 11.2613 29.2212 11.2824 29.3441 11.3094L29.2739 11.6288C29.1612 11.604 29.0475 11.5847 28.933 11.5709L28.9721 11.2462Z"/>
</mask>
<path d="M28.9721 11.2462C29.097 11.2613 29.2212 11.2824 29.3441 11.3094L29.2739 11.6288C29.1612 11.604 29.0475 11.5847 28.933 11.5709L28.9721 11.2462Z" stroke="white" stroke-width="2" mask="url(#path-9-inside-8_2204_10310)"/>
<circle cx="3.61546" cy="3.61546" r="3.11546" transform="matrix(0.506003 0.862531 0.862531 -0.506003 9.86304 10.4946)" stroke="white"/>
<mask id="path-11-inside-9_2204_10310" fill="white">
<path d="M16.2199 15.4253C15.3245 15.7717 14.3329 15.7761 13.4345 15.4376C12.5361 15.0992 11.7938 14.4416 11.3496 13.5906L11.6395 13.4392C12.0465 14.219 12.7266 14.8215 13.5498 15.1316C14.373 15.4417 15.2815 15.4377 16.1019 15.1203L16.2199 15.4253Z"/>
</mask>
<path d="M16.2199 15.4253C15.3245 15.7717 14.3329 15.7761 13.4345 15.4376C12.5361 15.0992 11.7938 14.4416 11.3496 13.5906L11.6395 13.4392C12.0465 14.219 12.7266 14.8215 13.5498 15.1316C14.373 15.4417 15.2815 15.4377 16.1019 15.1203L16.2199 15.4253Z" stroke="white" stroke-width="2" mask="url(#path-11-inside-9_2204_10310)"/>
<mask id="path-12-inside-10_2204_10310" fill="white">
<path d="M18.0538 9.60849C18.495 10.2663 18.7257 11.0427 18.7154 11.8347C18.705 12.6267 18.454 13.3968 17.9957 14.0428L17.729 13.8536C18.1489 13.2617 18.3789 12.5561 18.3883 11.8304C18.3978 11.1048 18.1864 10.3934 17.7822 9.79067L18.0538 9.60849Z"/>
</mask>
<path d="M18.0538 9.60849C18.495 10.2663 18.7257 11.0427 18.7154 11.8347C18.705 12.6267 18.454 13.3968 17.9957 14.0428L17.729 13.8536C18.1489 13.2617 18.3789 12.5561 18.3883 11.8304C18.3978 11.1048 18.1864 10.3934 17.7822 9.79067L18.0538 9.60849Z" stroke="white" stroke-width="2" mask="url(#path-12-inside-10_2204_10310)"/>
<mask id="path-13-inside-11_2204_10310" fill="white">
<path d="M17.1066 8.62497C17.417 8.8506 17.6925 9.12076 17.9242 9.42675L17.6634 9.62415C17.4512 9.34379 17.1988 9.09625 16.9143 8.88953L17.1066 8.62497Z"/>
</mask>
<path d="M17.1066 8.62497C17.417 8.8506 17.6925 9.12076 17.9242 9.42675L17.6634 9.62415C17.4512 9.34379 17.1988 9.09625 16.9143 8.88953L17.1066 8.62497Z" stroke="white" stroke-width="2" mask="url(#path-13-inside-11_2204_10310)"/>
<mask id="path-14-inside-12_2204_10310" fill="white">
<path d="M15.7954 8.00504C16.1668 8.10179 16.5219 8.25277 16.8492 8.4531L16.6785 8.73205C16.3786 8.54849 16.0532 8.41016 15.7129 8.32151L15.7954 8.00504Z"/>
</mask>
<path d="M15.7954 8.00504C16.1668 8.10179 16.5219 8.25277 16.8492 8.4531L16.6785 8.73205C16.3786 8.54849 16.0532 8.41016 15.7129 8.32151L15.7954 8.00504Z" stroke="white" stroke-width="2" mask="url(#path-14-inside-12_2204_10310)"/>
<mask id="path-15-inside-13_2204_10310" fill="white">
<path d="M12.8352 8.41569C13.1662 8.2215 13.5241 8.07716 13.8972 7.98735L13.9737 8.3053C13.6319 8.3876 13.304 8.51984 13.0007 8.69777L12.8352 8.41569Z"/>
</mask>
<path d="M12.8352 8.41569C13.1662 8.2215 13.5241 8.07716 13.8972 7.98735L13.9737 8.3053C13.6319 8.3876 13.304 8.51984 13.0007 8.69777L12.8352 8.41569Z" stroke="white" stroke-width="2" mask="url(#path-15-inside-13_2204_10310)"/>
<mask id="path-16-inside-14_2204_10310" fill="white">
<path d="M11.2561 13.3989C11.0973 13.0495 10.9909 12.6786 10.9403 12.2981L11.2645 12.255C11.3109 12.6036 11.4083 12.9434 11.5538 13.2636L11.2561 13.3989Z"/>
</mask>
<path d="M11.2561 13.3989C11.0973 13.0495 10.9909 12.6786 10.9403 12.2981L11.2645 12.255C11.3109 12.6036 11.4083 12.9434 11.5538 13.2636L11.2561 13.3989Z" stroke="white" stroke-width="2" mask="url(#path-16-inside-14_2204_10310)"/>
<mask id="path-17-inside-15_2204_10310" fill="white">
<path d="M10.9223 12.1365C10.9107 12.0093 10.9054 11.8816 10.9064 11.7539L11.2334 11.7564C11.2326 11.8734 11.2374 11.9904 11.248 12.1069L10.9223 12.1365Z"/>
</mask>
<path d="M10.9223 12.1365C10.9107 12.0093 10.9054 11.8816 10.9064 11.7539L11.2334 11.7564C11.2326 11.8734 11.2374 11.9904 11.248 12.1069L10.9223 12.1365Z" stroke="white" stroke-width="2" mask="url(#path-17-inside-15_2204_10310)"/>
<mask id="path-18-inside-16_2204_10310" fill="white">
<path d="M15.278 7.90695C15.403 7.922 15.5271 7.94308 15.65 7.97013L15.5798 8.28953C15.4671 8.26475 15.3534 8.24543 15.2389 8.23164L15.278 7.90695Z"/>
</mask>
<path d="M15.278 7.90695C15.403 7.922 15.5271 7.94308 15.65 7.97013L15.5798 8.28953C15.4671 8.26475 15.3534 8.24543 15.2389 8.23164L15.278 7.90695Z" stroke="white" stroke-width="2" mask="url(#path-18-inside-16_2204_10310)"/>
<circle cx="2.41031" cy="2.41031" r="1.91031" transform="matrix(0.506003 0.862531 0.862531 -0.506003 5.01855 4.73358)" stroke="white"/>
<mask id="path-20-inside-17_2204_10310" fill="white">
<path d="M9.25639 8.02071C8.65947 8.25165 7.9984 8.25459 7.39945 8.02896C6.8005 7.80333 6.30567 7.36496 6.00948 6.79758L6.20276 6.69668C6.47414 7.21654 6.92752 7.6182 7.47631 7.82493C8.02509 8.03166 8.6308 8.02897 9.17772 7.81737L9.25639 8.02071Z"/>
</mask>
<path d="M9.25639 8.02071C8.65947 8.25165 7.9984 8.25459 7.39945 8.02896C6.8005 7.80333 6.30567 7.36496 6.00948 6.79758L6.20276 6.69668C6.47414 7.21654 6.92752 7.6182 7.47631 7.82493C8.02509 8.03166 8.6308 8.02897 9.17772 7.81737L9.25639 8.02071Z" stroke="white" stroke-width="2" mask="url(#path-20-inside-17_2204_10310)"/>
<mask id="path-21-inside-18_2204_10310" fill="white">
<path d="M10.479 4.14287C10.7731 4.58139 10.9269 5.099 10.92 5.627C10.9131 6.15499 10.7458 6.6684 10.4403 7.09908L10.2625 6.97294C10.5424 6.57833 10.6957 6.10792 10.702 5.62415C10.7083 5.14037 10.5674 4.66611 10.2979 4.26432L10.479 4.14287Z"/>
</mask>
<path d="M10.479 4.14287C10.7731 4.58139 10.9269 5.099 10.92 5.627C10.9131 6.15499 10.7458 6.6684 10.4403 7.09908L10.2625 6.97294C10.5424 6.57833 10.6957 6.10792 10.702 5.62415C10.7083 5.14037 10.5674 4.66611 10.2979 4.26432L10.479 4.14287Z" stroke="white" stroke-width="2" mask="url(#path-21-inside-18_2204_10310)"/>
<mask id="path-22-inside-19_2204_10310" fill="white">
<path d="M9.84749 3.48719C10.0545 3.6376 10.2381 3.81771 10.3926 4.0217L10.2187 4.1533C10.0772 3.9664 9.90895 3.80137 9.71932 3.66355L9.84749 3.48719Z"/>
</mask>
<path d="M9.84749 3.48719C10.0545 3.6376 10.2381 3.81771 10.3926 4.0217L10.2187 4.1533C10.0772 3.9664 9.90895 3.80137 9.71932 3.66355L9.84749 3.48719Z" stroke="white" stroke-width="2" mask="url(#path-22-inside-19_2204_10310)"/>
<mask id="path-23-inside-20_2204_10310" fill="white">
<path d="M8.97337 3.0739C9.22096 3.1384 9.45769 3.23905 9.67592 3.3726L9.56212 3.55857C9.36216 3.4362 9.14526 3.34398 8.91841 3.28488L8.97337 3.0739Z"/>
</mask>
<path d="M8.97337 3.0739C9.22096 3.1384 9.45769 3.23905 9.67592 3.3726L9.56212 3.55857C9.36216 3.4362 9.14526 3.34398 8.91841 3.28488L8.97337 3.0739Z" stroke="white" stroke-width="2" mask="url(#path-23-inside-20_2204_10310)"/>
<mask id="path-24-inside-21_2204_10310" fill="white">
<path d="M6.99992 3.34766C7.2206 3.2182 7.45917 3.12198 7.70792 3.0621L7.75894 3.27407C7.53102 3.32893 7.31244 3.4171 7.11024 3.53572L6.99992 3.34766Z"/>
</mask>
<path d="M6.99992 3.34766C7.2206 3.2182 7.45917 3.12198 7.70792 3.0621L7.75894 3.27407C7.53102 3.32893 7.31244 3.4171 7.11024 3.53572L6.99992 3.34766Z" stroke="white" stroke-width="2" mask="url(#path-24-inside-21_2204_10310)"/>
<mask id="path-25-inside-22_2204_10310" fill="white">
<path d="M5.94716 6.66979C5.84132 6.43685 5.77039 6.18958 5.73668 5.93596L5.95281 5.90723C5.9837 6.13961 6.04868 6.36617 6.14565 6.5796L5.94716 6.66979Z"/>
</mask>
<path d="M5.94716 6.66979C5.84132 6.43685 5.77039 6.18958 5.73668 5.93596L5.95281 5.90723C5.9837 6.13961 6.04868 6.36617 6.14565 6.5796L5.94716 6.66979Z" stroke="white" stroke-width="2" mask="url(#path-25-inside-22_2204_10310)"/>
<mask id="path-26-inside-23_2204_10310" fill="white">
<path d="M5.72463 5.8282C5.71694 5.74339 5.71341 5.65827 5.71406 5.57312L5.93208 5.57478C5.93148 5.65279 5.93472 5.73079 5.94177 5.80849L5.72463 5.8282Z"/>
</mask>
<path d="M5.72463 5.8282C5.71694 5.74339 5.71341 5.65827 5.71406 5.57312L5.93208 5.57478C5.93148 5.65279 5.93472 5.73079 5.94177 5.80849L5.72463 5.8282Z" stroke="white" stroke-width="2" mask="url(#path-26-inside-23_2204_10310)"/>
<mask id="path-27-inside-24_2204_10310" fill="white">
<path d="M8.62845 3.0085C8.71175 3.01853 8.79452 3.03259 8.87647 3.05062L8.82962 3.26355C8.75454 3.24703 8.6787 3.23415 8.60237 3.22496L8.62845 3.0085Z"/>
</mask>
<path d="M8.62845 3.0085C8.71175 3.01853 8.79452 3.03259 8.87647 3.05062L8.82962 3.26355C8.75454 3.24703 8.6787 3.23415 8.60237 3.22496L8.62845 3.0085Z" stroke="white" stroke-width="2" mask="url(#path-27-inside-24_2204_10310)"/>
<circle cx="2.41031" cy="2.41031" r="1.91031" transform="matrix(0.506003 0.862531 0.862531 -0.506003 2.7876 13.3143)" stroke="white"/>
<mask id="path-29-inside-25_2204_10310" fill="white">
<path d="M7.02544 16.6014C6.42852 16.8323 5.76744 16.8353 5.16849 16.6097C4.56954 16.384 4.07471 15.9456 3.77853 15.3783L3.9718 15.2774C4.24318 15.7972 4.69657 16.1989 5.24535 16.4056C5.79413 16.6124 6.39984 16.6097 6.94677 16.3981L7.02544 16.6014Z"/>
</mask>
<path d="M7.02544 16.6014C6.42852 16.8323 5.76744 16.8353 5.16849 16.6097C4.56954 16.384 4.07471 15.9456 3.77853 15.3783L3.9718 15.2774C4.24318 15.7972 4.69657 16.1989 5.24535 16.4056C5.79413 16.6124 6.39984 16.6097 6.94677 16.3981L7.02544 16.6014Z" stroke="white" stroke-width="2" mask="url(#path-29-inside-25_2204_10310)"/>
<mask id="path-30-inside-26_2204_10310" fill="white">
<path d="M8.248 12.7236C8.54214 13.1621 8.69597 13.6797 8.68906 14.2077C8.68216 14.7357 8.51484 15.2491 8.20932 15.6798L8.0315 15.5536C8.31143 15.159 8.46473 14.6886 8.47106 14.2048C8.47739 13.7211 8.33644 13.2468 8.06693 12.845L8.248 12.7236Z"/>
</mask>
<path d="M8.248 12.7236C8.54214 13.1621 8.69597 13.6797 8.68906 14.2077C8.68216 14.7357 8.51484 15.2491 8.20932 15.6798L8.0315 15.5536C8.31143 15.159 8.46473 14.6886 8.47106 14.2048C8.47739 13.7211 8.33644 13.2468 8.06693 12.845L8.248 12.7236Z" stroke="white" stroke-width="2" mask="url(#path-30-inside-26_2204_10310)"/>
<mask id="path-31-inside-27_2204_10310" fill="white">
<path d="M7.61654 12.0679C7.82351 12.2183 8.00717 12.3984 8.1616 12.6024L7.98777 12.734C7.84628 12.5471 7.67799 12.3821 7.48836 12.2442L7.61654 12.0679Z"/>
</mask>
<path d="M7.61654 12.0679C7.82351 12.2183 8.00717 12.3984 8.1616 12.6024L7.98777 12.734C7.84628 12.5471 7.67799 12.3821 7.48836 12.2442L7.61654 12.0679Z" stroke="white" stroke-width="2" mask="url(#path-31-inside-27_2204_10310)"/>
<mask id="path-32-inside-28_2204_10310" fill="white">
<path d="M6.74241 11.6546C6.99001 11.7191 7.22673 11.8197 7.44497 11.9533L7.33116 12.1393C7.13121 12.0169 6.9143 11.9247 6.68745 11.8656L6.74241 11.6546Z"/>
</mask>
<path d="M6.74241 11.6546C6.99001 11.7191 7.22673 11.8197 7.44497 11.9533L7.33116 12.1393C7.13121 12.0169 6.9143 11.9247 6.68745 11.8656L6.74241 11.6546Z" stroke="white" stroke-width="2" mask="url(#path-32-inside-28_2204_10310)"/>
<mask id="path-33-inside-29_2204_10310" fill="white">
<path d="M4.76896 11.9284C4.98965 11.7989 5.22821 11.7027 5.47696 11.6428L5.52798 11.8548C5.30007 11.9096 5.08148 11.9978 4.87928 12.1164L4.76896 11.9284Z"/>
</mask>
<path d="M4.76896 11.9284C4.98965 11.7989 5.22821 11.7027 5.47696 11.6428L5.52798 11.8548C5.30007 11.9096 5.08148 11.9978 4.87928 12.1164L4.76896 11.9284Z" stroke="white" stroke-width="2" mask="url(#path-33-inside-29_2204_10310)"/>
<mask id="path-34-inside-30_2204_10310" fill="white">
<path d="M3.7162 15.2505C3.61036 15.0175 3.53944 14.7703 3.50572 14.5166L3.72185 14.4879C3.75274 14.7203 3.81772 14.9469 3.91469 15.1603L3.7162 15.2505Z"/>
</mask>
<path d="M3.7162 15.2505C3.61036 15.0175 3.53944 14.7703 3.50572 14.5166L3.72185 14.4879C3.75274 14.7203 3.81772 14.9469 3.91469 15.1603L3.7162 15.2505Z" stroke="white" stroke-width="2" mask="url(#path-34-inside-30_2204_10310)"/>
<mask id="path-35-inside-31_2204_10310" fill="white">
<path d="M3.49368 14.4089C3.48598 14.3241 3.48245 14.239 3.4831 14.1538L3.70112 14.1555C3.70053 14.2335 3.70376 14.3115 3.71081 14.3892L3.49368 14.4089Z"/>
</mask>
<path d="M3.49368 14.4089C3.48598 14.3241 3.48245 14.239 3.4831 14.1538L3.70112 14.1555C3.70053 14.2335 3.70376 14.3115 3.71081 14.3892L3.49368 14.4089Z" stroke="white" stroke-width="2" mask="url(#path-35-inside-31_2204_10310)"/>
<mask id="path-36-inside-32_2204_10310" fill="white">
<path d="M6.39749 11.5892C6.4808 11.5992 6.56357 11.6133 6.64551 11.6313L6.59867 11.8442C6.52358 11.8277 6.44774 11.8148 6.37142 11.8056L6.39749 11.5892Z"/>
</mask>
<path d="M6.39749 11.5892C6.4808 11.5992 6.56357 11.6133 6.64551 11.6313L6.59867 11.8442C6.52358 11.8277 6.44774 11.8148 6.37142 11.8056L6.39749 11.5892Z" stroke="white" stroke-width="2" mask="url(#path-36-inside-32_2204_10310)"/>
<line y1="-0.5" x2="6.26917" y2="-0.5" transform="matrix(0.506424 0.862285 0.862285 -0.506424 23.7649 6.79626)" stroke="white"/>
<line y1="-0.5" x2="6.76814" y2="-0.5" transform="matrix(0.951377 0.30803 0.30803 -0.951377 18.7083 12.2731)" stroke="white"/>
<line y1="-0.5" x2="3.75429" y2="-0.5" transform="matrix(0.620729 0.784025 0.784025 -0.620729 10.0991 6.74951)" stroke="white"/>
<line y1="-0.5" x2="3.03575" y2="-0.5" transform="matrix(0.974279 -0.225346 -0.225346 -0.974279 8.50977 13.3489)" stroke="white"/>
<circle cx="2.41031" cy="2.41031" r="1.91031" transform="matrix(0.506003 0.862531 0.862531 -0.506003 10.2456 19.0124)" stroke="white"/>
<mask id="path-42-inside-33_2204_10310" fill="white">
<path d="M14.4834 22.2995C13.8865 22.5305 13.2254 22.5334 12.6265 22.3078C12.0276 22.0821 11.5327 21.6438 11.2365 21.0764L11.4298 20.9755C11.7012 21.4954 12.1546 21.897 12.7034 22.1037C13.2521 22.3105 13.8579 22.3078 14.4048 22.0962L14.4834 22.2995Z"/>
</mask>
<path d="M14.4834 22.2995C13.8865 22.5305 13.2254 22.5334 12.6265 22.3078C12.0276 22.0821 11.5327 21.6438 11.2365 21.0764L11.4298 20.9755C11.7012 21.4954 12.1546 21.897 12.7034 22.1037C13.2521 22.3105 13.8579 22.3078 14.4048 22.0962L14.4834 22.2995Z" stroke="white" stroke-width="2" mask="url(#path-42-inside-33_2204_10310)"/>
<mask id="path-43-inside-34_2204_10310" fill="white">
<path d="M15.706 18.4217C16.0002 18.8602 16.154 19.3778 16.1471 19.9058C16.1402 20.4338 15.9728 20.9472 15.6673 21.3779L15.4895 21.2517C15.7694 20.8571 15.9227 20.3867 15.9291 19.903C15.9354 19.4192 15.7945 18.9449 15.5249 18.5431L15.706 18.4217Z"/>
</mask>
<path d="M15.706 18.4217C16.0002 18.8602 16.154 19.3778 16.1471 19.9058C16.1402 20.4338 15.9728 20.9472 15.6673 21.3779L15.4895 21.2517C15.7694 20.8571 15.9227 20.3867 15.9291 19.903C15.9354 19.4192 15.7945 18.9449 15.5249 18.5431L15.706 18.4217Z" stroke="white" stroke-width="2" mask="url(#path-43-inside-34_2204_10310)"/>
<mask id="path-44-inside-35_2204_10310" fill="white">
<path d="M15.0745 17.766C15.2815 17.9164 15.4652 18.0965 15.6196 18.3005L15.4458 18.4321C15.3043 18.2452 15.136 18.0802 14.9464 17.9424L15.0745 17.766Z"/>
</mask>
<path d="M15.0745 17.766C15.2815 17.9164 15.4652 18.0965 15.6196 18.3005L15.4458 18.4321C15.3043 18.2452 15.136 18.0802 14.9464 17.9424L15.0745 17.766Z" stroke="white" stroke-width="2" mask="url(#path-44-inside-35_2204_10310)"/>
<mask id="path-45-inside-36_2204_10310" fill="white">
<path d="M14.2004 17.3527C14.448 17.4172 14.6847 17.5179 14.903 17.6514L14.7892 17.8374C14.5892 17.715 14.3723 17.6228 14.1455 17.5637L14.2004 17.3527Z"/>
</mask>
<path d="M14.2004 17.3527C14.448 17.4172 14.6847 17.5179 14.903 17.6514L14.7892 17.8374C14.5892 17.715 14.3723 17.6228 14.1455 17.5637L14.2004 17.3527Z" stroke="white" stroke-width="2" mask="url(#path-45-inside-36_2204_10310)"/>
<mask id="path-46-inside-37_2204_10310" fill="white">
<path d="M12.227 17.6265C12.4477 17.497 12.6862 17.4008 12.935 17.3409L12.986 17.5529C12.7581 17.6077 12.5395 17.6959 12.3373 17.8145L12.227 17.6265Z"/>
</mask>
<path d="M12.227 17.6265C12.4477 17.497 12.6862 17.4008 12.935 17.3409L12.986 17.5529C12.7581 17.6077 12.5395 17.6959 12.3373 17.8145L12.227 17.6265Z" stroke="white" stroke-width="2" mask="url(#path-46-inside-37_2204_10310)"/>
<mask id="path-47-inside-38_2204_10310" fill="white">
<path d="M11.1742 20.9486C11.0684 20.7157 10.9974 20.4684 10.9637 20.2148L11.1799 20.186C11.2107 20.4184 11.2757 20.645 11.3727 20.8584L11.1742 20.9486Z"/>
</mask>
<path d="M11.1742 20.9486C11.0684 20.7157 10.9974 20.4684 10.9637 20.2148L11.1799 20.186C11.2107 20.4184 11.2757 20.645 11.3727 20.8584L11.1742 20.9486Z" stroke="white" stroke-width="2" mask="url(#path-47-inside-38_2204_10310)"/>
<mask id="path-48-inside-39_2204_10310" fill="white">
<path d="M10.9517 20.107C10.944 20.0222 10.9405 19.9371 10.9411 19.8519L11.1591 19.8536C11.1585 19.9316 11.1618 20.0096 11.1688 20.0873L10.9517 20.107Z"/>
</mask>
<path d="M10.9517 20.107C10.944 20.0222 10.9405 19.9371 10.9411 19.8519L11.1591 19.8536C11.1585 19.9316 11.1618 20.0096 11.1688 20.0873L10.9517 20.107Z" stroke="white" stroke-width="2" mask="url(#path-48-inside-39_2204_10310)"/>
<mask id="path-49-inside-40_2204_10310" fill="white">
<path d="M13.8555 17.2873C13.9388 17.2973 14.0216 17.3114 14.1035 17.3294L14.0567 17.5424C13.9816 17.5258 13.9058 17.513 13.8294 17.5038L13.8555 17.2873Z"/>
</mask>
<path d="M13.8555 17.2873C13.9388 17.2973 14.0216 17.3114 14.1035 17.3294L14.0567 17.5424C13.9816 17.5258 13.9058 17.513 13.8294 17.5038L13.8555 17.2873Z" stroke="white" stroke-width="2" mask="url(#path-49-inside-40_2204_10310)"/>
<line y1="-0.5" x2="2.65468" y2="-0.5" transform="matrix(0.115468 -0.993311 -0.993311 -0.115468 13.6516 17.7499)" stroke="white"/>
</svg>
