<svg width="120" height="161" viewBox="0 0 120 161" fill="none" xmlns="http://www.w3.org/2000/svg">
<circle cx="16.6867" cy="16.6867" r="16.1867" transform="matrix(0.48086 -0.876798 -0.876798 -0.48086 41.6407 60.1641)" stroke="#333333"/>
<mask id="path-2-inside-1_2202_15056" fill="white">
<path d="M46.1263 23.3058C49.6185 26.0331 51.9836 29.9514 52.7697 34.3122C53.5557 38.6729 52.7077 43.1704 50.3877 46.9455L49.1017 46.1551C51.2275 42.6962 52.0044 38.5754 51.2842 34.5799C50.5639 30.5844 48.397 26.9943 45.1972 24.4954L46.1263 23.3058Z"/>
</mask>
<path d="M46.1263 23.3058C49.6185 26.0331 51.9836 29.9514 52.7697 34.3122C53.5557 38.6729 52.7077 43.1704 50.3877 46.9455L49.1017 46.1551C51.2275 42.6962 52.0044 38.5754 51.2842 34.5799C50.5639 30.5844 48.397 26.9943 45.1972 24.4954L46.1263 23.3058Z" stroke="#333333" stroke-width="2" mask="url(#path-2-inside-1_2202_15056)"/>
<mask id="path-3-inside-2_2202_15056" fill="white">
<path d="M18.7391 29.8112C20.3006 26.5058 22.8305 23.7535 25.9928 21.9196C29.1552 20.0856 32.8005 19.2567 36.4449 19.543L36.3267 21.0477C32.9875 20.7855 29.6475 21.5449 26.75 23.2253C23.8526 24.9056 21.5346 27.4274 20.1038 30.456L18.7391 29.8112Z"/>
</mask>
<path d="M18.7391 29.8112C20.3006 26.5058 22.8305 23.7535 25.9928 21.9196C29.1552 20.0856 32.8005 19.2567 36.4449 19.543L36.3267 21.0477C32.9875 20.7855 29.6475 21.5449 26.75 23.2253C23.8526 24.9056 21.5346 27.4274 20.1038 30.456L18.7391 29.8112Z" stroke="#333333" stroke-width="2" mask="url(#path-3-inside-2_2202_15056)"/>
<mask id="path-4-inside-3_2202_15056" fill="white">
<path d="M17.0849 35.8924C17.2438 34.1282 17.6619 32.3971 18.3258 30.7549L19.7252 31.3206C19.1169 32.8253 18.7338 34.4114 18.5882 36.0278L17.0849 35.8924Z"/>
</mask>
<path d="M17.0849 35.8924C17.2438 34.1282 17.6619 32.3971 18.3258 30.7549L19.7252 31.3206C19.1169 32.8253 18.7338 34.4114 18.5882 36.0278L17.0849 35.8924Z" stroke="#333333" stroke-width="2" mask="url(#path-4-inside-3_2202_15056)"/>
<mask id="path-5-inside-4_2202_15056" fill="white">
<path d="M17.7329 42.5548C17.237 40.8544 16.9945 39.0901 17.0132 37.3189L18.5225 37.3348C18.5054 38.9577 18.7276 40.5742 19.1819 42.1323L17.7329 42.5548Z"/>
</mask>
<path d="M17.7329 42.5548C17.237 40.8544 16.9945 39.0901 17.0132 37.3189L18.5225 37.3348C18.5054 38.9577 18.7276 40.5742 19.1819 42.1323L17.7329 42.5548Z" stroke="#333333" stroke-width="2" mask="url(#path-5-inside-4_2202_15056)"/>
<mask id="path-6-inside-5_2202_15056" fill="white">
<path d="M26.368 53.3107C24.8149 52.4589 23.3959 51.3829 22.1567 50.1172L23.2352 49.0612C24.3706 50.2209 25.6708 51.2068 27.0938 51.9872L26.368 53.3107Z"/>
</mask>
<path d="M26.368 53.3107C24.8149 52.4589 23.3959 51.3829 22.1567 50.1172L23.2352 49.0612C24.3706 50.2209 25.6708 51.2068 27.0938 51.9872L26.368 53.3107Z" stroke="#333333" stroke-width="2" mask="url(#path-6-inside-5_2202_15056)"/>
<mask id="path-7-inside-6_2202_15056" fill="white">
<path d="M49.8496 47.7697C48.8411 49.2259 47.6235 50.5254 46.2359 51.6265L45.2977 50.4441C46.569 49.4353 47.6847 48.2446 48.6087 46.9103L49.8496 47.7697Z"/>
</mask>
<path d="M49.8496 47.7697C48.8411 49.2259 47.6235 50.5254 46.2359 51.6265L45.2977 50.4441C46.569 49.4353 47.6847 48.2446 48.6087 46.9103L49.8496 47.7697Z" stroke="#333333" stroke-width="2" mask="url(#path-7-inside-6_2202_15056)"/>
<mask id="path-8-inside-7_2202_15056" fill="white">
<path d="M45.6383 52.0807C45.1616 52.4276 44.6683 52.7509 44.1599 53.0494L43.3956 51.7479C43.8613 51.4743 44.3134 51.1781 44.7501 50.8603L45.6383 52.0807Z"/>
</mask>
<path d="M45.6383 52.0807C45.1616 52.4276 44.6683 52.7509 44.1599 53.0494L43.3956 51.7479C43.8613 51.4743 44.3134 51.1781 44.7501 50.8603L45.6383 52.0807Z" stroke="#333333" stroke-width="2" mask="url(#path-8-inside-7_2202_15056)"/>
<mask id="path-9-inside-8_2202_15056" fill="white">
<path d="M18.5691 44.8369C18.3329 44.3062 18.1225 43.7644 17.9387 43.2134L19.3705 42.7356C19.539 43.2405 19.7317 43.7369 19.9481 44.2232L18.5691 44.8369Z"/>
</mask>
<path d="M18.5691 44.8369C18.3329 44.3062 18.1225 43.7644 17.9387 43.2134L19.3705 42.7356C19.539 43.2405 19.7317 43.7369 19.9481 44.2232L18.5691 44.8369Z" stroke="#333333" stroke-width="2" mask="url(#path-9-inside-8_2202_15056)"/>
<circle cx="16.6867" cy="16.6867" r="16.1867" transform="matrix(0.48086 -0.876798 -0.876798 -0.48086 60.8308 122.325)" stroke="#333333"/>
<mask id="path-11-inside-9_2202_15056" fill="white">
<path d="M65.3163 85.467C68.8086 88.1943 71.1736 92.1126 71.9597 96.4733C72.7458 100.834 71.8978 105.332 69.5777 109.107L68.2918 108.316C70.4175 104.857 71.1945 100.737 70.4743 96.7411C69.754 92.7456 67.587 89.1555 64.3873 86.6566L65.3163 85.467Z"/>
</mask>
<path d="M65.3163 85.467C68.8086 88.1943 71.1736 92.1126 71.9597 96.4733C72.7458 100.834 71.8978 105.332 69.5777 109.107L68.2918 108.316C70.4175 104.857 71.1945 100.737 70.4743 96.7411C69.754 92.7456 67.587 89.1555 64.3873 86.6566L65.3163 85.467Z" stroke="#333333" stroke-width="2" mask="url(#path-11-inside-9_2202_15056)"/>
<mask id="path-12-inside-10_2202_15056" fill="white">
<path d="M37.9291 91.9723C39.4907 88.667 42.0205 85.9147 45.1829 84.0807C48.3452 82.2467 51.9905 81.4179 55.635 81.7041L55.5168 83.2089C52.1776 82.9466 48.8376 83.7061 45.9401 85.3864C43.0426 87.0668 40.7247 89.5886 39.2939 92.6171L37.9291 91.9723Z"/>
</mask>
<path d="M37.9291 91.9723C39.4907 88.667 42.0205 85.9147 45.1829 84.0807C48.3452 82.2467 51.9905 81.4179 55.635 81.7041L55.5168 83.2089C52.1776 82.9466 48.8376 83.7061 45.9401 85.3864C43.0426 87.0668 40.7247 89.5886 39.2939 92.6171L37.9291 91.9723Z" stroke="#333333" stroke-width="2" mask="url(#path-12-inside-10_2202_15056)"/>
<mask id="path-13-inside-11_2202_15056" fill="white">
<path d="M36.2749 98.0535C36.4339 96.2893 36.852 94.5582 37.5159 92.916L38.9153 93.4818C38.307 94.9864 37.9239 96.5725 37.7782 98.1889L36.2749 98.0535Z"/>
</mask>
<path d="M36.2749 98.0535C36.4339 96.2893 36.852 94.5582 37.5159 92.916L38.9153 93.4818C38.307 94.9864 37.9239 96.5725 37.7782 98.1889L36.2749 98.0535Z" stroke="#333333" stroke-width="2" mask="url(#path-13-inside-11_2202_15056)"/>
<mask id="path-14-inside-12_2202_15056" fill="white">
<path d="M36.923 104.716C36.427 103.016 36.1845 101.251 36.2032 99.48L37.7126 99.496C37.6954 101.119 37.9176 102.735 38.372 104.293L36.923 104.716Z"/>
</mask>
<path d="M36.923 104.716C36.427 103.016 36.1845 101.251 36.2032 99.48L37.7126 99.496C37.6954 101.119 37.9176 102.735 38.372 104.293L36.923 104.716Z" stroke="#333333" stroke-width="2" mask="url(#path-14-inside-12_2202_15056)"/>
<mask id="path-15-inside-13_2202_15056" fill="white">
<path d="M45.558 115.472C44.0049 114.62 42.5859 113.544 41.3467 112.278L42.4253 111.222C43.5607 112.382 44.8608 113.368 46.2838 114.148L45.558 115.472Z"/>
</mask>
<path d="M45.558 115.472C44.0049 114.62 42.5859 113.544 41.3467 112.278L42.4253 111.222C43.5607 112.382 44.8608 113.368 46.2838 114.148L45.558 115.472Z" stroke="#333333" stroke-width="2" mask="url(#path-15-inside-13_2202_15056)"/>
<mask id="path-16-inside-14_2202_15056" fill="white">
<path d="M69.0396 109.931C68.0312 111.387 66.8135 112.687 65.426 113.788L64.4878 112.605C65.7591 111.596 66.8747 110.406 67.7987 109.071L69.0396 109.931Z"/>
</mask>
<path d="M69.0396 109.931C68.0312 111.387 66.8135 112.687 65.426 113.788L64.4878 112.605C65.7591 111.596 66.8747 110.406 67.7987 109.071L69.0396 109.931Z" stroke="#333333" stroke-width="2" mask="url(#path-16-inside-14_2202_15056)"/>
<mask id="path-17-inside-15_2202_15056" fill="white">
<path d="M64.8284 114.242C64.3517 114.589 63.8583 114.912 63.35 115.211L62.5857 113.909C63.0514 113.635 63.5035 113.339 63.9402 113.021L64.8284 114.242Z"/>
</mask>
<path d="M64.8284 114.242C64.3517 114.589 63.8583 114.912 63.35 115.211L62.5857 113.909C63.0514 113.635 63.5035 113.339 63.9402 113.021L64.8284 114.242Z" stroke="#333333" stroke-width="2" mask="url(#path-17-inside-15_2202_15056)"/>
<mask id="path-18-inside-16_2202_15056" fill="white">
<path d="M37.7592 106.998C37.523 106.467 37.3126 105.926 37.1288 105.374L38.5606 104.897C38.729 105.402 38.9218 105.898 39.1382 106.384L37.7592 106.998Z"/>
</mask>
<path d="M37.7592 106.998C37.523 106.467 37.3126 105.926 37.1288 105.374L38.5606 104.897C38.729 105.402 38.9218 105.898 39.1382 106.384L37.7592 106.998Z" stroke="#333333" stroke-width="2" mask="url(#path-18-inside-16_2202_15056)"/>
<circle cx="11.1245" cy="11.1245" r="10.6245" transform="matrix(0.48086 -0.876798 -0.876798 -0.48086 49.4756 155.158)" stroke="#333333"/>
<mask id="path-20-inside-17_2202_15056" fill="white">
<path d="M52.4661 130.586C54.7942 132.404 56.371 135.017 56.895 137.924C57.4191 140.831 56.8537 143.829 55.307 146.346L54.4497 145.819C55.8669 143.513 56.3849 140.766 55.9047 138.102C55.4245 135.439 53.9799 133.045 51.8467 131.379L52.4661 130.586Z"/>
</mask>
<path d="M52.4661 130.586C54.7942 132.404 56.371 135.017 56.895 137.924C57.4191 140.831 56.8537 143.829 55.307 146.346L54.4497 145.819C55.8669 143.513 56.3849 140.766 55.9047 138.102C55.4245 135.439 53.9799 133.045 51.8467 131.379L52.4661 130.586Z" stroke="#333333" stroke-width="2" mask="url(#path-20-inside-17_2202_15056)"/>
<mask id="path-21-inside-18_2202_15056" fill="white">
<path d="M34.208 134.923C35.249 132.72 36.9356 130.885 39.0438 129.662C41.152 128.439 43.5822 127.887 46.0119 128.078L45.9331 129.081C43.7069 128.906 41.4803 129.412 39.5486 130.533C37.617 131.653 36.0717 133.334 35.1178 135.353L34.208 134.923Z"/>
</mask>
<path d="M34.208 134.923C35.249 132.72 36.9356 130.885 39.0438 129.662C41.152 128.439 43.5822 127.887 46.0119 128.078L45.9331 129.081C43.7069 128.906 41.4803 129.412 39.5486 130.533C37.617 131.653 36.0717 133.334 35.1178 135.353L34.208 134.923Z" stroke="#333333" stroke-width="2" mask="url(#path-21-inside-18_2202_15056)"/>
<mask id="path-22-inside-19_2202_15056" fill="white">
<path d="M33.1052 138.977C33.2111 137.801 33.4899 136.647 33.9325 135.552L34.8654 135.929C34.4599 136.933 34.2044 137.99 34.1074 139.068L33.1052 138.977Z"/>
</mask>
<path d="M33.1052 138.977C33.2111 137.801 33.4899 136.647 33.9325 135.552L34.8654 135.929C34.4599 136.933 34.2044 137.99 34.1074 139.068L33.1052 138.977Z" stroke="#333333" stroke-width="2" mask="url(#path-22-inside-19_2202_15056)"/>
<mask id="path-23-inside-20_2202_15056" fill="white">
<path d="M33.5372 143.419C33.2066 142.285 33.0449 141.109 33.0574 139.928L34.0636 139.939C34.0522 141.021 34.2003 142.098 34.5032 143.137L33.5372 143.419Z"/>
</mask>
<path d="M33.5372 143.419C33.2066 142.285 33.0449 141.109 33.0574 139.928L34.0636 139.939C34.0522 141.021 34.2003 142.098 34.5032 143.137L33.5372 143.419Z" stroke="#333333" stroke-width="2" mask="url(#path-23-inside-20_2202_15056)"/>
<mask id="path-24-inside-21_2202_15056" fill="white">
<path d="M39.2939 150.589C38.2585 150.022 37.3125 149.304 36.4864 148.46L37.2054 147.756C37.9623 148.53 38.8291 149.187 39.7778 149.707L39.2939 150.589Z"/>
</mask>
<path d="M39.2939 150.589C38.2585 150.022 37.3125 149.304 36.4864 148.46L37.2054 147.756C37.9623 148.53 38.8291 149.187 39.7778 149.707L39.2939 150.589Z" stroke="#333333" stroke-width="2" mask="url(#path-24-inside-21_2202_15056)"/>
<mask id="path-25-inside-22_2202_15056" fill="white">
<path d="M54.9483 146.895C54.276 147.866 53.4642 148.733 52.5392 149.467L51.9137 148.678C52.7613 148.006 53.505 147.212 54.121 146.323L54.9483 146.895Z"/>
</mask>
<path d="M54.9483 146.895C54.276 147.866 53.4642 148.733 52.5392 149.467L51.9137 148.678C52.7613 148.006 53.505 147.212 54.121 146.323L54.9483 146.895Z" stroke="#333333" stroke-width="2" mask="url(#path-25-inside-22_2202_15056)"/>
<mask id="path-26-inside-23_2202_15056" fill="white">
<path d="M52.1408 149.769C51.823 150.001 51.4941 150.216 51.1552 150.415L50.6456 149.548C50.9561 149.365 51.2575 149.168 51.5487 148.956L52.1408 149.769Z"/>
</mask>
<path d="M52.1408 149.769C51.823 150.001 51.4941 150.216 51.1552 150.415L50.6456 149.548C50.9561 149.365 51.2575 149.168 51.5487 148.956L52.1408 149.769Z" stroke="#333333" stroke-width="2" mask="url(#path-26-inside-23_2202_15056)"/>
<mask id="path-27-inside-24_2202_15056" fill="white">
<path d="M34.0947 144.94C33.9372 144.586 33.7969 144.225 33.6744 143.858L34.6289 143.539C34.7412 143.876 34.8697 144.207 35.014 144.531L34.0947 144.94Z"/>
</mask>
<path d="M34.0947 144.94C33.9372 144.586 33.7969 144.225 33.6744 143.858L34.6289 143.539C34.7412 143.876 34.8697 144.207 35.014 144.531L34.0947 144.94Z" stroke="#333333" stroke-width="2" mask="url(#path-27-inside-24_2202_15056)"/>
<path d="M89.4577 119.264C84.3129 116.442 77.8548 118.326 75.0333 123.47C72.2117 128.615 74.0951 135.073 79.2399 137.895C84.3847 140.716 90.8428 138.833 93.6643 133.688C96.4859 128.543 94.6025 122.085 89.4577 119.264Z" stroke="#333333"/>
<mask id="path-29-inside-25_2202_15056" fill="white">
<path d="M91.7439 119.111C94.0721 120.929 95.6488 123.541 96.1729 126.448C96.6969 129.355 96.1316 132.354 94.5849 134.87L93.7276 134.343C95.1447 132.038 95.6627 129.29 95.1825 126.627C94.7024 123.963 93.2577 121.57 91.1246 119.904L91.7439 119.111Z"/>
</mask>
<path d="M91.7439 119.111C94.0721 120.929 95.6488 123.541 96.1729 126.448C96.6969 129.355 96.1316 132.354 94.5849 134.87L93.7276 134.343C95.1447 132.038 95.6627 129.29 95.1825 126.627C94.7024 123.963 93.2577 121.57 91.1246 119.904L91.7439 119.111Z" stroke="#333333" stroke-width="2" mask="url(#path-29-inside-25_2202_15056)"/>
<mask id="path-30-inside-26_2202_15056" fill="white">
<path d="M73.4858 123.448C74.5268 121.244 76.2134 119.409 78.3216 118.186C80.4299 116.964 82.8601 116.411 85.2897 116.602L85.2109 117.605C82.9848 117.43 80.7581 117.937 78.8264 119.057C76.8948 120.177 75.3495 121.858 74.3956 123.877L73.4858 123.448Z"/>
</mask>
<path d="M73.4858 123.448C74.5268 121.244 76.2134 119.409 78.3216 118.186C80.4299 116.964 82.8601 116.411 85.2897 116.602L85.2109 117.605C82.9848 117.43 80.7581 117.937 78.8264 119.057C76.8948 120.177 75.3495 121.858 74.3956 123.877L73.4858 123.448Z" stroke="#333333" stroke-width="2" mask="url(#path-30-inside-26_2202_15056)"/>
<mask id="path-31-inside-27_2202_15056" fill="white">
<path d="M72.383 127.502C72.4889 126.326 72.7677 125.171 73.2103 124.077L74.1432 124.454C73.7377 125.457 73.4823 126.514 73.3852 127.592L72.383 127.502Z"/>
</mask>
<path d="M72.383 127.502C72.4889 126.326 72.7677 125.171 73.2103 124.077L74.1432 124.454C73.7377 125.457 73.4823 126.514 73.3852 127.592L72.383 127.502Z" stroke="#333333" stroke-width="2" mask="url(#path-31-inside-27_2202_15056)"/>
<mask id="path-32-inside-28_2202_15056" fill="white">
<path d="M72.815 131.943C72.4844 130.81 72.3227 129.633 72.3352 128.453L73.3414 128.463C73.33 129.545 73.4781 130.623 73.781 131.662L72.815 131.943Z"/>
</mask>
<path d="M72.815 131.943C72.4844 130.81 72.3227 129.633 72.3352 128.453L73.3414 128.463C73.33 129.545 73.4781 130.623 73.781 131.662L72.815 131.943Z" stroke="#333333" stroke-width="2" mask="url(#path-32-inside-28_2202_15056)"/>
<mask id="path-33-inside-29_2202_15056" fill="white">
<path d="M78.5717 139.114C77.5363 138.546 76.5903 137.829 75.7642 136.985L76.4832 136.281C77.2401 137.054 78.1069 137.711 79.0556 138.232L78.5717 139.114Z"/>
</mask>
<path d="M78.5717 139.114C77.5363 138.546 76.5903 137.829 75.7642 136.985L76.4832 136.281C77.2401 137.054 78.1069 137.711 79.0556 138.232L78.5717 139.114Z" stroke="#333333" stroke-width="2" mask="url(#path-33-inside-29_2202_15056)"/>
<mask id="path-34-inside-30_2202_15056" fill="white">
<path d="M94.2261 135.42C93.5538 136.391 92.7421 137.257 91.817 137.991L91.1915 137.203C92.0391 136.53 92.7829 135.736 93.3989 134.847L94.2261 135.42Z"/>
</mask>
<path d="M94.2261 135.42C93.5538 136.391 92.7421 137.257 91.817 137.991L91.1915 137.203C92.0391 136.53 92.7829 135.736 93.3989 134.847L94.2261 135.42Z" stroke="#333333" stroke-width="2" mask="url(#path-34-inside-30_2202_15056)"/>
<mask id="path-35-inside-31_2202_15056" fill="white">
<path d="M91.4186 138.294C91.1008 138.525 90.7719 138.741 90.433 138.94L89.9235 138.072C90.234 137.89 90.5353 137.692 90.8265 137.48L91.4186 138.294Z"/>
</mask>
<path d="M91.4186 138.294C91.1008 138.525 90.7719 138.741 90.433 138.94L89.9235 138.072C90.234 137.89 90.5353 137.692 90.8265 137.48L91.4186 138.294Z" stroke="#333333" stroke-width="2" mask="url(#path-35-inside-31_2202_15056)"/>
<mask id="path-36-inside-32_2202_15056" fill="white">
<path d="M73.3725 133.465C73.215 133.111 73.0748 132.75 72.9522 132.382L73.9067 132.064C74.0191 132.4 74.1476 132.731 74.2918 133.056L73.3725 133.465Z"/>
</mask>
<path d="M73.3725 133.465C73.215 133.111 73.0748 132.75 72.9522 132.382L73.9067 132.064C74.0191 132.4 74.1476 132.731 74.2918 133.056L73.3725 133.465Z" stroke="#333333" stroke-width="2" mask="url(#path-36-inside-32_2202_15056)"/>
<line y1="-0.5" x2="28.9346" y2="-0.5" transform="matrix(0.480432 -0.877032 -0.877032 -0.480432 13.2664 76.0029)" stroke="#333333"/>
<line y1="-0.5" x2="31.2376" y2="-0.5" transform="matrix(-0.223589 -0.974683 -0.974683 0.223589 46.9365 83.0708)" stroke="#333333"/>
<line y1="-0.5" x2="17.3275" y2="-0.5" transform="matrix(0.35462 -0.935011 -0.935011 -0.35462 45.4343 130.256)" stroke="#333333"/>
<line y1="-0.5" x2="14.0111" y2="-0.5" transform="matrix(-0.693197 -0.720749 -0.720749 0.693197 75.3438 120.93)" stroke="#333333"/>
<circle cx="11.1245" cy="11.1245" r="10.6245" transform="matrix(0.48086 -0.876798 -0.876798 -0.48086 93.6724 100.644)" stroke="#333333"/>
<mask id="path-42-inside-33_2202_15056" fill="white">
<path d="M96.6629 76.072C98.991 77.8903 100.568 80.5024 101.092 83.4096C101.616 86.3168 101.051 89.3151 99.5038 91.8318L98.6465 91.3049C100.064 88.999 100.582 86.2518 100.101 83.5881C99.6213 80.9245 98.1767 78.531 96.0435 76.8651L96.6629 76.072Z"/>
</mask>
<path d="M96.6629 76.072C98.991 77.8903 100.568 80.5024 101.092 83.4096C101.616 86.3168 101.051 89.3151 99.5038 91.8318L98.6465 91.3049C100.064 88.999 100.582 86.2518 100.101 83.5881C99.6213 80.9245 98.1767 78.531 96.0435 76.8651L96.6629 76.072Z" stroke="#333333" stroke-width="2" mask="url(#path-42-inside-33_2202_15056)"/>
<mask id="path-43-inside-34_2202_15056" fill="white">
<path d="M78.4047 80.409C79.4458 78.2054 81.1323 76.3705 83.2406 75.1479C85.3488 73.9252 87.779 73.3727 90.2086 73.5635L90.1298 74.5667C87.9037 74.3918 85.677 74.8981 83.7454 76.0184C81.8137 77.1386 80.2684 78.8198 79.3146 80.8388L78.4047 80.409Z"/>
</mask>
<path d="M78.4047 80.409C79.4458 78.2054 81.1323 76.3705 83.2406 75.1479C85.3488 73.9252 87.779 73.3727 90.2086 73.5635L90.1298 74.5667C87.9037 74.3918 85.677 74.8981 83.7454 76.0184C81.8137 77.1386 80.2684 78.8198 79.3146 80.8388L78.4047 80.409Z" stroke="#333333" stroke-width="2" mask="url(#path-43-inside-34_2202_15056)"/>
<mask id="path-44-inside-35_2202_15056" fill="white">
<path d="M77.3019 84.4631C77.4079 83.287 77.6866 82.1329 78.1292 81.0381L79.0622 81.4152C78.6566 82.4183 78.4012 83.4757 78.3041 84.5533L77.3019 84.4631Z"/>
</mask>
<path d="M77.3019 84.4631C77.4079 83.287 77.6866 82.1329 78.1292 81.0381L79.0622 81.4152C78.6566 82.4183 78.4012 83.4757 78.3041 84.5533L77.3019 84.4631Z" stroke="#333333" stroke-width="2" mask="url(#path-44-inside-35_2202_15056)"/>
<mask id="path-45-inside-36_2202_15056" fill="white">
<path d="M77.734 88.9047C77.4033 87.7711 77.2417 86.5949 77.2541 85.4141L78.2604 85.4247C78.2489 86.5066 78.3971 87.5843 78.7 88.623L77.734 88.9047Z"/>
</mask>
<path d="M77.734 88.9047C77.4033 87.7711 77.2417 86.5949 77.2541 85.4141L78.2604 85.4247C78.2489 86.5066 78.3971 87.5843 78.7 88.623L77.734 88.9047Z" stroke="#333333" stroke-width="2" mask="url(#path-45-inside-36_2202_15056)"/>
<mask id="path-46-inside-37_2202_15056" fill="white">
<path d="M83.4907 96.0753C82.4553 95.5074 81.5093 94.7901 80.6831 93.9463L81.4022 93.2423C82.1591 94.0154 83.0259 94.6727 83.9745 95.193L83.4907 96.0753Z"/>
</mask>
<path d="M83.4907 96.0753C82.4553 95.5074 81.5093 94.7901 80.6831 93.9463L81.4022 93.2423C82.1591 94.0154 83.0259 94.6727 83.9745 95.193L83.4907 96.0753Z" stroke="#333333" stroke-width="2" mask="url(#path-46-inside-37_2202_15056)"/>
<mask id="path-47-inside-38_2202_15056" fill="white">
<path d="M99.1451 92.3813C98.4728 93.3521 97.661 94.2185 96.736 94.9525L96.1105 94.1642C96.958 93.4917 97.7018 92.6979 98.3178 91.8084L99.1451 92.3813Z"/>
</mask>
<path d="M99.1451 92.3813C98.4728 93.3521 97.661 94.2185 96.736 94.9525L96.1105 94.1642C96.958 93.4917 97.7018 92.6979 98.3178 91.8084L99.1451 92.3813Z" stroke="#333333" stroke-width="2" mask="url(#path-47-inside-38_2202_15056)"/>
<mask id="path-48-inside-39_2202_15056" fill="white">
<path d="M96.3376 95.2553C96.0198 95.4866 95.6909 95.7021 95.352 95.9011L94.8424 95.0334C95.1529 94.8511 95.4543 94.6536 95.7454 94.4417L96.3376 95.2553Z"/>
</mask>
<path d="M96.3376 95.2553C96.0198 95.4866 95.6909 95.7021 95.352 95.9011L94.8424 95.0334C95.1529 94.8511 95.4543 94.6536 95.7454 94.4417L96.3376 95.2553Z" stroke="#333333" stroke-width="2" mask="url(#path-48-inside-39_2202_15056)"/>
<mask id="path-49-inside-40_2202_15056" fill="white">
<path d="M78.2915 90.4261C78.134 90.0723 77.9937 89.7111 77.8712 89.3437L78.8257 89.0252C78.938 89.3618 79.0665 89.6928 79.2108 90.017L78.2915 90.4261Z"/>
</mask>
<path d="M78.2915 90.4261C78.134 90.0723 77.9937 89.7111 77.8712 89.3437L78.8257 89.0252C78.938 89.3618 79.0665 89.6928 79.2108 90.017L78.2915 90.4261Z" stroke="#333333" stroke-width="2" mask="url(#path-49-inside-40_2202_15056)"/>
<line y1="-0.5" x2="12.2524" y2="-0.5" transform="matrix(-0.911906 0.410398 0.410398 0.911906 80.6069 90.1387)" stroke="#333333"/>
</svg>
