<svg width="166" height="130" viewBox="0 0 166 130" fill="none" xmlns="http://www.w3.org/2000/svg">
<circle cx="16.6867" cy="16.6867" r="16.1867" transform="matrix(0.506003 0.862531 0.862531 -0.506003 108.725 60.0024)" stroke="#333333"/>
<mask id="path-2-inside-1_2202_14944" fill="white">
<path d="M138.064 82.7592C133.932 84.358 129.355 84.3784 125.209 82.8163C121.062 81.2543 117.636 78.2194 115.586 74.2913L116.924 73.5928C118.803 77.1919 121.941 79.9726 125.741 81.4038C129.54 82.835 133.733 82.8164 137.52 81.3515L138.064 82.7592Z"/>
</mask>
<path d="M138.064 82.7592C133.932 84.358 129.355 84.3784 125.209 82.8163C121.062 81.2543 117.636 78.2194 115.586 74.2913L116.924 73.5928C118.803 77.1919 121.941 79.9726 125.741 81.4038C129.54 82.835 133.733 82.8164 137.52 81.3515L138.064 82.7592Z" stroke="#333333" stroke-width="2" mask="url(#path-2-inside-1_2202_14944)"/>
<mask id="path-3-inside-2_2202_14944" fill="white">
<path d="M146.528 55.9126C148.565 58.9485 149.63 62.532 149.582 66.1873C149.534 69.8427 148.376 73.3971 146.261 76.3787L145.029 75.5054C146.967 72.7735 148.029 69.5168 148.073 66.1676C148.116 62.8184 147.141 59.5351 145.275 56.7534L146.528 55.9126Z"/>
</mask>
<path d="M146.528 55.9126C148.565 58.9485 149.63 62.532 149.582 66.1873C149.534 69.8427 148.376 73.3971 146.261 76.3787L145.029 75.5054C146.967 72.7735 148.029 69.5168 148.073 66.1676C148.116 62.8184 147.141 59.5351 145.275 56.7534L146.528 55.9126Z" stroke="#333333" stroke-width="2" mask="url(#path-3-inside-2_2202_14944)"/>
<mask id="path-4-inside-3_2202_14944" fill="white">
<path d="M142.157 51.3733C143.59 52.4146 144.861 53.6615 145.93 55.0738L144.727 55.9848C143.747 54.6909 142.582 53.5484 141.269 52.5943L142.157 51.3733Z"/>
</mask>
<path d="M142.157 51.3733C143.59 52.4146 144.861 53.6615 145.93 55.0738L144.727 55.9848C143.747 54.6909 142.582 53.5484 141.269 52.5943L142.157 51.3733Z" stroke="#333333" stroke-width="2" mask="url(#path-4-inside-3_2202_14944)"/>
<mask id="path-5-inside-4_2202_14944" fill="white">
<path d="M136.105 48.512C137.819 48.9586 139.458 49.6554 140.969 50.58L140.181 51.8674C138.797 51.0203 137.295 50.3818 135.725 49.9727L136.105 48.512Z"/>
</mask>
<path d="M136.105 48.512C137.819 48.9586 139.458 49.6554 140.969 50.58L140.181 51.8674C138.797 51.0203 137.295 50.3818 135.725 49.9727L136.105 48.512Z" stroke="#333333" stroke-width="2" mask="url(#path-5-inside-4_2202_14944)"/>
<mask id="path-6-inside-5_2202_14944" fill="white">
<path d="M122.443 50.4073C123.97 49.5111 125.622 48.8449 127.344 48.4304L127.697 49.8979C126.12 50.2777 124.606 50.888 123.206 51.7093L122.443 50.4073Z"/>
</mask>
<path d="M122.443 50.4073C123.97 49.5111 125.622 48.8449 127.344 48.4304L127.697 49.8979C126.12 50.2777 124.606 50.888 123.206 51.7093L122.443 50.4073Z" stroke="#333333" stroke-width="2" mask="url(#path-6-inside-5_2202_14944)"/>
<mask id="path-7-inside-6_2202_14944" fill="white">
<path d="M115.154 73.4067C114.422 71.794 113.931 70.0822 113.697 68.3263L115.193 68.1274C115.407 69.7362 115.857 71.3047 116.529 72.7823L115.154 73.4067Z"/>
</mask>
<path d="M115.154 73.4067C114.422 71.794 113.931 70.0822 113.697 68.3263L115.193 68.1274C115.407 69.7362 115.857 71.3047 116.529 72.7823L115.154 73.4067Z" stroke="#333333" stroke-width="2" mask="url(#path-7-inside-6_2202_14944)"/>
<mask id="path-8-inside-7_2202_14944" fill="white">
<path d="M113.614 67.5803C113.561 66.9932 113.536 66.4038 113.541 65.8143L115.05 65.8258C115.046 66.3659 115.068 66.9059 115.117 67.4439L113.614 67.5803Z"/>
</mask>
<path d="M113.614 67.5803C113.561 66.9932 113.536 66.4038 113.541 65.8143L115.05 65.8258C115.046 66.3659 115.068 66.9059 115.117 67.4439L113.614 67.5803Z" stroke="#333333" stroke-width="2" mask="url(#path-8-inside-7_2202_14944)"/>
<mask id="path-9-inside-8_2202_14944" fill="white">
<path d="M133.717 48.0593C134.294 48.1288 134.867 48.2261 135.434 48.3509L135.11 49.8251C134.59 49.7107 134.065 49.6215 133.537 49.5579L133.717 48.0593Z"/>
</mask>
<path d="M133.717 48.0593C134.294 48.1288 134.867 48.2261 135.434 48.3509L135.11 49.8251C134.59 49.7107 134.065 49.6215 133.537 49.5579L133.717 48.0593Z" stroke="#333333" stroke-width="2" mask="url(#path-9-inside-8_2202_14944)"/>
<circle cx="16.6867" cy="16.6867" r="16.1867" transform="matrix(0.506003 0.862531 0.862531 -0.506003 45.5216 44.5903)" stroke="#333333"/>
<mask id="path-11-inside-9_2202_14944" fill="white">
<path d="M74.8607 67.3471C70.7282 68.9459 66.1515 68.9663 62.0049 67.4042C57.8584 65.8422 54.4326 62.8073 52.3821 58.8792L53.7202 58.1807C55.5989 61.7798 58.7378 64.5605 62.537 65.9917C66.3363 67.4229 70.5297 67.4043 74.3161 65.9394L74.8607 67.3471Z"/>
</mask>
<path d="M74.8607 67.3471C70.7282 68.9459 66.1515 68.9663 62.0049 67.4042C57.8584 65.8422 54.4326 62.8073 52.3821 58.8792L53.7202 58.1807C55.5989 61.7798 58.7378 64.5605 62.537 65.9917C66.3363 67.4229 70.5297 67.4043 74.3161 65.9394L74.8607 67.3471Z" stroke="#333333" stroke-width="2" mask="url(#path-11-inside-9_2202_14944)"/>
<mask id="path-12-inside-10_2202_14944" fill="white">
<path d="M83.3246 40.5005C85.361 43.5364 86.4259 47.1199 86.3781 50.7752C86.3303 54.4306 85.172 57.985 83.0568 60.9666L81.8257 60.0933C83.7637 57.3614 84.825 54.1047 84.8688 50.7555C84.9127 47.4063 83.9369 44.123 82.0711 41.3413L83.3246 40.5005Z"/>
</mask>
<path d="M83.3246 40.5005C85.361 43.5364 86.4259 47.1199 86.3781 50.7752C86.3303 54.4306 85.172 57.985 83.0568 60.9666L81.8257 60.0933C83.7637 57.3614 84.825 54.1047 84.8688 50.7555C84.9127 47.4063 83.9369 44.123 82.0711 41.3413L83.3246 40.5005Z" stroke="#333333" stroke-width="2" mask="url(#path-12-inside-10_2202_14944)"/>
<mask id="path-13-inside-11_2202_14944" fill="white">
<path d="M78.9529 35.9612C80.3858 37.0025 81.6573 38.2494 82.7265 39.6617L81.523 40.5727C80.5434 39.2788 79.3784 38.1363 78.0655 37.1822L78.9529 35.9612Z"/>
</mask>
<path d="M78.9529 35.9612C80.3858 37.0025 81.6573 38.2494 82.7265 39.6617L81.523 40.5727C80.5434 39.2788 79.3784 38.1363 78.0655 37.1822L78.9529 35.9612Z" stroke="#333333" stroke-width="2" mask="url(#path-13-inside-11_2202_14944)"/>
<mask id="path-14-inside-12_2202_14944" fill="white">
<path d="M72.9013 33.0999C74.6154 33.5465 76.2543 34.2433 77.7651 35.1679L76.9772 36.4553C75.5929 35.6082 74.0913 34.9697 72.5208 34.5606L72.9013 33.0999Z"/>
</mask>
<path d="M72.9013 33.0999C74.6154 33.5465 76.2543 34.2433 77.7651 35.1679L76.9772 36.4553C75.5929 35.6082 74.0913 34.9697 72.5208 34.5606L72.9013 33.0999Z" stroke="#333333" stroke-width="2" mask="url(#path-14-inside-12_2202_14944)"/>
<mask id="path-15-inside-13_2202_14944" fill="white">
<path d="M59.239 34.9952C60.7668 34.0989 62.4184 33.4328 64.1405 33.0183L64.4937 34.4858C62.9158 34.8656 61.4026 35.4759 60.0027 36.2971L59.239 34.9952Z"/>
</mask>
<path d="M59.239 34.9952C60.7668 34.0989 62.4184 33.4328 64.1405 33.0183L64.4937 34.4858C62.9158 34.8656 61.4026 35.4759 60.0027 36.2971L59.239 34.9952Z" stroke="#333333" stroke-width="2" mask="url(#path-15-inside-13_2202_14944)"/>
<mask id="path-16-inside-14_2202_14944" fill="white">
<path d="M51.9506 57.9945C51.2178 56.3819 50.7269 54.67 50.4935 52.9142L51.9897 52.7153C52.2036 54.3241 52.6534 55.8926 53.3248 57.3701L51.9506 57.9945Z"/>
</mask>
<path d="M51.9506 57.9945C51.2178 56.3819 50.7269 54.67 50.4935 52.9142L51.9897 52.7153C52.2036 54.3241 52.6534 55.8926 53.3248 57.3701L51.9506 57.9945Z" stroke="#333333" stroke-width="2" mask="url(#path-16-inside-14_2202_14944)"/>
<mask id="path-17-inside-15_2202_14944" fill="white">
<path d="M50.4101 52.1681C50.3568 51.5811 50.3323 50.9917 50.3368 50.4022L51.8462 50.4137C51.8421 50.9538 51.8645 51.4938 51.9133 52.0317L50.4101 52.1681Z"/>
</mask>
<path d="M50.4101 52.1681C50.3568 51.5811 50.3323 50.9917 50.3368 50.4022L51.8462 50.4137C51.8421 50.9538 51.8645 51.4938 51.9133 52.0317L50.4101 52.1681Z" stroke="#333333" stroke-width="2" mask="url(#path-17-inside-15_2202_14944)"/>
<mask id="path-18-inside-16_2202_14944" fill="white">
<path d="M70.5134 32.6472C71.0901 32.7167 71.6631 32.814 72.2305 32.9388L71.9061 34.4129C71.3863 34.2986 70.8613 34.2094 70.3329 34.1457L70.5134 32.6472Z"/>
</mask>
<path d="M70.5134 32.6472C71.0901 32.7167 71.6631 32.814 72.2305 32.9388L71.9061 34.4129C71.3863 34.2986 70.8613 34.2094 70.3329 34.1457L70.5134 32.6472Z" stroke="#333333" stroke-width="2" mask="url(#path-18-inside-16_2202_14944)"/>
<circle cx="11.1245" cy="11.1245" r="10.6245" transform="matrix(0.506003 0.862531 0.862531 -0.506003 23.1617 18.001)" stroke="#333333"/>
<mask id="path-20-inside-17_2202_14944" fill="white">
<path d="M42.7211 33.1721C39.966 34.238 36.9149 34.2516 34.1505 33.2102C31.3862 32.1689 29.1023 30.1456 27.7353 27.5269L28.6274 27.0612C29.8799 29.4606 31.9724 31.3144 34.5053 32.2686C37.0381 33.2227 39.8337 33.2103 42.358 32.2337L42.7211 33.1721Z"/>
</mask>
<path d="M42.7211 33.1721C39.966 34.238 36.9149 34.2516 34.1505 33.2102C31.3862 32.1689 29.1023 30.1456 27.7353 27.5269L28.6274 27.0612C29.8799 29.4606 31.9724 31.3144 34.5053 32.2686C37.0381 33.2227 39.8337 33.2103 42.358 32.2337L42.7211 33.1721Z" stroke="#333333" stroke-width="2" mask="url(#path-20-inside-17_2202_14944)"/>
<mask id="path-21-inside-18_2202_14944" fill="white">
<path d="M48.3636 15.2744C49.7212 17.2984 50.4312 19.6873 50.3993 22.1242C50.3675 24.5611 49.5952 26.9307 48.1851 28.9185L47.3644 28.3363C48.6564 26.515 49.3639 24.3439 49.3932 22.1111C49.4224 19.8783 48.7719 17.6894 47.528 15.835L48.3636 15.2744Z"/>
</mask>
<path d="M48.3636 15.2744C49.7212 17.2984 50.4312 19.6873 50.3993 22.1242C50.3675 24.5611 49.5952 26.9307 48.1851 28.9185L47.3644 28.3363C48.6564 26.515 49.3639 24.3439 49.3932 22.1111C49.4224 19.8783 48.7719 17.6894 47.528 15.835L48.3636 15.2744Z" stroke="#333333" stroke-width="2" mask="url(#path-21-inside-18_2202_14944)"/>
<mask id="path-22-inside-19_2202_14944" fill="white">
<path d="M45.4492 12.2482C46.4045 12.9424 47.2521 13.7737 47.9649 14.7152L47.1626 15.3226C46.5095 14.4599 45.7329 13.6983 44.8576 13.0622L45.4492 12.2482Z"/>
</mask>
<path d="M45.4492 12.2482C46.4045 12.9424 47.2521 13.7737 47.9649 14.7152L47.1626 15.3226C46.5095 14.4599 45.7329 13.6983 44.8576 13.0622L45.4492 12.2482Z" stroke="#333333" stroke-width="2" mask="url(#path-22-inside-19_2202_14944)"/>
<mask id="path-23-inside-20_2202_14944" fill="white">
<path d="M41.4148 10.3407C42.5575 10.6384 43.6501 11.1029 44.6573 11.7193L44.1321 12.5776C43.2092 12.0129 42.2081 11.5872 41.1611 11.3145L41.4148 10.3407Z"/>
</mask>
<path d="M41.4148 10.3407C42.5575 10.6384 43.6501 11.1029 44.6573 11.7193L44.1321 12.5776C43.2092 12.0129 42.2081 11.5872 41.1611 11.3145L41.4148 10.3407Z" stroke="#333333" stroke-width="2" mask="url(#path-23-inside-20_2202_14944)"/>
<mask id="path-24-inside-21_2202_14944" fill="white">
<path d="M32.3066 11.6042C33.3251 11.0067 34.4262 10.5626 35.5742 10.2863L35.8097 11.2646C34.7578 11.5178 33.749 11.9247 32.8157 12.4722L32.3066 11.6042Z"/>
</mask>
<path d="M32.3066 11.6042C33.3251 11.0067 34.4262 10.5626 35.5742 10.2863L35.8097 11.2646C34.7578 11.5178 33.749 11.9247 32.8157 12.4722L32.3066 11.6042Z" stroke="#333333" stroke-width="2" mask="url(#path-24-inside-21_2202_14944)"/>
<mask id="path-25-inside-22_2202_14944" fill="white">
<path d="M27.4476 26.9371C26.9592 25.862 26.6318 24.7208 26.4762 23.5502L27.4737 23.4176C27.6163 24.4901 27.9162 25.5358 28.3638 26.5209L27.4476 26.9371Z"/>
</mask>
<path d="M27.4476 26.9371C26.9592 25.862 26.6318 24.7208 26.4762 23.5502L27.4737 23.4176C27.6163 24.4901 27.9162 25.5358 28.3638 26.5209L27.4476 26.9371Z" stroke="#333333" stroke-width="2" mask="url(#path-25-inside-22_2202_14944)"/>
<mask id="path-26-inside-23_2202_14944" fill="white">
<path d="M26.4206 23.0529C26.3851 22.6615 26.3688 22.2686 26.3718 21.8756L27.3781 21.8832C27.3753 22.2433 27.3902 22.6033 27.4228 22.9619L26.4206 23.0529Z"/>
</mask>
<path d="M26.4206 23.0529C26.3851 22.6615 26.3688 22.2686 26.3718 21.8756L27.3781 21.8832C27.3753 22.2433 27.3902 22.6033 27.4228 22.9619L26.4206 23.0529Z" stroke="#333333" stroke-width="2" mask="url(#path-26-inside-23_2202_14944)"/>
<mask id="path-27-inside-24_2202_14944" fill="white">
<path d="M39.8228 10.0389C40.2073 10.0852 40.5894 10.1501 40.9676 10.2333L40.7513 11.216C40.4048 11.1398 40.0548 11.0804 39.7025 11.0379L39.8228 10.0389Z"/>
</mask>
<path d="M39.8228 10.0389C40.2073 10.0852 40.5894 10.1501 40.9676 10.2333L40.7513 11.216C40.4048 11.1398 40.0548 11.0804 39.7025 11.0379L39.8228 10.0389Z" stroke="#333333" stroke-width="2" mask="url(#path-27-inside-24_2202_14944)"/>
<circle cx="11.1245" cy="11.1245" r="10.6245" transform="matrix(0.506003 0.862531 0.862531 -0.506003 12.8651 57.604)" stroke="#333333"/>
<mask id="path-29-inside-25_2202_14944" fill="white">
<path d="M32.4244 72.7752C29.6694 73.8411 26.6183 73.8546 23.8539 72.8133C21.0895 71.7719 18.8057 69.7486 17.4387 67.1299L18.3307 66.6643C19.5832 69.0636 21.6758 70.9175 24.2086 71.8716C26.7415 72.8257 29.5371 72.8133 32.0613 71.8367L32.4244 72.7752Z"/>
</mask>
<path d="M32.4244 72.7752C29.6694 73.8411 26.6183 73.8546 23.8539 72.8133C21.0895 71.7719 18.8057 69.7486 17.4387 67.1299L18.3307 66.6643C19.5832 69.0636 21.6758 70.9175 24.2086 71.8716C26.7415 72.8257 29.5371 72.8133 32.0613 71.8367L32.4244 72.7752Z" stroke="#333333" stroke-width="2" mask="url(#path-29-inside-25_2202_14944)"/>
<mask id="path-30-inside-26_2202_14944" fill="white">
<path d="M38.067 54.8774C39.4246 56.9014 40.1346 59.2904 40.1027 61.7273C40.0708 64.1642 39.2986 66.5338 37.8885 68.5215L37.0678 67.9393C38.3598 66.118 39.0673 63.9469 39.0965 61.7141C39.1257 59.4813 38.4752 57.2924 37.2313 55.438L38.067 54.8774Z"/>
</mask>
<path d="M38.067 54.8774C39.4246 56.9014 40.1346 59.2904 40.1027 61.7273C40.0708 64.1642 39.2986 66.5338 37.8885 68.5215L37.0678 67.9393C38.3598 66.118 39.0673 63.9469 39.0965 61.7141C39.1257 59.4813 38.4752 57.2924 37.2313 55.438L38.067 54.8774Z" stroke="#333333" stroke-width="2" mask="url(#path-30-inside-26_2202_14944)"/>
<mask id="path-31-inside-27_2202_14944" fill="white">
<path d="M35.1526 51.8512C36.1078 52.5455 36.9555 53.3767 37.6683 54.3182L36.866 54.9256C36.2129 54.063 35.4362 53.3013 34.561 52.6652L35.1526 51.8512Z"/>
</mask>
<path d="M35.1526 51.8512C36.1078 52.5455 36.9555 53.3767 37.6683 54.3182L36.866 54.9256C36.2129 54.063 35.4362 53.3013 34.561 52.6652L35.1526 51.8512Z" stroke="#333333" stroke-width="2" mask="url(#path-31-inside-27_2202_14944)"/>
<mask id="path-32-inside-28_2202_14944" fill="white">
<path d="M31.1182 49.9437C32.2609 50.2414 33.3535 50.706 34.3607 51.3224L33.8355 52.1807C32.9126 51.6159 31.9115 51.1903 30.8645 50.9175L31.1182 49.9437Z"/>
</mask>
<path d="M31.1182 49.9437C32.2609 50.2414 33.3535 50.706 34.3607 51.3224L33.8355 52.1807C32.9126 51.6159 31.9115 51.1903 30.8645 50.9175L31.1182 49.9437Z" stroke="#333333" stroke-width="2" mask="url(#path-32-inside-28_2202_14944)"/>
<mask id="path-33-inside-29_2202_14944" fill="white">
<path d="M22.0099 51.2073C23.0285 50.6097 24.1295 50.1656 25.2776 49.8893L25.5131 50.8676C24.4612 51.1208 23.4523 51.5277 22.5191 52.0752L22.0099 51.2073Z"/>
</mask>
<path d="M22.0099 51.2073C23.0285 50.6097 24.1295 50.1656 25.2776 49.8893L25.5131 50.8676C24.4612 51.1208 23.4523 51.5277 22.5191 52.0752L22.0099 51.2073Z" stroke="#333333" stroke-width="2" mask="url(#path-33-inside-29_2202_14944)"/>
<mask id="path-34-inside-30_2202_14944" fill="white">
<path d="M17.151 66.5401C16.6625 65.4651 16.3352 64.3238 16.1796 63.1532L17.1771 63.0206C17.3197 64.0932 17.6196 65.1388 18.0672 66.1239L17.151 66.5401Z"/>
</mask>
<path d="M17.151 66.5401C16.6625 65.4651 16.3352 64.3238 16.1796 63.1532L17.1771 63.0206C17.3197 64.0932 17.6196 65.1388 18.0672 66.1239L17.151 66.5401Z" stroke="#333333" stroke-width="2" mask="url(#path-34-inside-30_2202_14944)"/>
<mask id="path-35-inside-31_2202_14944" fill="white">
<path d="M16.124 62.6559C16.0885 62.2645 16.0722 61.8716 16.0752 61.4786L17.0814 61.4863C17.0787 61.8463 17.0936 62.2063 17.1262 62.5649L16.124 62.6559Z"/>
</mask>
<path d="M16.124 62.6559C16.0885 62.2645 16.0722 61.8716 16.0752 61.4786L17.0814 61.4863C17.0787 61.8463 17.0936 62.2063 17.1262 62.5649L16.124 62.6559Z" stroke="#333333" stroke-width="2" mask="url(#path-35-inside-31_2202_14944)"/>
<mask id="path-36-inside-32_2202_14944" fill="white">
<path d="M29.5262 49.6419C29.9107 49.6882 30.2927 49.7531 30.6709 49.8363L30.4547 50.8191C30.1082 50.7428 29.7581 50.6834 29.4059 50.6409L29.5262 49.6419Z"/>
</mask>
<path d="M29.5262 49.6419C29.9107 49.6882 30.2927 49.7531 30.6709 49.8363L30.4547 50.8191C30.1082 50.7428 29.7581 50.6834 29.4059 50.6409L29.5262 49.6419Z" stroke="#333333" stroke-width="2" mask="url(#path-36-inside-32_2202_14944)"/>
<line y1="-0.5" x2="28.9346" y2="-0.5" transform="matrix(0.506424 0.862285 0.862285 -0.506424 109.684 27.521)" stroke="#333333"/>
<line y1="-0.5" x2="31.2376" y2="-0.5" transform="matrix(0.951377 0.30803 0.30803 -0.951377 86.3455 52.7983)" stroke="#333333"/>
<line y1="-0.5" x2="17.3275" y2="-0.5" transform="matrix(0.620729 0.784025 0.784025 -0.620729 46.6112 27.3052)" stroke="#333333"/>
<line y1="-0.5" x2="14.0111" y2="-0.5" transform="matrix(0.974279 -0.225346 -0.225346 -0.974279 39.2751 57.7642)" stroke="#333333"/>
<circle cx="11.1245" cy="11.1245" r="10.6245" transform="matrix(0.506003 0.862531 0.862531 -0.506003 47.2871 83.9033)" stroke="#333333"/>
<mask id="path-42-inside-33_2202_14944" fill="white">
<path d="M66.8463 99.0745C64.0913 100.14 61.0402 100.154 58.2758 99.1126C55.5114 98.0712 53.2276 96.0479 51.8606 93.4293L52.7526 92.9636C54.0051 95.3629 56.0977 97.2168 58.6305 98.1709C61.1634 99.1251 63.9589 99.1126 66.4832 98.136L66.8463 99.0745Z"/>
</mask>
<path d="M66.8463 99.0745C64.0913 100.14 61.0402 100.154 58.2758 99.1126C55.5114 98.0712 53.2276 96.0479 51.8606 93.4293L52.7526 92.9636C54.0051 95.3629 56.0977 97.2168 58.6305 98.1709C61.1634 99.1251 63.9589 99.1126 66.4832 98.136L66.8463 99.0745Z" stroke="#333333" stroke-width="2" mask="url(#path-42-inside-33_2202_14944)"/>
<mask id="path-43-inside-34_2202_14944" fill="white">
<path d="M72.4889 81.1768C73.8465 83.2007 74.5565 85.5897 74.5246 88.0266C74.4927 90.4635 73.7205 92.8331 72.3104 94.8208L71.4897 94.2386C72.7816 92.4173 73.4892 90.2462 73.5184 88.0134C73.5476 85.7806 72.8971 83.5917 71.6532 81.7373L72.4889 81.1768Z"/>
</mask>
<path d="M72.4889 81.1768C73.8465 83.2007 74.5565 85.5897 74.5246 88.0266C74.4927 90.4635 73.7205 92.8331 72.3104 94.8208L71.4897 94.2386C72.7816 92.4173 73.4892 90.2462 73.5184 88.0134C73.5476 85.7806 72.8971 83.5917 71.6532 81.7373L72.4889 81.1768Z" stroke="#333333" stroke-width="2" mask="url(#path-43-inside-34_2202_14944)"/>
<mask id="path-44-inside-35_2202_14944" fill="white">
<path d="M69.5745 78.1505C70.5297 78.8448 71.3774 79.676 72.0901 80.6175L71.2879 81.2249C70.6348 80.3623 69.8581 79.6006 68.9829 78.9645L69.5745 78.1505Z"/>
</mask>
<path d="M69.5745 78.1505C70.5297 78.8448 71.3774 79.676 72.0901 80.6175L71.2879 81.2249C70.6348 80.3623 69.8581 79.6006 68.9829 78.9645L69.5745 78.1505Z" stroke="#333333" stroke-width="2" mask="url(#path-44-inside-35_2202_14944)"/>
<mask id="path-45-inside-36_2202_14944" fill="white">
<path d="M65.54 76.243C66.6828 76.5407 67.7754 77.0053 68.7826 77.6217L68.2573 78.48C67.3345 77.9152 66.3334 77.4896 65.2864 77.2168L65.54 76.243Z"/>
</mask>
<path d="M65.54 76.243C66.6828 76.5407 67.7754 77.0053 68.7826 77.6217L68.2573 78.48C67.3345 77.9152 66.3334 77.4896 65.2864 77.2168L65.54 76.243Z" stroke="#333333" stroke-width="2" mask="url(#path-45-inside-36_2202_14944)"/>
<mask id="path-46-inside-37_2202_14944" fill="white">
<path d="M56.4318 77.5066C57.4503 76.9091 58.5514 76.465 59.6995 76.1886L59.935 77.1669C58.8831 77.4201 57.8742 77.827 56.941 78.3745L56.4318 77.5066Z"/>
</mask>
<path d="M56.4318 77.5066C57.4503 76.9091 58.5514 76.465 59.6995 76.1886L59.935 77.1669C58.8831 77.4201 57.8742 77.827 56.941 78.3745L56.4318 77.5066Z" stroke="#333333" stroke-width="2" mask="url(#path-46-inside-37_2202_14944)"/>
<mask id="path-47-inside-38_2202_14944" fill="white">
<path d="M51.5729 92.8395C51.0844 91.7644 50.7571 90.6231 50.6015 89.4526L51.599 89.32C51.7415 90.3925 52.0414 91.4381 52.489 92.4232L51.5729 92.8395Z"/>
</mask>
<path d="M51.5729 92.8395C51.0844 91.7644 50.7571 90.6231 50.6015 89.4526L51.599 89.32C51.7415 90.3925 52.0414 91.4381 52.489 92.4232L51.5729 92.8395Z" stroke="#333333" stroke-width="2" mask="url(#path-47-inside-38_2202_14944)"/>
<mask id="path-48-inside-39_2202_14944" fill="white">
<path d="M50.5459 88.9552C50.5104 88.5638 50.4941 88.1709 50.4971 87.7779L51.5033 87.7856C51.5006 88.1457 51.5155 88.5056 51.548 88.8643L50.5459 88.9552Z"/>
</mask>
<path d="M50.5459 88.9552C50.5104 88.5638 50.4941 88.1709 50.4971 87.7779L51.5033 87.7856C51.5006 88.1457 51.5155 88.5056 51.548 88.8643L50.5459 88.9552Z" stroke="#333333" stroke-width="2" mask="url(#path-48-inside-39_2202_14944)"/>
<mask id="path-49-inside-40_2202_14944" fill="white">
<path d="M63.9481 75.9412C64.3326 75.9875 64.7146 76.0524 65.0928 76.1356L64.8766 77.1184C64.53 77.0421 64.18 76.9827 63.8277 76.9403L63.9481 75.9412Z"/>
</mask>
<path d="M63.9481 75.9412C64.3326 75.9875 64.7146 76.0524 65.0928 76.1356L64.8766 77.1184C64.53 77.0421 64.18 76.9827 63.8277 76.9403L63.9481 75.9412Z" stroke="#333333" stroke-width="2" mask="url(#path-49-inside-40_2202_14944)"/>
<line y1="-0.5" x2="12.2524" y2="-0.5" transform="matrix(0.115468 -0.993311 -0.993311 -0.115468 63.0071 78.0762)" stroke="#333333"/>
</svg>
