<svg width="27" height="35" viewBox="0 0 27 35" fill="none" xmlns="http://www.w3.org/2000/svg">
<circle cx="3.61546" cy="3.61546" r="3.11546" transform="matrix(0.48086 -0.876798 -0.876798 -0.48086 9.47168 13.1439)" stroke="white"/>
<mask id="path-2-inside-1_2204_9112" fill="white">
<path d="M10.4435 5.15796C11.2002 5.74888 11.7126 6.59784 11.8829 7.54267C12.0532 8.48749 11.8695 9.46195 11.3668 10.2799L11.0882 10.1086C11.5488 9.35922 11.7171 8.46638 11.5611 7.60069C11.405 6.73499 10.9355 5.95713 10.2422 5.41571L10.4435 5.15796Z"/>
</mask>
<path d="M10.4435 5.15796C11.2002 5.74888 11.7126 6.59784 11.8829 7.54267C12.0532 8.48749 11.8695 9.46195 11.3668 10.2799L11.0882 10.1086C11.5488 9.35922 11.7171 8.46638 11.5611 7.60069C11.405 6.73499 10.9355 5.95713 10.2422 5.41571L10.4435 5.15796Z" stroke="white" stroke-width="2" mask="url(#path-2-inside-1_2204_9112)"/>
<mask id="path-3-inside-2_2204_9112" fill="white">
<path d="M4.50963 6.56746C4.84796 5.8513 5.3961 5.25496 6.08127 4.8576C6.76645 4.46025 7.55627 4.28066 8.3459 4.34268L8.32029 4.66871C7.5968 4.61189 6.87313 4.77643 6.24534 5.14051C5.61755 5.50459 5.11533 6.05098 4.80533 6.70716L4.50963 6.56746Z"/>
</mask>
<path d="M4.50963 6.56746C4.84796 5.8513 5.3961 5.25496 6.08127 4.8576C6.76645 4.46025 7.55627 4.28066 8.3459 4.34268L8.32029 4.66871C7.5968 4.61189 6.87313 4.77643 6.24534 5.14051C5.61755 5.50459 5.11533 6.05098 4.80533 6.70716L4.50963 6.56746Z" stroke="white" stroke-width="2" mask="url(#path-3-inside-2_2204_9112)"/>
<mask id="path-4-inside-3_2204_9112" fill="white">
<path d="M4.15122 7.88504C4.18565 7.50281 4.27625 7.12774 4.42009 6.77193L4.72329 6.8945C4.5915 7.22051 4.50849 7.56416 4.47694 7.91438L4.15122 7.88504Z"/>
</mask>
<path d="M4.15122 7.88504C4.18565 7.50281 4.27625 7.12774 4.42009 6.77193L4.72329 6.8945C4.5915 7.22051 4.50849 7.56416 4.47694 7.91438L4.15122 7.88504Z" stroke="white" stroke-width="2" mask="url(#path-4-inside-3_2204_9112)"/>
<mask id="path-5-inside-4_2204_9112" fill="white">
<path d="M4.29162 9.32858C4.18418 8.96015 4.13163 8.57789 4.13569 8.19412L4.46271 8.19758C4.45899 8.5492 4.50713 8.89945 4.60558 9.23702L4.29162 9.32858Z"/>
</mask>
<path d="M4.29162 9.32858C4.18418 8.96015 4.13163 8.57789 4.13569 8.19412L4.46271 8.19758C4.45899 8.5492 4.50713 8.89945 4.60558 9.23702L4.29162 9.32858Z" stroke="white" stroke-width="2" mask="url(#path-5-inside-4_2204_9112)"/>
<mask id="path-6-inside-5_2204_9112" fill="white">
<path d="M6.16255 11.659C5.82606 11.4745 5.5186 11.2413 5.25011 10.9671L5.48379 10.7383C5.72979 10.9896 6.0115 11.2032 6.31981 11.3723L6.16255 11.659Z"/>
</mask>
<path d="M6.16255 11.659C5.82606 11.4745 5.5186 11.2413 5.25011 10.9671L5.48379 10.7383C5.72979 10.9896 6.0115 11.2032 6.31981 11.3723L6.16255 11.659Z" stroke="white" stroke-width="2" mask="url(#path-6-inside-5_2204_9112)"/>
<mask id="path-7-inside-6_2204_9112" fill="white">
<path d="M11.2502 10.4585C11.0317 10.774 10.7679 11.0555 10.4673 11.2941L10.264 11.0379C10.5395 10.8193 10.7812 10.5614 10.9814 10.2723L11.2502 10.4585Z"/>
</mask>
<path d="M11.2502 10.4585C11.0317 10.774 10.7679 11.0555 10.4673 11.2941L10.264 11.0379C10.5395 10.8193 10.7812 10.5614 10.9814 10.2723L11.2502 10.4585Z" stroke="white" stroke-width="2" mask="url(#path-7-inside-6_2204_9112)"/>
<mask id="path-8-inside-7_2204_9112" fill="white">
<path d="M10.3378 11.3925C10.2345 11.4677 10.1276 11.5377 10.0175 11.6024L9.85187 11.3204C9.95279 11.2611 10.0507 11.197 10.1454 11.1281L10.3378 11.3925Z"/>
</mask>
<path d="M10.3378 11.3925C10.2345 11.4677 10.1276 11.5377 10.0175 11.6024L9.85187 11.3204C9.95279 11.2611 10.0507 11.197 10.1454 11.1281L10.3378 11.3925Z" stroke="white" stroke-width="2" mask="url(#path-8-inside-7_2204_9112)"/>
<mask id="path-9-inside-8_2204_9112" fill="white">
<path d="M4.47281 9.82303C4.42164 9.70805 4.37605 9.59065 4.33621 9.47126L4.64644 9.36775C4.68294 9.47714 4.72471 9.5847 4.77159 9.69006L4.47281 9.82303Z"/>
</mask>
<path d="M4.47281 9.82303C4.42164 9.70805 4.37605 9.59065 4.33621 9.47126L4.64644 9.36775C4.68294 9.47714 4.72471 9.5847 4.77159 9.69006L4.47281 9.82303Z" stroke="white" stroke-width="2" mask="url(#path-9-inside-8_2204_9112)"/>
<circle cx="3.61546" cy="3.61546" r="3.11546" transform="matrix(0.48086 -0.876798 -0.876798 -0.48086 13.6296 26.6121)" stroke="white"/>
<mask id="path-11-inside-9_2204_9112" fill="white">
<path d="M14.6015 18.6262C15.3581 19.2171 15.8706 20.066 16.0409 21.0109C16.2112 21.9557 16.0275 22.9302 15.5248 23.7481L15.2462 23.5768C15.7067 22.8274 15.8751 21.9346 15.719 21.0689C15.563 20.2032 15.0935 19.4253 14.4002 18.8839L14.6015 18.6262Z"/>
</mask>
<path d="M14.6015 18.6262C15.3581 19.2171 15.8706 20.066 16.0409 21.0109C16.2112 21.9557 16.0275 22.9302 15.5248 23.7481L15.2462 23.5768C15.7067 22.8274 15.8751 21.9346 15.719 21.0689C15.563 20.2032 15.0935 19.4253 14.4002 18.8839L14.6015 18.6262Z" stroke="white" stroke-width="2" mask="url(#path-11-inside-9_2204_9112)"/>
<mask id="path-12-inside-10_2204_9112" fill="white">
<path d="M8.66759 20.0357C9.00592 19.3195 9.55406 18.7232 10.2392 18.3258C10.9244 17.9284 11.7142 17.7489 12.5039 17.8109L12.4782 18.1369C11.7548 18.0801 11.0311 18.2446 10.4033 18.6087C9.77551 18.9728 9.27329 19.5192 8.96329 20.1754L8.66759 20.0357Z"/>
</mask>
<path d="M8.66759 20.0357C9.00592 19.3195 9.55406 18.7232 10.2392 18.3258C10.9244 17.9284 11.7142 17.7489 12.5039 17.8109L12.4782 18.1369C11.7548 18.0801 11.0311 18.2446 10.4033 18.6087C9.77551 18.9728 9.27329 19.5192 8.96329 20.1754L8.66759 20.0357Z" stroke="white" stroke-width="2" mask="url(#path-12-inside-10_2204_9112)"/>
<mask id="path-13-inside-11_2204_9112" fill="white">
<path d="M8.30918 21.3532C8.34361 20.971 8.43421 20.5959 8.57805 20.2401L8.88125 20.3627C8.74946 20.6887 8.66645 21.0324 8.6349 21.3826L8.30918 21.3532Z"/>
</mask>
<path d="M8.30918 21.3532C8.34361 20.971 8.43421 20.5959 8.57805 20.2401L8.88125 20.3627C8.74946 20.6887 8.66645 21.0324 8.6349 21.3826L8.30918 21.3532Z" stroke="white" stroke-width="2" mask="url(#path-13-inside-11_2204_9112)"/>
<mask id="path-14-inside-12_2204_9112" fill="white">
<path d="M8.44958 22.7968C8.34213 22.4283 8.28959 22.0461 8.29365 21.6623L8.62067 21.6658C8.61695 22.0174 8.66509 22.3676 8.76354 22.7052L8.44958 22.7968Z"/>
</mask>
<path d="M8.44958 22.7968C8.34213 22.4283 8.28959 22.0461 8.29365 21.6623L8.62067 21.6658C8.61695 22.0174 8.66509 22.3676 8.76354 22.7052L8.44958 22.7968Z" stroke="white" stroke-width="2" mask="url(#path-14-inside-12_2204_9112)"/>
<mask id="path-15-inside-13_2204_9112" fill="white">
<path d="M10.3205 25.1272C9.98401 24.9427 9.67656 24.7095 9.40807 24.4353L9.64175 24.2065C9.88775 24.4578 10.1695 24.6714 10.4778 24.8405L10.3205 25.1272Z"/>
</mask>
<path d="M10.3205 25.1272C9.98401 24.9427 9.67656 24.7095 9.40807 24.4353L9.64175 24.2065C9.88775 24.4578 10.1695 24.6714 10.4778 24.8405L10.3205 25.1272Z" stroke="white" stroke-width="2" mask="url(#path-15-inside-13_2204_9112)"/>
<mask id="path-16-inside-14_2204_9112" fill="white">
<path d="M15.4082 23.9267C15.1897 24.2422 14.9259 24.5237 14.6252 24.7623L14.422 24.5061C14.6974 24.2875 14.9391 24.0296 15.1393 23.7405L15.4082 23.9267Z"/>
</mask>
<path d="M15.4082 23.9267C15.1897 24.2422 14.9259 24.5237 14.6252 24.7623L14.422 24.5061C14.6974 24.2875 14.9391 24.0296 15.1393 23.7405L15.4082 23.9267Z" stroke="white" stroke-width="2" mask="url(#path-16-inside-14_2204_9112)"/>
<mask id="path-17-inside-15_2204_9112" fill="white">
<path d="M14.4958 24.8607C14.3925 24.9359 14.2856 25.0059 14.1754 25.0706L14.0098 24.7886C14.1107 24.7293 14.2087 24.6652 14.3033 24.5963L14.4958 24.8607Z"/>
</mask>
<path d="M14.4958 24.8607C14.3925 24.9359 14.2856 25.0059 14.1754 25.0706L14.0098 24.7886C14.1107 24.7293 14.2087 24.6652 14.3033 24.5963L14.4958 24.8607Z" stroke="white" stroke-width="2" mask="url(#path-17-inside-15_2204_9112)"/>
<mask id="path-18-inside-16_2204_9112" fill="white">
<path d="M8.63077 23.2912C8.57959 23.1762 8.53401 23.0589 8.49417 22.9395L8.8044 22.8359C8.8409 22.9453 8.88266 23.0529 8.92955 23.1583L8.63077 23.2912Z"/>
</mask>
<path d="M8.63077 23.2912C8.57959 23.1762 8.53401 23.0589 8.49417 22.9395L8.8044 22.8359C8.8409 22.9453 8.88266 23.0529 8.92955 23.1583L8.63077 23.2912Z" stroke="white" stroke-width="2" mask="url(#path-18-inside-16_2204_9112)"/>
<circle cx="2.41031" cy="2.41031" r="1.91031" transform="matrix(0.48086 -0.876798 -0.876798 -0.48086 11.1692 33.726)" stroke="white"/>
<mask id="path-20-inside-17_2204_9112" fill="white">
<path d="M11.8172 28.402C12.3216 28.796 12.6632 29.3619 12.7768 29.9918C12.8903 30.6217 12.7678 31.2713 12.4327 31.8166L12.247 31.7025C12.554 31.2029 12.6662 30.6076 12.5622 30.0305C12.4582 29.4534 12.1452 28.9348 11.683 28.5739L11.8172 28.402Z"/>
</mask>
<path d="M11.8172 28.402C12.3216 28.796 12.6632 29.3619 12.7768 29.9918C12.8903 30.6217 12.7678 31.2713 12.4327 31.8166L12.247 31.7025C12.554 31.2029 12.6662 30.6076 12.5622 30.0305C12.4582 29.4534 12.1452 28.9348 11.683 28.5739L11.8172 28.402Z" stroke="white" stroke-width="2" mask="url(#path-20-inside-17_2204_9112)"/>
<mask id="path-21-inside-18_2204_9112" fill="white">
<path d="M7.86124 29.3417C8.08679 28.8642 8.45222 28.4667 8.909 28.2018C9.36578 27.9369 9.89233 27.8172 10.4187 27.8585L10.4017 28.0759C9.91935 28.038 9.4369 28.1477 9.01838 28.3904C8.59985 28.6331 8.26504 28.9974 8.05837 29.4348L7.86124 29.3417Z"/>
</mask>
<path d="M7.86124 29.3417C8.08679 28.8642 8.45222 28.4667 8.909 28.2018C9.36578 27.9369 9.89233 27.8172 10.4187 27.8585L10.4017 28.0759C9.91935 28.038 9.4369 28.1477 9.01838 28.3904C8.59985 28.6331 8.26504 28.9974 8.05837 29.4348L7.86124 29.3417Z" stroke="white" stroke-width="2" mask="url(#path-21-inside-18_2204_9112)"/>
<mask id="path-22-inside-19_2204_9112" fill="white">
<path d="M7.6223 30.2201C7.64525 29.9653 7.70565 29.7152 7.80154 29.478L8.00368 29.5597C7.91582 29.7771 7.86048 30.0062 7.83944 30.2396L7.6223 30.2201Z"/>
</mask>
<path d="M7.6223 30.2201C7.64525 29.9653 7.70565 29.7152 7.80154 29.478L8.00368 29.5597C7.91582 29.7771 7.86048 30.0062 7.83944 30.2396L7.6223 30.2201Z" stroke="white" stroke-width="2" mask="url(#path-22-inside-19_2204_9112)"/>
<mask id="path-23-inside-20_2204_9112" fill="white">
<path d="M7.7159 31.1824C7.64427 30.9368 7.60924 30.682 7.61194 30.4261L7.82996 30.4284C7.82748 30.6628 7.85957 30.8963 7.92521 31.1214L7.7159 31.1824Z"/>
</mask>
<path d="M7.7159 31.1824C7.64427 30.9368 7.60924 30.682 7.61194 30.4261L7.82996 30.4284C7.82748 30.6628 7.85957 30.8963 7.92521 31.1214L7.7159 31.1824Z" stroke="white" stroke-width="2" mask="url(#path-23-inside-20_2204_9112)"/>
<mask id="path-24-inside-21_2204_9112" fill="white">
<path d="M8.96319 32.7361C8.73885 32.613 8.53388 32.4576 8.35489 32.2748L8.51068 32.1222C8.67468 32.2897 8.86248 32.4322 9.06803 32.5449L8.96319 32.7361Z"/>
</mask>
<path d="M8.96319 32.7361C8.73885 32.613 8.53388 32.4576 8.35489 32.2748L8.51068 32.1222C8.67468 32.2897 8.86248 32.4322 9.06803 32.5449L8.96319 32.7361Z" stroke="white" stroke-width="2" mask="url(#path-24-inside-21_2204_9112)"/>
<mask id="path-25-inside-22_2204_9112" fill="white">
<path d="M12.355 31.9357C12.2093 32.146 12.0334 32.3337 11.833 32.4928L11.6975 32.322C11.8811 32.1763 12.0423 32.0043 12.1757 31.8116L12.355 31.9357Z"/>
</mask>
<path d="M12.355 31.9357C12.2093 32.146 12.0334 32.3337 11.833 32.4928L11.6975 32.322C11.8811 32.1763 12.0423 32.0043 12.1757 31.8116L12.355 31.9357Z" stroke="white" stroke-width="2" mask="url(#path-25-inside-22_2204_9112)"/>
<mask id="path-26-inside-23_2204_9112" fill="white">
<path d="M11.7467 32.5584C11.6778 32.6085 11.6066 32.6552 11.5331 32.6983L11.4227 32.5103C11.49 32.4708 11.5553 32.428 11.6184 32.3821L11.7467 32.5584Z"/>
</mask>
<path d="M11.7467 32.5584C11.6778 32.6085 11.6066 32.6552 11.5331 32.6983L11.4227 32.5103C11.49 32.4708 11.5553 32.428 11.6184 32.3821L11.7467 32.5584Z" stroke="white" stroke-width="2" mask="url(#path-26-inside-23_2204_9112)"/>
<mask id="path-27-inside-24_2204_9112" fill="white">
<path d="M7.83669 31.5121C7.80257 31.4354 7.77218 31.3571 7.74563 31.2776L7.95244 31.2085C7.97678 31.2815 8.00462 31.3532 8.03588 31.4234L7.83669 31.5121Z"/>
</mask>
<path d="M7.83669 31.5121C7.80257 31.4354 7.77218 31.3571 7.74563 31.2776L7.95244 31.2085C7.97678 31.2815 8.00462 31.3532 8.03588 31.4234L7.83669 31.5121Z" stroke="white" stroke-width="2" mask="url(#path-27-inside-24_2204_9112)"/>
<circle cx="2.41031" cy="2.41031" r="1.91031" transform="matrix(0.48086 -0.876798 -0.876798 -0.48086 19.6794 31.2396)" stroke="white"/>
<mask id="path-29-inside-25_2204_9112" fill="white">
<path d="M20.3274 25.9156C20.8319 26.3096 21.1735 26.8755 21.287 27.5054C21.4006 28.1353 21.2781 28.785 20.943 29.3302L20.7572 29.2161C21.0643 28.7165 21.1765 28.1212 21.0725 27.5441C20.9684 26.967 20.6554 26.4484 20.1932 26.0875L20.3274 25.9156Z"/>
</mask>
<path d="M20.3274 25.9156C20.8319 26.3096 21.1735 26.8755 21.287 27.5054C21.4006 28.1353 21.2781 28.785 20.943 29.3302L20.7572 29.2161C21.0643 28.7165 21.1765 28.1212 21.0725 27.5441C20.9684 26.967 20.6554 26.4484 20.1932 26.0875L20.3274 25.9156Z" stroke="white" stroke-width="2" mask="url(#path-29-inside-25_2204_9112)"/>
<mask id="path-30-inside-26_2204_9112" fill="white">
<path d="M16.3715 26.8553C16.597 26.3779 16.9625 25.9803 17.4193 25.7154C17.876 25.4505 18.4026 25.3308 18.929 25.3721L18.9119 25.5895C18.4296 25.5516 17.9472 25.6613 17.5286 25.904C17.1101 26.1467 16.7753 26.511 16.5686 26.9484L16.3715 26.8553Z"/>
</mask>
<path d="M16.3715 26.8553C16.597 26.3779 16.9625 25.9803 17.4193 25.7154C17.876 25.4505 18.4026 25.3308 18.929 25.3721L18.9119 25.5895C18.4296 25.5516 17.9472 25.6613 17.5286 25.904C17.1101 26.1467 16.7753 26.511 16.5686 26.9484L16.3715 26.8553Z" stroke="white" stroke-width="2" mask="url(#path-30-inside-26_2204_9112)"/>
<mask id="path-31-inside-27_2204_9112" fill="white">
<path d="M16.1325 27.7337C16.1555 27.4789 16.2159 27.2288 16.3118 26.9916L16.5139 27.0733C16.4261 27.2907 16.3707 27.5198 16.3497 27.7532L16.1325 27.7337Z"/>
</mask>
<path d="M16.1325 27.7337C16.1555 27.4789 16.2159 27.2288 16.3118 26.9916L16.5139 27.0733C16.4261 27.2907 16.3707 27.5198 16.3497 27.7532L16.1325 27.7337Z" stroke="white" stroke-width="2" mask="url(#path-31-inside-27_2204_9112)"/>
<mask id="path-32-inside-28_2204_9112" fill="white">
<path d="M16.2262 28.696C16.1545 28.4504 16.1195 28.1956 16.1222 27.9397L16.3402 27.942C16.3377 28.1765 16.3698 28.41 16.4355 28.635L16.2262 28.696Z"/>
</mask>
<path d="M16.2262 28.696C16.1545 28.4504 16.1195 28.1956 16.1222 27.9397L16.3402 27.942C16.3377 28.1765 16.3698 28.41 16.4355 28.635L16.2262 28.696Z" stroke="white" stroke-width="2" mask="url(#path-32-inside-28_2204_9112)"/>
<mask id="path-33-inside-29_2204_9112" fill="white">
<path d="M17.4734 30.2497C17.2491 30.1266 17.0441 29.9712 16.8651 29.7884L17.0209 29.6359C17.1849 29.8034 17.3727 29.9458 17.5783 30.0585L17.4734 30.2497Z"/>
</mask>
<path d="M17.4734 30.2497C17.2491 30.1266 17.0441 29.9712 16.8651 29.7884L17.0209 29.6359C17.1849 29.8034 17.3727 29.9458 17.5783 30.0585L17.4734 30.2497Z" stroke="white" stroke-width="2" mask="url(#path-33-inside-29_2204_9112)"/>
<mask id="path-34-inside-30_2204_9112" fill="white">
<path d="M20.8652 29.4493C20.7196 29.6596 20.5437 29.8474 20.3433 30.0064L20.2077 29.8356C20.3914 29.6899 20.5525 29.5179 20.686 29.3252L20.8652 29.4493Z"/>
</mask>
<path d="M20.8652 29.4493C20.7196 29.6596 20.5437 29.8474 20.3433 30.0064L20.2077 29.8356C20.3914 29.6899 20.5525 29.5179 20.686 29.3252L20.8652 29.4493Z" stroke="white" stroke-width="2" mask="url(#path-34-inside-30_2204_9112)"/>
<mask id="path-35-inside-31_2204_9112" fill="white">
<path d="M20.2569 30.072C20.1881 30.1221 20.1168 30.1688 20.0434 30.2119L19.933 30.0239C20.0003 29.9844 20.0656 29.9416 20.1286 29.8957L20.2569 30.072Z"/>
</mask>
<path d="M20.2569 30.072C20.1881 30.1221 20.1168 30.1688 20.0434 30.2119L19.933 30.0239C20.0003 29.9844 20.0656 29.9416 20.1286 29.8957L20.2569 30.072Z" stroke="white" stroke-width="2" mask="url(#path-35-inside-31_2204_9112)"/>
<mask id="path-36-inside-32_2204_9112" fill="white">
<path d="M16.3469 29.0257C16.3128 28.949 16.2824 28.8708 16.2559 28.7912L16.4627 28.7222C16.487 28.7951 16.5149 28.8668 16.5461 28.937L16.3469 29.0257Z"/>
</mask>
<path d="M16.3469 29.0257C16.3128 28.949 16.2824 28.8708 16.2559 28.7912L16.4627 28.7222C16.487 28.7951 16.5149 28.8668 16.5461 28.937L16.3469 29.0257Z" stroke="white" stroke-width="2" mask="url(#path-36-inside-32_2204_9112)"/>
<line y1="-0.5" x2="6.26917" y2="-0.5" transform="matrix(0.480432 -0.877032 -0.877032 -0.480432 3.32397 16.5756)" stroke="white"/>
<line y1="-0.5" x2="6.76814" y2="-0.5" transform="matrix(-0.223589 -0.974683 -0.974683 0.223589 10.6191 18.107)" stroke="white"/>
<line y1="-0.5" x2="3.75429" y2="-0.5" transform="matrix(0.35462 -0.935011 -0.935011 -0.35462 10.2937 28.3305)" stroke="white"/>
<line y1="-0.5" x2="3.03575" y2="-0.5" transform="matrix(-0.693197 -0.720749 -0.720749 0.693197 16.7739 26.3098)" stroke="white"/>
<circle cx="2.41031" cy="2.41031" r="1.91031" transform="matrix(0.48086 -0.876798 -0.876798 -0.48086 20.7451 21.9146)" stroke="white"/>
<mask id="path-42-inside-33_2204_9112" fill="white">
<path d="M21.3931 16.5906C21.8975 16.9846 22.2391 17.5505 22.3527 18.1804C22.4662 18.8103 22.3438 19.4599 22.0086 20.0052L21.8229 19.8911C22.1299 19.3915 22.2422 18.7962 22.1381 18.2191C22.0341 17.642 21.7211 17.1234 21.2589 16.7625L21.3931 16.5906Z"/>
</mask>
<path d="M21.3931 16.5906C21.8975 16.9846 22.2391 17.5505 22.3527 18.1804C22.4662 18.8103 22.3438 19.4599 22.0086 20.0052L21.8229 19.8911C22.1299 19.3915 22.2422 18.7962 22.1381 18.2191C22.0341 17.642 21.7211 17.1234 21.2589 16.7625L21.3931 16.5906Z" stroke="white" stroke-width="2" mask="url(#path-42-inside-33_2204_9112)"/>
<mask id="path-43-inside-34_2204_9112" fill="white">
<path d="M17.4372 17.5303C17.6627 17.0528 18.0281 16.6553 18.4849 16.3904C18.9417 16.1255 19.4683 16.0057 19.9947 16.0471L19.9776 16.2644C19.4953 16.2266 19.0128 16.3363 18.5943 16.579C18.1758 16.8217 17.841 17.186 17.6343 17.6234L17.4372 17.5303Z"/>
</mask>
<path d="M17.4372 17.5303C17.6627 17.0528 18.0281 16.6553 18.4849 16.3904C18.9417 16.1255 19.4683 16.0057 19.9947 16.0471L19.9776 16.2644C19.4953 16.2266 19.0128 16.3363 18.5943 16.579C18.1758 16.8217 17.841 17.186 17.6343 17.6234L17.4372 17.5303Z" stroke="white" stroke-width="2" mask="url(#path-43-inside-34_2204_9112)"/>
<mask id="path-44-inside-35_2204_9112" fill="white">
<path d="M17.1982 18.4087C17.2212 18.1538 17.2816 17.9038 17.3775 17.6666L17.5796 17.7483C17.4917 17.9656 17.4364 18.1948 17.4154 18.4282L17.1982 18.4087Z"/>
</mask>
<path d="M17.1982 18.4087C17.2212 18.1538 17.2816 17.9038 17.3775 17.6666L17.5796 17.7483C17.4917 17.9656 17.4364 18.1948 17.4154 18.4282L17.1982 18.4087Z" stroke="white" stroke-width="2" mask="url(#path-44-inside-35_2204_9112)"/>
<mask id="path-45-inside-36_2204_9112" fill="white">
<path d="M17.2918 19.371C17.2202 19.1254 17.1852 18.8706 17.1879 18.6147L17.4059 18.617C17.4034 18.8514 17.4355 19.0849 17.5011 19.31L17.2918 19.371Z"/>
</mask>
<path d="M17.2918 19.371C17.2202 19.1254 17.1852 18.8706 17.1879 18.6147L17.4059 18.617C17.4034 18.8514 17.4355 19.0849 17.5011 19.31L17.2918 19.371Z" stroke="white" stroke-width="2" mask="url(#path-45-inside-36_2204_9112)"/>
<mask id="path-46-inside-37_2204_9112" fill="white">
<path d="M18.5391 20.9247C18.3148 20.8016 18.1098 20.6462 17.9308 20.4634L18.0866 20.3108C18.2506 20.4783 18.4384 20.6208 18.644 20.7335L18.5391 20.9247Z"/>
</mask>
<path d="M18.5391 20.9247C18.3148 20.8016 18.1098 20.6462 17.9308 20.4634L18.0866 20.3108C18.2506 20.4783 18.4384 20.6208 18.644 20.7335L18.5391 20.9247Z" stroke="white" stroke-width="2" mask="url(#path-46-inside-37_2204_9112)"/>
<mask id="path-47-inside-38_2204_9112" fill="white">
<path d="M21.9309 20.1243C21.7852 20.3346 21.6094 20.5223 21.4089 20.6814L21.2734 20.5106C21.457 20.3649 21.6182 20.1929 21.7517 20.0002L21.9309 20.1243Z"/>
</mask>
<path d="M21.9309 20.1243C21.7852 20.3346 21.6094 20.5223 21.4089 20.6814L21.2734 20.5106C21.457 20.3649 21.6182 20.1929 21.7517 20.0002L21.9309 20.1243Z" stroke="white" stroke-width="2" mask="url(#path-47-inside-38_2204_9112)"/>
<mask id="path-48-inside-39_2204_9112" fill="white">
<path d="M21.3226 20.747C21.2538 20.7971 21.1825 20.8438 21.1091 20.8869L20.9987 20.6989C21.0659 20.6594 21.1312 20.6166 21.1943 20.5707L21.3226 20.747Z"/>
</mask>
<path d="M21.3226 20.747C21.2538 20.7971 21.1825 20.8438 21.1091 20.8869L20.9987 20.6989C21.0659 20.6594 21.1312 20.6166 21.1943 20.5707L21.3226 20.747Z" stroke="white" stroke-width="2" mask="url(#path-48-inside-39_2204_9112)"/>
<mask id="path-49-inside-40_2204_9112" fill="white">
<path d="M17.4126 19.7007C17.3785 19.624 17.3481 19.5457 17.3216 19.4662L17.5284 19.3971C17.5527 19.4701 17.5805 19.5418 17.6118 19.612L17.4126 19.7007Z"/>
</mask>
<path d="M17.4126 19.7007C17.3785 19.624 17.3481 19.5457 17.3216 19.4662L17.5284 19.3971C17.5527 19.4701 17.5805 19.5418 17.6118 19.612L17.4126 19.7007Z" stroke="white" stroke-width="2" mask="url(#path-49-inside-40_2204_9112)"/>
<line y1="-0.5" x2="2.65468" y2="-0.5" transform="matrix(-0.911906 0.410398 0.410398 0.911906 17.9143 19.6384)" stroke="white"/>
</svg>
