<svg width="36" height="29" viewBox="0 0 36 29" fill="none" xmlns="http://www.w3.org/2000/svg">
<circle cx="3.61546" cy="3.61546" r="3.11546" transform="matrix(0.506003 0.862531 0.862531 -0.506003 23.5571 13.8337)" stroke="white"/>
<mask id="path-2-inside-1_2204_10812" fill="white">
<path d="M29.914 18.7645C29.0186 19.1109 28.027 19.1153 27.1286 18.7769C26.2302 18.4384 25.4879 17.7809 25.0436 16.9298L25.3336 16.7785C25.7406 17.5582 26.4207 18.1607 27.2439 18.4708C28.0671 18.7809 28.9756 18.7769 29.796 18.4595L29.914 18.7645Z"/>
</mask>
<path d="M29.914 18.7645C29.0186 19.1109 28.027 19.1153 27.1286 18.7769C26.2302 18.4384 25.4879 17.7809 25.0436 16.9298L25.3336 16.7785C25.7406 17.5582 26.4207 18.1607 27.2439 18.4708C28.0671 18.7809 28.9756 18.7769 29.796 18.4595L29.914 18.7645Z" stroke="white" stroke-width="2" mask="url(#path-2-inside-1_2204_10812)"/>
<mask id="path-3-inside-2_2204_10812" fill="white">
<path d="M31.7479 12.9477C32.1891 13.6055 32.4198 14.3819 32.4094 15.1739C32.3991 15.9659 32.1481 16.736 31.6898 17.3821L31.4231 17.1928C31.843 16.6009 32.0729 15.8953 32.0824 15.1696C32.0919 14.444 31.8805 13.7326 31.4763 13.1299L31.7479 12.9477Z"/>
</mask>
<path d="M31.7479 12.9477C32.1891 13.6055 32.4198 14.3819 32.4094 15.1739C32.3991 15.9659 32.1481 16.736 31.6898 17.3821L31.4231 17.1928C31.843 16.6009 32.0729 15.8953 32.0824 15.1696C32.0919 14.444 31.8805 13.7326 31.4763 13.1299L31.7479 12.9477Z" stroke="white" stroke-width="2" mask="url(#path-3-inside-2_2204_10812)"/>
<mask id="path-4-inside-3_2204_10812" fill="white">
<path d="M30.8007 11.9642C31.1111 12.1898 31.3866 12.46 31.6183 12.766L31.3575 12.9634C31.1453 12.683 30.8928 12.4355 30.6084 12.2288L30.8007 11.9642Z"/>
</mask>
<path d="M30.8007 11.9642C31.1111 12.1898 31.3866 12.46 31.6183 12.766L31.3575 12.9634C31.1453 12.683 30.8928 12.4355 30.6084 12.2288L30.8007 11.9642Z" stroke="white" stroke-width="2" mask="url(#path-4-inside-3_2204_10812)"/>
<mask id="path-5-inside-4_2204_10812" fill="white">
<path d="M29.4895 11.3443C29.8609 11.441 30.216 11.592 30.5433 11.7923L30.3726 12.0713C30.0727 11.8877 29.7473 11.7494 29.407 11.6607L29.4895 11.3443Z"/>
</mask>
<path d="M29.4895 11.3443C29.8609 11.441 30.216 11.592 30.5433 11.7923L30.3726 12.0713C30.0727 11.8877 29.7473 11.7494 29.407 11.6607L29.4895 11.3443Z" stroke="white" stroke-width="2" mask="url(#path-5-inside-4_2204_10812)"/>
<mask id="path-6-inside-5_2204_10812" fill="white">
<path d="M26.5293 11.7549C26.8603 11.5607 27.2182 11.4164 27.5913 11.3266L27.6678 11.6445C27.326 11.7268 26.9981 11.8591 26.6948 12.037L26.5293 11.7549Z"/>
</mask>
<path d="M26.5293 11.7549C26.8603 11.5607 27.2182 11.4164 27.5913 11.3266L27.6678 11.6445C27.326 11.7268 26.9981 11.8591 26.6948 12.037L26.5293 11.7549Z" stroke="white" stroke-width="2" mask="url(#path-6-inside-5_2204_10812)"/>
<mask id="path-7-inside-6_2204_10812" fill="white">
<path d="M24.9502 16.7381C24.7914 16.3887 24.685 16.0178 24.6344 15.6374L24.9586 15.5943C25.005 15.9428 25.1024 16.2827 25.2479 16.6028L24.9502 16.7381Z"/>
</mask>
<path d="M24.9502 16.7381C24.7914 16.3887 24.685 16.0178 24.6344 15.6374L24.9586 15.5943C25.005 15.9428 25.1024 16.2827 25.2479 16.6028L24.9502 16.7381Z" stroke="white" stroke-width="2" mask="url(#path-7-inside-6_2204_10812)"/>
<mask id="path-8-inside-7_2204_10812" fill="white">
<path d="M24.6164 15.4757C24.6048 15.3485 24.5995 15.2208 24.6005 15.0931L24.9275 15.0956C24.9266 15.2126 24.9315 15.3296 24.9421 15.4462L24.6164 15.4757Z"/>
</mask>
<path d="M24.6164 15.4757C24.6048 15.3485 24.5995 15.2208 24.6005 15.0931L24.9275 15.0956C24.9266 15.2126 24.9315 15.3296 24.9421 15.4462L24.6164 15.4757Z" stroke="white" stroke-width="2" mask="url(#path-8-inside-7_2204_10812)"/>
<mask id="path-9-inside-8_2204_10812" fill="white">
<path d="M28.9721 11.2462C29.097 11.2612 29.2212 11.2823 29.3441 11.3094L29.2739 11.6288C29.1612 11.604 29.0475 11.5847 28.933 11.5709L28.9721 11.2462Z"/>
</mask>
<path d="M28.9721 11.2462C29.097 11.2612 29.2212 11.2823 29.3441 11.3094L29.2739 11.6288C29.1612 11.604 29.0475 11.5847 28.933 11.5709L28.9721 11.2462Z" stroke="white" stroke-width="2" mask="url(#path-9-inside-8_2204_10812)"/>
<circle cx="3.61546" cy="3.61546" r="3.11546" transform="matrix(0.506003 0.862531 0.862531 -0.506003 9.86304 10.4944)" stroke="white"/>
<mask id="path-11-inside-9_2204_10812" fill="white">
<path d="M16.2199 15.4251C15.3245 15.7716 14.3329 15.776 13.4345 15.4375C12.5361 15.0991 11.7938 14.4415 11.3496 13.5904L11.6395 13.4391C12.0465 14.2189 12.7266 14.8214 13.5498 15.1315C14.373 15.4416 15.2815 15.4375 16.1019 15.1201L16.2199 15.4251Z"/>
</mask>
<path d="M16.2199 15.4251C15.3245 15.7716 14.3329 15.776 13.4345 15.4375C12.5361 15.0991 11.7938 14.4415 11.3496 13.5904L11.6395 13.4391C12.0465 14.2189 12.7266 14.8214 13.5498 15.1315C14.373 15.4416 15.2815 15.4375 16.1019 15.1201L16.2199 15.4251Z" stroke="white" stroke-width="2" mask="url(#path-11-inside-9_2204_10812)"/>
<mask id="path-12-inside-10_2204_10812" fill="white">
<path d="M18.0538 9.60837C18.495 10.2662 18.7257 11.0426 18.7154 11.8346C18.705 12.6266 18.454 13.3967 17.9957 14.0427L17.729 13.8535C18.1489 13.2616 18.3789 12.556 18.3883 11.8303C18.3978 11.1046 18.1864 10.3932 17.7822 9.79055L18.0538 9.60837Z"/>
</mask>
<path d="M18.0538 9.60837C18.495 10.2662 18.7257 11.0426 18.7154 11.8346C18.705 12.6266 18.454 13.3967 17.9957 14.0427L17.729 13.8535C18.1489 13.2616 18.3789 12.556 18.3883 11.8303C18.3978 11.1046 18.1864 10.3932 17.7822 9.79055L18.0538 9.60837Z" stroke="white" stroke-width="2" mask="url(#path-12-inside-10_2204_10812)"/>
<mask id="path-13-inside-11_2204_10812" fill="white">
<path d="M17.1066 8.62485C17.417 8.85048 17.6925 9.12064 17.9242 9.42663L17.6634 9.62403C17.4512 9.34367 17.1988 9.09613 16.9143 8.8894L17.1066 8.62485Z"/>
</mask>
<path d="M17.1066 8.62485C17.417 8.85048 17.6925 9.12064 17.9242 9.42663L17.6634 9.62403C17.4512 9.34367 17.1988 9.09613 16.9143 8.8894L17.1066 8.62485Z" stroke="white" stroke-width="2" mask="url(#path-13-inside-11_2204_10812)"/>
<mask id="path-14-inside-12_2204_10812" fill="white">
<path d="M15.7954 8.00492C16.1668 8.10167 16.5219 8.25265 16.8492 8.45298L16.6785 8.73192C16.3786 8.54837 16.0532 8.41004 15.7129 8.32139L15.7954 8.00492Z"/>
</mask>
<path d="M15.7954 8.00492C16.1668 8.10167 16.5219 8.25265 16.8492 8.45298L16.6785 8.73192C16.3786 8.54837 16.0532 8.41004 15.7129 8.32139L15.7954 8.00492Z" stroke="white" stroke-width="2" mask="url(#path-14-inside-12_2204_10812)"/>
<mask id="path-15-inside-13_2204_10812" fill="white">
<path d="M12.8352 8.41557C13.1662 8.22137 13.5241 8.07704 13.8972 7.98723L13.9737 8.30518C13.6319 8.38747 13.304 8.51972 13.0007 8.69765L12.8352 8.41557Z"/>
</mask>
<path d="M12.8352 8.41557C13.1662 8.22137 13.5241 8.07704 13.8972 7.98723L13.9737 8.30518C13.6319 8.38747 13.304 8.51972 13.0007 8.69765L12.8352 8.41557Z" stroke="white" stroke-width="2" mask="url(#path-15-inside-13_2204_10812)"/>
<mask id="path-16-inside-14_2204_10812" fill="white">
<path d="M11.2561 13.3988C11.0973 13.0493 10.9909 12.6784 10.9403 12.298L11.2645 12.2549C11.3109 12.6035 11.4083 12.9433 11.5538 13.2635L11.2561 13.3988Z"/>
</mask>
<path d="M11.2561 13.3988C11.0973 13.0493 10.9909 12.6784 10.9403 12.298L11.2645 12.2549C11.3109 12.6035 11.4083 12.9433 11.5538 13.2635L11.2561 13.3988Z" stroke="white" stroke-width="2" mask="url(#path-16-inside-14_2204_10812)"/>
<mask id="path-17-inside-15_2204_10812" fill="white">
<path d="M10.9223 12.1364C10.9107 12.0092 10.9054 11.8815 10.9064 11.7537L11.2334 11.7562C11.2326 11.8733 11.2374 11.9903 11.248 12.1068L10.9223 12.1364Z"/>
</mask>
<path d="M10.9223 12.1364C10.9107 12.0092 10.9054 11.8815 10.9064 11.7537L11.2334 11.7562C11.2326 11.8733 11.2374 11.9903 11.248 12.1068L10.9223 12.1364Z" stroke="white" stroke-width="2" mask="url(#path-17-inside-15_2204_10812)"/>
<mask id="path-18-inside-16_2204_10812" fill="white">
<path d="M15.278 7.90682C15.403 7.92188 15.5271 7.94296 15.65 7.97001L15.5798 8.28941C15.4671 8.26463 15.3534 8.24531 15.2389 8.23151L15.278 7.90682Z"/>
</mask>
<path d="M15.278 7.90682C15.403 7.92188 15.5271 7.94296 15.65 7.97001L15.5798 8.28941C15.4671 8.26463 15.3534 8.24531 15.2389 8.23151L15.278 7.90682Z" stroke="white" stroke-width="2" mask="url(#path-18-inside-16_2204_10812)"/>
<circle cx="2.41031" cy="2.41031" r="1.91031" transform="matrix(0.506003 0.862531 0.862531 -0.506003 5.01855 4.73364)" stroke="white"/>
<mask id="path-20-inside-17_2204_10812" fill="white">
<path d="M9.25639 8.02065C8.65947 8.25159 7.9984 8.25453 7.39945 8.0289C6.8005 7.80327 6.30567 7.3649 6.00948 6.79751L6.20276 6.69662C6.47414 7.21648 6.92752 7.61814 7.47631 7.82487C8.02509 8.0316 8.6308 8.02891 9.17772 7.81731L9.25639 8.02065Z"/>
</mask>
<path d="M9.25639 8.02065C8.65947 8.25159 7.9984 8.25453 7.39945 8.0289C6.8005 7.80327 6.30567 7.3649 6.00948 6.79751L6.20276 6.69662C6.47414 7.21648 6.92752 7.61814 7.47631 7.82487C8.02509 8.0316 8.6308 8.02891 9.17772 7.81731L9.25639 8.02065Z" stroke="white" stroke-width="2" mask="url(#path-20-inside-17_2204_10812)"/>
<mask id="path-21-inside-18_2204_10812" fill="white">
<path d="M10.479 4.1428C10.7731 4.58133 10.9269 5.09894 10.92 5.62694C10.9131 6.15493 10.7458 6.66834 10.4403 7.09902L10.2625 6.97288C10.5424 6.57827 10.6957 6.10786 10.702 5.62408C10.7083 5.14031 10.5674 4.66605 10.2979 4.26426L10.479 4.1428Z"/>
</mask>
<path d="M10.479 4.1428C10.7731 4.58133 10.9269 5.09894 10.92 5.62694C10.9131 6.15493 10.7458 6.66834 10.4403 7.09902L10.2625 6.97288C10.5424 6.57827 10.6957 6.10786 10.702 5.62408C10.7083 5.14031 10.5674 4.66605 10.2979 4.26426L10.479 4.1428Z" stroke="white" stroke-width="2" mask="url(#path-21-inside-18_2204_10812)"/>
<mask id="path-22-inside-19_2204_10812" fill="white">
<path d="M9.84749 3.48712C10.0545 3.63754 10.2381 3.81765 10.3926 4.02164L10.2187 4.15324C10.0772 3.96634 9.90895 3.80131 9.71932 3.66349L9.84749 3.48712Z"/>
</mask>
<path d="M9.84749 3.48712C10.0545 3.63754 10.2381 3.81765 10.3926 4.02164L10.2187 4.15324C10.0772 3.96634 9.90895 3.80131 9.71932 3.66349L9.84749 3.48712Z" stroke="white" stroke-width="2" mask="url(#path-22-inside-19_2204_10812)"/>
<mask id="path-23-inside-20_2204_10812" fill="white">
<path d="M8.97337 3.07383C9.22096 3.13834 9.45769 3.23899 9.67592 3.37254L9.56212 3.55851C9.36216 3.43614 9.14526 3.34392 8.91841 3.28482L8.97337 3.07383Z"/>
</mask>
<path d="M8.97337 3.07383C9.22096 3.13834 9.45769 3.23899 9.67592 3.37254L9.56212 3.55851C9.36216 3.43614 9.14526 3.34392 8.91841 3.28482L8.97337 3.07383Z" stroke="white" stroke-width="2" mask="url(#path-23-inside-20_2204_10812)"/>
<mask id="path-24-inside-21_2204_10812" fill="white">
<path d="M6.99992 3.3476C7.2206 3.21814 7.45917 3.12192 7.70792 3.06204L7.75894 3.27401C7.53102 3.32887 7.31244 3.41704 7.11024 3.53566L6.99992 3.3476Z"/>
</mask>
<path d="M6.99992 3.3476C7.2206 3.21814 7.45917 3.12192 7.70792 3.06204L7.75894 3.27401C7.53102 3.32887 7.31244 3.41704 7.11024 3.53566L6.99992 3.3476Z" stroke="white" stroke-width="2" mask="url(#path-24-inside-21_2204_10812)"/>
<mask id="path-25-inside-22_2204_10812" fill="white">
<path d="M5.94716 6.66973C5.84132 6.43679 5.77039 6.18952 5.73668 5.9359L5.95281 5.90717C5.9837 6.13955 6.04868 6.36611 6.14565 6.57953L5.94716 6.66973Z"/>
</mask>
<path d="M5.94716 6.66973C5.84132 6.43679 5.77039 6.18952 5.73668 5.9359L5.95281 5.90717C5.9837 6.13955 6.04868 6.36611 6.14565 6.57953L5.94716 6.66973Z" stroke="white" stroke-width="2" mask="url(#path-25-inside-22_2204_10812)"/>
<mask id="path-26-inside-23_2204_10812" fill="white">
<path d="M5.72463 5.82813C5.71694 5.74333 5.71341 5.6582 5.71406 5.57306L5.93208 5.57472C5.93148 5.65273 5.93472 5.73073 5.94177 5.80843L5.72463 5.82813Z"/>
</mask>
<path d="M5.72463 5.82813C5.71694 5.74333 5.71341 5.6582 5.71406 5.57306L5.93208 5.57472C5.93148 5.65273 5.93472 5.73073 5.94177 5.80843L5.72463 5.82813Z" stroke="white" stroke-width="2" mask="url(#path-26-inside-23_2204_10812)"/>
<mask id="path-27-inside-24_2204_10812" fill="white">
<path d="M8.62845 3.00844C8.71175 3.01847 8.79452 3.03253 8.87647 3.05056L8.82962 3.26349C8.75454 3.24697 8.6787 3.23409 8.60237 3.2249L8.62845 3.00844Z"/>
</mask>
<path d="M8.62845 3.00844C8.71175 3.01847 8.79452 3.03253 8.87647 3.05056L8.82962 3.26349C8.75454 3.24697 8.6787 3.23409 8.60237 3.2249L8.62845 3.00844Z" stroke="white" stroke-width="2" mask="url(#path-27-inside-24_2204_10812)"/>
<circle cx="2.41031" cy="2.41031" r="1.91031" transform="matrix(0.506003 0.862531 0.862531 -0.506003 2.7876 13.3142)" stroke="white"/>
<mask id="path-29-inside-25_2204_10812" fill="white">
<path d="M7.02544 16.6012C6.42852 16.8322 5.76744 16.8351 5.16849 16.6095C4.56954 16.3838 4.07471 15.9455 3.77853 15.3781L3.9718 15.2772C4.24318 15.797 4.69657 16.1987 5.24535 16.4054C5.79413 16.6122 6.39984 16.6095 6.94677 16.3979L7.02544 16.6012Z"/>
</mask>
<path d="M7.02544 16.6012C6.42852 16.8322 5.76744 16.8351 5.16849 16.6095C4.56954 16.3838 4.07471 15.9455 3.77853 15.3781L3.9718 15.2772C4.24318 15.797 4.69657 16.1987 5.24535 16.4054C5.79413 16.6122 6.39984 16.6095 6.94677 16.3979L7.02544 16.6012Z" stroke="white" stroke-width="2" mask="url(#path-29-inside-25_2204_10812)"/>
<mask id="path-30-inside-26_2204_10812" fill="white">
<path d="M8.248 12.7234C8.54214 13.1619 8.69597 13.6795 8.68906 14.2075C8.68216 14.7355 8.51484 15.2489 8.20932 15.6796L8.0315 15.5534C8.31143 15.1588 8.46473 14.6884 8.47106 14.2047C8.47739 13.7209 8.33644 13.2466 8.06693 12.8448L8.248 12.7234Z"/>
</mask>
<path d="M8.248 12.7234C8.54214 13.1619 8.69597 13.6795 8.68906 14.2075C8.68216 14.7355 8.51484 15.2489 8.20932 15.6796L8.0315 15.5534C8.31143 15.1588 8.46473 14.6884 8.47106 14.2047C8.47739 13.7209 8.33644 13.2466 8.06693 12.8448L8.248 12.7234Z" stroke="white" stroke-width="2" mask="url(#path-30-inside-26_2204_10812)"/>
<mask id="path-31-inside-27_2204_10812" fill="white">
<path d="M7.61654 12.0677C7.82351 12.2181 8.00717 12.3982 8.1616 12.6022L7.98777 12.7338C7.84628 12.5469 7.67799 12.3819 7.48836 12.2441L7.61654 12.0677Z"/>
</mask>
<path d="M7.61654 12.0677C7.82351 12.2181 8.00717 12.3982 8.1616 12.6022L7.98777 12.7338C7.84628 12.5469 7.67799 12.3819 7.48836 12.2441L7.61654 12.0677Z" stroke="white" stroke-width="2" mask="url(#path-31-inside-27_2204_10812)"/>
<mask id="path-32-inside-28_2204_10812" fill="white">
<path d="M6.74241 11.6544C6.99001 11.7189 7.22673 11.8196 7.44497 11.9531L7.33116 12.1391C7.13121 12.0167 6.9143 11.9245 6.68745 11.8654L6.74241 11.6544Z"/>
</mask>
<path d="M6.74241 11.6544C6.99001 11.7189 7.22673 11.8196 7.44497 11.9531L7.33116 12.1391C7.13121 12.0167 6.9143 11.9245 6.68745 11.8654L6.74241 11.6544Z" stroke="white" stroke-width="2" mask="url(#path-32-inside-28_2204_10812)"/>
<mask id="path-33-inside-29_2204_10812" fill="white">
<path d="M4.76896 11.9282C4.98965 11.7987 5.22821 11.7025 5.47696 11.6426L5.52798 11.8546C5.30007 11.9094 5.08148 11.9976 4.87928 12.1162L4.76896 11.9282Z"/>
</mask>
<path d="M4.76896 11.9282C4.98965 11.7987 5.22821 11.7025 5.47696 11.6426L5.52798 11.8546C5.30007 11.9094 5.08148 11.9976 4.87928 12.1162L4.76896 11.9282Z" stroke="white" stroke-width="2" mask="url(#path-33-inside-29_2204_10812)"/>
<mask id="path-34-inside-30_2204_10812" fill="white">
<path d="M3.7162 15.2503C3.61036 15.0174 3.53944 14.7701 3.50572 14.5165L3.72185 14.4877C3.75274 14.7201 3.81772 14.9467 3.91469 15.1601L3.7162 15.2503Z"/>
</mask>
<path d="M3.7162 15.2503C3.61036 15.0174 3.53944 14.7701 3.50572 14.5165L3.72185 14.4877C3.75274 14.7201 3.81772 14.9467 3.91469 15.1601L3.7162 15.2503Z" stroke="white" stroke-width="2" mask="url(#path-34-inside-30_2204_10812)"/>
<mask id="path-35-inside-31_2204_10812" fill="white">
<path d="M3.49368 14.4087C3.48598 14.3239 3.48245 14.2388 3.4831 14.1536L3.70112 14.1553C3.70053 14.2333 3.70376 14.3113 3.71081 14.389L3.49368 14.4087Z"/>
</mask>
<path d="M3.49368 14.4087C3.48598 14.3239 3.48245 14.2388 3.4831 14.1536L3.70112 14.1553C3.70053 14.2333 3.70376 14.3113 3.71081 14.389L3.49368 14.4087Z" stroke="white" stroke-width="2" mask="url(#path-35-inside-31_2204_10812)"/>
<mask id="path-36-inside-32_2204_10812" fill="white">
<path d="M6.39749 11.589C6.4808 11.599 6.56357 11.6131 6.64551 11.6311L6.59867 11.8441C6.52358 11.8275 6.44774 11.8147 6.37142 11.8055L6.39749 11.589Z"/>
</mask>
<path d="M6.39749 11.589C6.4808 11.599 6.56357 11.6131 6.64551 11.6311L6.59867 11.8441C6.52358 11.8275 6.44774 11.8147 6.37142 11.8055L6.39749 11.589Z" stroke="white" stroke-width="2" mask="url(#path-36-inside-32_2204_10812)"/>
<line y1="-0.5" x2="6.26917" y2="-0.5" transform="matrix(0.506424 0.862285 0.862285 -0.506424 23.7649 6.79614)" stroke="white"/>
<line y1="-0.5" x2="6.76814" y2="-0.5" transform="matrix(0.951377 0.30803 0.30803 -0.951377 18.7083 12.2729)" stroke="white"/>
<line y1="-0.5" x2="3.75429" y2="-0.5" transform="matrix(0.620729 0.784025 0.784025 -0.620729 10.0991 6.74951)" stroke="white"/>
<line y1="-0.5" x2="3.03575" y2="-0.5" transform="matrix(0.974279 -0.225346 -0.225346 -0.974279 8.50977 13.3489)" stroke="white"/>
<circle cx="2.41031" cy="2.41031" r="1.91031" transform="matrix(0.506003 0.862531 0.862531 -0.506003 10.2456 19.0125)" stroke="white"/>
<mask id="path-42-inside-33_2204_10812" fill="white">
<path d="M14.4834 22.2995C13.8865 22.5304 13.2254 22.5333 12.6265 22.3077C12.0276 22.0821 11.5327 21.6437 11.2365 21.0763L11.4298 20.9754C11.7012 21.4953 12.1546 21.897 12.7034 22.1037C13.2521 22.3104 13.8579 22.3077 14.4048 22.0961L14.4834 22.2995Z"/>
</mask>
<path d="M14.4834 22.2995C13.8865 22.5304 13.2254 22.5333 12.6265 22.3077C12.0276 22.0821 11.5327 21.6437 11.2365 21.0763L11.4298 20.9754C11.7012 21.4953 12.1546 21.897 12.7034 22.1037C13.2521 22.3104 13.8579 22.3077 14.4048 22.0961L14.4834 22.2995Z" stroke="white" stroke-width="2" mask="url(#path-42-inside-33_2204_10812)"/>
<mask id="path-43-inside-34_2204_10812" fill="white">
<path d="M15.706 18.4216C16.0002 18.8601 16.154 19.3778 16.1471 19.9057C16.1402 20.4337 15.9728 20.9471 15.6673 21.3778L15.4895 21.2517C15.7694 20.8571 15.9227 20.3867 15.9291 19.9029C15.9354 19.4191 15.7945 18.9449 15.5249 18.5431L15.706 18.4216Z"/>
</mask>
<path d="M15.706 18.4216C16.0002 18.8601 16.154 19.3778 16.1471 19.9057C16.1402 20.4337 15.9728 20.9471 15.6673 21.3778L15.4895 21.2517C15.7694 20.8571 15.9227 20.3867 15.9291 19.9029C15.9354 19.4191 15.7945 18.9449 15.5249 18.5431L15.706 18.4216Z" stroke="white" stroke-width="2" mask="url(#path-43-inside-34_2204_10812)"/>
<mask id="path-44-inside-35_2204_10812" fill="white">
<path d="M15.0745 17.7659C15.2815 17.9164 15.4652 18.0965 15.6196 18.3004L15.4458 18.432C15.3043 18.2451 15.136 18.0801 14.9464 17.9423L15.0745 17.7659Z"/>
</mask>
<path d="M15.0745 17.7659C15.2815 17.9164 15.4652 18.0965 15.6196 18.3004L15.4458 18.432C15.3043 18.2451 15.136 18.0801 14.9464 17.9423L15.0745 17.7659Z" stroke="white" stroke-width="2" mask="url(#path-44-inside-35_2204_10812)"/>
<mask id="path-45-inside-36_2204_10812" fill="white">
<path d="M14.2004 17.3526C14.448 17.4171 14.6847 17.5178 14.903 17.6513L14.7892 17.8373C14.5892 17.7149 14.3723 17.6227 14.1455 17.5636L14.2004 17.3526Z"/>
</mask>
<path d="M14.2004 17.3526C14.448 17.4171 14.6847 17.5178 14.903 17.6513L14.7892 17.8373C14.5892 17.7149 14.3723 17.6227 14.1455 17.5636L14.2004 17.3526Z" stroke="white" stroke-width="2" mask="url(#path-45-inside-36_2204_10812)"/>
<mask id="path-46-inside-37_2204_10812" fill="white">
<path d="M12.227 17.6264C12.4477 17.4969 12.6862 17.4007 12.935 17.3408L12.986 17.5528C12.7581 17.6077 12.5395 17.6958 12.3373 17.8145L12.227 17.6264Z"/>
</mask>
<path d="M12.227 17.6264C12.4477 17.4969 12.6862 17.4007 12.935 17.3408L12.986 17.5528C12.7581 17.6077 12.5395 17.6958 12.3373 17.8145L12.227 17.6264Z" stroke="white" stroke-width="2" mask="url(#path-46-inside-37_2204_10812)"/>
<mask id="path-47-inside-38_2204_10812" fill="white">
<path d="M11.1742 20.9485C11.0684 20.7156 10.9974 20.4683 10.9637 20.2147L11.1799 20.186C11.2107 20.4184 11.2757 20.6449 11.3727 20.8583L11.1742 20.9485Z"/>
</mask>
<path d="M11.1742 20.9485C11.0684 20.7156 10.9974 20.4683 10.9637 20.2147L11.1799 20.186C11.2107 20.4184 11.2757 20.6449 11.3727 20.8583L11.1742 20.9485Z" stroke="white" stroke-width="2" mask="url(#path-47-inside-38_2204_10812)"/>
<mask id="path-48-inside-39_2204_10812" fill="white">
<path d="M10.9517 20.1069C10.944 20.0221 10.9405 19.937 10.9411 19.8519L11.1591 19.8535C11.1585 19.9315 11.1618 20.0095 11.1688 20.0872L10.9517 20.1069Z"/>
</mask>
<path d="M10.9517 20.1069C10.944 20.0221 10.9405 19.937 10.9411 19.8519L11.1591 19.8535C11.1585 19.9315 11.1618 20.0095 11.1688 20.0872L10.9517 20.1069Z" stroke="white" stroke-width="2" mask="url(#path-48-inside-39_2204_10812)"/>
<mask id="path-49-inside-40_2204_10812" fill="white">
<path d="M13.8555 17.2872C13.9388 17.2973 14.0216 17.3113 14.1035 17.3294L14.0567 17.5423C13.9816 17.5258 13.9058 17.5129 13.8294 17.5037L13.8555 17.2872Z"/>
</mask>
<path d="M13.8555 17.2872C13.9388 17.2973 14.0216 17.3113 14.1035 17.3294L14.0567 17.5423C13.9816 17.5258 13.9058 17.5129 13.8294 17.5037L13.8555 17.2872Z" stroke="white" stroke-width="2" mask="url(#path-49-inside-40_2204_10812)"/>
<line y1="-0.5" x2="2.65468" y2="-0.5" transform="matrix(0.115468 -0.993311 -0.993311 -0.115468 13.6516 17.7498)" stroke="white"/>
</svg>
