<svg width="120" height="162" viewBox="0 0 120 162" fill="none" xmlns="http://www.w3.org/2000/svg">
<circle cx="16.6867" cy="16.6867" r="16.1867" transform="matrix(0.48086 -0.876798 -0.876798 -0.48086 41.6407 61.1641)" stroke="#333333"/>
<mask id="path-2-inside-1_2202_11483" fill="white">
<path d="M46.1263 24.3058C49.6185 27.0331 51.9836 30.9514 52.7697 35.3122C53.5557 39.6729 52.7077 44.1704 50.3877 47.9455L49.1017 47.1551C51.2275 43.6962 52.0044 39.5754 51.2842 35.5799C50.5639 31.5844 48.397 27.9943 45.1972 25.4954L46.1263 24.3058Z"/>
</mask>
<path d="M46.1263 24.3058C49.6185 27.0331 51.9836 30.9514 52.7697 35.3122C53.5557 39.6729 52.7077 44.1704 50.3877 47.9455L49.1017 47.1551C51.2275 43.6962 52.0044 39.5754 51.2842 35.5799C50.5639 31.5844 48.397 27.9943 45.1972 25.4954L46.1263 24.3058Z" stroke="#333333" stroke-width="2" mask="url(#path-2-inside-1_2202_11483)"/>
<mask id="path-3-inside-2_2202_11483" fill="white">
<path d="M18.7391 30.8112C20.3006 27.5058 22.8305 24.7535 25.9928 22.9196C29.1552 21.0856 32.8005 20.2567 36.4449 20.543L36.3267 22.0477C32.9875 21.7855 29.6475 22.5449 26.75 24.2253C23.8526 25.9056 21.5346 28.4274 20.1038 31.456L18.7391 30.8112Z"/>
</mask>
<path d="M18.7391 30.8112C20.3006 27.5058 22.8305 24.7535 25.9928 22.9196C29.1552 21.0856 32.8005 20.2567 36.4449 20.543L36.3267 22.0477C32.9875 21.7855 29.6475 22.5449 26.75 24.2253C23.8526 25.9056 21.5346 28.4274 20.1038 31.456L18.7391 30.8112Z" stroke="#333333" stroke-width="2" mask="url(#path-3-inside-2_2202_11483)"/>
<mask id="path-4-inside-3_2202_11483" fill="white">
<path d="M17.0849 36.8924C17.2438 35.1282 17.6619 33.3971 18.3258 31.7549L19.7252 32.3206C19.1169 33.8253 18.7338 35.4114 18.5882 37.0278L17.0849 36.8924Z"/>
</mask>
<path d="M17.0849 36.8924C17.2438 35.1282 17.6619 33.3971 18.3258 31.7549L19.7252 32.3206C19.1169 33.8253 18.7338 35.4114 18.5882 37.0278L17.0849 36.8924Z" stroke="#333333" stroke-width="2" mask="url(#path-4-inside-3_2202_11483)"/>
<mask id="path-5-inside-4_2202_11483" fill="white">
<path d="M17.7329 43.5548C17.237 41.8544 16.9945 40.0901 17.0132 38.3189L18.5225 38.3348C18.5054 39.9577 18.7276 41.5742 19.1819 43.1323L17.7329 43.5548Z"/>
</mask>
<path d="M17.7329 43.5548C17.237 41.8544 16.9945 40.0901 17.0132 38.3189L18.5225 38.3348C18.5054 39.9577 18.7276 41.5742 19.1819 43.1323L17.7329 43.5548Z" stroke="#333333" stroke-width="2" mask="url(#path-5-inside-4_2202_11483)"/>
<mask id="path-6-inside-5_2202_11483" fill="white">
<path d="M26.368 54.3107C24.8149 53.4589 23.3959 52.3829 22.1567 51.1172L23.2352 50.0612C24.3706 51.2209 25.6708 52.2068 27.0938 52.9872L26.368 54.3107Z"/>
</mask>
<path d="M26.368 54.3107C24.8149 53.4589 23.3959 52.3829 22.1567 51.1172L23.2352 50.0612C24.3706 51.2209 25.6708 52.2068 27.0938 52.9872L26.368 54.3107Z" stroke="#333333" stroke-width="2" mask="url(#path-6-inside-5_2202_11483)"/>
<mask id="path-7-inside-6_2202_11483" fill="white">
<path d="M49.8496 48.7697C48.8411 50.2259 47.6235 51.5254 46.2359 52.6265L45.2977 51.4441C46.569 50.4353 47.6847 49.2446 48.6087 47.9103L49.8496 48.7697Z"/>
</mask>
<path d="M49.8496 48.7697C48.8411 50.2259 47.6235 51.5254 46.2359 52.6265L45.2977 51.4441C46.569 50.4353 47.6847 49.2446 48.6087 47.9103L49.8496 48.7697Z" stroke="#333333" stroke-width="2" mask="url(#path-7-inside-6_2202_11483)"/>
<mask id="path-8-inside-7_2202_11483" fill="white">
<path d="M45.6383 53.0807C45.1616 53.4276 44.6683 53.7509 44.1599 54.0494L43.3956 52.7479C43.8613 52.4743 44.3134 52.1781 44.7501 51.8603L45.6383 53.0807Z"/>
</mask>
<path d="M45.6383 53.0807C45.1616 53.4276 44.6683 53.7509 44.1599 54.0494L43.3956 52.7479C43.8613 52.4743 44.3134 52.1781 44.7501 51.8603L45.6383 53.0807Z" stroke="#333333" stroke-width="2" mask="url(#path-8-inside-7_2202_11483)"/>
<mask id="path-9-inside-8_2202_11483" fill="white">
<path d="M18.5691 45.8369C18.3329 45.3062 18.1225 44.7644 17.9387 44.2134L19.3705 43.7356C19.539 44.2405 19.7317 44.7369 19.9481 45.2232L18.5691 45.8369Z"/>
</mask>
<path d="M18.5691 45.8369C18.3329 45.3062 18.1225 44.7644 17.9387 44.2134L19.3705 43.7356C19.539 44.2405 19.7317 44.7369 19.9481 45.2232L18.5691 45.8369Z" stroke="#333333" stroke-width="2" mask="url(#path-9-inside-8_2202_11483)"/>
<circle cx="16.6867" cy="16.6867" r="16.1867" transform="matrix(0.48086 -0.876798 -0.876798 -0.48086 60.8309 123.325)" stroke="#333333"/>
<mask id="path-11-inside-9_2202_11483" fill="white">
<path d="M65.3164 86.467C68.8087 89.1943 71.1738 93.1126 71.9598 97.4733C72.7459 101.834 71.8979 106.332 69.5778 110.107L68.2919 109.316C70.4177 105.857 71.1946 101.737 70.4744 97.7411C69.7541 93.7456 67.5871 90.1555 64.3874 87.6566L65.3164 86.467Z"/>
</mask>
<path d="M65.3164 86.467C68.8087 89.1943 71.1738 93.1126 71.9598 97.4733C72.7459 101.834 71.8979 106.332 69.5778 110.107L68.2919 109.316C70.4177 105.857 71.1946 101.737 70.4744 97.7411C69.7541 93.7456 67.5871 90.1555 64.3874 87.6566L65.3164 86.467Z" stroke="#333333" stroke-width="2" mask="url(#path-11-inside-9_2202_11483)"/>
<mask id="path-12-inside-10_2202_11483" fill="white">
<path d="M37.9293 92.9723C39.4908 89.667 42.0206 86.9147 45.183 85.0807C48.3453 83.2467 51.9907 82.4179 55.6351 82.7041L55.5169 84.2089C52.1777 83.9466 48.8377 84.7061 45.9402 86.3864C43.0427 88.0668 40.7248 90.5886 39.294 93.6171L37.9293 92.9723Z"/>
</mask>
<path d="M37.9293 92.9723C39.4908 89.667 42.0206 86.9147 45.183 85.0807C48.3453 83.2467 51.9907 82.4179 55.6351 82.7041L55.5169 84.2089C52.1777 83.9466 48.8377 84.7061 45.9402 86.3864C43.0427 88.0668 40.7248 90.5886 39.294 93.6171L37.9293 92.9723Z" stroke="#333333" stroke-width="2" mask="url(#path-12-inside-10_2202_11483)"/>
<mask id="path-13-inside-11_2202_11483" fill="white">
<path d="M36.275 99.0535C36.434 97.2893 36.8521 95.5582 37.516 93.916L38.9154 94.4818C38.3071 95.9864 37.924 97.5725 37.7784 99.1889L36.275 99.0535Z"/>
</mask>
<path d="M36.275 99.0535C36.434 97.2893 36.8521 95.5582 37.516 93.916L38.9154 94.4818C38.3071 95.9864 37.924 97.5725 37.7784 99.1889L36.275 99.0535Z" stroke="#333333" stroke-width="2" mask="url(#path-13-inside-11_2202_11483)"/>
<mask id="path-14-inside-12_2202_11483" fill="white">
<path d="M36.9231 105.716C36.4272 104.016 36.1847 102.251 36.2034 100.48L37.7127 100.496C37.6955 102.119 37.9177 103.735 38.3721 105.293L36.9231 105.716Z"/>
</mask>
<path d="M36.9231 105.716C36.4272 104.016 36.1847 102.251 36.2034 100.48L37.7127 100.496C37.6955 102.119 37.9177 103.735 38.3721 105.293L36.9231 105.716Z" stroke="#333333" stroke-width="2" mask="url(#path-14-inside-12_2202_11483)"/>
<mask id="path-15-inside-13_2202_11483" fill="white">
<path d="M45.5581 116.472C44.0051 115.62 42.586 114.544 41.3469 113.278L42.4254 112.222C43.5608 113.382 44.861 114.368 46.284 115.148L45.5581 116.472Z"/>
</mask>
<path d="M45.5581 116.472C44.0051 115.62 42.586 114.544 41.3469 113.278L42.4254 112.222C43.5608 113.382 44.861 114.368 46.284 115.148L45.5581 116.472Z" stroke="#333333" stroke-width="2" mask="url(#path-15-inside-13_2202_11483)"/>
<mask id="path-16-inside-14_2202_11483" fill="white">
<path d="M69.0398 110.931C68.0313 112.387 66.8136 113.687 65.4261 114.788L64.4879 113.605C65.7592 112.596 66.8749 111.406 67.7989 110.071L69.0398 110.931Z"/>
</mask>
<path d="M69.0398 110.931C68.0313 112.387 66.8136 113.687 65.4261 114.788L64.4879 113.605C65.7592 112.596 66.8749 111.406 67.7989 110.071L69.0398 110.931Z" stroke="#333333" stroke-width="2" mask="url(#path-16-inside-14_2202_11483)"/>
<mask id="path-17-inside-15_2202_11483" fill="white">
<path d="M64.8285 115.242C64.3518 115.589 63.8585 115.912 63.3501 116.211L62.5858 114.909C63.0515 114.635 63.5036 114.339 63.9403 114.021L64.8285 115.242Z"/>
</mask>
<path d="M64.8285 115.242C64.3518 115.589 63.8585 115.912 63.3501 116.211L62.5858 114.909C63.0515 114.635 63.5036 114.339 63.9403 114.021L64.8285 115.242Z" stroke="#333333" stroke-width="2" mask="url(#path-17-inside-15_2202_11483)"/>
<mask id="path-18-inside-16_2202_11483" fill="white">
<path d="M37.7593 107.998C37.5231 107.467 37.3127 106.926 37.1289 106.374L38.5607 105.897C38.7291 106.402 38.9219 106.898 39.1383 107.384L37.7593 107.998Z"/>
</mask>
<path d="M37.7593 107.998C37.5231 107.467 37.3127 106.926 37.1289 106.374L38.5607 105.897C38.7291 106.402 38.9219 106.898 39.1383 107.384L37.7593 107.998Z" stroke="#333333" stroke-width="2" mask="url(#path-18-inside-16_2202_11483)"/>
<circle cx="11.1245" cy="11.1245" r="10.6245" transform="matrix(0.48086 -0.876798 -0.876798 -0.48086 49.4758 156.158)" stroke="#333333"/>
<mask id="path-20-inside-17_2202_11483" fill="white">
<path d="M52.4662 131.586C54.7944 133.404 56.3711 136.017 56.8951 138.924C57.4192 141.831 56.8539 144.829 55.3071 147.346L54.4498 146.819C55.867 144.513 56.385 141.766 55.9048 139.102C55.4247 136.439 53.98 134.045 51.8468 132.379L52.4662 131.586Z"/>
</mask>
<path d="M52.4662 131.586C54.7944 133.404 56.3711 136.017 56.8951 138.924C57.4192 141.831 56.8539 144.829 55.3071 147.346L54.4498 146.819C55.867 144.513 56.385 141.766 55.9048 139.102C55.4247 136.439 53.98 134.045 51.8468 132.379L52.4662 131.586Z" stroke="#333333" stroke-width="2" mask="url(#path-20-inside-17_2202_11483)"/>
<mask id="path-21-inside-18_2202_11483" fill="white">
<path d="M34.2081 135.923C35.2491 133.72 36.9357 131.885 39.0439 130.662C41.1521 129.439 43.5824 128.887 46.012 129.078L45.9332 130.081C43.7071 129.906 41.4804 130.412 39.5487 131.533C37.6171 132.653 36.0718 134.334 35.1179 136.353L34.2081 135.923Z"/>
</mask>
<path d="M34.2081 135.923C35.2491 133.72 36.9357 131.885 39.0439 130.662C41.1521 129.439 43.5824 128.887 46.012 129.078L45.9332 130.081C43.7071 129.906 41.4804 130.412 39.5487 131.533C37.6171 132.653 36.0718 134.334 35.1179 136.353L34.2081 135.923Z" stroke="#333333" stroke-width="2" mask="url(#path-21-inside-18_2202_11483)"/>
<mask id="path-22-inside-19_2202_11483" fill="white">
<path d="M33.1053 139.977C33.2112 138.801 33.49 137.647 33.9326 136.552L34.8655 136.929C34.46 137.933 34.2046 138.99 34.1075 140.068L33.1053 139.977Z"/>
</mask>
<path d="M33.1053 139.977C33.2112 138.801 33.49 137.647 33.9326 136.552L34.8655 136.929C34.46 137.933 34.2046 138.99 34.1075 140.068L33.1053 139.977Z" stroke="#333333" stroke-width="2" mask="url(#path-22-inside-19_2202_11483)"/>
<mask id="path-23-inside-20_2202_11483" fill="white">
<path d="M33.5373 144.419C33.2067 143.285 33.045 142.109 33.0575 140.928L34.0637 140.939C34.0523 142.021 34.2004 143.098 34.5033 144.137L33.5373 144.419Z"/>
</mask>
<path d="M33.5373 144.419C33.2067 143.285 33.045 142.109 33.0575 140.928L34.0637 140.939C34.0523 142.021 34.2004 143.098 34.5033 144.137L33.5373 144.419Z" stroke="#333333" stroke-width="2" mask="url(#path-23-inside-20_2202_11483)"/>
<mask id="path-24-inside-21_2202_11483" fill="white">
<path d="M39.294 151.589C38.2586 151.022 37.3126 150.304 36.4865 149.46L37.2055 148.756C37.9624 149.53 38.8292 150.187 39.7779 150.707L39.294 151.589Z"/>
</mask>
<path d="M39.294 151.589C38.2586 151.022 37.3126 150.304 36.4865 149.46L37.2055 148.756C37.9624 149.53 38.8292 150.187 39.7779 150.707L39.294 151.589Z" stroke="#333333" stroke-width="2" mask="url(#path-24-inside-21_2202_11483)"/>
<mask id="path-25-inside-22_2202_11483" fill="white">
<path d="M54.9484 147.895C54.2761 148.866 53.4643 149.733 52.5393 150.467L51.9138 149.678C52.7614 149.006 53.5052 148.212 54.1212 147.323L54.9484 147.895Z"/>
</mask>
<path d="M54.9484 147.895C54.2761 148.866 53.4643 149.733 52.5393 150.467L51.9138 149.678C52.7614 149.006 53.5052 148.212 54.1212 147.323L54.9484 147.895Z" stroke="#333333" stroke-width="2" mask="url(#path-25-inside-22_2202_11483)"/>
<mask id="path-26-inside-23_2202_11483" fill="white">
<path d="M52.1409 150.769C51.8231 151.001 51.4942 151.216 51.1553 151.415L50.6458 150.548C50.9563 150.365 51.2576 150.168 51.5488 149.956L52.1409 150.769Z"/>
</mask>
<path d="M52.1409 150.769C51.8231 151.001 51.4942 151.216 51.1553 151.415L50.6458 150.548C50.9563 150.365 51.2576 150.168 51.5488 149.956L52.1409 150.769Z" stroke="#333333" stroke-width="2" mask="url(#path-26-inside-23_2202_11483)"/>
<mask id="path-27-inside-24_2202_11483" fill="white">
<path d="M34.0948 145.94C33.9373 145.586 33.7971 145.225 33.6745 144.858L34.629 144.539C34.7413 144.876 34.8699 145.207 35.0141 145.531L34.0948 145.94Z"/>
</mask>
<path d="M34.0948 145.94C33.9373 145.586 33.7971 145.225 33.6745 144.858L34.629 144.539C34.7413 144.876 34.8699 145.207 35.0141 145.531L34.0948 145.94Z" stroke="#333333" stroke-width="2" mask="url(#path-27-inside-24_2202_11483)"/>
<path d="M89.4578 120.264C84.313 117.442 77.855 119.326 75.0334 124.47C72.2118 129.615 74.0952 136.073 79.24 138.895C84.3849 141.716 90.8429 139.833 93.6645 134.688C96.486 129.543 94.6026 123.085 89.4578 120.264Z" stroke="#333333"/>
<mask id="path-29-inside-25_2202_11483" fill="white">
<path d="M91.7439 120.111C94.0721 121.929 95.6488 124.541 96.1729 127.448C96.6969 130.355 96.1316 133.354 94.5849 135.87L93.7276 135.343C95.1447 133.038 95.6627 130.29 95.1825 127.627C94.7024 124.963 93.2577 122.57 91.1246 120.904L91.7439 120.111Z"/>
</mask>
<path d="M91.7439 120.111C94.0721 121.929 95.6488 124.541 96.1729 127.448C96.6969 130.355 96.1316 133.354 94.5849 135.87L93.7276 135.343C95.1447 133.038 95.6627 130.29 95.1825 127.627C94.7024 124.963 93.2577 122.57 91.1246 120.904L91.7439 120.111Z" stroke="#333333" stroke-width="2" mask="url(#path-29-inside-25_2202_11483)"/>
<mask id="path-30-inside-26_2202_11483" fill="white">
<path d="M73.4858 124.448C74.5268 122.244 76.2134 120.409 78.3216 119.186C80.4299 117.964 82.8601 117.411 85.2897 117.602L85.2109 118.605C82.9848 118.43 80.7581 118.937 78.8264 120.057C76.8948 121.177 75.3495 122.858 74.3956 124.877L73.4858 124.448Z"/>
</mask>
<path d="M73.4858 124.448C74.5268 122.244 76.2134 120.409 78.3216 119.186C80.4299 117.964 82.8601 117.411 85.2897 117.602L85.2109 118.605C82.9848 118.43 80.7581 118.937 78.8264 120.057C76.8948 121.177 75.3495 122.858 74.3956 124.877L73.4858 124.448Z" stroke="#333333" stroke-width="2" mask="url(#path-30-inside-26_2202_11483)"/>
<mask id="path-31-inside-27_2202_11483" fill="white">
<path d="M72.383 128.502C72.4889 127.326 72.7677 126.171 73.2103 125.077L74.1432 125.454C73.7377 126.457 73.4823 127.514 73.3852 128.592L72.383 128.502Z"/>
</mask>
<path d="M72.383 128.502C72.4889 127.326 72.7677 126.171 73.2103 125.077L74.1432 125.454C73.7377 126.457 73.4823 127.514 73.3852 128.592L72.383 128.502Z" stroke="#333333" stroke-width="2" mask="url(#path-31-inside-27_2202_11483)"/>
<mask id="path-32-inside-28_2202_11483" fill="white">
<path d="M72.815 132.943C72.4844 131.81 72.3227 130.633 72.3352 129.453L73.3414 129.463C73.33 130.545 73.4781 131.623 73.781 132.662L72.815 132.943Z"/>
</mask>
<path d="M72.815 132.943C72.4844 131.81 72.3227 130.633 72.3352 129.453L73.3414 129.463C73.33 130.545 73.4781 131.623 73.781 132.662L72.815 132.943Z" stroke="#333333" stroke-width="2" mask="url(#path-32-inside-28_2202_11483)"/>
<mask id="path-33-inside-29_2202_11483" fill="white">
<path d="M78.5717 140.114C77.5363 139.546 76.5903 138.829 75.7642 137.985L76.4832 137.281C77.2401 138.054 78.1069 138.711 79.0556 139.232L78.5717 140.114Z"/>
</mask>
<path d="M78.5717 140.114C77.5363 139.546 76.5903 138.829 75.7642 137.985L76.4832 137.281C77.2401 138.054 78.1069 138.711 79.0556 139.232L78.5717 140.114Z" stroke="#333333" stroke-width="2" mask="url(#path-33-inside-29_2202_11483)"/>
<mask id="path-34-inside-30_2202_11483" fill="white">
<path d="M94.2261 136.42C93.5538 137.391 92.7421 138.257 91.817 138.991L91.1915 138.203C92.0391 137.53 92.7829 136.736 93.3989 135.847L94.2261 136.42Z"/>
</mask>
<path d="M94.2261 136.42C93.5538 137.391 92.7421 138.257 91.817 138.991L91.1915 138.203C92.0391 137.53 92.7829 136.736 93.3989 135.847L94.2261 136.42Z" stroke="#333333" stroke-width="2" mask="url(#path-34-inside-30_2202_11483)"/>
<mask id="path-35-inside-31_2202_11483" fill="white">
<path d="M91.4186 139.294C91.1008 139.525 90.7719 139.741 90.433 139.94L89.9235 139.072C90.234 138.89 90.5353 138.692 90.8265 138.48L91.4186 139.294Z"/>
</mask>
<path d="M91.4186 139.294C91.1008 139.525 90.7719 139.741 90.433 139.94L89.9235 139.072C90.234 138.89 90.5353 138.692 90.8265 138.48L91.4186 139.294Z" stroke="#333333" stroke-width="2" mask="url(#path-35-inside-31_2202_11483)"/>
<mask id="path-36-inside-32_2202_11483" fill="white">
<path d="M73.3725 134.465C73.215 134.111 73.0748 133.75 72.9522 133.382L73.9067 133.064C74.0191 133.4 74.1476 133.731 74.2918 134.056L73.3725 134.465Z"/>
</mask>
<path d="M73.3725 134.465C73.215 134.111 73.0748 133.75 72.9522 133.382L73.9067 133.064C74.0191 133.4 74.1476 133.731 74.2918 134.056L73.3725 134.465Z" stroke="#333333" stroke-width="2" mask="url(#path-36-inside-32_2202_11483)"/>
<line y1="-0.5" x2="28.9346" y2="-0.5" transform="matrix(0.480432 -0.877032 -0.877032 -0.480432 13.2664 77.0029)" stroke="#333333"/>
<line y1="-0.5" x2="31.2376" y2="-0.5" transform="matrix(-0.223589 -0.974683 -0.974683 0.223589 46.9366 84.0708)" stroke="#333333"/>
<line y1="-0.5" x2="17.3275" y2="-0.5" transform="matrix(0.35462 -0.935011 -0.935011 -0.35462 45.4343 131.256)" stroke="#333333"/>
<line y1="-0.5" x2="14.0111" y2="-0.5" transform="matrix(-0.693197 -0.720749 -0.720749 0.693197 75.3438 121.93)" stroke="#333333"/>
<circle cx="11.1245" cy="11.1245" r="10.6245" transform="matrix(0.48086 -0.876798 -0.876798 -0.48086 93.6724 101.644)" stroke="#333333"/>
<mask id="path-42-inside-33_2202_11483" fill="white">
<path d="M96.6627 77.072C98.9909 78.8903 100.568 81.5024 101.092 84.4096C101.616 87.3168 101.05 90.3151 99.5037 92.8318L98.6464 92.3049C100.064 89.999 100.582 87.2518 100.101 84.5881C99.6212 81.9245 98.1765 79.531 96.0434 77.8651L96.6627 77.072Z"/>
</mask>
<path d="M96.6627 77.072C98.9909 78.8903 100.568 81.5024 101.092 84.4096C101.616 87.3168 101.05 90.3151 99.5037 92.8318L98.6464 92.3049C100.064 89.999 100.582 87.2518 100.101 84.5881C99.6212 81.9245 98.1765 79.531 96.0434 77.8651L96.6627 77.072Z" stroke="#333333" stroke-width="2" mask="url(#path-42-inside-33_2202_11483)"/>
<mask id="path-43-inside-34_2202_11483" fill="white">
<path d="M78.4046 81.409C79.4457 79.2054 81.1322 77.3705 83.2404 76.1479C85.3487 74.9252 87.7789 74.3727 90.2085 74.5635L90.1297 75.5667C87.9036 75.3918 85.6769 75.8981 83.7453 77.0184C81.8136 78.1386 80.2683 79.8198 79.3145 81.8388L78.4046 81.409Z"/>
</mask>
<path d="M78.4046 81.409C79.4457 79.2054 81.1322 77.3705 83.2404 76.1479C85.3487 74.9252 87.7789 74.3727 90.2085 74.5635L90.1297 75.5667C87.9036 75.3918 85.6769 75.8981 83.7453 77.0184C81.8136 78.1386 80.2683 79.8198 79.3145 81.8388L78.4046 81.409Z" stroke="#333333" stroke-width="2" mask="url(#path-43-inside-34_2202_11483)"/>
<mask id="path-44-inside-35_2202_11483" fill="white">
<path d="M77.3018 85.4631C77.4078 84.287 77.6865 83.1329 78.1291 82.0381L79.062 82.4152C78.6565 83.4183 78.4011 84.4757 78.304 85.5533L77.3018 85.4631Z"/>
</mask>
<path d="M77.3018 85.4631C77.4078 84.287 77.6865 83.1329 78.1291 82.0381L79.062 82.4152C78.6565 83.4183 78.4011 84.4757 78.304 85.5533L77.3018 85.4631Z" stroke="#333333" stroke-width="2" mask="url(#path-44-inside-35_2202_11483)"/>
<mask id="path-45-inside-36_2202_11483" fill="white">
<path d="M77.7338 89.9047C77.4032 88.7711 77.2415 87.5949 77.254 86.4141L78.2602 86.4247C78.2488 87.5066 78.3969 88.5843 78.6999 89.623L77.7338 89.9047Z"/>
</mask>
<path d="M77.7338 89.9047C77.4032 88.7711 77.2415 87.5949 77.254 86.4141L78.2602 86.4247C78.2488 87.5066 78.3969 88.5843 78.6999 89.623L77.7338 89.9047Z" stroke="#333333" stroke-width="2" mask="url(#path-45-inside-36_2202_11483)"/>
<mask id="path-46-inside-37_2202_11483" fill="white">
<path d="M83.4905 97.0753C82.4552 96.5074 81.5091 95.7901 80.683 94.9463L81.402 94.2423C82.159 95.0154 83.0258 95.6727 83.9744 96.193L83.4905 97.0753Z"/>
</mask>
<path d="M83.4905 97.0753C82.4552 96.5074 81.5091 95.7901 80.683 94.9463L81.402 94.2423C82.159 95.0154 83.0258 95.6727 83.9744 96.193L83.4905 97.0753Z" stroke="#333333" stroke-width="2" mask="url(#path-46-inside-37_2202_11483)"/>
<mask id="path-47-inside-38_2202_11483" fill="white">
<path d="M99.145 93.3813C98.4726 94.3521 97.6609 95.2185 96.7359 95.9525L96.1104 95.1642C96.9579 94.4917 97.7017 93.6979 98.3177 92.8084L99.145 93.3813Z"/>
</mask>
<path d="M99.145 93.3813C98.4726 94.3521 97.6609 95.2185 96.7359 95.9525L96.1104 95.1642C96.9579 94.4917 97.7017 93.6979 98.3177 92.8084L99.145 93.3813Z" stroke="#333333" stroke-width="2" mask="url(#path-47-inside-38_2202_11483)"/>
<mask id="path-48-inside-39_2202_11483" fill="white">
<path d="M96.3374 96.2553C96.0197 96.4866 95.6908 96.7021 95.3519 96.9011L94.8423 96.0334C95.1528 95.8511 95.4542 95.6536 95.7453 95.4417L96.3374 96.2553Z"/>
</mask>
<path d="M96.3374 96.2553C96.0197 96.4866 95.6908 96.7021 95.3519 96.9011L94.8423 96.0334C95.1528 95.8511 95.4542 95.6536 95.7453 95.4417L96.3374 96.2553Z" stroke="#333333" stroke-width="2" mask="url(#path-48-inside-39_2202_11483)"/>
<mask id="path-49-inside-40_2202_11483" fill="white">
<path d="M78.2913 91.4261C78.1339 91.0723 77.9936 90.7111 77.871 90.3437L78.8256 90.0252C78.9379 90.3618 79.0664 90.6928 79.2107 91.017L78.2913 91.4261Z"/>
</mask>
<path d="M78.2913 91.4261C78.1339 91.0723 77.9936 90.7111 77.871 90.3437L78.8256 90.0252C78.9379 90.3618 79.0664 90.6928 79.2107 91.017L78.2913 91.4261Z" stroke="#333333" stroke-width="2" mask="url(#path-49-inside-40_2202_11483)"/>
<line y1="-0.5" x2="12.2524" y2="-0.5" transform="matrix(-0.911906 0.410398 0.410398 0.911906 80.6069 91.1387)" stroke="#333333"/>
</svg>
