<svg width="36" height="29" viewBox="0 0 36 29" fill="none" xmlns="http://www.w3.org/2000/svg">
<circle cx="3.61546" cy="3.61546" r="3.11546" transform="matrix(0.506003 0.862531 0.862531 -0.506003 23.5571 13.8335)" stroke="white"/>
<mask id="path-2-inside-1_2204_11083" fill="white">
<path d="M29.914 18.7642C29.0186 19.1107 28.027 19.1151 27.1286 18.7766C26.2302 18.4382 25.4879 17.7806 25.0436 16.9295L25.3336 16.7782C25.7406 17.558 26.4207 18.1605 27.2439 18.4706C28.0671 18.7807 28.9756 18.7766 29.796 18.4592L29.914 18.7642Z"/>
</mask>
<path d="M29.914 18.7642C29.0186 19.1107 28.027 19.1151 27.1286 18.7766C26.2302 18.4382 25.4879 17.7806 25.0436 16.9295L25.3336 16.7782C25.7406 17.558 26.4207 18.1605 27.2439 18.4706C28.0671 18.7807 28.9756 18.7766 29.796 18.4592L29.914 18.7642Z" stroke="white" stroke-width="2" mask="url(#path-2-inside-1_2204_11083)"/>
<mask id="path-3-inside-2_2204_11083" fill="white">
<path d="M31.7479 12.9475C32.1891 13.6053 32.4198 14.3817 32.4094 15.1737C32.3991 15.9657 32.1481 16.7358 31.6898 17.3818L31.4231 17.1926C31.843 16.6007 32.0729 15.8951 32.0824 15.1694C32.0919 14.4437 31.8805 13.7324 31.4763 13.1297L31.7479 12.9475Z"/>
</mask>
<path d="M31.7479 12.9475C32.1891 13.6053 32.4198 14.3817 32.4094 15.1737C32.3991 15.9657 32.1481 16.7358 31.6898 17.3818L31.4231 17.1926C31.843 16.6007 32.0729 15.8951 32.0824 15.1694C32.0919 14.4437 31.8805 13.7324 31.4763 13.1297L31.7479 12.9475Z" stroke="white" stroke-width="2" mask="url(#path-3-inside-2_2204_11083)"/>
<mask id="path-4-inside-3_2204_11083" fill="white">
<path d="M30.8007 11.964C31.1111 12.1896 31.3866 12.4598 31.6183 12.7657L31.3575 12.9631C31.1453 12.6828 30.8928 12.4352 30.6084 12.2285L30.8007 11.964Z"/>
</mask>
<path d="M30.8007 11.964C31.1111 12.1896 31.3866 12.4598 31.6183 12.7657L31.3575 12.9631C31.1453 12.6828 30.8928 12.4352 30.6084 12.2285L30.8007 11.964Z" stroke="white" stroke-width="2" mask="url(#path-4-inside-3_2204_11083)"/>
<mask id="path-5-inside-4_2204_11083" fill="white">
<path d="M29.4895 11.344C29.8609 11.4408 30.216 11.5918 30.5433 11.7921L30.3726 12.071C30.0727 11.8875 29.7473 11.7492 29.407 11.6605L29.4895 11.344Z"/>
</mask>
<path d="M29.4895 11.344C29.8609 11.4408 30.216 11.5918 30.5433 11.7921L30.3726 12.071C30.0727 11.8875 29.7473 11.7492 29.407 11.6605L29.4895 11.344Z" stroke="white" stroke-width="2" mask="url(#path-5-inside-4_2204_11083)"/>
<mask id="path-6-inside-5_2204_11083" fill="white">
<path d="M26.5293 11.7547C26.8603 11.5605 27.2182 11.4162 27.5913 11.3263L27.6678 11.6443C27.326 11.7266 26.9981 11.8588 26.6948 12.0368L26.5293 11.7547Z"/>
</mask>
<path d="M26.5293 11.7547C26.8603 11.5605 27.2182 11.4162 27.5913 11.3263L27.6678 11.6443C27.326 11.7266 26.9981 11.8588 26.6948 12.0368L26.5293 11.7547Z" stroke="white" stroke-width="2" mask="url(#path-6-inside-5_2204_11083)"/>
<mask id="path-7-inside-6_2204_11083" fill="white">
<path d="M24.9502 16.7379C24.7914 16.3885 24.685 16.0176 24.6344 15.6371L24.9586 15.594C25.005 15.9426 25.1024 16.2824 25.2479 16.6026L24.9502 16.7379Z"/>
</mask>
<path d="M24.9502 16.7379C24.7914 16.3885 24.685 16.0176 24.6344 15.6371L24.9586 15.594C25.005 15.9426 25.1024 16.2824 25.2479 16.6026L24.9502 16.7379Z" stroke="white" stroke-width="2" mask="url(#path-7-inside-6_2204_11083)"/>
<mask id="path-8-inside-7_2204_11083" fill="white">
<path d="M24.6164 15.4755C24.6048 15.3483 24.5995 15.2206 24.6005 15.0929L24.9275 15.0954C24.9266 15.2124 24.9315 15.3294 24.9421 15.4459L24.6164 15.4755Z"/>
</mask>
<path d="M24.6164 15.4755C24.6048 15.3483 24.5995 15.2206 24.6005 15.0929L24.9275 15.0954C24.9266 15.2124 24.9315 15.3294 24.9421 15.4459L24.6164 15.4755Z" stroke="white" stroke-width="2" mask="url(#path-8-inside-7_2204_11083)"/>
<mask id="path-9-inside-8_2204_11083" fill="white">
<path d="M28.9721 11.2459C29.097 11.261 29.2212 11.2821 29.3441 11.3091L29.2739 11.6285C29.1612 11.6037 29.0475 11.5844 28.933 11.5706L28.9721 11.2459Z"/>
</mask>
<path d="M28.9721 11.2459C29.097 11.261 29.2212 11.2821 29.3441 11.3091L29.2739 11.6285C29.1612 11.6037 29.0475 11.5844 28.933 11.5706L28.9721 11.2459Z" stroke="white" stroke-width="2" mask="url(#path-9-inside-8_2204_11083)"/>
<circle cx="3.61546" cy="3.61546" r="3.11546" transform="matrix(0.506003 0.862531 0.862531 -0.506003 9.86304 10.4941)" stroke="white"/>
<mask id="path-11-inside-9_2204_11083" fill="white">
<path d="M16.2199 15.4249C15.3245 15.7713 14.3329 15.7757 13.4345 15.4373C12.5361 15.0988 11.7938 14.4413 11.3496 13.5902L11.6395 13.4389C12.0465 14.2186 12.7266 14.8211 13.5498 15.1312C14.373 15.4413 15.2815 15.4373 16.1019 15.1199L16.2199 15.4249Z"/>
</mask>
<path d="M16.2199 15.4249C15.3245 15.7713 14.3329 15.7757 13.4345 15.4373C12.5361 15.0988 11.7938 14.4413 11.3496 13.5902L11.6395 13.4389C12.0465 14.2186 12.7266 14.8211 13.5498 15.1312C14.373 15.4413 15.2815 15.4373 16.1019 15.1199L16.2199 15.4249Z" stroke="white" stroke-width="2" mask="url(#path-11-inside-9_2204_11083)"/>
<mask id="path-12-inside-10_2204_11083" fill="white">
<path d="M18.0538 9.60813C18.495 10.2659 18.7257 11.0423 18.7154 11.8343C18.705 12.6263 18.454 13.3964 17.9957 14.0425L17.729 13.8532C18.1489 13.2613 18.3789 12.5557 18.3883 11.83C18.3978 11.1044 18.1864 10.393 17.7822 9.79031L18.0538 9.60813Z"/>
</mask>
<path d="M18.0538 9.60813C18.495 10.2659 18.7257 11.0423 18.7154 11.8343C18.705 12.6263 18.454 13.3964 17.9957 14.0425L17.729 13.8532C18.1489 13.2613 18.3789 12.5557 18.3883 11.83C18.3978 11.1044 18.1864 10.393 17.7822 9.79031L18.0538 9.60813Z" stroke="white" stroke-width="2" mask="url(#path-12-inside-10_2204_11083)"/>
<mask id="path-13-inside-11_2204_11083" fill="white">
<path d="M17.1066 8.62461C17.417 8.85023 17.6925 9.1204 17.9242 9.42638L17.6634 9.62378C17.4512 9.34342 17.1988 9.09589 16.9143 8.88916L17.1066 8.62461Z"/>
</mask>
<path d="M17.1066 8.62461C17.417 8.85023 17.6925 9.1204 17.9242 9.42638L17.6634 9.62378C17.4512 9.34342 17.1988 9.09589 16.9143 8.88916L17.1066 8.62461Z" stroke="white" stroke-width="2" mask="url(#path-13-inside-11_2204_11083)"/>
<mask id="path-14-inside-12_2204_11083" fill="white">
<path d="M15.7954 8.00467C16.1668 8.10143 16.5219 8.2524 16.8492 8.45273L16.6785 8.73168C16.3786 8.54813 16.0532 8.4098 15.7129 8.32115L15.7954 8.00467Z"/>
</mask>
<path d="M15.7954 8.00467C16.1668 8.10143 16.5219 8.2524 16.8492 8.45273L16.6785 8.73168C16.3786 8.54813 16.0532 8.4098 15.7129 8.32115L15.7954 8.00467Z" stroke="white" stroke-width="2" mask="url(#path-14-inside-12_2204_11083)"/>
<mask id="path-15-inside-13_2204_11083" fill="white">
<path d="M12.8352 8.41532C13.1662 8.22113 13.5241 8.0768 13.8972 7.98698L13.9737 8.30494C13.6319 8.38723 13.304 8.51947 13.0007 8.6974L12.8352 8.41532Z"/>
</mask>
<path d="M12.8352 8.41532C13.1662 8.22113 13.5241 8.0768 13.8972 7.98698L13.9737 8.30494C13.6319 8.38723 13.304 8.51947 13.0007 8.6974L12.8352 8.41532Z" stroke="white" stroke-width="2" mask="url(#path-15-inside-13_2204_11083)"/>
<mask id="path-16-inside-14_2204_11083" fill="white">
<path d="M11.2561 13.3985C11.0973 13.0491 10.9909 12.6782 10.9403 12.2978L11.2645 12.2547C11.3109 12.6032 11.4083 12.9431 11.5538 13.2632L11.2561 13.3985Z"/>
</mask>
<path d="M11.2561 13.3985C11.0973 13.0491 10.9909 12.6782 10.9403 12.2978L11.2645 12.2547C11.3109 12.6032 11.4083 12.9431 11.5538 13.2632L11.2561 13.3985Z" stroke="white" stroke-width="2" mask="url(#path-16-inside-14_2204_11083)"/>
<mask id="path-17-inside-15_2204_11083" fill="white">
<path d="M10.9223 12.1361C10.9107 12.0089 10.9054 11.8812 10.9064 11.7535L11.2334 11.756C11.2326 11.873 11.2374 11.99 11.248 12.1066L10.9223 12.1361Z"/>
</mask>
<path d="M10.9223 12.1361C10.9107 12.0089 10.9054 11.8812 10.9064 11.7535L11.2334 11.756C11.2326 11.873 11.2374 11.99 11.248 12.1066L10.9223 12.1361Z" stroke="white" stroke-width="2" mask="url(#path-17-inside-15_2204_11083)"/>
<mask id="path-18-inside-16_2204_11083" fill="white">
<path d="M15.278 7.90658C15.403 7.92163 15.5271 7.94272 15.65 7.96976L15.5798 8.28916C15.4671 8.26438 15.3534 8.24506 15.2389 8.23127L15.278 7.90658Z"/>
</mask>
<path d="M15.278 7.90658C15.403 7.92163 15.5271 7.94272 15.65 7.96976L15.5798 8.28916C15.4671 8.26438 15.3534 8.24506 15.2389 8.23127L15.278 7.90658Z" stroke="white" stroke-width="2" mask="url(#path-18-inside-16_2204_11083)"/>
<circle cx="2.41031" cy="2.41031" r="1.91031" transform="matrix(0.506003 0.862531 0.862531 -0.506003 5.01855 4.7334)" stroke="white"/>
<mask id="path-20-inside-17_2204_11083" fill="white">
<path d="M9.25639 8.0204C8.65947 8.25135 7.9984 8.25429 7.39945 8.02866C6.8005 7.80303 6.30567 7.36465 6.00948 6.79727L6.20276 6.69638C6.47414 7.21624 6.92752 7.6179 7.47631 7.82463C8.02509 8.03136 8.6308 8.02867 9.17772 7.81707L9.25639 8.0204Z"/>
</mask>
<path d="M9.25639 8.0204C8.65947 8.25135 7.9984 8.25429 7.39945 8.02866C6.8005 7.80303 6.30567 7.36465 6.00948 6.79727L6.20276 6.69638C6.47414 7.21624 6.92752 7.6179 7.47631 7.82463C8.02509 8.03136 8.6308 8.02867 9.17772 7.81707L9.25639 8.0204Z" stroke="white" stroke-width="2" mask="url(#path-20-inside-17_2204_11083)"/>
<mask id="path-21-inside-18_2204_11083" fill="white">
<path d="M10.479 4.14256C10.7731 4.58109 10.9269 5.0987 10.92 5.62669C10.9131 6.15469 10.7458 6.6681 10.4403 7.09878L10.2625 6.97263C10.5424 6.57802 10.6957 6.10761 10.702 5.62384C10.7083 5.14007 10.5674 4.66581 10.2979 4.26401L10.479 4.14256Z"/>
</mask>
<path d="M10.479 4.14256C10.7731 4.58109 10.9269 5.0987 10.92 5.62669C10.9131 6.15469 10.7458 6.6681 10.4403 7.09878L10.2625 6.97263C10.5424 6.57802 10.6957 6.10761 10.702 5.62384C10.7083 5.14007 10.5674 4.66581 10.2979 4.26401L10.479 4.14256Z" stroke="white" stroke-width="2" mask="url(#path-21-inside-18_2204_11083)"/>
<mask id="path-22-inside-19_2204_11083" fill="white">
<path d="M9.84749 3.48688C10.0545 3.6373 10.2381 3.81741 10.3926 4.0214L10.2187 4.153C10.0772 3.96609 9.90895 3.80107 9.71932 3.66325L9.84749 3.48688Z"/>
</mask>
<path d="M9.84749 3.48688C10.0545 3.6373 10.2381 3.81741 10.3926 4.0214L10.2187 4.153C10.0772 3.96609 9.90895 3.80107 9.71932 3.66325L9.84749 3.48688Z" stroke="white" stroke-width="2" mask="url(#path-22-inside-19_2204_11083)"/>
<mask id="path-23-inside-20_2204_11083" fill="white">
<path d="M8.97337 3.07359C9.22096 3.13809 9.45769 3.23874 9.67592 3.3723L9.56212 3.55826C9.36216 3.43589 9.14526 3.34367 8.91841 3.28457L8.97337 3.07359Z"/>
</mask>
<path d="M8.97337 3.07359C9.22096 3.13809 9.45769 3.23874 9.67592 3.3723L9.56212 3.55826C9.36216 3.43589 9.14526 3.34367 8.91841 3.28457L8.97337 3.07359Z" stroke="white" stroke-width="2" mask="url(#path-23-inside-20_2204_11083)"/>
<mask id="path-24-inside-21_2204_11083" fill="white">
<path d="M6.99992 3.34736C7.2206 3.21789 7.45917 3.12167 7.70792 3.0618L7.75894 3.27377C7.53102 3.32863 7.31244 3.41679 7.11024 3.53541L6.99992 3.34736Z"/>
</mask>
<path d="M6.99992 3.34736C7.2206 3.21789 7.45917 3.12167 7.70792 3.0618L7.75894 3.27377C7.53102 3.32863 7.31244 3.41679 7.11024 3.53541L6.99992 3.34736Z" stroke="white" stroke-width="2" mask="url(#path-24-inside-21_2204_11083)"/>
<mask id="path-25-inside-22_2204_11083" fill="white">
<path d="M5.94716 6.66948C5.84132 6.43654 5.77039 6.18928 5.73668 5.93565L5.95281 5.90692C5.9837 6.1393 6.04868 6.36586 6.14565 6.57929L5.94716 6.66948Z"/>
</mask>
<path d="M5.94716 6.66948C5.84132 6.43654 5.77039 6.18928 5.73668 5.93565L5.95281 5.90692C5.9837 6.1393 6.04868 6.36586 6.14565 6.57929L5.94716 6.66948Z" stroke="white" stroke-width="2" mask="url(#path-25-inside-22_2204_11083)"/>
<mask id="path-26-inside-23_2204_11083" fill="white">
<path d="M5.72463 5.82789C5.71694 5.74309 5.71341 5.65796 5.71406 5.57281L5.93208 5.57447C5.93148 5.65249 5.93472 5.73049 5.94177 5.80819L5.72463 5.82789Z"/>
</mask>
<path d="M5.72463 5.82789C5.71694 5.74309 5.71341 5.65796 5.71406 5.57281L5.93208 5.57447C5.93148 5.65249 5.93472 5.73049 5.94177 5.80819L5.72463 5.82789Z" stroke="white" stroke-width="2" mask="url(#path-26-inside-23_2204_11083)"/>
<mask id="path-27-inside-24_2204_11083" fill="white">
<path d="M8.62845 3.00819C8.71175 3.01823 8.79452 3.03229 8.87647 3.05032L8.82962 3.26325C8.75454 3.24673 8.6787 3.23385 8.60237 3.22465L8.62845 3.00819Z"/>
</mask>
<path d="M8.62845 3.00819C8.71175 3.01823 8.79452 3.03229 8.87647 3.05032L8.82962 3.26325C8.75454 3.24673 8.6787 3.23385 8.60237 3.22465L8.62845 3.00819Z" stroke="white" stroke-width="2" mask="url(#path-27-inside-24_2204_11083)"/>
<circle cx="2.41031" cy="2.41031" r="1.91031" transform="matrix(0.506003 0.862531 0.862531 -0.506003 2.7876 13.3145)" stroke="white"/>
<mask id="path-29-inside-25_2204_11083" fill="white">
<path d="M7.02544 16.6015C6.42852 16.8324 5.76744 16.8353 5.16849 16.6097C4.56954 16.3841 4.07471 15.9457 3.77853 15.3783L3.9718 15.2774C4.24318 15.7973 4.69657 16.199 5.24535 16.4057C5.79413 16.6124 6.39984 16.6097 6.94677 16.3981L7.02544 16.6015Z"/>
</mask>
<path d="M7.02544 16.6015C6.42852 16.8324 5.76744 16.8353 5.16849 16.6097C4.56954 16.3841 4.07471 15.9457 3.77853 15.3783L3.9718 15.2774C4.24318 15.7973 4.69657 16.199 5.24535 16.4057C5.79413 16.6124 6.39984 16.6097 6.94677 16.3981L7.02544 16.6015Z" stroke="white" stroke-width="2" mask="url(#path-29-inside-25_2204_11083)"/>
<mask id="path-30-inside-26_2204_11083" fill="white">
<path d="M8.248 12.7236C8.54214 13.1621 8.69597 13.6798 8.68906 14.2077C8.68216 14.7357 8.51484 15.2492 8.20932 15.6798L8.0315 15.5537C8.31143 15.1591 8.46473 14.6887 8.47106 14.2049C8.47739 13.7211 8.33644 13.2469 8.06693 12.8451L8.248 12.7236Z"/>
</mask>
<path d="M8.248 12.7236C8.54214 13.1621 8.69597 13.6798 8.68906 14.2077C8.68216 14.7357 8.51484 15.2492 8.20932 15.6798L8.0315 15.5537C8.31143 15.1591 8.46473 14.6887 8.47106 14.2049C8.47739 13.7211 8.33644 13.2469 8.06693 12.8451L8.248 12.7236Z" stroke="white" stroke-width="2" mask="url(#path-30-inside-26_2204_11083)"/>
<mask id="path-31-inside-27_2204_11083" fill="white">
<path d="M7.61654 12.0679C7.82351 12.2184 8.00717 12.3985 8.1616 12.6025L7.98777 12.7341C7.84628 12.5471 7.67799 12.3821 7.48836 12.2443L7.61654 12.0679Z"/>
</mask>
<path d="M7.61654 12.0679C7.82351 12.2184 8.00717 12.3985 8.1616 12.6025L7.98777 12.7341C7.84628 12.5471 7.67799 12.3821 7.48836 12.2443L7.61654 12.0679Z" stroke="white" stroke-width="2" mask="url(#path-31-inside-27_2204_11083)"/>
<mask id="path-32-inside-28_2204_11083" fill="white">
<path d="M6.74241 11.6546C6.99001 11.7191 7.22673 11.8198 7.44497 11.9534L7.33116 12.1393C7.13121 12.0169 6.9143 11.9247 6.68745 11.8656L6.74241 11.6546Z"/>
</mask>
<path d="M6.74241 11.6546C6.99001 11.7191 7.22673 11.8198 7.44497 11.9534L7.33116 12.1393C7.13121 12.0169 6.9143 11.9247 6.68745 11.8656L6.74241 11.6546Z" stroke="white" stroke-width="2" mask="url(#path-32-inside-28_2204_11083)"/>
<mask id="path-33-inside-29_2204_11083" fill="white">
<path d="M4.76896 11.9284C4.98965 11.7989 5.22821 11.7027 5.47696 11.6429L5.52798 11.8548C5.30007 11.9097 5.08148 11.9978 4.87928 12.1165L4.76896 11.9284Z"/>
</mask>
<path d="M4.76896 11.9284C4.98965 11.7989 5.22821 11.7027 5.47696 11.6429L5.52798 11.8548C5.30007 11.9097 5.08148 11.9978 4.87928 12.1165L4.76896 11.9284Z" stroke="white" stroke-width="2" mask="url(#path-33-inside-29_2204_11083)"/>
<mask id="path-34-inside-30_2204_11083" fill="white">
<path d="M3.7162 15.2505C3.61036 15.0176 3.53944 14.7703 3.50572 14.5167L3.72185 14.488C3.75274 14.7204 3.81772 14.9469 3.91469 15.1603L3.7162 15.2505Z"/>
</mask>
<path d="M3.7162 15.2505C3.61036 15.0176 3.53944 14.7703 3.50572 14.5167L3.72185 14.488C3.75274 14.7204 3.81772 14.9469 3.91469 15.1603L3.7162 15.2505Z" stroke="white" stroke-width="2" mask="url(#path-34-inside-30_2204_11083)"/>
<mask id="path-35-inside-31_2204_11083" fill="white">
<path d="M3.49368 14.4089C3.48598 14.3241 3.48245 14.239 3.4831 14.1539L3.70112 14.1555C3.70053 14.2335 3.70376 14.3115 3.71081 14.3892L3.49368 14.4089Z"/>
</mask>
<path d="M3.49368 14.4089C3.48598 14.3241 3.48245 14.239 3.4831 14.1539L3.70112 14.1555C3.70053 14.2335 3.70376 14.3115 3.71081 14.3892L3.49368 14.4089Z" stroke="white" stroke-width="2" mask="url(#path-35-inside-31_2204_11083)"/>
<mask id="path-36-inside-32_2204_11083" fill="white">
<path d="M6.39749 11.5892C6.4808 11.5993 6.56357 11.6133 6.64551 11.6314L6.59867 11.8443C6.52358 11.8278 6.44774 11.8149 6.37142 11.8057L6.39749 11.5892Z"/>
</mask>
<path d="M6.39749 11.5892C6.4808 11.5993 6.56357 11.6133 6.64551 11.6314L6.59867 11.8443C6.52358 11.8278 6.44774 11.8149 6.37142 11.8057L6.39749 11.5892Z" stroke="white" stroke-width="2" mask="url(#path-36-inside-32_2204_11083)"/>
<line y1="-0.5" x2="6.26917" y2="-0.5" transform="matrix(0.506424 0.862285 0.862285 -0.506424 23.7649 6.7959)" stroke="white"/>
<line y1="-0.5" x2="6.76814" y2="-0.5" transform="matrix(0.951377 0.30803 0.30803 -0.951377 18.7083 12.2729)" stroke="white"/>
<line y1="-0.5" x2="3.75429" y2="-0.5" transform="matrix(0.620729 0.784025 0.784025 -0.620729 10.0991 6.74951)" stroke="white"/>
<line y1="-0.5" x2="3.03575" y2="-0.5" transform="matrix(0.974279 -0.225346 -0.225346 -0.974279 8.50977 13.3486)" stroke="white"/>
<circle cx="2.41031" cy="2.41031" r="1.91031" transform="matrix(0.506003 0.862531 0.862531 -0.506003 10.2456 19.0122)" stroke="white"/>
<mask id="path-42-inside-33_2204_11083" fill="white">
<path d="M14.4834 22.2992C13.8865 22.5302 13.2254 22.5331 12.6265 22.3075C12.0276 22.0818 11.5327 21.6435 11.2365 21.0761L11.4298 20.9752C11.7012 21.495 12.1546 21.8967 12.7034 22.1034C13.2521 22.3102 13.8579 22.3075 14.4048 22.0959L14.4834 22.2992Z"/>
</mask>
<path d="M14.4834 22.2992C13.8865 22.5302 13.2254 22.5331 12.6265 22.3075C12.0276 22.0818 11.5327 21.6435 11.2365 21.0761L11.4298 20.9752C11.7012 21.495 12.1546 21.8967 12.7034 22.1034C13.2521 22.3102 13.8579 22.3075 14.4048 22.0959L14.4834 22.2992Z" stroke="white" stroke-width="2" mask="url(#path-42-inside-33_2204_11083)"/>
<mask id="path-43-inside-34_2204_11083" fill="white">
<path d="M15.706 18.4214C16.0002 18.8599 16.154 19.3775 16.1471 19.9055C16.1402 20.4335 15.9728 20.9469 15.6673 21.3776L15.4895 21.2514C15.7694 20.8568 15.9227 20.3864 15.9291 19.9026C15.9354 19.4189 15.7945 18.9446 15.5249 18.5428L15.706 18.4214Z"/>
</mask>
<path d="M15.706 18.4214C16.0002 18.8599 16.154 19.3775 16.1471 19.9055C16.1402 20.4335 15.9728 20.9469 15.6673 21.3776L15.4895 21.2514C15.7694 20.8568 15.9227 20.3864 15.9291 19.9026C15.9354 19.4189 15.7945 18.9446 15.5249 18.5428L15.706 18.4214Z" stroke="white" stroke-width="2" mask="url(#path-43-inside-34_2204_11083)"/>
<mask id="path-44-inside-35_2204_11083" fill="white">
<path d="M15.0745 17.7657C15.2815 17.9161 15.4652 18.0962 15.6196 18.3002L15.4458 18.4318C15.3043 18.2449 15.136 18.0799 14.9464 17.9421L15.0745 17.7657Z"/>
</mask>
<path d="M15.0745 17.7657C15.2815 17.9161 15.4652 18.0962 15.6196 18.3002L15.4458 18.4318C15.3043 18.2449 15.136 18.0799 14.9464 17.9421L15.0745 17.7657Z" stroke="white" stroke-width="2" mask="url(#path-44-inside-35_2204_11083)"/>
<mask id="path-45-inside-36_2204_11083" fill="white">
<path d="M14.2004 17.3524C14.448 17.4169 14.6847 17.5176 14.903 17.6511L14.7892 17.8371C14.5892 17.7147 14.3723 17.6225 14.1455 17.5634L14.2004 17.3524Z"/>
</mask>
<path d="M14.2004 17.3524C14.448 17.4169 14.6847 17.5176 14.903 17.6511L14.7892 17.8371C14.5892 17.7147 14.3723 17.6225 14.1455 17.5634L14.2004 17.3524Z" stroke="white" stroke-width="2" mask="url(#path-45-inside-36_2204_11083)"/>
<mask id="path-46-inside-37_2204_11083" fill="white">
<path d="M12.227 17.6262C12.4477 17.4967 12.6862 17.4005 12.935 17.3406L12.986 17.5526C12.7581 17.6074 12.5395 17.6956 12.3373 17.8142L12.227 17.6262Z"/>
</mask>
<path d="M12.227 17.6262C12.4477 17.4967 12.6862 17.4005 12.935 17.3406L12.986 17.5526C12.7581 17.6074 12.5395 17.6956 12.3373 17.8142L12.227 17.6262Z" stroke="white" stroke-width="2" mask="url(#path-46-inside-37_2204_11083)"/>
<mask id="path-47-inside-38_2204_11083" fill="white">
<path d="M11.1742 20.9483C11.0684 20.7154 10.9974 20.4681 10.9637 20.2145L11.1799 20.1857C11.2107 20.4181 11.2757 20.6447 11.3727 20.8581L11.1742 20.9483Z"/>
</mask>
<path d="M11.1742 20.9483C11.0684 20.7154 10.9974 20.4681 10.9637 20.2145L11.1799 20.1857C11.2107 20.4181 11.2757 20.6447 11.3727 20.8581L11.1742 20.9483Z" stroke="white" stroke-width="2" mask="url(#path-47-inside-38_2204_11083)"/>
<mask id="path-48-inside-39_2204_11083" fill="white">
<path d="M10.9517 20.1067C10.944 20.0219 10.9405 19.9368 10.9411 19.8516L11.1591 19.8533C11.1585 19.9313 11.1618 20.0093 11.1688 20.087L10.9517 20.1067Z"/>
</mask>
<path d="M10.9517 20.1067C10.944 20.0219 10.9405 19.9368 10.9411 19.8516L11.1591 19.8533C11.1585 19.9313 11.1618 20.0093 11.1688 20.087L10.9517 20.1067Z" stroke="white" stroke-width="2" mask="url(#path-48-inside-39_2204_11083)"/>
<mask id="path-49-inside-40_2204_11083" fill="white">
<path d="M13.8555 17.287C13.9388 17.297 14.0216 17.3111 14.1035 17.3291L14.0567 17.5421C13.9816 17.5255 13.9058 17.5127 13.8294 17.5035L13.8555 17.287Z"/>
</mask>
<path d="M13.8555 17.287C13.9388 17.297 14.0216 17.3111 14.1035 17.3291L14.0567 17.5421C13.9816 17.5255 13.9058 17.5127 13.8294 17.5035L13.8555 17.287Z" stroke="white" stroke-width="2" mask="url(#path-49-inside-40_2204_11083)"/>
<line y1="-0.5" x2="2.65468" y2="-0.5" transform="matrix(0.115468 -0.993311 -0.993311 -0.115468 13.6516 17.75)" stroke="white"/>
</svg>
