<svg width="27" height="35" viewBox="0 0 27 35" fill="none" xmlns="http://www.w3.org/2000/svg">
<circle cx="3.61546" cy="3.61546" r="3.11546" transform="matrix(0.48086 -0.876798 -0.876798 -0.48086 9.47174 13.144)" stroke="white"/>
<mask id="path-2-inside-1_2204_9636" fill="white">
<path d="M10.4436 5.15796C11.2002 5.74888 11.7127 6.59784 11.883 7.54267C12.0533 8.48749 11.8696 9.46195 11.3669 10.2799L11.0883 10.1086C11.5488 9.35922 11.7172 8.46638 11.5611 7.60069C11.4051 6.73499 10.9356 5.95713 10.2423 5.41571L10.4436 5.15796Z"/>
</mask>
<path d="M10.4436 5.15796C11.2002 5.74888 11.7127 6.59784 11.883 7.54267C12.0533 8.48749 11.8696 9.46195 11.3669 10.2799L11.0883 10.1086C11.5488 9.35922 11.7172 8.46638 11.5611 7.60069C11.4051 6.73499 10.9356 5.95713 10.2423 5.41571L10.4436 5.15796Z" stroke="white" stroke-width="2" mask="url(#path-2-inside-1_2204_9636)"/>
<mask id="path-3-inside-2_2204_9636" fill="white">
<path d="M4.50969 6.56746C4.84803 5.8513 5.39616 5.25496 6.08133 4.8576C6.76651 4.46025 7.55633 4.28066 8.34596 4.34268L8.32035 4.66871C7.59686 4.61189 6.87319 4.77643 6.2454 5.14051C5.61761 5.50459 5.11539 6.05098 4.80539 6.70716L4.50969 6.56746Z"/>
</mask>
<path d="M4.50969 6.56746C4.84803 5.8513 5.39616 5.25496 6.08133 4.8576C6.76651 4.46025 7.55633 4.28066 8.34596 4.34268L8.32035 4.66871C7.59686 4.61189 6.87319 4.77643 6.2454 5.14051C5.61761 5.50459 5.11539 6.05098 4.80539 6.70716L4.50969 6.56746Z" stroke="white" stroke-width="2" mask="url(#path-3-inside-2_2204_9636)"/>
<mask id="path-4-inside-3_2204_9636" fill="white">
<path d="M4.15128 7.88504C4.18571 7.50281 4.27631 7.12774 4.42015 6.77193L4.72335 6.8945C4.59156 7.22051 4.50855 7.56416 4.477 7.91438L4.15128 7.88504Z"/>
</mask>
<path d="M4.15128 7.88504C4.18571 7.50281 4.27631 7.12774 4.42015 6.77193L4.72335 6.8945C4.59156 7.22051 4.50855 7.56416 4.477 7.91438L4.15128 7.88504Z" stroke="white" stroke-width="2" mask="url(#path-4-inside-3_2204_9636)"/>
<mask id="path-5-inside-4_2204_9636" fill="white">
<path d="M4.29168 9.32858C4.18424 8.96015 4.13169 8.57789 4.13575 8.19412L4.46277 8.19758C4.45905 8.5492 4.5072 8.89945 4.60564 9.23702L4.29168 9.32858Z"/>
</mask>
<path d="M4.29168 9.32858C4.18424 8.96015 4.13169 8.57789 4.13575 8.19412L4.46277 8.19758C4.45905 8.5492 4.5072 8.89945 4.60564 9.23702L4.29168 9.32858Z" stroke="white" stroke-width="2" mask="url(#path-5-inside-4_2204_9636)"/>
<mask id="path-6-inside-5_2204_9636" fill="white">
<path d="M6.16262 11.659C5.82612 11.4745 5.51866 11.2413 5.25017 10.9671L5.48385 10.7383C5.72986 10.9896 6.01156 11.2032 6.31987 11.3723L6.16262 11.659Z"/>
</mask>
<path d="M6.16262 11.659C5.82612 11.4745 5.51866 11.2413 5.25017 10.9671L5.48385 10.7383C5.72986 10.9896 6.01156 11.2032 6.31987 11.3723L6.16262 11.659Z" stroke="white" stroke-width="2" mask="url(#path-6-inside-5_2204_9636)"/>
<mask id="path-7-inside-6_2204_9636" fill="white">
<path d="M11.2503 10.4585C11.0318 10.774 10.768 11.0555 10.4673 11.2941L10.2641 11.0379C10.5395 10.8193 10.7812 10.5614 10.9814 10.2723L11.2503 10.4585Z"/>
</mask>
<path d="M11.2503 10.4585C11.0318 10.774 10.768 11.0555 10.4673 11.2941L10.2641 11.0379C10.5395 10.8193 10.7812 10.5614 10.9814 10.2723L11.2503 10.4585Z" stroke="white" stroke-width="2" mask="url(#path-7-inside-6_2204_9636)"/>
<mask id="path-8-inside-7_2204_9636" fill="white">
<path d="M10.3379 11.3925C10.2346 11.4677 10.1277 11.5377 10.0175 11.6024L9.85194 11.3204C9.95285 11.2611 10.0508 11.197 10.1454 11.1281L10.3379 11.3925Z"/>
</mask>
<path d="M10.3379 11.3925C10.2346 11.4677 10.1277 11.5377 10.0175 11.6024L9.85194 11.3204C9.95285 11.2611 10.0508 11.197 10.1454 11.1281L10.3379 11.3925Z" stroke="white" stroke-width="2" mask="url(#path-8-inside-7_2204_9636)"/>
<mask id="path-9-inside-8_2204_9636" fill="white">
<path d="M4.47287 9.82303C4.4217 9.70805 4.37611 9.59065 4.33627 9.47126L4.6465 9.36775C4.683 9.47714 4.72477 9.5847 4.77166 9.69006L4.47287 9.82303Z"/>
</mask>
<path d="M4.47287 9.82303C4.4217 9.70805 4.37611 9.59065 4.33627 9.47126L4.6465 9.36775C4.683 9.47714 4.72477 9.5847 4.77166 9.69006L4.47287 9.82303Z" stroke="white" stroke-width="2" mask="url(#path-9-inside-8_2204_9636)"/>
<circle cx="3.61546" cy="3.61546" r="3.11546" transform="matrix(0.48086 -0.876798 -0.876798 -0.48086 13.6296 26.6123)" stroke="white"/>
<mask id="path-11-inside-9_2204_9636" fill="white">
<path d="M14.6014 18.6262C15.3581 19.2171 15.8705 20.0661 16.0408 21.0109C16.2111 21.9558 16.0274 22.9302 15.5247 23.7481L15.2461 23.5769C15.7067 22.8275 15.875 21.9346 15.719 21.0689C15.5629 20.2033 15.0934 19.4254 14.4001 18.884L14.6014 18.6262Z"/>
</mask>
<path d="M14.6014 18.6262C15.3581 19.2171 15.8705 20.0661 16.0408 21.0109C16.2111 21.9558 16.0274 22.9302 15.5247 23.7481L15.2461 23.5769C15.7067 22.8275 15.875 21.9346 15.719 21.0689C15.5629 20.2033 15.0934 19.4254 14.4001 18.884L14.6014 18.6262Z" stroke="white" stroke-width="2" mask="url(#path-11-inside-9_2204_9636)"/>
<mask id="path-12-inside-10_2204_9636" fill="white">
<path d="M8.66753 20.0357C9.00586 19.3196 9.55399 18.7232 10.2392 18.3259C10.9243 17.9285 11.7142 17.7489 12.5038 17.8109L12.4782 18.137C11.7547 18.0801 11.031 18.2447 10.4032 18.6088C9.77545 18.9728 9.27323 19.5192 8.96323 20.1754L8.66753 20.0357Z"/>
</mask>
<path d="M8.66753 20.0357C9.00586 19.3196 9.55399 18.7232 10.2392 18.3259C10.9243 17.9285 11.7142 17.7489 12.5038 17.8109L12.4782 18.137C11.7547 18.0801 11.031 18.2447 10.4032 18.6088C9.77545 18.9728 9.27323 19.5192 8.96323 20.1754L8.66753 20.0357Z" stroke="white" stroke-width="2" mask="url(#path-12-inside-10_2204_9636)"/>
<mask id="path-13-inside-11_2204_9636" fill="white">
<path d="M8.30912 21.3533C8.34355 20.9711 8.43415 20.596 8.57799 20.2402L8.88119 20.3628C8.74939 20.6888 8.66638 21.0324 8.63483 21.3826L8.30912 21.3533Z"/>
</mask>
<path d="M8.30912 21.3533C8.34355 20.9711 8.43415 20.596 8.57799 20.2402L8.88119 20.3628C8.74939 20.6888 8.66638 21.0324 8.63483 21.3826L8.30912 21.3533Z" stroke="white" stroke-width="2" mask="url(#path-13-inside-11_2204_9636)"/>
<mask id="path-14-inside-12_2204_9636" fill="white">
<path d="M8.44952 22.7968C8.34207 22.4284 8.28953 22.0461 8.29359 21.6624L8.6206 21.6658C8.61689 22.0175 8.66503 22.3677 8.76348 22.7053L8.44952 22.7968Z"/>
</mask>
<path d="M8.44952 22.7968C8.34207 22.4284 8.28953 22.0461 8.29359 21.6624L8.6206 21.6658C8.61689 22.0175 8.66503 22.3677 8.76348 22.7053L8.44952 22.7968Z" stroke="white" stroke-width="2" mask="url(#path-14-inside-12_2204_9636)"/>
<mask id="path-15-inside-13_2204_9636" fill="white">
<path d="M10.3205 25.1273C9.98395 24.9427 9.6765 24.7096 9.40801 24.4354L9.64169 24.2066C9.88769 24.4578 10.1694 24.6714 10.4777 24.8405L10.3205 25.1273Z"/>
</mask>
<path d="M10.3205 25.1273C9.98395 24.9427 9.6765 24.7096 9.40801 24.4354L9.64169 24.2066C9.88769 24.4578 10.1694 24.6714 10.4777 24.8405L10.3205 25.1273Z" stroke="white" stroke-width="2" mask="url(#path-15-inside-13_2204_9636)"/>
<mask id="path-16-inside-14_2204_9636" fill="white">
<path d="M15.4081 23.9267C15.1896 24.2422 14.9258 24.5238 14.6252 24.7624L14.4219 24.5062C14.6973 24.2876 14.9391 24.0296 15.1393 23.7405L15.4081 23.9267Z"/>
</mask>
<path d="M15.4081 23.9267C15.1896 24.2422 14.9258 24.5238 14.6252 24.7624L14.4219 24.5062C14.6973 24.2876 14.9391 24.0296 15.1393 23.7405L15.4081 23.9267Z" stroke="white" stroke-width="2" mask="url(#path-16-inside-14_2204_9636)"/>
<mask id="path-17-inside-15_2204_9636" fill="white">
<path d="M14.4957 24.8608C14.3924 24.9359 14.2855 25.006 14.1754 25.0707L14.0098 24.7887C14.1107 24.7294 14.2086 24.6652 14.3033 24.5964L14.4957 24.8608Z"/>
</mask>
<path d="M14.4957 24.8608C14.3924 24.9359 14.2855 25.006 14.1754 25.0707L14.0098 24.7887C14.1107 24.7294 14.2086 24.6652 14.3033 24.5964L14.4957 24.8608Z" stroke="white" stroke-width="2" mask="url(#path-17-inside-15_2204_9636)"/>
<mask id="path-18-inside-16_2204_9636" fill="white">
<path d="M8.63071 23.2913C8.57953 23.1763 8.53395 23.0589 8.49411 22.9395L8.80434 22.836C8.84084 22.9454 8.8826 23.053 8.92949 23.1583L8.63071 23.2913Z"/>
</mask>
<path d="M8.63071 23.2913C8.57953 23.1763 8.53395 23.0589 8.49411 22.9395L8.80434 22.836C8.84084 22.9454 8.8826 23.053 8.92949 23.1583L8.63071 23.2913Z" stroke="white" stroke-width="2" mask="url(#path-18-inside-16_2204_9636)"/>
<circle cx="2.41031" cy="2.41031" r="1.91031" transform="matrix(0.48086 -0.876798 -0.876798 -0.48086 11.1693 33.7261)" stroke="white"/>
<mask id="path-20-inside-17_2204_9636" fill="white">
<path d="M11.8172 28.402C12.3217 28.796 12.6633 29.3619 12.7768 29.9918C12.8904 30.6217 12.7679 31.2713 12.4328 31.8166L12.247 31.7025C12.5541 31.2029 12.6663 30.6076 12.5623 30.0305C12.4582 29.4534 12.1452 28.9348 11.683 28.5739L11.8172 28.402Z"/>
</mask>
<path d="M11.8172 28.402C12.3217 28.796 12.6633 29.3619 12.7768 29.9918C12.8904 30.6217 12.7679 31.2713 12.4328 31.8166L12.247 31.7025C12.5541 31.2029 12.6663 30.6076 12.5623 30.0305C12.4582 29.4534 12.1452 28.9348 11.683 28.5739L11.8172 28.402Z" stroke="white" stroke-width="2" mask="url(#path-20-inside-17_2204_9636)"/>
<mask id="path-21-inside-18_2204_9636" fill="white">
<path d="M7.8613 29.3417C8.08685 28.8642 8.45228 28.4667 8.90906 28.2018C9.36584 27.9369 9.89239 27.8172 10.4188 27.8585L10.4017 28.0759C9.91941 28.038 9.43696 28.1477 9.01844 28.3904C8.59991 28.6331 8.2651 28.9974 8.05843 29.4348L7.8613 29.3417Z"/>
</mask>
<path d="M7.8613 29.3417C8.08685 28.8642 8.45228 28.4667 8.90906 28.2018C9.36584 27.9369 9.89239 27.8172 10.4188 27.8585L10.4017 28.0759C9.91941 28.038 9.43696 28.1477 9.01844 28.3904C8.59991 28.6331 8.2651 28.9974 8.05843 29.4348L7.8613 29.3417Z" stroke="white" stroke-width="2" mask="url(#path-21-inside-18_2204_9636)"/>
<mask id="path-22-inside-19_2204_9636" fill="white">
<path d="M7.62236 30.2201C7.64531 29.9653 7.70571 29.7152 7.8016 29.478L8.00374 29.5597C7.91588 29.7771 7.86054 30.0062 7.8395 30.2396L7.62236 30.2201Z"/>
</mask>
<path d="M7.62236 30.2201C7.64531 29.9653 7.70571 29.7152 7.8016 29.478L8.00374 29.5597C7.91588 29.7771 7.86054 30.0062 7.8395 30.2396L7.62236 30.2201Z" stroke="white" stroke-width="2" mask="url(#path-22-inside-19_2204_9636)"/>
<mask id="path-23-inside-20_2204_9636" fill="white">
<path d="M7.71596 31.1824C7.64433 30.9368 7.6093 30.682 7.612 30.4261L7.83002 30.4284C7.82754 30.6628 7.85963 30.8963 7.92527 31.1214L7.71596 31.1824Z"/>
</mask>
<path d="M7.71596 31.1824C7.64433 30.9368 7.6093 30.682 7.612 30.4261L7.83002 30.4284C7.82754 30.6628 7.85963 30.8963 7.92527 31.1214L7.71596 31.1824Z" stroke="white" stroke-width="2" mask="url(#path-23-inside-20_2204_9636)"/>
<mask id="path-24-inside-21_2204_9636" fill="white">
<path d="M8.96325 32.7361C8.73892 32.613 8.53395 32.4576 8.35495 32.2748L8.51074 32.1222C8.67474 32.2897 8.86254 32.4322 9.06809 32.5449L8.96325 32.7361Z"/>
</mask>
<path d="M8.96325 32.7361C8.73892 32.613 8.53395 32.4576 8.35495 32.2748L8.51074 32.1222C8.67474 32.2897 8.86254 32.4322 9.06809 32.5449L8.96325 32.7361Z" stroke="white" stroke-width="2" mask="url(#path-24-inside-21_2204_9636)"/>
<mask id="path-25-inside-22_2204_9636" fill="white">
<path d="M12.355 31.9357C12.2094 32.146 12.0335 32.3337 11.8331 32.4928L11.6975 32.322C11.8812 32.1763 12.0423 32.0043 12.1758 31.8116L12.355 31.9357Z"/>
</mask>
<path d="M12.355 31.9357C12.2094 32.146 12.0335 32.3337 11.8331 32.4928L11.6975 32.322C11.8812 32.1763 12.0423 32.0043 12.1758 31.8116L12.355 31.9357Z" stroke="white" stroke-width="2" mask="url(#path-25-inside-22_2204_9636)"/>
<mask id="path-26-inside-23_2204_9636" fill="white">
<path d="M11.7467 32.5584C11.6779 32.6085 11.6066 32.6552 11.5332 32.6983L11.4228 32.5103C11.4901 32.4708 11.5554 32.428 11.6184 32.3821L11.7467 32.5584Z"/>
</mask>
<path d="M11.7467 32.5584C11.6779 32.6085 11.6066 32.6552 11.5332 32.6983L11.4228 32.5103C11.4901 32.4708 11.5554 32.428 11.6184 32.3821L11.7467 32.5584Z" stroke="white" stroke-width="2" mask="url(#path-26-inside-23_2204_9636)"/>
<mask id="path-27-inside-24_2204_9636" fill="white">
<path d="M7.83675 31.5121C7.80264 31.4354 7.77225 31.3571 7.74569 31.2776L7.9525 31.2085C7.97684 31.2815 8.00468 31.3532 8.03594 31.4234L7.83675 31.5121Z"/>
</mask>
<path d="M7.83675 31.5121C7.80264 31.4354 7.77225 31.3571 7.74569 31.2776L7.9525 31.2085C7.97684 31.2815 8.00468 31.3532 8.03594 31.4234L7.83675 31.5121Z" stroke="white" stroke-width="2" mask="url(#path-27-inside-24_2204_9636)"/>
<circle cx="2.41031" cy="2.41031" r="1.91031" transform="matrix(0.48086 -0.876798 -0.876798 -0.48086 19.6794 31.2397)" stroke="white"/>
<mask id="path-29-inside-25_2204_9636" fill="white">
<path d="M20.3274 25.9157C20.8318 26.3096 21.1734 26.8756 21.287 27.5055C21.4005 28.1354 21.278 28.785 20.9429 29.3303L20.7571 29.2161C21.0642 28.7165 21.1764 28.1213 21.0724 27.5442C20.9684 26.967 20.6553 26.4485 20.1932 26.0875L20.3274 25.9157Z"/>
</mask>
<path d="M20.3274 25.9157C20.8318 26.3096 21.1734 26.8756 21.287 27.5055C21.4005 28.1354 21.278 28.785 20.9429 29.3303L20.7571 29.2161C21.0642 28.7165 21.1764 28.1213 21.0724 27.5442C20.9684 26.967 20.6553 26.4485 20.1932 26.0875L20.3274 25.9157Z" stroke="white" stroke-width="2" mask="url(#path-29-inside-25_2204_9636)"/>
<mask id="path-30-inside-26_2204_9636" fill="white">
<path d="M16.3714 26.8554C16.597 26.3779 16.9624 25.9804 17.4192 25.7155C17.876 25.4505 18.4025 25.3308 18.9289 25.3722L18.9119 25.5895C18.4295 25.5516 17.9471 25.6613 17.5286 25.9041C17.11 26.1468 16.7752 26.511 16.5686 26.9485L16.3714 26.8554Z"/>
</mask>
<path d="M16.3714 26.8554C16.597 26.3779 16.9624 25.9804 17.4192 25.7155C17.876 25.4505 18.4025 25.3308 18.9289 25.3722L18.9119 25.5895C18.4295 25.5516 17.9471 25.6613 17.5286 25.9041C17.11 26.1468 16.7752 26.511 16.5686 26.9485L16.3714 26.8554Z" stroke="white" stroke-width="2" mask="url(#path-30-inside-26_2204_9636)"/>
<mask id="path-31-inside-27_2204_9636" fill="white">
<path d="M16.1325 27.7337C16.1554 27.4789 16.2158 27.2289 16.3117 26.9917L16.5139 27.0734C16.426 27.2907 16.3707 27.5198 16.3496 27.7533L16.1325 27.7337Z"/>
</mask>
<path d="M16.1325 27.7337C16.1554 27.4789 16.2158 27.2289 16.3117 26.9917L16.5139 27.0734C16.426 27.2907 16.3707 27.5198 16.3496 27.7533L16.1325 27.7337Z" stroke="white" stroke-width="2" mask="url(#path-31-inside-27_2204_9636)"/>
<mask id="path-32-inside-28_2204_9636" fill="white">
<path d="M16.2261 28.6961C16.1545 28.4505 16.1194 28.1956 16.1221 27.9398L16.3401 27.9421C16.3377 28.1765 16.3698 28.41 16.4354 28.6351L16.2261 28.6961Z"/>
</mask>
<path d="M16.2261 28.6961C16.1545 28.4505 16.1194 28.1956 16.1221 27.9398L16.3401 27.9421C16.3377 28.1765 16.3698 28.41 16.4354 28.6351L16.2261 28.6961Z" stroke="white" stroke-width="2" mask="url(#path-32-inside-28_2204_9636)"/>
<mask id="path-33-inside-29_2204_9636" fill="white">
<path d="M17.4734 30.2497C17.249 30.1267 17.0441 29.9713 16.8651 29.7884L17.0209 29.6359C17.1849 29.8034 17.3727 29.9458 17.5782 30.0586L17.4734 30.2497Z"/>
</mask>
<path d="M17.4734 30.2497C17.249 30.1267 17.0441 29.9713 16.8651 29.7884L17.0209 29.6359C17.1849 29.8034 17.3727 29.9458 17.5782 30.0586L17.4734 30.2497Z" stroke="white" stroke-width="2" mask="url(#path-33-inside-29_2204_9636)"/>
<mask id="path-34-inside-30_2204_9636" fill="white">
<path d="M20.8652 29.4494C20.7195 29.6597 20.5436 29.8474 20.3432 30.0065L20.2077 29.8357C20.3913 29.6899 20.5525 29.518 20.6859 29.3252L20.8652 29.4494Z"/>
</mask>
<path d="M20.8652 29.4494C20.7195 29.6597 20.5436 29.8474 20.3432 30.0065L20.2077 29.8357C20.3913 29.6899 20.5525 29.518 20.6859 29.3252L20.8652 29.4494Z" stroke="white" stroke-width="2" mask="url(#path-34-inside-30_2204_9636)"/>
<mask id="path-35-inside-31_2204_9636" fill="white">
<path d="M20.2569 30.0721C20.188 30.1222 20.1168 30.1689 20.0433 30.212L19.9329 30.024C20.0002 29.9845 20.0655 29.9417 20.1286 29.8958L20.2569 30.0721Z"/>
</mask>
<path d="M20.2569 30.0721C20.188 30.1222 20.1168 30.1689 20.0433 30.212L19.9329 30.024C20.0002 29.9845 20.0655 29.9417 20.1286 29.8958L20.2569 30.0721Z" stroke="white" stroke-width="2" mask="url(#path-35-inside-31_2204_9636)"/>
<mask id="path-36-inside-32_2204_9636" fill="white">
<path d="M16.3469 29.0257C16.3128 28.9491 16.2824 28.8708 16.2558 28.7912L16.4626 28.7222C16.487 28.7951 16.5148 28.8669 16.5461 28.9371L16.3469 29.0257Z"/>
</mask>
<path d="M16.3469 29.0257C16.3128 28.9491 16.2824 28.8708 16.2558 28.7912L16.4626 28.7222C16.487 28.7951 16.5148 28.8669 16.5461 28.9371L16.3469 29.0257Z" stroke="white" stroke-width="2" mask="url(#path-36-inside-32_2204_9636)"/>
<line y1="-0.5" x2="6.26917" y2="-0.5" transform="matrix(0.480432 -0.877032 -0.877032 -0.480432 3.32391 16.5757)" stroke="white"/>
<line y1="-0.5" x2="6.76814" y2="-0.5" transform="matrix(-0.223589 -0.974683 -0.974683 0.223589 10.6191 18.1069)" stroke="white"/>
<line y1="-0.5" x2="3.75429" y2="-0.5" transform="matrix(0.35462 -0.935011 -0.935011 -0.35462 10.2936 28.3306)" stroke="white"/>
<line y1="-0.5" x2="3.03575" y2="-0.5" transform="matrix(-0.693197 -0.720749 -0.720749 0.693197 16.774 26.3098)" stroke="white"/>
<circle cx="2.41031" cy="2.41031" r="1.91031" transform="matrix(0.48086 -0.876798 -0.876798 -0.48086 20.7452 21.9148)" stroke="white"/>
<mask id="path-42-inside-33_2204_9636" fill="white">
<path d="M21.3932 16.5907C21.8976 16.9847 22.2392 17.5507 22.3528 18.1805C22.4663 18.8104 22.3438 19.4601 22.0087 20.0054L21.8229 19.8912C22.13 19.3916 22.2422 18.7964 22.1382 18.2192C22.0342 17.6421 21.7211 17.1235 21.259 16.7626L21.3932 16.5907Z"/>
</mask>
<path d="M21.3932 16.5907C21.8976 16.9847 22.2392 17.5507 22.3528 18.1805C22.4663 18.8104 22.3438 19.4601 22.0087 20.0054L21.8229 19.8912C22.13 19.3916 22.2422 18.7964 22.1382 18.2192C22.0342 17.6421 21.7211 17.1235 21.259 16.7626L21.3932 16.5907Z" stroke="white" stroke-width="2" mask="url(#path-42-inside-33_2204_9636)"/>
<mask id="path-43-inside-34_2204_9636" fill="white">
<path d="M17.4372 17.5304C17.6628 17.053 18.0282 16.6554 18.485 16.3905C18.9418 16.1256 19.4683 16.0059 19.9947 16.0472L19.9777 16.2646C19.4953 16.2267 19.0129 16.3364 18.5944 16.5791C18.1758 16.8218 17.841 17.1861 17.6344 17.6235L17.4372 17.5304Z"/>
</mask>
<path d="M17.4372 17.5304C17.6628 17.053 18.0282 16.6554 18.485 16.3905C18.9418 16.1256 19.4683 16.0059 19.9947 16.0472L19.9777 16.2646C19.4953 16.2267 19.0129 16.3364 18.5944 16.5791C18.1758 16.8218 17.841 17.1861 17.6344 17.6235L17.4372 17.5304Z" stroke="white" stroke-width="2" mask="url(#path-43-inside-34_2204_9636)"/>
<mask id="path-44-inside-35_2204_9636" fill="white">
<path d="M17.1983 18.4088C17.2212 18.154 17.2816 17.9039 17.3775 17.6667L17.5797 17.7484C17.4918 17.9658 17.4365 18.1949 17.4154 18.4284L17.1983 18.4088Z"/>
</mask>
<path d="M17.1983 18.4088C17.2212 18.154 17.2816 17.9039 17.3775 17.6667L17.5797 17.7484C17.4918 17.9658 17.4365 18.1949 17.4154 18.4284L17.1983 18.4088Z" stroke="white" stroke-width="2" mask="url(#path-44-inside-35_2204_9636)"/>
<mask id="path-45-inside-36_2204_9636" fill="white">
<path d="M17.2919 19.3712C17.2203 19.1255 17.1852 18.8707 17.1879 18.6148L17.4059 18.6172C17.4035 18.8516 17.4356 19.0851 17.5012 19.3101L17.2919 19.3712Z"/>
</mask>
<path d="M17.2919 19.3712C17.2203 19.1255 17.1852 18.8707 17.1879 18.6148L17.4059 18.6172C17.4035 18.8516 17.4356 19.0851 17.5012 19.3101L17.2919 19.3712Z" stroke="white" stroke-width="2" mask="url(#path-45-inside-36_2204_9636)"/>
<mask id="path-46-inside-37_2204_9636" fill="white">
<path d="M18.5392 20.9248C18.3148 20.8017 18.1099 20.6463 17.9309 20.4635L18.0867 20.311C18.2507 20.4785 18.4385 20.6209 18.644 20.7336L18.5392 20.9248Z"/>
</mask>
<path d="M18.5392 20.9248C18.3148 20.8017 18.1099 20.6463 17.9309 20.4635L18.0867 20.311C18.2507 20.4785 18.4385 20.6209 18.644 20.7336L18.5392 20.9248Z" stroke="white" stroke-width="2" mask="url(#path-46-inside-37_2204_9636)"/>
<mask id="path-47-inside-38_2204_9636" fill="white">
<path d="M21.931 20.1244C21.7853 20.3347 21.6094 20.5225 21.409 20.6815L21.2735 20.5107C21.4571 20.365 21.6183 20.193 21.7517 20.0003L21.931 20.1244Z"/>
</mask>
<path d="M21.931 20.1244C21.7853 20.3347 21.6094 20.5225 21.409 20.6815L21.2735 20.5107C21.4571 20.365 21.6183 20.193 21.7517 20.0003L21.931 20.1244Z" stroke="white" stroke-width="2" mask="url(#path-47-inside-38_2204_9636)"/>
<mask id="path-48-inside-39_2204_9636" fill="white">
<path d="M21.3227 20.7471C21.2538 20.7972 21.1826 20.8439 21.1091 20.887L20.9987 20.699C21.066 20.6595 21.1313 20.6167 21.1944 20.5708L21.3227 20.7471Z"/>
</mask>
<path d="M21.3227 20.7471C21.2538 20.7972 21.1826 20.8439 21.1091 20.887L20.9987 20.699C21.066 20.6595 21.1313 20.6167 21.1944 20.5708L21.3227 20.7471Z" stroke="white" stroke-width="2" mask="url(#path-48-inside-39_2204_9636)"/>
<mask id="path-49-inside-40_2204_9636" fill="white">
<path d="M17.4127 19.7008C17.3786 19.6241 17.3482 19.5459 17.3216 19.4663L17.5284 19.3973C17.5528 19.4702 17.5806 19.5419 17.6119 19.6121L17.4127 19.7008Z"/>
</mask>
<path d="M17.4127 19.7008C17.3786 19.6241 17.3482 19.5459 17.3216 19.4663L17.5284 19.3973C17.5528 19.4702 17.5806 19.5419 17.6119 19.6121L17.4127 19.7008Z" stroke="white" stroke-width="2" mask="url(#path-49-inside-40_2204_9636)"/>
<line y1="-0.5" x2="2.65468" y2="-0.5" transform="matrix(-0.911906 0.410398 0.410398 0.911906 17.9144 19.6384)" stroke="white"/>
</svg>
