<svg width="166" height="130" viewBox="0 0 166 130" fill="none" xmlns="http://www.w3.org/2000/svg">
<circle cx="16.6867" cy="16.6867" r="16.1867" transform="matrix(0.506003 0.862531 0.862531 -0.506003 108.726 60.0024)" stroke="#333333"/>
<mask id="path-2-inside-1_2202_15766" fill="white">
<path d="M138.064 82.7592C133.932 84.358 129.355 84.3784 125.209 82.8163C121.062 81.2543 117.636 78.2194 115.586 74.2913L116.924 73.5928C118.803 77.1919 121.941 79.9726 125.741 81.4038C129.54 82.835 133.733 82.8164 137.52 81.3515L138.064 82.7592Z"/>
</mask>
<path d="M138.064 82.7592C133.932 84.358 129.355 84.3784 125.209 82.8163C121.062 81.2543 117.636 78.2194 115.586 74.2913L116.924 73.5928C118.803 77.1919 121.941 79.9726 125.741 81.4038C129.54 82.835 133.733 82.8164 137.52 81.3515L138.064 82.7592Z" stroke="#333333" stroke-width="2" mask="url(#path-2-inside-1_2202_15766)"/>
<mask id="path-3-inside-2_2202_15766" fill="white">
<path d="M146.528 55.9126C148.565 58.9485 149.63 62.532 149.582 66.1873C149.534 69.8427 148.376 73.3971 146.261 76.3787L145.029 75.5054C146.967 72.7735 148.029 69.5168 148.073 66.1676C148.116 62.8184 147.141 59.5351 145.275 56.7534L146.528 55.9126Z"/>
</mask>
<path d="M146.528 55.9126C148.565 58.9485 149.63 62.532 149.582 66.1873C149.534 69.8427 148.376 73.3971 146.261 76.3787L145.029 75.5054C146.967 72.7735 148.029 69.5168 148.073 66.1676C148.116 62.8184 147.141 59.5351 145.275 56.7534L146.528 55.9126Z" stroke="#333333" stroke-width="2" mask="url(#path-3-inside-2_2202_15766)"/>
<mask id="path-4-inside-3_2202_15766" fill="white">
<path d="M142.157 51.3733C143.59 52.4146 144.861 53.6615 145.93 55.0738L144.727 55.9848C143.747 54.6909 142.582 53.5484 141.269 52.5943L142.157 51.3733Z"/>
</mask>
<path d="M142.157 51.3733C143.59 52.4146 144.861 53.6615 145.93 55.0738L144.727 55.9848C143.747 54.6909 142.582 53.5484 141.269 52.5943L142.157 51.3733Z" stroke="#333333" stroke-width="2" mask="url(#path-4-inside-3_2202_15766)"/>
<mask id="path-5-inside-4_2202_15766" fill="white">
<path d="M136.105 48.512C137.819 48.9586 139.458 49.6554 140.969 50.58L140.181 51.8674C138.797 51.0203 137.295 50.3818 135.725 49.9727L136.105 48.512Z"/>
</mask>
<path d="M136.105 48.512C137.819 48.9586 139.458 49.6554 140.969 50.58L140.181 51.8674C138.797 51.0203 137.295 50.3818 135.725 49.9727L136.105 48.512Z" stroke="#333333" stroke-width="2" mask="url(#path-5-inside-4_2202_15766)"/>
<mask id="path-6-inside-5_2202_15766" fill="white">
<path d="M122.443 50.4073C123.97 49.5111 125.622 48.8449 127.344 48.4304L127.697 49.8979C126.12 50.2777 124.606 50.888 123.206 51.7093L122.443 50.4073Z"/>
</mask>
<path d="M122.443 50.4073C123.97 49.5111 125.622 48.8449 127.344 48.4304L127.697 49.8979C126.12 50.2777 124.606 50.888 123.206 51.7093L122.443 50.4073Z" stroke="#333333" stroke-width="2" mask="url(#path-6-inside-5_2202_15766)"/>
<mask id="path-7-inside-6_2202_15766" fill="white">
<path d="M115.154 73.4067C114.422 71.794 113.931 70.0822 113.697 68.3263L115.193 68.1274C115.407 69.7362 115.857 71.3047 116.529 72.7823L115.154 73.4067Z"/>
</mask>
<path d="M115.154 73.4067C114.422 71.794 113.931 70.0822 113.697 68.3263L115.193 68.1274C115.407 69.7362 115.857 71.3047 116.529 72.7823L115.154 73.4067Z" stroke="#333333" stroke-width="2" mask="url(#path-7-inside-6_2202_15766)"/>
<mask id="path-8-inside-7_2202_15766" fill="white">
<path d="M113.614 67.5803C113.561 66.9932 113.536 66.4038 113.541 65.8143L115.05 65.8258C115.046 66.3659 115.068 66.9059 115.117 67.4439L113.614 67.5803Z"/>
</mask>
<path d="M113.614 67.5803C113.561 66.9932 113.536 66.4038 113.541 65.8143L115.05 65.8258C115.046 66.3659 115.068 66.9059 115.117 67.4439L113.614 67.5803Z" stroke="#333333" stroke-width="2" mask="url(#path-8-inside-7_2202_15766)"/>
<mask id="path-9-inside-8_2202_15766" fill="white">
<path d="M133.717 48.0593C134.294 48.1288 134.867 48.2261 135.434 48.3509L135.11 49.8251C134.59 49.7107 134.065 49.6215 133.537 49.5579L133.717 48.0593Z"/>
</mask>
<path d="M133.717 48.0593C134.294 48.1288 134.867 48.2261 135.434 48.3509L135.11 49.8251C134.59 49.7107 134.065 49.6215 133.537 49.5579L133.717 48.0593Z" stroke="#333333" stroke-width="2" mask="url(#path-9-inside-8_2202_15766)"/>
<circle cx="16.6867" cy="16.6867" r="16.1867" transform="matrix(0.506003 0.862531 0.862531 -0.506003 45.522 44.5903)" stroke="#333333"/>
<mask id="path-11-inside-9_2202_15766" fill="white">
<path d="M74.8608 67.3471C70.7283 68.9459 66.1516 68.9663 62.005 67.4042C57.8585 65.8422 54.4327 62.8073 52.3822 58.8792L53.7203 58.1807C55.599 61.7798 58.7379 64.5605 62.5371 65.9917C66.3364 67.4229 70.5298 67.4043 74.3162 65.9394L74.8608 67.3471Z"/>
</mask>
<path d="M74.8608 67.3471C70.7283 68.9459 66.1516 68.9663 62.005 67.4042C57.8585 65.8422 54.4327 62.8073 52.3822 58.8792L53.7203 58.1807C55.599 61.7798 58.7379 64.5605 62.5371 65.9917C66.3364 67.4229 70.5298 67.4043 74.3162 65.9394L74.8608 67.3471Z" stroke="#333333" stroke-width="2" mask="url(#path-11-inside-9_2202_15766)"/>
<mask id="path-12-inside-10_2202_15766" fill="white">
<path d="M83.3247 40.5005C85.3611 43.5364 86.4261 47.1199 86.3782 50.7752C86.3304 54.4306 85.1721 57.985 83.057 60.9666L81.8259 60.0933C83.7638 57.3614 84.8251 54.1047 84.869 50.7555C84.9128 47.4063 83.937 44.123 82.0712 41.3413L83.3247 40.5005Z"/>
</mask>
<path d="M83.3247 40.5005C85.3611 43.5364 86.4261 47.1199 86.3782 50.7752C86.3304 54.4306 85.1721 57.985 83.057 60.9666L81.8259 60.0933C83.7638 57.3614 84.8251 54.1047 84.869 50.7555C84.9128 47.4063 83.937 44.123 82.0712 41.3413L83.3247 40.5005Z" stroke="#333333" stroke-width="2" mask="url(#path-12-inside-10_2202_15766)"/>
<mask id="path-13-inside-11_2202_15766" fill="white">
<path d="M78.9531 35.9612C80.3859 37.0025 81.6574 38.2494 82.7266 39.6617L81.5232 40.5727C80.5435 39.2788 79.3785 38.1363 78.0657 37.1822L78.9531 35.9612Z"/>
</mask>
<path d="M78.9531 35.9612C80.3859 37.0025 81.6574 38.2494 82.7266 39.6617L81.5232 40.5727C80.5435 39.2788 79.3785 38.1363 78.0657 37.1822L78.9531 35.9612Z" stroke="#333333" stroke-width="2" mask="url(#path-13-inside-11_2202_15766)"/>
<mask id="path-14-inside-12_2202_15766" fill="white">
<path d="M72.9014 33.0999C74.6155 33.5465 76.2544 34.2433 77.7653 35.1679L76.9774 36.4553C75.5931 35.6082 74.0914 34.9697 72.5209 34.5606L72.9014 33.0999Z"/>
</mask>
<path d="M72.9014 33.0999C74.6155 33.5465 76.2544 34.2433 77.7653 35.1679L76.9774 36.4553C75.5931 35.6082 74.0914 34.9697 72.5209 34.5606L72.9014 33.0999Z" stroke="#333333" stroke-width="2" mask="url(#path-14-inside-12_2202_15766)"/>
<mask id="path-15-inside-13_2202_15766" fill="white">
<path d="M59.2391 34.9952C60.7669 34.0989 62.4185 33.4328 64.1406 33.0183L64.4938 34.4858C62.916 34.8656 61.4027 35.4759 60.0028 36.2971L59.2391 34.9952Z"/>
</mask>
<path d="M59.2391 34.9952C60.7669 34.0989 62.4185 33.4328 64.1406 33.0183L64.4938 34.4858C62.916 34.8656 61.4027 35.4759 60.0028 36.2971L59.2391 34.9952Z" stroke="#333333" stroke-width="2" mask="url(#path-15-inside-13_2202_15766)"/>
<mask id="path-16-inside-14_2202_15766" fill="white">
<path d="M51.9507 57.9945C51.218 56.3819 50.727 54.67 50.4936 52.9142L51.9898 52.7153C52.2037 54.3241 52.6535 55.8926 53.3249 57.3701L51.9507 57.9945Z"/>
</mask>
<path d="M51.9507 57.9945C51.218 56.3819 50.727 54.67 50.4936 52.9142L51.9898 52.7153C52.2037 54.3241 52.6535 55.8926 53.3249 57.3701L51.9507 57.9945Z" stroke="#333333" stroke-width="2" mask="url(#path-16-inside-14_2202_15766)"/>
<mask id="path-17-inside-15_2202_15766" fill="white">
<path d="M50.4102 52.1681C50.3569 51.5811 50.3325 50.9917 50.337 50.4022L51.8463 50.4137C51.8422 50.9538 51.8646 51.4938 51.9134 52.0317L50.4102 52.1681Z"/>
</mask>
<path d="M50.4102 52.1681C50.3569 51.5811 50.3325 50.9917 50.337 50.4022L51.8463 50.4137C51.8422 50.9538 51.8646 51.4938 51.9134 52.0317L50.4102 52.1681Z" stroke="#333333" stroke-width="2" mask="url(#path-17-inside-15_2202_15766)"/>
<mask id="path-18-inside-16_2202_15766" fill="white">
<path d="M70.5135 32.6472C71.0902 32.7167 71.6633 32.814 72.2306 32.9388L71.9063 34.4129C71.3864 34.2986 70.8614 34.2094 70.333 34.1457L70.5135 32.6472Z"/>
</mask>
<path d="M70.5135 32.6472C71.0902 32.7167 71.6633 32.814 72.2306 32.9388L71.9063 34.4129C71.3864 34.2986 70.8614 34.2094 70.333 34.1457L70.5135 32.6472Z" stroke="#333333" stroke-width="2" mask="url(#path-18-inside-16_2202_15766)"/>
<circle cx="11.1245" cy="11.1245" r="10.6245" transform="matrix(0.506003 0.862531 0.862531 -0.506003 23.1621 18.001)" stroke="#333333"/>
<mask id="path-20-inside-17_2202_15766" fill="white">
<path d="M42.7212 33.1721C39.9662 34.238 36.915 34.2516 34.1507 33.2102C31.3863 32.1689 29.1024 30.1456 27.7354 27.5269L28.6275 27.0612C29.88 29.4606 31.9725 31.3144 34.5054 32.2686C37.0382 33.2227 39.8338 33.2103 42.3581 32.2337L42.7212 33.1721Z"/>
</mask>
<path d="M42.7212 33.1721C39.9662 34.238 36.915 34.2516 34.1507 33.2102C31.3863 32.1689 29.1024 30.1456 27.7354 27.5269L28.6275 27.0612C29.88 29.4606 31.9725 31.3144 34.5054 32.2686C37.0382 33.2227 39.8338 33.2103 42.3581 32.2337L42.7212 33.1721Z" stroke="#333333" stroke-width="2" mask="url(#path-20-inside-17_2202_15766)"/>
<mask id="path-21-inside-18_2202_15766" fill="white">
<path d="M48.3638 15.2744C49.7214 17.2984 50.4313 19.6873 50.3995 22.1242C50.3676 24.5611 49.5953 26.9307 48.1853 28.9185L47.3645 28.3363C48.6565 26.515 49.3641 24.3439 49.3933 22.1111C49.4225 19.8783 48.772 17.6894 47.5281 15.835L48.3638 15.2744Z"/>
</mask>
<path d="M48.3638 15.2744C49.7214 17.2984 50.4313 19.6873 50.3995 22.1242C50.3676 24.5611 49.5953 26.9307 48.1853 28.9185L47.3645 28.3363C48.6565 26.515 49.3641 24.3439 49.3933 22.1111C49.4225 19.8783 48.772 17.6894 47.5281 15.835L48.3638 15.2744Z" stroke="#333333" stroke-width="2" mask="url(#path-21-inside-18_2202_15766)"/>
<mask id="path-22-inside-19_2202_15766" fill="white">
<path d="M45.4493 12.2482C46.4046 12.9424 47.2523 13.7737 47.965 14.7152L47.1627 15.3226C46.5097 14.4599 45.733 13.6983 44.8577 13.0622L45.4493 12.2482Z"/>
</mask>
<path d="M45.4493 12.2482C46.4046 12.9424 47.2523 13.7737 47.965 14.7152L47.1627 15.3226C46.5097 14.4599 45.733 13.6983 44.8577 13.0622L45.4493 12.2482Z" stroke="#333333" stroke-width="2" mask="url(#path-22-inside-19_2202_15766)"/>
<mask id="path-23-inside-20_2202_15766" fill="white">
<path d="M41.4149 10.3407C42.5576 10.6384 43.6502 11.1029 44.6575 11.7193L44.1322 12.5776C43.2093 12.0129 42.2083 11.5872 41.1612 11.3145L41.4149 10.3407Z"/>
</mask>
<path d="M41.4149 10.3407C42.5576 10.6384 43.6502 11.1029 44.6575 11.7193L44.1322 12.5776C43.2093 12.0129 42.2083 11.5872 41.1612 11.3145L41.4149 10.3407Z" stroke="#333333" stroke-width="2" mask="url(#path-23-inside-20_2202_15766)"/>
<mask id="path-24-inside-21_2202_15766" fill="white">
<path d="M32.3067 11.6042C33.3252 11.0067 34.4263 10.5626 35.5744 10.2863L35.8099 11.2646C34.7579 11.5178 33.7491 11.9247 32.8159 12.4722L32.3067 11.6042Z"/>
</mask>
<path d="M32.3067 11.6042C33.3252 11.0067 34.4263 10.5626 35.5744 10.2863L35.8099 11.2646C34.7579 11.5178 33.7491 11.9247 32.8159 12.4722L32.3067 11.6042Z" stroke="#333333" stroke-width="2" mask="url(#path-24-inside-21_2202_15766)"/>
<mask id="path-25-inside-22_2202_15766" fill="white">
<path d="M27.4478 26.9371C26.9593 25.862 26.632 24.7208 26.4764 23.5502L27.4738 23.4176C27.6164 24.4901 27.9163 25.5358 28.3639 26.5209L27.4478 26.9371Z"/>
</mask>
<path d="M27.4478 26.9371C26.9593 25.862 26.632 24.7208 26.4764 23.5502L27.4738 23.4176C27.6164 24.4901 27.9163 25.5358 28.3639 26.5209L27.4478 26.9371Z" stroke="#333333" stroke-width="2" mask="url(#path-25-inside-22_2202_15766)"/>
<mask id="path-26-inside-23_2202_15766" fill="white">
<path d="M26.4208 23.0529C26.3852 22.6615 26.3689 22.2686 26.3719 21.8756L27.3782 21.8832C27.3754 22.2433 27.3904 22.6033 27.4229 22.9619L26.4208 23.0529Z"/>
</mask>
<path d="M26.4208 23.0529C26.3852 22.6615 26.3689 22.2686 26.3719 21.8756L27.3782 21.8832C27.3754 22.2433 27.3904 22.6033 27.4229 22.9619L26.4208 23.0529Z" stroke="#333333" stroke-width="2" mask="url(#path-26-inside-23_2202_15766)"/>
<mask id="path-27-inside-24_2202_15766" fill="white">
<path d="M39.823 10.0389C40.2075 10.0852 40.5895 10.1501 40.9677 10.2333L40.7515 11.216C40.4049 11.1398 40.0549 11.0804 39.7026 11.0379L39.823 10.0389Z"/>
</mask>
<path d="M39.823 10.0389C40.2075 10.0852 40.5895 10.1501 40.9677 10.2333L40.7515 11.216C40.4049 11.1398 40.0549 11.0804 39.7026 11.0379L39.823 10.0389Z" stroke="#333333" stroke-width="2" mask="url(#path-27-inside-24_2202_15766)"/>
<circle cx="11.1245" cy="11.1245" r="10.6245" transform="matrix(0.506003 0.862531 0.862531 -0.506003 12.8657 57.604)" stroke="#333333"/>
<mask id="path-29-inside-25_2202_15766" fill="white">
<path d="M32.4248 72.7752C29.6698 73.8411 26.6186 73.8546 23.8543 72.8133C21.0899 71.7719 18.8061 69.7486 17.4391 67.1299L18.3311 66.6643C19.5836 69.0636 21.6762 70.9175 24.209 71.8716C26.7419 72.8257 29.5374 72.8133 32.0617 71.8367L32.4248 72.7752Z"/>
</mask>
<path d="M32.4248 72.7752C29.6698 73.8411 26.6186 73.8546 23.8543 72.8133C21.0899 71.7719 18.8061 69.7486 17.4391 67.1299L18.3311 66.6643C19.5836 69.0636 21.6762 70.9175 24.209 71.8716C26.7419 72.8257 29.5374 72.8133 32.0617 71.8367L32.4248 72.7752Z" stroke="#333333" stroke-width="2" mask="url(#path-29-inside-25_2202_15766)"/>
<mask id="path-30-inside-26_2202_15766" fill="white">
<path d="M38.0674 54.8774C39.425 56.9014 40.135 59.2904 40.1031 61.7273C40.0712 64.1642 39.299 66.5338 37.8889 68.5215L37.0681 67.9393C38.3601 66.118 39.0677 63.9469 39.0969 61.7141C39.1261 59.4813 38.4756 57.2924 37.2317 55.438L38.0674 54.8774Z"/>
</mask>
<path d="M38.0674 54.8774C39.425 56.9014 40.135 59.2904 40.1031 61.7273C40.0712 64.1642 39.299 66.5338 37.8889 68.5215L37.0681 67.9393C38.3601 66.118 39.0677 63.9469 39.0969 61.7141C39.1261 59.4813 38.4756 57.2924 37.2317 55.438L38.0674 54.8774Z" stroke="#333333" stroke-width="2" mask="url(#path-30-inside-26_2202_15766)"/>
<mask id="path-31-inside-27_2202_15766" fill="white">
<path d="M35.1529 51.8512C36.1082 52.5455 36.9559 53.3767 37.6686 54.3182L36.8664 54.9256C36.2133 54.063 35.4366 53.3013 34.5614 52.6652L35.1529 51.8512Z"/>
</mask>
<path d="M35.1529 51.8512C36.1082 52.5455 36.9559 53.3767 37.6686 54.3182L36.8664 54.9256C36.2133 54.063 35.4366 53.3013 34.5614 52.6652L35.1529 51.8512Z" stroke="#333333" stroke-width="2" mask="url(#path-31-inside-27_2202_15766)"/>
<mask id="path-32-inside-28_2202_15766" fill="white">
<path d="M31.1185 49.9437C32.2613 50.2414 33.3539 50.706 34.3611 51.3224L33.8358 52.1807C32.913 51.6159 31.9119 51.1903 30.8649 50.9175L31.1185 49.9437Z"/>
</mask>
<path d="M31.1185 49.9437C32.2613 50.2414 33.3539 50.706 34.3611 51.3224L33.8358 52.1807C32.913 51.6159 31.9119 51.1903 30.8649 50.9175L31.1185 49.9437Z" stroke="#333333" stroke-width="2" mask="url(#path-32-inside-28_2202_15766)"/>
<mask id="path-33-inside-29_2202_15766" fill="white">
<path d="M22.0103 51.2073C23.0288 50.6097 24.1299 50.1656 25.278 49.8893L25.5135 50.8676C24.4615 51.1208 23.4527 51.5277 22.5195 52.0752L22.0103 51.2073Z"/>
</mask>
<path d="M22.0103 51.2073C23.0288 50.6097 24.1299 50.1656 25.278 49.8893L25.5135 50.8676C24.4615 51.1208 23.4527 51.5277 22.5195 52.0752L22.0103 51.2073Z" stroke="#333333" stroke-width="2" mask="url(#path-33-inside-29_2202_15766)"/>
<mask id="path-34-inside-30_2202_15766" fill="white">
<path d="M17.1514 66.5401C16.6629 65.4651 16.3356 64.3238 16.18 63.1532L17.1775 63.0206C17.32 64.0932 17.6199 65.1388 18.0675 66.1239L17.1514 66.5401Z"/>
</mask>
<path d="M17.1514 66.5401C16.6629 65.4651 16.3356 64.3238 16.18 63.1532L17.1775 63.0206C17.32 64.0932 17.6199 65.1388 18.0675 66.1239L17.1514 66.5401Z" stroke="#333333" stroke-width="2" mask="url(#path-34-inside-30_2202_15766)"/>
<mask id="path-35-inside-31_2202_15766" fill="white">
<path d="M16.1244 62.6559C16.0888 62.2645 16.0726 61.8716 16.0756 61.4786L17.0818 61.4863C17.0791 61.8463 17.094 62.2063 17.1265 62.5649L16.1244 62.6559Z"/>
</mask>
<path d="M16.1244 62.6559C16.0888 62.2645 16.0726 61.8716 16.0756 61.4786L17.0818 61.4863C17.0791 61.8463 17.094 62.2063 17.1265 62.5649L16.1244 62.6559Z" stroke="#333333" stroke-width="2" mask="url(#path-35-inside-31_2202_15766)"/>
<mask id="path-36-inside-32_2202_15766" fill="white">
<path d="M29.5266 49.6419C29.9111 49.6882 30.2931 49.7531 30.6713 49.8363L30.4551 50.8191C30.1085 50.7428 29.7585 50.6834 29.4062 50.6409L29.5266 49.6419Z"/>
</mask>
<path d="M29.5266 49.6419C29.9111 49.6882 30.2931 49.7531 30.6713 49.8363L30.4551 50.8191C30.1085 50.7428 29.7585 50.6834 29.4062 50.6409L29.5266 49.6419Z" stroke="#333333" stroke-width="2" mask="url(#path-36-inside-32_2202_15766)"/>
<line y1="-0.5" x2="28.9346" y2="-0.5" transform="matrix(0.506424 0.862285 0.862285 -0.506424 109.684 27.521)" stroke="#333333"/>
<line y1="-0.5" x2="31.2376" y2="-0.5" transform="matrix(0.951377 0.30803 0.30803 -0.951377 86.3457 52.7983)" stroke="#333333"/>
<line y1="-0.5" x2="17.3275" y2="-0.5" transform="matrix(0.620729 0.784025 0.784025 -0.620729 46.6113 27.3052)" stroke="#333333"/>
<line y1="-0.5" x2="14.0111" y2="-0.5" transform="matrix(0.974279 -0.225346 -0.225346 -0.974279 39.2754 57.7642)" stroke="#333333"/>
<circle cx="11.1245" cy="11.1245" r="10.6245" transform="matrix(0.506003 0.862531 0.862531 -0.506003 47.2876 83.9033)" stroke="#333333"/>
<mask id="path-42-inside-33_2202_15766" fill="white">
<path d="M66.8467 99.0745C64.0917 100.14 61.0405 100.154 58.2761 99.1126C55.5118 98.0712 53.2279 96.0479 51.8609 93.4293L52.753 92.9636C54.0055 95.3629 56.098 97.2168 58.6309 98.1709C61.1637 99.1251 63.9593 99.1126 66.4836 98.136L66.8467 99.0745Z"/>
</mask>
<path d="M66.8467 99.0745C64.0917 100.14 61.0405 100.154 58.2761 99.1126C55.5118 98.0712 53.2279 96.0479 51.8609 93.4293L52.753 92.9636C54.0055 95.3629 56.098 97.2168 58.6309 98.1709C61.1637 99.1251 63.9593 99.1126 66.4836 98.136L66.8467 99.0745Z" stroke="#333333" stroke-width="2" mask="url(#path-42-inside-33_2202_15766)"/>
<mask id="path-43-inside-34_2202_15766" fill="white">
<path d="M72.4893 81.1768C73.8469 83.2007 74.5568 85.5897 74.5249 88.0266C74.4931 90.4635 73.7208 92.8331 72.3108 94.8208L71.49 94.2386C72.782 92.4173 73.4896 90.2462 73.5188 88.0134C73.548 85.7806 72.8975 83.5917 71.6536 81.7373L72.4893 81.1768Z"/>
</mask>
<path d="M72.4893 81.1768C73.8469 83.2007 74.5568 85.5897 74.5249 88.0266C74.4931 90.4635 73.7208 92.8331 72.3108 94.8208L71.49 94.2386C72.782 92.4173 73.4896 90.2462 73.5188 88.0134C73.548 85.7806 72.8975 83.5917 71.6536 81.7373L72.4893 81.1768Z" stroke="#333333" stroke-width="2" mask="url(#path-43-inside-34_2202_15766)"/>
<mask id="path-44-inside-35_2202_15766" fill="white">
<path d="M69.5748 78.1505C70.5301 78.8448 71.3777 79.676 72.0905 80.6175L71.2882 81.2249C70.6352 80.3623 69.8585 79.6006 68.9832 78.9645L69.5748 78.1505Z"/>
</mask>
<path d="M69.5748 78.1505C70.5301 78.8448 71.3777 79.676 72.0905 80.6175L71.2882 81.2249C70.6352 80.3623 69.8585 79.6006 68.9832 78.9645L69.5748 78.1505Z" stroke="#333333" stroke-width="2" mask="url(#path-44-inside-35_2202_15766)"/>
<mask id="path-45-inside-36_2202_15766" fill="white">
<path d="M65.5404 76.243C66.6831 76.5407 67.7757 77.0053 68.783 77.6217L68.2577 78.48C67.3348 77.9152 66.3337 77.4896 65.2867 77.2168L65.5404 76.243Z"/>
</mask>
<path d="M65.5404 76.243C66.6831 76.5407 67.7757 77.0053 68.783 77.6217L68.2577 78.48C67.3348 77.9152 66.3337 77.4896 65.2867 77.2168L65.5404 76.243Z" stroke="#333333" stroke-width="2" mask="url(#path-45-inside-36_2202_15766)"/>
<mask id="path-46-inside-37_2202_15766" fill="white">
<path d="M56.4322 77.5066C57.4507 76.9091 58.5518 76.465 59.6999 76.1886L59.9353 77.1669C58.8834 77.4201 57.8746 77.827 56.9414 78.3745L56.4322 77.5066Z"/>
</mask>
<path d="M56.4322 77.5066C57.4507 76.9091 58.5518 76.465 59.6999 76.1886L59.9353 77.1669C58.8834 77.4201 57.8746 77.827 56.9414 78.3745L56.4322 77.5066Z" stroke="#333333" stroke-width="2" mask="url(#path-46-inside-37_2202_15766)"/>
<mask id="path-47-inside-38_2202_15766" fill="white">
<path d="M51.5733 92.8395C51.0848 91.7644 50.7574 90.6231 50.6018 89.4526L51.5993 89.32C51.7419 90.3925 52.0418 91.4381 52.4894 92.4232L51.5733 92.8395Z"/>
</mask>
<path d="M51.5733 92.8395C51.0848 91.7644 50.7574 90.6231 50.6018 89.4526L51.5993 89.32C51.7419 90.3925 52.0418 91.4381 52.4894 92.4232L51.5733 92.8395Z" stroke="#333333" stroke-width="2" mask="url(#path-47-inside-38_2202_15766)"/>
<mask id="path-48-inside-39_2202_15766" fill="white">
<path d="M50.5462 88.9552C50.5107 88.5638 50.4944 88.1709 50.4974 87.7779L51.5037 87.7856C51.5009 88.1457 51.5159 88.5056 51.5484 88.8643L50.5462 88.9552Z"/>
</mask>
<path d="M50.5462 88.9552C50.5107 88.5638 50.4944 88.1709 50.4974 87.7779L51.5037 87.7856C51.5009 88.1457 51.5159 88.5056 51.5484 88.8643L50.5462 88.9552Z" stroke="#333333" stroke-width="2" mask="url(#path-48-inside-39_2202_15766)"/>
<mask id="path-49-inside-40_2202_15766" fill="white">
<path d="M63.9485 75.9412C64.3329 75.9875 64.715 76.0524 65.0932 76.1356L64.877 77.1184C64.5304 77.0421 64.1804 76.9827 63.8281 76.9403L63.9485 75.9412Z"/>
</mask>
<path d="M63.9485 75.9412C64.3329 75.9875 64.715 76.0524 65.0932 76.1356L64.877 77.1184C64.5304 77.0421 64.1804 76.9827 63.8281 76.9403L63.9485 75.9412Z" stroke="#333333" stroke-width="2" mask="url(#path-49-inside-40_2202_15766)"/>
<line y1="-0.5" x2="12.2524" y2="-0.5" transform="matrix(0.115468 -0.993311 -0.993311 -0.115468 63.0073 78.0762)" stroke="#333333"/>
</svg>
