<svg width="33" height="21" viewBox="0 0 33 21" fill="none" xmlns="http://www.w3.org/2000/svg">
<circle cx="3.61546" cy="3.61546" r="3.11546" transform="matrix(0.728167 0.685399 0.685399 -0.728167 21.9302 8.02356)" stroke="white"/>
<mask id="path-2-inside-1_2204_9056" fill="white">
<path d="M29.4171 10.9673C28.6553 11.5516 27.7049 11.8347 26.7476 11.7626C25.7902 11.6905 24.893 11.2683 24.2273 10.5765L24.4629 10.3497C25.0729 10.9836 25.895 11.3705 26.7721 11.4365C27.6493 11.5026 28.52 11.2432 29.218 10.7078L29.4171 10.9673Z"/>
</mask>
<path d="M29.4171 10.9673C28.6553 11.5516 27.7049 11.8347 26.7476 11.7626C25.7902 11.6905 24.893 11.2683 24.2273 10.5765L24.4629 10.3497C25.0729 10.9836 25.895 11.3705 26.7721 11.4365C27.6493 11.5026 28.52 11.2432 29.218 10.7078L29.4171 10.9673Z" stroke="white" stroke-width="2" mask="url(#path-2-inside-1_2204_9056)"/>
<mask id="path-3-inside-2_2204_9056" fill="white">
<path d="M29.5409 4.8696C30.1493 5.37674 30.5891 6.05692 30.8019 6.81986C31.0147 7.58279 30.9905 8.39241 30.7324 9.14124L30.4232 9.03468C30.6597 8.34857 30.6819 7.60676 30.4869 6.90773C30.2919 6.20869 29.889 5.58548 29.3315 5.12081L29.5409 4.8696Z"/>
</mask>
<path d="M29.5409 4.8696C30.1493 5.37674 30.5891 6.05692 30.8019 6.81986C31.0147 7.58279 30.9905 8.39241 30.7324 9.14124L30.4232 9.03468C30.6597 8.34857 30.6819 7.60676 30.4869 6.90773C30.2919 6.20869 29.889 5.58548 29.3315 5.12081L29.5409 4.8696Z" stroke="white" stroke-width="2" mask="url(#path-3-inside-2_2204_9056)"/>
<mask id="path-4-inside-3_2204_9056" fill="white">
<path d="M28.3553 4.19218C28.7167 4.32138 29.0571 4.50316 29.3654 4.73164L29.1707 4.9944C28.8882 4.78506 28.5763 4.61851 28.2452 4.50013L28.3553 4.19218Z"/>
</mask>
<path d="M28.3553 4.19218C28.7167 4.32138 29.0571 4.50316 29.3654 4.73164L29.1707 4.9944C28.8882 4.78506 28.5763 4.61851 28.2452 4.50013L28.3553 4.19218Z" stroke="white" stroke-width="2" mask="url(#path-4-inside-3_2204_9056)"/>
<mask id="path-5-inside-4_2204_9056" fill="white">
<path d="M26.9227 3.96604C27.3063 3.95444 27.6895 3.99945 28.06 4.09963L27.9746 4.41533C27.6352 4.32354 27.2841 4.2823 26.9326 4.29293L26.9227 3.96604Z"/>
</mask>
<path d="M26.9227 3.96604C27.3063 3.95444 27.6895 3.99945 28.06 4.09963L27.9746 4.41533C27.6352 4.32354 27.2841 4.2823 26.9326 4.29293L26.9227 3.96604Z" stroke="white" stroke-width="2" mask="url(#path-5-inside-4_2204_9056)"/>
<mask id="path-6-inside-5_2204_9056" fill="white">
<path d="M24.1975 5.19268C24.4606 4.91322 24.7634 4.67407 25.0962 4.48294L25.259 4.76653C24.9541 4.94166 24.6767 5.16078 24.4357 5.41683L24.1975 5.19268Z"/>
</mask>
<path d="M24.1975 5.19268C24.4606 4.91322 24.7634 4.67407 25.0962 4.48294L25.259 4.76653C24.9541 4.94166 24.6767 5.16078 24.4357 5.41683L24.1975 5.19268Z" stroke="white" stroke-width="2" mask="url(#path-6-inside-5_2204_9056)"/>
<mask id="path-7-inside-6_2204_9056" fill="white">
<path d="M24.0836 10.4188C23.833 10.1282 23.6266 9.80219 23.4711 9.45133L23.7701 9.3188C23.9126 9.64027 24.1017 9.93898 24.3313 10.2053L24.0836 10.4188Z"/>
</mask>
<path d="M24.0836 10.4188C23.833 10.1282 23.6266 9.80219 23.4711 9.45133L23.7701 9.3188C23.9126 9.64027 24.1017 9.93898 24.3313 10.2053L24.0836 10.4188Z" stroke="white" stroke-width="2" mask="url(#path-7-inside-6_2204_9056)"/>
<mask id="path-8-inside-7_2204_9056" fill="white">
<path d="M23.4083 9.3013C23.3614 9.18248 23.3204 9.06143 23.2855 8.93859L23.6 8.849C23.632 8.96155 23.6696 9.07246 23.7125 9.18133L23.4083 9.3013Z"/>
</mask>
<path d="M23.4083 9.3013C23.3614 9.18248 23.3204 9.06143 23.2855 8.93859L23.6 8.849C23.632 8.96155 23.6696 9.07246 23.7125 9.18133L23.4083 9.3013Z" stroke="white" stroke-width="2" mask="url(#path-8-inside-7_2204_9056)"/>
<mask id="path-9-inside-8_2204_9056" fill="white">
<path d="M26.3986 4.01743C26.5228 3.99673 26.6478 3.98204 26.7734 3.97342L26.7958 4.29969C26.6807 4.30759 26.5661 4.32105 26.4524 4.34001L26.3986 4.01743Z"/>
</mask>
<path d="M26.3986 4.01743C26.5228 3.99673 26.6478 3.98204 26.7734 3.97342L26.7958 4.29969C26.6807 4.30759 26.5661 4.32105 26.4524 4.34001L26.3986 4.01743Z" stroke="white" stroke-width="2" mask="url(#path-9-inside-8_2204_9056)"/>
<circle cx="3.61546" cy="3.61546" r="3.11546" transform="matrix(0.728167 0.685399 0.685399 -0.728167 7.84961 8.67059)" stroke="white"/>
<mask id="path-11-inside-9_2204_9056" fill="white">
<path d="M15.3365 11.6144C14.5747 12.1986 13.6243 12.4818 12.667 12.4097C11.7096 12.3376 10.8124 11.9153 10.1467 11.2235L10.3824 10.9968C10.9923 11.6306 11.8144 12.0175 12.6916 12.0835C13.5687 12.1496 14.4395 11.8902 15.1375 11.3549L15.3365 11.6144Z"/>
</mask>
<path d="M15.3365 11.6144C14.5747 12.1986 13.6243 12.4818 12.667 12.4097C11.7096 12.3376 10.8124 11.9153 10.1467 11.2235L10.3824 10.9968C10.9923 11.6306 11.8144 12.0175 12.6916 12.0835C13.5687 12.1496 14.4395 11.8902 15.1375 11.3549L15.3365 11.6144Z" stroke="white" stroke-width="2" mask="url(#path-11-inside-9_2204_9056)"/>
<mask id="path-12-inside-10_2204_9056" fill="white">
<path d="M15.4603 5.51663C16.0687 6.02378 16.5085 6.70395 16.7213 7.46689C16.9342 8.22983 16.9099 9.03944 16.6518 9.78828L16.3426 9.68172C16.5791 8.9956 16.6013 8.2538 16.4063 7.55476C16.2113 6.85572 15.8084 6.23251 15.2509 5.76785L15.4603 5.51663Z"/>
</mask>
<path d="M15.4603 5.51663C16.0687 6.02378 16.5085 6.70395 16.7213 7.46689C16.9342 8.22983 16.9099 9.03944 16.6518 9.78828L16.3426 9.68172C16.5791 8.9956 16.6013 8.2538 16.4063 7.55476C16.2113 6.85572 15.8084 6.23251 15.2509 5.76785L15.4603 5.51663Z" stroke="white" stroke-width="2" mask="url(#path-12-inside-10_2204_9056)"/>
<mask id="path-13-inside-11_2204_9056" fill="white">
<path d="M14.2748 4.83922C14.6361 4.96842 14.9765 5.15019 15.2849 5.37867L15.0902 5.64144C14.8076 5.43209 14.4958 5.26554 14.1647 5.14716L14.2748 4.83922Z"/>
</mask>
<path d="M14.2748 4.83922C14.6361 4.96842 14.9765 5.15019 15.2849 5.37867L15.0902 5.64144C14.8076 5.43209 14.4958 5.26554 14.1647 5.14716L14.2748 4.83922Z" stroke="white" stroke-width="2" mask="url(#path-13-inside-11_2204_9056)"/>
<mask id="path-14-inside-12_2204_9056" fill="white">
<path d="M12.8421 4.61308C13.2257 4.60147 13.609 4.64648 13.9794 4.74666L13.8941 5.06236C13.5546 4.97057 13.2035 4.92933 12.852 4.93997L12.8421 4.61308Z"/>
</mask>
<path d="M12.8421 4.61308C13.2257 4.60147 13.609 4.64648 13.9794 4.74666L13.8941 5.06236C13.5546 4.97057 13.2035 4.92933 12.852 4.93997L12.8421 4.61308Z" stroke="white" stroke-width="2" mask="url(#path-14-inside-12_2204_9056)"/>
<mask id="path-15-inside-13_2204_9056" fill="white">
<path d="M10.1169 5.83971C10.38 5.56025 10.6828 5.3211 11.0156 5.12997L11.1785 5.41357C10.8735 5.58869 10.5961 5.80781 10.3551 6.06386L10.1169 5.83971Z"/>
</mask>
<path d="M10.1169 5.83971C10.38 5.56025 10.6828 5.3211 11.0156 5.12997L11.1785 5.41357C10.8735 5.58869 10.5961 5.80781 10.3551 6.06386L10.1169 5.83971Z" stroke="white" stroke-width="2" mask="url(#path-15-inside-13_2204_9056)"/>
<mask id="path-16-inside-14_2204_9056" fill="white">
<path d="M10.0031 11.0659C9.75246 10.7752 9.54605 10.4492 9.39053 10.0984L9.68951 9.96583C9.83201 10.2873 10.0211 10.586 10.2508 10.8523L10.0031 11.0659Z"/>
</mask>
<path d="M10.0031 11.0659C9.75246 10.7752 9.54605 10.4492 9.39053 10.0984L9.68951 9.96583C9.83201 10.2873 10.0211 10.586 10.2508 10.8523L10.0031 11.0659Z" stroke="white" stroke-width="2" mask="url(#path-16-inside-14_2204_9056)"/>
<mask id="path-17-inside-15_2204_9056" fill="white">
<path d="M9.32772 9.94833C9.28087 9.82951 9.23988 9.70846 9.20489 9.58562L9.51942 9.49603C9.55147 9.60859 9.58904 9.7195 9.63196 9.82837L9.32772 9.94833Z"/>
</mask>
<path d="M9.32772 9.94833C9.28087 9.82951 9.23988 9.70846 9.20489 9.58562L9.51942 9.49603C9.55147 9.60859 9.58904 9.7195 9.63196 9.82837L9.32772 9.94833Z" stroke="white" stroke-width="2" mask="url(#path-17-inside-15_2204_9056)"/>
<mask id="path-18-inside-16_2204_9056" fill="white">
<path d="M12.318 4.66446C12.4422 4.64376 12.5673 4.62908 12.6928 4.62046L12.7152 4.94673C12.6002 4.95463 12.4856 4.96808 12.3718 4.98705L12.318 4.66446Z"/>
</mask>
<path d="M12.318 4.66446C12.4422 4.64376 12.5673 4.62908 12.6928 4.62046L12.7152 4.94673C12.6002 4.95463 12.4856 4.96808 12.3718 4.98705L12.318 4.66446Z" stroke="white" stroke-width="2" mask="url(#path-18-inside-16_2204_9056)"/>
<circle cx="2.41031" cy="2.41031" r="1.91031" transform="matrix(0.728167 0.685399 0.685399 -0.728167 1.58032 4.50476)" stroke="white"/>
<mask id="path-20-inside-17_2204_9056" fill="white">
<path d="M6.5715 6.46726C6.06363 6.85677 5.43006 7.04551 4.79183 6.99745C4.1536 6.94939 3.55545 6.66788 3.11164 6.2067L3.26874 6.05552C3.67537 6.47807 4.22343 6.736 4.8082 6.78004C5.39298 6.82408 5.97348 6.65114 6.43881 6.29426L6.5715 6.46726Z"/>
</mask>
<path d="M6.5715 6.46726C6.06363 6.85677 5.43006 7.04551 4.79183 6.99745C4.1536 6.94939 3.55545 6.66788 3.11164 6.2067L3.26874 6.05552C3.67537 6.47807 4.22343 6.736 4.8082 6.78004C5.39298 6.82408 5.97348 6.65114 6.43881 6.29426L6.5715 6.46726Z" stroke="white" stroke-width="2" mask="url(#path-20-inside-17_2204_9056)"/>
<mask id="path-21-inside-18_2204_9056" fill="white">
<path d="M6.65405 2.4021C7.05966 2.7402 7.35286 3.19365 7.49473 3.70227C7.6366 4.2109 7.62044 4.75064 7.44838 5.24986L7.24226 5.17882C7.3999 4.72141 7.41471 4.22688 7.28472 3.76085C7.15473 3.29483 6.88609 2.87935 6.51446 2.56957L6.65405 2.4021Z"/>
</mask>
<path d="M6.65405 2.4021C7.05966 2.7402 7.35286 3.19365 7.49473 3.70227C7.6366 4.2109 7.62044 4.75064 7.44838 5.24986L7.24226 5.17882C7.3999 4.72141 7.41471 4.22688 7.28472 3.76085C7.15473 3.29483 6.88609 2.87935 6.51446 2.56957L6.65405 2.4021Z" stroke="white" stroke-width="2" mask="url(#path-21-inside-18_2204_9056)"/>
<mask id="path-22-inside-19_2204_9056" fill="white">
<path d="M5.86367 1.95049C6.10459 2.03662 6.3315 2.15781 6.53707 2.31013L6.40727 2.4853C6.21891 2.34574 6.01101 2.23471 5.79027 2.15579L5.86367 1.95049Z"/>
</mask>
<path d="M5.86367 1.95049C6.10459 2.03662 6.3315 2.15781 6.53707 2.31013L6.40727 2.4853C6.21891 2.34574 6.01101 2.23471 5.79027 2.15579L5.86367 1.95049Z" stroke="white" stroke-width="2" mask="url(#path-22-inside-19_2204_9056)"/>
<mask id="path-23-inside-20_2204_9056" fill="white">
<path d="M4.90859 1.79973C5.16433 1.79199 5.41981 1.822 5.6668 1.88878L5.60989 2.09925C5.38359 2.03806 5.14951 2.01057 4.91519 2.01766L4.90859 1.79973Z"/>
</mask>
<path d="M4.90859 1.79973C5.16433 1.79199 5.41981 1.822 5.6668 1.88878L5.60989 2.09925C5.38359 2.03806 5.14951 2.01057 4.91519 2.01766L4.90859 1.79973Z" stroke="white" stroke-width="2" mask="url(#path-23-inside-20_2204_9056)"/>
<mask id="path-24-inside-21_2204_9056" fill="white">
<path d="M3.0918 2.61749C3.26716 2.43118 3.46904 2.27175 3.6909 2.14433L3.79948 2.33339C3.5962 2.45014 3.41124 2.59622 3.25056 2.76692L3.0918 2.61749Z"/>
</mask>
<path d="M3.0918 2.61749C3.26716 2.43118 3.46904 2.27175 3.6909 2.14433L3.79948 2.33339C3.5962 2.45014 3.41124 2.59622 3.25056 2.76692L3.0918 2.61749Z" stroke="white" stroke-width="2" mask="url(#path-24-inside-21_2204_9056)"/>
<mask id="path-25-inside-22_2204_9056" fill="white">
<path d="M3.01589 6.1016C2.84881 5.90783 2.7112 5.69049 2.60752 5.45659L2.80684 5.36823C2.90184 5.58255 3.02792 5.78169 3.18101 5.95922L3.01589 6.1016Z"/>
</mask>
<path d="M3.01589 6.1016C2.84881 5.90783 2.7112 5.69049 2.60752 5.45659L2.80684 5.36823C2.90184 5.58255 3.02792 5.78169 3.18101 5.95922L3.01589 6.1016Z" stroke="white" stroke-width="2" mask="url(#path-25-inside-22_2204_9056)"/>
<mask id="path-26-inside-23_2204_9056" fill="white">
<path d="M2.56565 5.35657C2.53442 5.27735 2.50709 5.19665 2.48376 5.11476L2.69345 5.05503C2.71482 5.13007 2.73986 5.20401 2.76848 5.27659L2.56565 5.35657Z"/>
</mask>
<path d="M2.56565 5.35657C2.53442 5.27735 2.50709 5.19665 2.48376 5.11476L2.69345 5.05503C2.71482 5.13007 2.73986 5.20401 2.76848 5.27659L2.56565 5.35657Z" stroke="white" stroke-width="2" mask="url(#path-26-inside-23_2204_9056)"/>
<mask id="path-27-inside-24_2204_9056" fill="white">
<path d="M4.5592 1.83399C4.64197 1.82019 4.72535 1.8104 4.80906 1.80465L4.82399 2.02216C4.74729 2.02743 4.67089 2.0364 4.59506 2.04904L4.5592 1.83399Z"/>
</mask>
<path d="M4.5592 1.83399C4.64197 1.82019 4.72535 1.8104 4.80906 1.80465L4.82399 2.02216C4.74729 2.02743 4.67089 2.0364 4.59506 2.04904L4.5592 1.83399Z" stroke="white" stroke-width="2" mask="url(#path-27-inside-24_2204_9056)"/>
<circle cx="2.41031" cy="2.41031" r="1.91031" transform="matrix(0.728167 0.685399 0.685399 -0.728167 1.85278 13.3665)" stroke="white"/>
<mask id="path-29-inside-25_2204_9056" fill="white">
<path d="M6.84396 15.329C6.33609 15.7185 5.70252 15.9073 5.06429 15.8592C4.42606 15.8111 3.82791 15.5296 3.3841 15.0685L3.5412 14.9173C3.94784 15.3398 4.49589 15.5978 5.08066 15.6418C5.66544 15.6858 6.24594 15.5129 6.71127 15.156L6.84396 15.329Z"/>
</mask>
<path d="M6.84396 15.329C6.33609 15.7185 5.70252 15.9073 5.06429 15.8592C4.42606 15.8111 3.82791 15.5296 3.3841 15.0685L3.5412 14.9173C3.94784 15.3398 4.49589 15.5978 5.08066 15.6418C5.66544 15.6858 6.24594 15.5129 6.71127 15.156L6.84396 15.329Z" stroke="white" stroke-width="2" mask="url(#path-29-inside-25_2204_9056)"/>
<mask id="path-30-inside-26_2204_9056" fill="white">
<path d="M6.92651 11.2639C7.33212 11.602 7.62532 12.0554 7.76719 12.564C7.90906 13.0727 7.8929 13.6124 7.72085 14.1116L7.51472 14.0406C7.67236 13.5832 7.68717 13.0886 7.55718 12.6226C7.42719 12.1566 7.15855 11.7411 6.78692 11.4313L6.92651 11.2639Z"/>
</mask>
<path d="M6.92651 11.2639C7.33212 11.602 7.62532 12.0554 7.76719 12.564C7.90906 13.0727 7.8929 13.6124 7.72085 14.1116L7.51472 14.0406C7.67236 13.5832 7.68717 13.0886 7.55718 12.6226C7.42719 12.1566 7.15855 11.7411 6.78692 11.4313L6.92651 11.2639Z" stroke="white" stroke-width="2" mask="url(#path-30-inside-26_2204_9056)"/>
<mask id="path-31-inside-27_2204_9056" fill="white">
<path d="M6.13613 10.8122C6.37705 10.8984 6.60396 11.0196 6.80953 11.1719L6.67973 11.3471C6.49138 11.2075 6.28347 11.0965 6.06273 11.0175L6.13613 10.8122Z"/>
</mask>
<path d="M6.13613 10.8122C6.37705 10.8984 6.60396 11.0196 6.80953 11.1719L6.67973 11.3471C6.49138 11.2075 6.28347 11.0965 6.06273 11.0175L6.13613 10.8122Z" stroke="white" stroke-width="2" mask="url(#path-31-inside-27_2204_9056)"/>
<mask id="path-32-inside-28_2204_9056" fill="white">
<path d="M5.18105 10.6615C5.43679 10.6537 5.69227 10.6838 5.93926 10.7505L5.88235 10.961C5.65605 10.8998 5.42197 10.8723 5.18765 10.8794L5.18105 10.6615Z"/>
</mask>
<path d="M5.18105 10.6615C5.43679 10.6537 5.69227 10.6838 5.93926 10.7505L5.88235 10.961C5.65605 10.8998 5.42197 10.8723 5.18765 10.8794L5.18105 10.6615Z" stroke="white" stroke-width="2" mask="url(#path-32-inside-28_2204_9056)"/>
<mask id="path-33-inside-29_2204_9056" fill="white">
<path d="M3.36426 11.4792C3.53963 11.2929 3.7415 11.1335 3.96336 11.0061L4.07195 11.1951C3.86866 11.3119 3.6837 11.458 3.52302 11.6287L3.36426 11.4792Z"/>
</mask>
<path d="M3.36426 11.4792C3.53963 11.2929 3.7415 11.1335 3.96336 11.0061L4.07195 11.1951C3.86866 11.3119 3.6837 11.458 3.52302 11.6287L3.36426 11.4792Z" stroke="white" stroke-width="2" mask="url(#path-33-inside-29_2204_9056)"/>
<mask id="path-34-inside-30_2204_9056" fill="white">
<path d="M3.28835 14.9634C3.12127 14.7696 2.98367 14.5522 2.87998 14.3183L3.0793 14.23C3.1743 14.4443 3.30038 14.6434 3.45347 14.821L3.28835 14.9634Z"/>
</mask>
<path d="M3.28835 14.9634C3.12127 14.7696 2.98367 14.5522 2.87998 14.3183L3.0793 14.23C3.1743 14.4443 3.30038 14.6434 3.45347 14.821L3.28835 14.9634Z" stroke="white" stroke-width="2" mask="url(#path-34-inside-30_2204_9056)"/>
<mask id="path-35-inside-31_2204_9056" fill="white">
<path d="M2.83811 14.2183C2.80688 14.1391 2.77955 14.0584 2.75622 13.9765L2.96591 13.9168C2.98728 13.9918 3.01232 14.0658 3.04094 14.1383L2.83811 14.2183Z"/>
</mask>
<path d="M2.83811 14.2183C2.80688 14.1391 2.77955 14.0584 2.75622 13.9765L2.96591 13.9168C2.98728 13.9918 3.01232 14.0658 3.04094 14.1383L2.83811 14.2183Z" stroke="white" stroke-width="2" mask="url(#path-35-inside-31_2204_9056)"/>
<mask id="path-36-inside-32_2204_9056" fill="white">
<path d="M4.83166 10.6957C4.91443 10.6819 4.99781 10.6722 5.08152 10.6664L5.09645 10.8839C5.01975 10.8892 4.94335 10.8982 4.86752 10.9108L4.83166 10.6957Z"/>
</mask>
<path d="M4.83166 10.6957C4.91443 10.6819 4.99781 10.6722 5.08152 10.6664L5.09645 10.8839C5.01975 10.8892 4.94335 10.8982 4.86752 10.9108L4.83166 10.6957Z" stroke="white" stroke-width="2" mask="url(#path-36-inside-32_2204_9056)"/>
<line y1="-0.5" x2="6.26917" y2="-0.5" transform="matrix(0.728502 0.685044 0.685044 -0.728502 20.1499 1.21161)" stroke="white"/>
<line y1="-0.5" x2="6.76814" y2="-0.5" transform="matrix(0.999607 0.0280181 0.0280181 -0.999607 16.8379 7.88959)" stroke="white"/>
<line y1="-0.5" x2="3.75429" y2="-0.5" transform="matrix(0.816182 0.577795 0.577795 -0.816182 7.02271 5.01031)" stroke="white"/>
<line y1="-0.5" x2="3.03575" y2="-0.5" transform="matrix(0.871572 -0.490268 -0.490268 -0.871572 7.35352 11.7904)" stroke="white"/>
<circle cx="2.41031" cy="2.41031" r="1.91031" transform="matrix(0.728167 0.685399 0.685399 -0.728167 10.6123 16.737)" stroke="white"/>
<mask id="path-42-inside-33_2204_9056" fill="white">
<path d="M15.6035 18.6995C15.0956 19.089 14.462 19.2778 13.8238 19.2297C13.1856 19.1816 12.5874 18.9001 12.1436 18.4389L12.3007 18.2878C12.7074 18.7103 13.2554 18.9682 13.8402 19.0123C14.425 19.0563 15.0055 18.8834 15.4708 18.5265L15.6035 18.6995Z"/>
</mask>
<path d="M15.6035 18.6995C15.0956 19.089 14.462 19.2778 13.8238 19.2297C13.1856 19.1816 12.5874 18.9001 12.1436 18.4389L12.3007 18.2878C12.7074 18.7103 13.2554 18.9682 13.8402 19.0123C14.425 19.0563 15.0055 18.8834 15.4708 18.5265L15.6035 18.6995Z" stroke="white" stroke-width="2" mask="url(#path-42-inside-33_2204_9056)"/>
<mask id="path-43-inside-34_2204_9056" fill="white">
<path d="M15.686 14.6343C16.0916 14.9724 16.3848 15.4259 16.5267 15.9345C16.6686 16.4431 16.6524 16.9829 16.4804 17.4821L16.2742 17.4111C16.4319 16.9537 16.4467 16.4591 16.3167 15.9931C16.1867 15.5271 15.9181 15.1116 15.5464 14.8018L15.686 14.6343Z"/>
</mask>
<path d="M15.686 14.6343C16.0916 14.9724 16.3848 15.4259 16.5267 15.9345C16.6686 16.4431 16.6524 16.9829 16.4804 17.4821L16.2742 17.4111C16.4319 16.9537 16.4467 16.4591 16.3167 15.9931C16.1867 15.5271 15.9181 15.1116 15.5464 14.8018L15.686 14.6343Z" stroke="white" stroke-width="2" mask="url(#path-43-inside-34_2204_9056)"/>
<mask id="path-44-inside-35_2204_9056" fill="white">
<path d="M14.8957 14.1827C15.1366 14.2689 15.3635 14.39 15.5691 14.5424L15.4393 14.7175C15.2509 14.578 15.043 14.4669 14.8223 14.388L14.8957 14.1827Z"/>
</mask>
<path d="M14.8957 14.1827C15.1366 14.2689 15.3635 14.39 15.5691 14.5424L15.4393 14.7175C15.2509 14.578 15.043 14.4669 14.8223 14.388L14.8957 14.1827Z" stroke="white" stroke-width="2" mask="url(#path-44-inside-35_2204_9056)"/>
<mask id="path-45-inside-36_2204_9056" fill="white">
<path d="M13.9406 14.032C14.1963 14.0242 14.4518 14.0542 14.6988 14.121L14.6419 14.3315C14.4156 14.2703 14.1815 14.2428 13.9472 14.2499L13.9406 14.032Z"/>
</mask>
<path d="M13.9406 14.032C14.1963 14.0242 14.4518 14.0542 14.6988 14.121L14.6419 14.3315C14.4156 14.2703 14.1815 14.2428 13.9472 14.2499L13.9406 14.032Z" stroke="white" stroke-width="2" mask="url(#path-45-inside-36_2204_9056)"/>
<mask id="path-46-inside-37_2204_9056" fill="white">
<path d="M12.1238 14.8497C12.2991 14.6634 12.501 14.504 12.7229 14.3766L12.8315 14.5656C12.6282 14.6824 12.4432 14.8285 12.2825 14.9992L12.1238 14.8497Z"/>
</mask>
<path d="M12.1238 14.8497C12.2991 14.6634 12.501 14.504 12.7229 14.3766L12.8315 14.5656C12.6282 14.6824 12.4432 14.8285 12.2825 14.9992L12.1238 14.8497Z" stroke="white" stroke-width="2" mask="url(#path-46-inside-37_2204_9056)"/>
<mask id="path-47-inside-38_2204_9056" fill="white">
<path d="M12.0479 18.3338C11.8808 18.1401 11.7432 17.9227 11.6395 17.6888L11.8388 17.6005C11.9338 17.8148 12.0599 18.0139 12.213 18.1915L12.0479 18.3338Z"/>
</mask>
<path d="M12.0479 18.3338C11.8808 18.1401 11.7432 17.9227 11.6395 17.6888L11.8388 17.6005C11.9338 17.8148 12.0599 18.0139 12.213 18.1915L12.0479 18.3338Z" stroke="white" stroke-width="2" mask="url(#path-47-inside-38_2204_9056)"/>
<mask id="path-48-inside-39_2204_9056" fill="white">
<path d="M11.5976 17.5888C11.5664 17.5096 11.5391 17.4289 11.5157 17.347L11.7254 17.2873C11.7468 17.3623 11.7718 17.4362 11.8005 17.5088L11.5976 17.5888Z"/>
</mask>
<path d="M11.5976 17.5888C11.5664 17.5096 11.5391 17.4289 11.5157 17.347L11.7254 17.2873C11.7468 17.3623 11.7718 17.4362 11.8005 17.5088L11.5976 17.5888Z" stroke="white" stroke-width="2" mask="url(#path-48-inside-39_2204_9056)"/>
<mask id="path-49-inside-40_2204_9056" fill="white">
<path d="M13.5912 14.0662C13.6739 14.0524 13.7573 14.0426 13.841 14.0369L13.856 14.2544C13.7793 14.2597 13.7029 14.2686 13.627 14.2813L13.5912 14.0662Z"/>
</mask>
<path d="M13.5912 14.0662C13.6739 14.0524 13.7573 14.0426 13.841 14.0369L13.856 14.2544C13.7793 14.2597 13.7029 14.2686 13.627 14.2813L13.5912 14.0662Z" stroke="white" stroke-width="2" mask="url(#path-49-inside-40_2204_9056)"/>
<line y1="-0.5" x2="2.65468" y2="-0.5" transform="matrix(-0.168565 -0.985691 -0.985691 0.168565 13.5256 14.5675)" stroke="white"/>
</svg>
