<svg width="166" height="130" viewBox="0 0 166 130" fill="none" xmlns="http://www.w3.org/2000/svg">
<circle cx="16.6867" cy="16.6867" r="16.1867" transform="matrix(0.506003 0.862531 0.862531 -0.506003 108.725 60.0024)" stroke="#333333"/>
<mask id="path-2-inside-1_2202_15204" fill="white">
<path d="M138.064 82.7592C133.932 84.358 129.355 84.3784 125.209 82.8163C121.062 81.2543 117.636 78.2194 115.586 74.2913L116.924 73.5928C118.803 77.1919 121.941 79.9726 125.741 81.4038C129.54 82.835 133.733 82.8164 137.52 81.3515L138.064 82.7592Z"/>
</mask>
<path d="M138.064 82.7592C133.932 84.358 129.355 84.3784 125.209 82.8163C121.062 81.2543 117.636 78.2194 115.586 74.2913L116.924 73.5928C118.803 77.1919 121.941 79.9726 125.741 81.4038C129.54 82.835 133.733 82.8164 137.52 81.3515L138.064 82.7592Z" stroke="#333333" stroke-width="2" mask="url(#path-2-inside-1_2202_15204)"/>
<mask id="path-3-inside-2_2202_15204" fill="white">
<path d="M146.528 55.9126C148.565 58.9485 149.63 62.532 149.582 66.1873C149.534 69.8427 148.376 73.3971 146.261 76.3787L145.029 75.5054C146.967 72.7735 148.029 69.5168 148.073 66.1676C148.116 62.8184 147.141 59.5351 145.275 56.7534L146.528 55.9126Z"/>
</mask>
<path d="M146.528 55.9126C148.565 58.9485 149.63 62.532 149.582 66.1873C149.534 69.8427 148.376 73.3971 146.261 76.3787L145.029 75.5054C146.967 72.7735 148.029 69.5168 148.073 66.1676C148.116 62.8184 147.141 59.5351 145.275 56.7534L146.528 55.9126Z" stroke="#333333" stroke-width="2" mask="url(#path-3-inside-2_2202_15204)"/>
<mask id="path-4-inside-3_2202_15204" fill="white">
<path d="M142.157 51.3733C143.59 52.4146 144.861 53.6615 145.93 55.0738L144.727 55.9848C143.747 54.6909 142.582 53.5484 141.269 52.5943L142.157 51.3733Z"/>
</mask>
<path d="M142.157 51.3733C143.59 52.4146 144.861 53.6615 145.93 55.0738L144.727 55.9848C143.747 54.6909 142.582 53.5484 141.269 52.5943L142.157 51.3733Z" stroke="#333333" stroke-width="2" mask="url(#path-4-inside-3_2202_15204)"/>
<mask id="path-5-inside-4_2202_15204" fill="white">
<path d="M136.105 48.512C137.819 48.9586 139.458 49.6554 140.969 50.58L140.181 51.8674C138.797 51.0203 137.295 50.3818 135.725 49.9727L136.105 48.512Z"/>
</mask>
<path d="M136.105 48.512C137.819 48.9586 139.458 49.6554 140.969 50.58L140.181 51.8674C138.797 51.0203 137.295 50.3818 135.725 49.9727L136.105 48.512Z" stroke="#333333" stroke-width="2" mask="url(#path-5-inside-4_2202_15204)"/>
<mask id="path-6-inside-5_2202_15204" fill="white">
<path d="M122.443 50.4073C123.97 49.5111 125.622 48.8449 127.344 48.4304L127.697 49.8979C126.12 50.2777 124.606 50.888 123.206 51.7093L122.443 50.4073Z"/>
</mask>
<path d="M122.443 50.4073C123.97 49.5111 125.622 48.8449 127.344 48.4304L127.697 49.8979C126.12 50.2777 124.606 50.888 123.206 51.7093L122.443 50.4073Z" stroke="#333333" stroke-width="2" mask="url(#path-6-inside-5_2202_15204)"/>
<mask id="path-7-inside-6_2202_15204" fill="white">
<path d="M115.154 73.4067C114.422 71.794 113.931 70.0822 113.697 68.3263L115.193 68.1274C115.407 69.7362 115.857 71.3047 116.529 72.7823L115.154 73.4067Z"/>
</mask>
<path d="M115.154 73.4067C114.422 71.794 113.931 70.0822 113.697 68.3263L115.193 68.1274C115.407 69.7362 115.857 71.3047 116.529 72.7823L115.154 73.4067Z" stroke="#333333" stroke-width="2" mask="url(#path-7-inside-6_2202_15204)"/>
<mask id="path-8-inside-7_2202_15204" fill="white">
<path d="M113.614 67.5803C113.561 66.9932 113.536 66.4038 113.541 65.8143L115.05 65.8258C115.046 66.3659 115.068 66.9059 115.117 67.4439L113.614 67.5803Z"/>
</mask>
<path d="M113.614 67.5803C113.561 66.9932 113.536 66.4038 113.541 65.8143L115.05 65.8258C115.046 66.3659 115.068 66.9059 115.117 67.4439L113.614 67.5803Z" stroke="#333333" stroke-width="2" mask="url(#path-8-inside-7_2202_15204)"/>
<mask id="path-9-inside-8_2202_15204" fill="white">
<path d="M133.717 48.0593C134.294 48.1288 134.867 48.2261 135.434 48.3509L135.11 49.8251C134.59 49.7107 134.065 49.6215 133.537 49.5579L133.717 48.0593Z"/>
</mask>
<path d="M133.717 48.0593C134.294 48.1288 134.867 48.2261 135.434 48.3509L135.11 49.8251C134.59 49.7107 134.065 49.6215 133.537 49.5579L133.717 48.0593Z" stroke="#333333" stroke-width="2" mask="url(#path-9-inside-8_2202_15204)"/>
<circle cx="16.6867" cy="16.6867" r="16.1867" transform="matrix(0.506003 0.862531 0.862531 -0.506003 45.5215 44.5903)" stroke="#333333"/>
<mask id="path-11-inside-9_2202_15204" fill="white">
<path d="M74.8606 67.3471C70.7281 68.9459 66.1514 68.9663 62.0048 67.4042C57.8582 65.8422 54.4325 62.8073 52.382 58.8792L53.72 58.1807C55.5988 61.7798 58.7376 64.5605 62.5369 65.9917C66.3362 67.4229 70.5295 67.4043 74.3159 65.9394L74.8606 67.3471Z"/>
</mask>
<path d="M74.8606 67.3471C70.7281 68.9459 66.1514 68.9663 62.0048 67.4042C57.8582 65.8422 54.4325 62.8073 52.382 58.8792L53.72 58.1807C55.5988 61.7798 58.7376 64.5605 62.5369 65.9917C66.3362 67.4229 70.5295 67.4043 74.3159 65.9394L74.8606 67.3471Z" stroke="#333333" stroke-width="2" mask="url(#path-11-inside-9_2202_15204)"/>
<mask id="path-12-inside-10_2202_15204" fill="white">
<path d="M83.3245 40.5005C85.3609 43.5364 86.4258 47.1199 86.378 50.7752C86.3302 54.4306 85.1718 57.985 83.0567 60.9666L81.8256 60.0933C83.7636 57.3614 84.8249 54.1047 84.8687 50.7555C84.9125 47.4063 83.9368 44.123 82.0709 41.3413L83.3245 40.5005Z"/>
</mask>
<path d="M83.3245 40.5005C85.3609 43.5364 86.4258 47.1199 86.378 50.7752C86.3302 54.4306 85.1718 57.985 83.0567 60.9666L81.8256 60.0933C83.7636 57.3614 84.8249 54.1047 84.8687 50.7555C84.9125 47.4063 83.9368 44.123 82.0709 41.3413L83.3245 40.5005Z" stroke="#333333" stroke-width="2" mask="url(#path-12-inside-10_2202_15204)"/>
<mask id="path-13-inside-11_2202_15204" fill="white">
<path d="M78.9528 35.9612C80.3857 37.0025 81.6572 38.2494 82.7263 39.6617L81.5229 40.5727C80.5433 39.2788 79.3783 38.1363 78.0654 37.1822L78.9528 35.9612Z"/>
</mask>
<path d="M78.9528 35.9612C80.3857 37.0025 81.6572 38.2494 82.7263 39.6617L81.5229 40.5727C80.5433 39.2788 79.3783 38.1363 78.0654 37.1822L78.9528 35.9612Z" stroke="#333333" stroke-width="2" mask="url(#path-13-inside-11_2202_15204)"/>
<mask id="path-14-inside-12_2202_15204" fill="white">
<path d="M72.9012 33.0999C74.6153 33.5465 76.2542 34.2433 77.765 35.1679L76.9771 36.4553C75.5928 35.6082 74.0912 34.9697 72.5207 34.5606L72.9012 33.0999Z"/>
</mask>
<path d="M72.9012 33.0999C74.6153 33.5465 76.2542 34.2433 77.765 35.1679L76.9771 36.4553C75.5928 35.6082 74.0912 34.9697 72.5207 34.5606L72.9012 33.0999Z" stroke="#333333" stroke-width="2" mask="url(#path-14-inside-12_2202_15204)"/>
<mask id="path-15-inside-13_2202_15204" fill="white">
<path d="M59.2388 34.9952C60.7666 34.0989 62.4182 33.4328 64.1404 33.0183L64.4936 34.4858C62.9157 34.8656 61.4024 35.4759 60.0026 36.2971L59.2388 34.9952Z"/>
</mask>
<path d="M59.2388 34.9952C60.7666 34.0989 62.4182 33.4328 64.1404 33.0183L64.4936 34.4858C62.9157 34.8656 61.4024 35.4759 60.0026 36.2971L59.2388 34.9952Z" stroke="#333333" stroke-width="2" mask="url(#path-15-inside-13_2202_15204)"/>
<mask id="path-16-inside-14_2202_15204" fill="white">
<path d="M51.9505 57.9945C51.2177 56.3819 50.7267 54.67 50.4933 52.9142L51.9896 52.7153C52.2034 54.3241 52.6533 55.8926 53.3247 57.3701L51.9505 57.9945Z"/>
</mask>
<path d="M51.9505 57.9945C51.2177 56.3819 50.7267 54.67 50.4933 52.9142L51.9896 52.7153C52.2034 54.3241 52.6533 55.8926 53.3247 57.3701L51.9505 57.9945Z" stroke="#333333" stroke-width="2" mask="url(#path-16-inside-14_2202_15204)"/>
<mask id="path-17-inside-15_2202_15204" fill="white">
<path d="M50.4099 52.1681C50.3567 51.5811 50.3322 50.9917 50.3367 50.4022L51.8461 50.4137C51.842 50.9538 51.8644 51.4938 51.9132 52.0317L50.4099 52.1681Z"/>
</mask>
<path d="M50.4099 52.1681C50.3567 51.5811 50.3322 50.9917 50.3367 50.4022L51.8461 50.4137C51.842 50.9538 51.8644 51.4938 51.9132 52.0317L50.4099 52.1681Z" stroke="#333333" stroke-width="2" mask="url(#path-17-inside-15_2202_15204)"/>
<mask id="path-18-inside-16_2202_15204" fill="white">
<path d="M70.5133 32.6472C71.09 32.7167 71.663 32.814 72.2303 32.9388L71.906 34.4129C71.3862 34.2986 70.8612 34.2094 70.3327 34.1457L70.5133 32.6472Z"/>
</mask>
<path d="M70.5133 32.6472C71.09 32.7167 71.663 32.814 72.2303 32.9388L71.906 34.4129C71.3862 34.2986 70.8612 34.2094 70.3327 34.1457L70.5133 32.6472Z" stroke="#333333" stroke-width="2" mask="url(#path-18-inside-16_2202_15204)"/>
<circle cx="11.1245" cy="11.1245" r="10.6245" transform="matrix(0.506003 0.862531 0.862531 -0.506003 23.1619 18.001)" stroke="#333333"/>
<mask id="path-20-inside-17_2202_15204" fill="white">
<path d="M42.7212 33.1721C39.9662 34.238 36.915 34.2516 34.1507 33.2102C31.3863 32.1689 29.1024 30.1456 27.7354 27.5269L28.6275 27.0612C29.88 29.4606 31.9725 31.3144 34.5054 32.2686C37.0382 33.2227 39.8338 33.2103 42.3581 32.2337L42.7212 33.1721Z"/>
</mask>
<path d="M42.7212 33.1721C39.9662 34.238 36.915 34.2516 34.1507 33.2102C31.3863 32.1689 29.1024 30.1456 27.7354 27.5269L28.6275 27.0612C29.88 29.4606 31.9725 31.3144 34.5054 32.2686C37.0382 33.2227 39.8338 33.2103 42.3581 32.2337L42.7212 33.1721Z" stroke="#333333" stroke-width="2" mask="url(#path-20-inside-17_2202_15204)"/>
<mask id="path-21-inside-18_2202_15204" fill="white">
<path d="M48.3638 15.2744C49.7214 17.2984 50.4313 19.6873 50.3995 22.1242C50.3676 24.5611 49.5953 26.9307 48.1853 28.9185L47.3645 28.3363C48.6565 26.515 49.3641 24.3439 49.3933 22.1111C49.4225 19.8783 48.772 17.6894 47.5281 15.835L48.3638 15.2744Z"/>
</mask>
<path d="M48.3638 15.2744C49.7214 17.2984 50.4313 19.6873 50.3995 22.1242C50.3676 24.5611 49.5953 26.9307 48.1853 28.9185L47.3645 28.3363C48.6565 26.515 49.3641 24.3439 49.3933 22.1111C49.4225 19.8783 48.772 17.6894 47.5281 15.835L48.3638 15.2744Z" stroke="#333333" stroke-width="2" mask="url(#path-21-inside-18_2202_15204)"/>
<mask id="path-22-inside-19_2202_15204" fill="white">
<path d="M45.4493 12.2482C46.4046 12.9424 47.2523 13.7737 47.965 14.7152L47.1627 15.3226C46.5097 14.4599 45.733 13.6983 44.8577 13.0622L45.4493 12.2482Z"/>
</mask>
<path d="M45.4493 12.2482C46.4046 12.9424 47.2523 13.7737 47.965 14.7152L47.1627 15.3226C46.5097 14.4599 45.733 13.6983 44.8577 13.0622L45.4493 12.2482Z" stroke="#333333" stroke-width="2" mask="url(#path-22-inside-19_2202_15204)"/>
<mask id="path-23-inside-20_2202_15204" fill="white">
<path d="M41.4149 10.3407C42.5576 10.6384 43.6502 11.1029 44.6575 11.7193L44.1322 12.5776C43.2093 12.0129 42.2083 11.5872 41.1612 11.3145L41.4149 10.3407Z"/>
</mask>
<path d="M41.4149 10.3407C42.5576 10.6384 43.6502 11.1029 44.6575 11.7193L44.1322 12.5776C43.2093 12.0129 42.2083 11.5872 41.1612 11.3145L41.4149 10.3407Z" stroke="#333333" stroke-width="2" mask="url(#path-23-inside-20_2202_15204)"/>
<mask id="path-24-inside-21_2202_15204" fill="white">
<path d="M32.3067 11.6042C33.3252 11.0067 34.4263 10.5626 35.5744 10.2863L35.8099 11.2646C34.7579 11.5178 33.7491 11.9247 32.8159 12.4722L32.3067 11.6042Z"/>
</mask>
<path d="M32.3067 11.6042C33.3252 11.0067 34.4263 10.5626 35.5744 10.2863L35.8099 11.2646C34.7579 11.5178 33.7491 11.9247 32.8159 12.4722L32.3067 11.6042Z" stroke="#333333" stroke-width="2" mask="url(#path-24-inside-21_2202_15204)"/>
<mask id="path-25-inside-22_2202_15204" fill="white">
<path d="M27.4478 26.9371C26.9593 25.862 26.632 24.7208 26.4764 23.5502L27.4738 23.4176C27.6164 24.4901 27.9163 25.5358 28.3639 26.5209L27.4478 26.9371Z"/>
</mask>
<path d="M27.4478 26.9371C26.9593 25.862 26.632 24.7208 26.4764 23.5502L27.4738 23.4176C27.6164 24.4901 27.9163 25.5358 28.3639 26.5209L27.4478 26.9371Z" stroke="#333333" stroke-width="2" mask="url(#path-25-inside-22_2202_15204)"/>
<mask id="path-26-inside-23_2202_15204" fill="white">
<path d="M26.4208 23.0529C26.3852 22.6615 26.3689 22.2686 26.3719 21.8756L27.3782 21.8832C27.3754 22.2433 27.3904 22.6033 27.4229 22.9619L26.4208 23.0529Z"/>
</mask>
<path d="M26.4208 23.0529C26.3852 22.6615 26.3689 22.2686 26.3719 21.8756L27.3782 21.8832C27.3754 22.2433 27.3904 22.6033 27.4229 22.9619L26.4208 23.0529Z" stroke="#333333" stroke-width="2" mask="url(#path-26-inside-23_2202_15204)"/>
<mask id="path-27-inside-24_2202_15204" fill="white">
<path d="M39.823 10.0389C40.2075 10.0852 40.5895 10.1501 40.9677 10.2333L40.7515 11.216C40.4049 11.1398 40.0549 11.0804 39.7026 11.0379L39.823 10.0389Z"/>
</mask>
<path d="M39.823 10.0389C40.2075 10.0852 40.5895 10.1501 40.9677 10.2333L40.7515 11.216C40.4049 11.1398 40.0549 11.0804 39.7026 11.0379L39.823 10.0389Z" stroke="#333333" stroke-width="2" mask="url(#path-27-inside-24_2202_15204)"/>
<circle cx="11.1245" cy="11.1245" r="10.6245" transform="matrix(0.506003 0.862531 0.862531 -0.506003 12.865 57.604)" stroke="#333333"/>
<mask id="path-29-inside-25_2202_15204" fill="white">
<path d="M32.4243 72.7752C29.6693 73.8411 26.6182 73.8546 23.8538 72.8133C21.0894 71.7719 18.8056 69.7486 17.4386 67.1299L18.3306 66.6643C19.5831 69.0636 21.6757 70.9175 24.2085 71.8716C26.7414 72.8257 29.5369 72.8133 32.0612 71.8367L32.4243 72.7752Z"/>
</mask>
<path d="M32.4243 72.7752C29.6693 73.8411 26.6182 73.8546 23.8538 72.8133C21.0894 71.7719 18.8056 69.7486 17.4386 67.1299L18.3306 66.6643C19.5831 69.0636 21.6757 70.9175 24.2085 71.8716C26.7414 72.8257 29.5369 72.8133 32.0612 71.8367L32.4243 72.7752Z" stroke="#333333" stroke-width="2" mask="url(#path-29-inside-25_2202_15204)"/>
<mask id="path-30-inside-26_2202_15204" fill="white">
<path d="M38.0669 54.8774C39.4245 56.9014 40.1345 59.2904 40.1026 61.7273C40.0707 64.1642 39.2985 66.5338 37.8884 68.5215L37.0677 67.9393C38.3596 66.118 39.0672 63.9469 39.0964 61.7141C39.1256 59.4813 38.4751 57.2924 37.2312 55.438L38.0669 54.8774Z"/>
</mask>
<path d="M38.0669 54.8774C39.4245 56.9014 40.1345 59.2904 40.1026 61.7273C40.0707 64.1642 39.2985 66.5338 37.8884 68.5215L37.0677 67.9393C38.3596 66.118 39.0672 63.9469 39.0964 61.7141C39.1256 59.4813 38.4751 57.2924 37.2312 55.438L38.0669 54.8774Z" stroke="#333333" stroke-width="2" mask="url(#path-30-inside-26_2202_15204)"/>
<mask id="path-31-inside-27_2202_15204" fill="white">
<path d="M35.1525 51.8512C36.1077 52.5455 36.9554 53.3767 37.6682 54.3182L36.8659 54.9256C36.2128 54.063 35.4361 53.3013 34.5609 52.6652L35.1525 51.8512Z"/>
</mask>
<path d="M35.1525 51.8512C36.1077 52.5455 36.9554 53.3767 37.6682 54.3182L36.8659 54.9256C36.2128 54.063 35.4361 53.3013 34.5609 52.6652L35.1525 51.8512Z" stroke="#333333" stroke-width="2" mask="url(#path-31-inside-27_2202_15204)"/>
<mask id="path-32-inside-28_2202_15204" fill="white">
<path d="M31.118 49.9437C32.2608 50.2414 33.3534 50.706 34.3606 51.3224L33.8353 52.1807C32.9125 51.6159 31.9114 51.1903 30.8644 50.9175L31.118 49.9437Z"/>
</mask>
<path d="M31.118 49.9437C32.2608 50.2414 33.3534 50.706 34.3606 51.3224L33.8353 52.1807C32.9125 51.6159 31.9114 51.1903 30.8644 50.9175L31.118 49.9437Z" stroke="#333333" stroke-width="2" mask="url(#path-32-inside-28_2202_15204)"/>
<mask id="path-33-inside-29_2202_15204" fill="white">
<path d="M22.0098 51.2073C23.0283 50.6097 24.1294 50.1656 25.2775 49.8893L25.513 50.8676C24.4611 51.1208 23.4522 51.5277 22.519 52.0752L22.0098 51.2073Z"/>
</mask>
<path d="M22.0098 51.2073C23.0283 50.6097 24.1294 50.1656 25.2775 49.8893L25.513 50.8676C24.4611 51.1208 23.4522 51.5277 22.519 52.0752L22.0098 51.2073Z" stroke="#333333" stroke-width="2" mask="url(#path-33-inside-29_2202_15204)"/>
<mask id="path-34-inside-30_2202_15204" fill="white">
<path d="M17.1509 66.5401C16.6624 65.4651 16.3351 64.3238 16.1795 63.1532L17.177 63.0206C17.3195 64.0932 17.6195 65.1388 18.067 66.1239L17.1509 66.5401Z"/>
</mask>
<path d="M17.1509 66.5401C16.6624 65.4651 16.3351 64.3238 16.1795 63.1532L17.177 63.0206C17.3195 64.0932 17.6195 65.1388 18.067 66.1239L17.1509 66.5401Z" stroke="#333333" stroke-width="2" mask="url(#path-34-inside-30_2202_15204)"/>
<mask id="path-35-inside-31_2202_15204" fill="white">
<path d="M16.1239 62.6559C16.0884 62.2645 16.0721 61.8716 16.0751 61.4786L17.0813 61.4863C17.0786 61.8463 17.0935 62.2063 17.126 62.5649L16.1239 62.6559Z"/>
</mask>
<path d="M16.1239 62.6559C16.0884 62.2645 16.0721 61.8716 16.0751 61.4786L17.0813 61.4863C17.0786 61.8463 17.0935 62.2063 17.126 62.5649L16.1239 62.6559Z" stroke="#333333" stroke-width="2" mask="url(#path-35-inside-31_2202_15204)"/>
<mask id="path-36-inside-32_2202_15204" fill="white">
<path d="M29.5261 49.6419C29.9106 49.6882 30.2926 49.7531 30.6708 49.8363L30.4546 50.8191C30.108 50.7428 29.758 50.6834 29.4057 50.6409L29.5261 49.6419Z"/>
</mask>
<path d="M29.5261 49.6419C29.9106 49.6882 30.2926 49.7531 30.6708 49.8363L30.4546 50.8191C30.108 50.7428 29.758 50.6834 29.4057 50.6409L29.5261 49.6419Z" stroke="#333333" stroke-width="2" mask="url(#path-36-inside-32_2202_15204)"/>
<line y1="-0.5" x2="28.9346" y2="-0.5" transform="matrix(0.506424 0.862285 0.862285 -0.506424 109.684 27.521)" stroke="#333333"/>
<line y1="-0.5" x2="31.2376" y2="-0.5" transform="matrix(0.951377 0.30803 0.30803 -0.951377 86.3455 52.7983)" stroke="#333333"/>
<line y1="-0.5" x2="17.3275" y2="-0.5" transform="matrix(0.620729 0.784025 0.784025 -0.620729 46.6113 27.3052)" stroke="#333333"/>
<line y1="-0.5" x2="14.0111" y2="-0.5" transform="matrix(0.974279 -0.225346 -0.225346 -0.974279 39.2751 57.7642)" stroke="#333333"/>
<circle cx="11.1245" cy="11.1245" r="10.6245" transform="matrix(0.506003 0.862531 0.862531 -0.506003 47.2871 83.9033)" stroke="#333333"/>
<mask id="path-42-inside-33_2202_15204" fill="white">
<path d="M66.8464 99.0745C64.0914 100.14 61.0403 100.154 58.2759 99.1126C55.5115 98.0712 53.2277 96.0479 51.8607 93.4293L52.7527 92.9636C54.0052 95.3629 56.0978 97.2168 58.6306 98.1709C61.1635 99.1251 63.9591 99.1126 66.4833 98.136L66.8464 99.0745Z"/>
</mask>
<path d="M66.8464 99.0745C64.0914 100.14 61.0403 100.154 58.2759 99.1126C55.5115 98.0712 53.2277 96.0479 51.8607 93.4293L52.7527 92.9636C54.0052 95.3629 56.0978 97.2168 58.6306 98.1709C61.1635 99.1251 63.9591 99.1126 66.4833 98.136L66.8464 99.0745Z" stroke="#333333" stroke-width="2" mask="url(#path-42-inside-33_2202_15204)"/>
<mask id="path-43-inside-34_2202_15204" fill="white">
<path d="M72.489 81.1768C73.8466 83.2007 74.5566 85.5897 74.5247 88.0266C74.4928 90.4635 73.7206 92.8331 72.3105 94.8208L71.4898 94.2386C72.7818 92.4173 73.4893 90.2462 73.5185 88.0134C73.5477 85.7806 72.8972 83.5917 71.6533 81.7373L72.489 81.1768Z"/>
</mask>
<path d="M72.489 81.1768C73.8466 83.2007 74.5566 85.5897 74.5247 88.0266C74.4928 90.4635 73.7206 92.8331 72.3105 94.8208L71.4898 94.2386C72.7818 92.4173 73.4893 90.2462 73.5185 88.0134C73.5477 85.7806 72.8972 83.5917 71.6533 81.7373L72.489 81.1768Z" stroke="#333333" stroke-width="2" mask="url(#path-43-inside-34_2202_15204)"/>
<mask id="path-44-inside-35_2202_15204" fill="white">
<path d="M69.5746 78.1505C70.5298 78.8448 71.3775 79.676 72.0903 80.6175L71.288 81.2249C70.6349 80.3623 69.8582 79.6006 68.983 78.9645L69.5746 78.1505Z"/>
</mask>
<path d="M69.5746 78.1505C70.5298 78.8448 71.3775 79.676 72.0903 80.6175L71.288 81.2249C70.6349 80.3623 69.8582 79.6006 68.983 78.9645L69.5746 78.1505Z" stroke="#333333" stroke-width="2" mask="url(#path-44-inside-35_2202_15204)"/>
<mask id="path-45-inside-36_2202_15204" fill="white">
<path d="M65.5402 76.243C66.6829 76.5407 67.7755 77.0053 68.7827 77.6217L68.2574 78.48C67.3346 77.9152 66.3335 77.4896 65.2865 77.2168L65.5402 76.243Z"/>
</mask>
<path d="M65.5402 76.243C66.6829 76.5407 67.7755 77.0053 68.7827 77.6217L68.2574 78.48C67.3346 77.9152 66.3335 77.4896 65.2865 77.2168L65.5402 76.243Z" stroke="#333333" stroke-width="2" mask="url(#path-45-inside-36_2202_15204)"/>
<mask id="path-46-inside-37_2202_15204" fill="white">
<path d="M56.4319 77.5066C57.4505 76.9091 58.5515 76.465 59.6996 76.1886L59.9351 77.1669C58.8832 77.4201 57.8743 77.827 56.9411 78.3745L56.4319 77.5066Z"/>
</mask>
<path d="M56.4319 77.5066C57.4505 76.9091 58.5515 76.465 59.6996 76.1886L59.9351 77.1669C58.8832 77.4201 57.8743 77.827 56.9411 78.3745L56.4319 77.5066Z" stroke="#333333" stroke-width="2" mask="url(#path-46-inside-37_2202_15204)"/>
<mask id="path-47-inside-38_2202_15204" fill="white">
<path d="M51.573 92.8395C51.0845 91.7644 50.7572 90.6231 50.6016 89.4526L51.5991 89.32C51.7417 90.3925 52.0416 91.4381 52.4891 92.4232L51.573 92.8395Z"/>
</mask>
<path d="M51.573 92.8395C51.0845 91.7644 50.7572 90.6231 50.6016 89.4526L51.5991 89.32C51.7417 90.3925 52.0416 91.4381 52.4891 92.4232L51.573 92.8395Z" stroke="#333333" stroke-width="2" mask="url(#path-47-inside-38_2202_15204)"/>
<mask id="path-48-inside-39_2202_15204" fill="white">
<path d="M50.546 88.9552C50.5105 88.5638 50.4942 88.1709 50.4972 87.7779L51.5034 87.7856C51.5007 88.1457 51.5156 88.5056 51.5481 88.8643L50.546 88.9552Z"/>
</mask>
<path d="M50.546 88.9552C50.5105 88.5638 50.4942 88.1709 50.4972 87.7779L51.5034 87.7856C51.5007 88.1457 51.5156 88.5056 51.5481 88.8643L50.546 88.9552Z" stroke="#333333" stroke-width="2" mask="url(#path-48-inside-39_2202_15204)"/>
<mask id="path-49-inside-40_2202_15204" fill="white">
<path d="M63.9482 75.9412C64.3327 75.9875 64.7147 76.0524 65.0929 76.1356L64.8767 77.1184C64.5302 77.0421 64.1801 76.9827 63.8279 76.9403L63.9482 75.9412Z"/>
</mask>
<path d="M63.9482 75.9412C64.3327 75.9875 64.7147 76.0524 65.0929 76.1356L64.8767 77.1184C64.5302 77.0421 64.1801 76.9827 63.8279 76.9403L63.9482 75.9412Z" stroke="#333333" stroke-width="2" mask="url(#path-49-inside-40_2202_15204)"/>
<line y1="-0.5" x2="12.2524" y2="-0.5" transform="matrix(0.115468 -0.993311 -0.993311 -0.115468 63.0071 78.0762)" stroke="#333333"/>
</svg>
