<svg width="148" height="94" viewBox="0 0 148 94" fill="none" xmlns="http://www.w3.org/2000/svg">
<circle cx="16.6867" cy="16.6867" r="16.1867" transform="matrix(0.728167 0.685399 0.685399 -0.728167 97.1768 34.1475)" stroke="#333333"/>
<mask id="path-2-inside-1_2202_15509" fill="white">
<path d="M131.732 47.7341C128.216 50.4307 123.83 51.7374 119.411 51.4046C114.993 51.0719 110.851 49.123 107.779 45.9302L108.867 44.8836C111.682 47.8089 115.476 49.5946 119.524 49.8995C123.573 50.2044 127.592 49.0071 130.813 46.5364L131.732 47.7341Z"/>
</mask>
<path d="M131.732 47.7341C128.216 50.4307 123.83 51.7374 119.411 51.4046C114.993 51.0719 110.851 49.123 107.779 45.9302L108.867 44.8836C111.682 47.8089 115.476 49.5946 119.524 49.8995C123.573 50.2044 127.592 49.0071 130.813 46.5364L131.732 47.7341Z" stroke="#333333" stroke-width="2" mask="url(#path-2-inside-1_2202_15509)"/>
<mask id="path-3-inside-2_2202_15509" fill="white">
<path d="M132.303 19.5907C135.111 21.9313 137.141 25.0706 138.123 28.5919C139.106 32.1131 138.994 35.8498 137.803 39.3059L136.376 38.8141C137.467 35.6474 137.569 32.2237 136.67 28.9974C135.77 25.7711 133.91 22.8947 131.337 20.7501L132.303 19.5907Z"/>
</mask>
<path d="M132.303 19.5907C135.111 21.9313 137.141 25.0706 138.123 28.5919C139.106 32.1131 138.994 35.8498 137.803 39.3059L136.376 38.8141C137.467 35.6474 137.569 32.2237 136.67 28.9974C135.77 25.7711 133.91 22.8947 131.337 20.7501L132.303 19.5907Z" stroke="#333333" stroke-width="2" mask="url(#path-3-inside-2_2202_15509)"/>
<mask id="path-4-inside-3_2202_15509" fill="white">
<path d="M126.831 16.4641C128.499 17.0604 130.07 17.8994 131.493 18.9539L130.595 20.1667C129.291 19.2005 127.852 18.4318 126.323 17.8854L126.831 16.4641Z"/>
</mask>
<path d="M126.831 16.4641C128.499 17.0604 130.07 17.8994 131.493 18.9539L130.595 20.1667C129.291 19.2005 127.852 18.4318 126.323 17.8854L126.831 16.4641Z" stroke="#333333" stroke-width="2" mask="url(#path-4-inside-3_2202_15509)"/>
<mask id="path-5-inside-4_2202_15509" fill="white">
<path d="M120.219 15.4204C121.99 15.3668 123.759 15.5746 125.468 16.0369L125.074 17.494C123.508 17.0704 121.887 16.88 120.265 16.9291L120.219 15.4204Z"/>
</mask>
<path d="M120.219 15.4204C121.99 15.3668 123.759 15.5746 125.468 16.0369L125.074 17.494C123.508 17.0704 121.887 16.88 120.265 16.9291L120.219 15.4204Z" stroke="#333333" stroke-width="2" mask="url(#path-5-inside-4_2202_15509)"/>
<mask id="path-6-inside-5_2202_15509" fill="white">
<path d="M107.642 21.0818C108.856 19.792 110.253 18.6882 111.789 17.8061L112.541 19.115C111.134 19.9232 109.853 20.9346 108.741 22.1163L107.642 21.0818Z"/>
</mask>
<path d="M107.642 21.0818C108.856 19.792 110.253 18.6882 111.789 17.8061L112.541 19.115C111.134 19.9232 109.853 20.9346 108.741 22.1163L107.642 21.0818Z" stroke="#333333" stroke-width="2" mask="url(#path-6-inside-5_2202_15509)"/>
<mask id="path-7-inside-6_2202_15509" fill="white">
<path d="M107.116 45.2026C105.959 43.8611 105.007 42.3565 104.289 40.7371L105.669 40.1254C106.326 41.6092 107.199 42.9878 108.259 44.2169L107.116 45.2026Z"/>
</mask>
<path d="M107.116 45.2026C105.959 43.8611 105.007 42.3565 104.289 40.7371L105.669 40.1254C106.326 41.6092 107.199 42.9878 108.259 44.2169L107.116 45.2026Z" stroke="#333333" stroke-width="2" mask="url(#path-7-inside-6_2202_15509)"/>
<mask id="path-8-inside-7_2202_15509" fill="white">
<path d="M103.999 40.0447C103.783 39.4963 103.594 38.9376 103.432 38.3706L104.884 37.9571C105.032 38.4766 105.205 38.9885 105.403 39.491L103.999 40.0447Z"/>
</mask>
<path d="M103.999 40.0447C103.783 39.4963 103.594 38.9376 103.432 38.3706L104.884 37.9571C105.032 38.4766 105.205 38.9885 105.403 39.491L103.999 40.0447Z" stroke="#333333" stroke-width="2" mask="url(#path-8-inside-7_2202_15509)"/>
<mask id="path-9-inside-8_2202_15509" fill="white">
<path d="M117.801 15.6576C118.373 15.562 118.951 15.4943 119.53 15.4545L119.634 16.9603C119.103 16.9968 118.574 17.0589 118.049 17.1464L117.801 15.6576Z"/>
</mask>
<path d="M117.801 15.6576C118.373 15.562 118.951 15.4943 119.53 15.4545L119.634 16.9603C119.103 16.9968 118.574 17.0589 118.049 17.1464L117.801 15.6576Z" stroke="#333333" stroke-width="2" mask="url(#path-9-inside-8_2202_15509)"/>
<circle cx="16.6867" cy="16.6867" r="16.1867" transform="matrix(0.728167 0.685399 0.685399 -0.728167 32.1899 37.1333)" stroke="#333333"/>
<mask id="path-11-inside-9_2202_15509" fill="white">
<path d="M66.745 50.7199C63.2289 53.4165 58.8427 54.7232 54.4242 54.3905C50.0057 54.0577 45.8646 52.1088 42.7921 48.916L43.8797 47.8694C46.6949 50.7948 50.4891 52.5804 54.5376 52.8853C58.586 53.1902 62.6049 51.9929 65.8264 49.5222L66.745 50.7199Z"/>
</mask>
<path d="M66.745 50.7199C63.2289 53.4165 58.8427 54.7232 54.4242 54.3905C50.0057 54.0577 45.8646 52.1088 42.7921 48.916L43.8797 47.8694C46.6949 50.7948 50.4891 52.5804 54.5376 52.8853C58.586 53.1902 62.6049 51.9929 65.8264 49.5222L66.745 50.7199Z" stroke="#333333" stroke-width="2" mask="url(#path-11-inside-9_2202_15509)"/>
<mask id="path-12-inside-10_2202_15509" fill="white">
<path d="M67.3165 22.5765C70.1246 24.9172 72.1544 28.0565 73.1366 31.5777C74.1188 35.0989 74.0069 38.8356 72.8157 42.2918L71.3887 41.8C72.4801 38.6333 72.5826 35.2096 71.6827 31.9832C70.7828 28.7569 68.9229 25.8806 66.3501 23.7359L67.3165 22.5765Z"/>
</mask>
<path d="M67.3165 22.5765C70.1246 24.9172 72.1544 28.0565 73.1366 31.5777C74.1188 35.0989 74.0069 38.8356 72.8157 42.2918L71.3887 41.8C72.4801 38.6333 72.5826 35.2096 71.6827 31.9832C70.7828 28.7569 68.9229 25.8806 66.3501 23.7359L67.3165 22.5765Z" stroke="#333333" stroke-width="2" mask="url(#path-12-inside-10_2202_15509)"/>
<mask id="path-13-inside-11_2202_15509" fill="white">
<path d="M61.8446 19.45C63.5125 20.0463 65.0834 20.8852 66.5066 21.9398L65.608 23.1525C64.304 22.1863 62.8647 21.4176 61.3365 20.8713L61.8446 19.45Z"/>
</mask>
<path d="M61.8446 19.45C63.5125 20.0463 65.0834 20.8852 66.5066 21.9398L65.608 23.1525C64.304 22.1863 62.8647 21.4176 61.3365 20.8713L61.8446 19.45Z" stroke="#333333" stroke-width="2" mask="url(#path-13-inside-11_2202_15509)"/>
<mask id="path-14-inside-12_2202_15509" fill="white">
<path d="M55.2326 18.4063C57.0031 18.3527 58.7718 18.5604 60.4817 19.0228L60.0877 20.4799C58.521 20.0562 56.9004 19.8659 55.2782 19.915L55.2326 18.4063Z"/>
</mask>
<path d="M55.2326 18.4063C57.0031 18.3527 58.7718 18.5604 60.4817 19.0228L60.0877 20.4799C58.521 20.0562 56.9004 19.8659 55.2782 19.915L55.2326 18.4063Z" stroke="#333333" stroke-width="2" mask="url(#path-14-inside-12_2202_15509)"/>
<mask id="path-15-inside-13_2202_15509" fill="white">
<path d="M42.6548 24.0676C43.8688 22.7778 45.2664 21.6741 46.8024 20.7919L47.5541 22.1008C46.1468 22.9091 44.8662 23.9204 43.7539 25.1022L42.6548 24.0676Z"/>
</mask>
<path d="M42.6548 24.0676C43.8688 22.7778 45.2664 21.6741 46.8024 20.7919L47.5541 22.1008C46.1468 22.9091 44.8662 23.9204 43.7539 25.1022L42.6548 24.0676Z" stroke="#333333" stroke-width="2" mask="url(#path-15-inside-13_2202_15509)"/>
<mask id="path-16-inside-14_2202_15509" fill="white">
<path d="M42.1292 48.1884C40.9725 46.847 40.0199 45.3423 39.3021 43.723L40.682 43.1113C41.3397 44.595 42.2125 45.9736 43.2723 47.2027L42.1292 48.1884Z"/>
</mask>
<path d="M42.1292 48.1884C40.9725 46.847 40.0199 45.3423 39.3021 43.723L40.682 43.1113C41.3397 44.595 42.2125 45.9736 43.2723 47.2027L42.1292 48.1884Z" stroke="#333333" stroke-width="2" mask="url(#path-16-inside-14_2202_15509)"/>
<mask id="path-17-inside-15_2202_15509" fill="white">
<path d="M39.0122 43.0305C38.796 42.4821 38.6067 41.9234 38.4453 41.3565L39.8969 40.943C40.0449 41.4624 40.2182 41.9743 40.4164 42.4768L39.0122 43.0305Z"/>
</mask>
<path d="M39.0122 43.0305C38.796 42.4821 38.6067 41.9234 38.4453 41.3565L39.8969 40.943C40.0449 41.4624 40.2182 41.9743 40.4164 42.4768L39.0122 43.0305Z" stroke="#333333" stroke-width="2" mask="url(#path-17-inside-15_2202_15509)"/>
<mask id="path-18-inside-16_2202_15509" fill="white">
<path d="M52.8137 18.6434C53.3867 18.5479 53.964 18.4801 54.5435 18.4403L54.6468 19.9462C54.1159 19.9826 53.5869 20.0447 53.0619 20.1323L52.8137 18.6434Z"/>
</mask>
<path d="M52.8137 18.6434C53.3867 18.5479 53.964 18.4801 54.5435 18.4403L54.6468 19.9462C54.1159 19.9826 53.5869 20.0447 53.0619 20.1323L52.8137 18.6434Z" stroke="#333333" stroke-width="2" mask="url(#path-18-inside-16_2202_15509)"/>
<circle cx="11.1245" cy="11.1245" r="10.6245" transform="matrix(0.728167 0.685399 0.685399 -0.728167 3.25439 17.9067)" stroke="#333333"/>
<mask id="path-20-inside-17_2202_15509" fill="white">
<path d="M26.2909 26.9645C23.9469 28.7622 21.0227 29.6334 18.0771 29.4115C15.1314 29.1897 12.3707 27.8904 10.3224 25.7619L11.0474 25.0641C12.9242 27.0144 15.4537 28.2048 18.1526 28.4081C20.8516 28.6113 23.5308 27.8132 25.6785 26.166L26.2909 26.9645Z"/>
</mask>
<path d="M26.2909 26.9645C23.9469 28.7622 21.0227 29.6334 18.0771 29.4115C15.1314 29.1897 12.3707 27.8904 10.3224 25.7619L11.0474 25.0641C12.9242 27.0144 15.4537 28.2048 18.1526 28.4081C20.8516 28.6113 23.5308 27.8132 25.6785 26.166L26.2909 26.9645Z" stroke="#333333" stroke-width="2" mask="url(#path-20-inside-17_2202_15509)"/>
<mask id="path-21-inside-18_2202_15509" fill="white">
<path d="M26.6719 8.20221C28.544 9.76265 29.8972 11.8555 30.552 14.203C31.2068 16.5505 31.1322 19.0416 30.3381 21.3457L29.3867 21.0179C30.1143 18.9067 30.1827 16.6242 29.5827 14.4734C28.9828 12.3225 27.7429 10.4049 26.0277 8.97517L26.6719 8.20221Z"/>
</mask>
<path d="M26.6719 8.20221C28.544 9.76265 29.8972 11.8555 30.552 14.203C31.2068 16.5505 31.1322 19.0416 30.3381 21.3457L29.3867 21.0179C30.1143 18.9067 30.1827 16.6242 29.5827 14.4734C28.9828 12.3225 27.7429 10.4049 26.0277 8.97517L26.6719 8.20221Z" stroke="#333333" stroke-width="2" mask="url(#path-21-inside-18_2202_15509)"/>
<mask id="path-22-inside-19_2202_15509" fill="white">
<path d="M23.024 6.11785C24.136 6.51539 25.1832 7.07469 26.132 7.77771L25.5329 8.58622C24.6636 7.94208 23.7041 7.42963 22.6853 7.06538L23.024 6.11785Z"/>
</mask>
<path d="M23.024 6.11785C24.136 6.51539 25.1832 7.07469 26.132 7.77771L25.5329 8.58622C24.6636 7.94208 23.7041 7.42963 22.6853 7.06538L23.024 6.11785Z" stroke="#333333" stroke-width="2" mask="url(#path-22-inside-19_2202_15509)"/>
<mask id="path-23-inside-20_2202_15509" fill="white">
<path d="M18.616 5.42204C19.7963 5.38633 20.9755 5.52482 22.1154 5.83306L21.8527 6.80445C20.8083 6.52203 19.7279 6.39513 18.6464 6.42785L18.616 5.42204Z"/>
</mask>
<path d="M18.616 5.42204C19.7963 5.38633 20.9755 5.52482 22.1154 5.83306L21.8527 6.80445C20.8083 6.52203 19.7279 6.39513 18.6464 6.42785L18.616 5.42204Z" stroke="#333333" stroke-width="2" mask="url(#path-23-inside-20_2202_15509)"/>
<mask id="path-24-inside-21_2202_15509" fill="white">
<path d="M10.2308 9.1963C11.0402 8.33643 11.9719 7.60058 12.9959 7.01248L13.497 7.88508C12.5588 8.42392 11.7051 9.09814 10.9635 9.88599L10.2308 9.1963Z"/>
</mask>
<path d="M10.2308 9.1963C11.0402 8.33643 11.9719 7.60058 12.9959 7.01248L13.497 7.88508C12.5588 8.42392 11.7051 9.09814 10.9635 9.88599L10.2308 9.1963Z" stroke="#333333" stroke-width="2" mask="url(#path-24-inside-21_2202_15509)"/>
<mask id="path-25-inside-22_2202_15509" fill="white">
<path d="M9.88042 25.2768C9.10928 24.3825 8.47419 23.3794 7.99564 22.2998L8.91558 21.8921C9.35404 22.8812 9.93594 23.8003 10.6425 24.6197L9.88042 25.2768Z"/>
</mask>
<path d="M9.88042 25.2768C9.10928 24.3825 8.47419 23.3794 7.99564 22.2998L8.91558 21.8921C9.35404 22.8812 9.93594 23.8003 10.6425 24.6197L9.88042 25.2768Z" stroke="#333333" stroke-width="2" mask="url(#path-25-inside-22_2202_15509)"/>
<mask id="path-26-inside-23_2202_15509" fill="white">
<path d="M7.8024 21.8382C7.65824 21.4726 7.5321 21.1001 7.42444 20.7222L8.39222 20.4465C8.49086 20.7928 8.60644 21.1341 8.73853 21.4691L7.8024 21.8382Z"/>
</mask>
<path d="M7.8024 21.8382C7.65824 21.4726 7.5321 21.1001 7.42444 20.7222L8.39222 20.4465C8.49086 20.7928 8.60644 21.1341 8.73853 21.4691L7.8024 21.8382Z" stroke="#333333" stroke-width="2" mask="url(#path-26-inside-23_2202_15509)"/>
<mask id="path-27-inside-24_2202_15509" fill="white">
<path d="M17.0034 5.58014C17.3854 5.51645 17.7702 5.47126 18.1566 5.44475L18.2255 6.44865C17.8715 6.47295 17.5189 6.51435 17.1689 6.57271L17.0034 5.58014Z"/>
</mask>
<path d="M17.0034 5.58014C17.3854 5.51645 17.7702 5.47126 18.1566 5.44475L18.2255 6.44865C17.8715 6.47295 17.5189 6.51435 17.1689 6.57271L17.0034 5.58014Z" stroke="#333333" stroke-width="2" mask="url(#path-27-inside-24_2202_15509)"/>
<circle cx="11.1245" cy="11.1245" r="10.6245" transform="matrix(0.728167 0.685399 0.685399 -0.728167 4.51172 58.8071)" stroke="#333333"/>
<mask id="path-29-inside-25_2202_15509" fill="white">
<path d="M27.5482 67.8649C25.2042 69.6626 22.2801 70.5337 19.3344 70.3119C16.3887 70.0901 13.628 68.7908 11.5797 66.6623L12.3047 65.9645C14.1815 67.9148 16.711 69.1052 19.41 69.3085C22.1089 69.5117 24.7882 68.7135 26.9359 67.0664L27.5482 67.8649Z"/>
</mask>
<path d="M27.5482 67.8649C25.2042 69.6626 22.2801 70.5337 19.3344 70.3119C16.3887 70.0901 13.628 68.7908 11.5797 66.6623L12.3047 65.9645C14.1815 67.9148 16.711 69.1052 19.41 69.3085C22.1089 69.5117 24.7882 68.7135 26.9359 67.0664L27.5482 67.8649Z" stroke="#333333" stroke-width="2" mask="url(#path-29-inside-25_2202_15509)"/>
<mask id="path-30-inside-26_2202_15509" fill="white">
<path d="M27.9293 49.1026C29.8013 50.663 31.1545 52.7559 31.8093 55.1034C32.4641 57.4509 32.3895 59.942 31.5954 62.2461L30.6441 61.9182C31.3717 59.8071 31.44 57.5246 30.8401 55.3738C30.2401 53.2229 29.0002 51.3053 27.285 49.8756L27.9293 49.1026Z"/>
</mask>
<path d="M27.9293 49.1026C29.8013 50.663 31.1545 52.7559 31.8093 55.1034C32.4641 57.4509 32.3895 59.942 31.5954 62.2461L30.6441 61.9182C31.3717 59.8071 31.44 57.5246 30.8401 55.3738C30.2401 53.2229 29.0002 51.3053 27.285 49.8756L27.9293 49.1026Z" stroke="#333333" stroke-width="2" mask="url(#path-30-inside-26_2202_15509)"/>
<mask id="path-31-inside-27_2202_15509" fill="white">
<path d="M24.2814 47.0182C25.3933 47.4158 26.4405 47.9751 27.3893 48.6781L26.7903 49.4866C25.9209 48.8425 24.9614 48.33 23.9426 47.9658L24.2814 47.0182Z"/>
</mask>
<path d="M24.2814 47.0182C25.3933 47.4158 26.4405 47.9751 27.3893 48.6781L26.7903 49.4866C25.9209 48.8425 24.9614 48.33 23.9426 47.9658L24.2814 47.0182Z" stroke="#333333" stroke-width="2" mask="url(#path-31-inside-27_2202_15509)"/>
<mask id="path-32-inside-28_2202_15509" fill="white">
<path d="M19.8733 46.3224C21.0536 46.2867 22.2328 46.4252 23.3727 46.7335L23.1101 47.7048C22.0656 47.4224 20.9852 47.2955 19.9037 47.3282L19.8733 46.3224Z"/>
</mask>
<path d="M19.8733 46.3224C21.0536 46.2867 22.2328 46.4252 23.3727 46.7335L23.1101 47.7048C22.0656 47.4224 20.9852 47.2955 19.9037 47.3282L19.8733 46.3224Z" stroke="#333333" stroke-width="2" mask="url(#path-32-inside-28_2202_15509)"/>
<mask id="path-33-inside-29_2202_15509" fill="white">
<path d="M11.4881 50.0967C12.2975 49.2368 13.2292 48.501 14.2532 47.9129L14.7543 48.7855C13.8161 49.3243 12.9624 49.9985 12.2208 50.7864L11.4881 50.0967Z"/>
</mask>
<path d="M11.4881 50.0967C12.2975 49.2368 13.2292 48.501 14.2532 47.9129L14.7543 48.7855C13.8161 49.3243 12.9624 49.9985 12.2208 50.7864L11.4881 50.0967Z" stroke="#333333" stroke-width="2" mask="url(#path-33-inside-29_2202_15509)"/>
<mask id="path-34-inside-30_2202_15509" fill="white">
<path d="M11.1377 66.1772C10.3666 65.2829 9.73151 64.2798 9.25296 63.2002L10.1729 62.7924C10.6114 63.7816 11.1933 64.7007 11.8998 65.5201L11.1377 66.1772Z"/>
</mask>
<path d="M11.1377 66.1772C10.3666 65.2829 9.73151 64.2798 9.25296 63.2002L10.1729 62.7924C10.6114 63.7816 11.1933 64.7007 11.8998 65.5201L11.1377 66.1772Z" stroke="#333333" stroke-width="2" mask="url(#path-34-inside-30_2202_15509)"/>
<mask id="path-35-inside-31_2202_15509" fill="white">
<path d="M9.05973 62.7386C8.91556 62.373 8.78943 62.0005 8.68177 61.6226L9.64955 61.3469C9.74819 61.6932 9.86376 62.0345 9.99585 62.3695L9.05973 62.7386Z"/>
</mask>
<path d="M9.05973 62.7386C8.91556 62.373 8.78943 62.0005 8.68177 61.6226L9.64955 61.3469C9.74819 61.6932 9.86376 62.0345 9.99585 62.3695L9.05973 62.7386Z" stroke="#333333" stroke-width="2" mask="url(#path-35-inside-31_2202_15509)"/>
<mask id="path-36-inside-32_2202_15509" fill="white">
<path d="M18.2607 46.4805C18.6427 46.4168 19.0276 46.3717 19.4139 46.3451L19.4828 47.349C19.1288 47.3733 18.7762 47.4147 18.4262 47.4731L18.2607 46.4805Z"/>
</mask>
<path d="M18.2607 46.4805C18.6427 46.4168 19.0276 46.3717 19.4139 46.3451L19.4828 47.349C19.1288 47.3733 18.7762 47.4147 18.4262 47.4731L18.2607 46.4805Z" stroke="#333333" stroke-width="2" mask="url(#path-36-inside-32_2202_15509)"/>
<line y1="-0.5" x2="28.9346" y2="-0.5" transform="matrix(0.728502 0.685044 0.685044 -0.728502 88.9609 2.70752)" stroke="#333333"/>
<line y1="-0.5" x2="31.2376" y2="-0.5" transform="matrix(0.999607 0.0280181 0.0280181 -0.999607 73.6743 33.5288)" stroke="#333333"/>
<line y1="-0.5" x2="17.3275" y2="-0.5" transform="matrix(0.816182 0.577795 0.577795 -0.816182 28.374 20.2397)" stroke="#333333"/>
<line y1="-0.5" x2="14.0111" y2="-0.5" transform="matrix(0.871572 -0.490268 -0.490268 -0.871572 29.9004 51.5327)" stroke="#333333"/>
<circle cx="11.1245" cy="11.1245" r="10.6245" transform="matrix(0.728167 0.685399 0.685399 -0.728167 44.9409 74.3633)" stroke="#333333"/>
<mask id="path-42-inside-33_2202_15509" fill="white">
<path d="M67.9774 83.421C65.6334 85.2187 62.7093 86.0899 59.7636 85.8681C56.8179 85.6462 54.0572 84.3469 52.0089 82.2184L52.7339 81.5207C54.6107 83.4709 57.1402 84.6614 59.8392 84.8646C62.5381 85.0679 65.2174 84.2697 67.3651 82.6225L67.9774 83.421Z"/>
</mask>
<path d="M67.9774 83.421C65.6334 85.2187 62.7093 86.0899 59.7636 85.8681C56.8179 85.6462 54.0572 84.3469 52.0089 82.2184L52.7339 81.5207C54.6107 83.4709 57.1402 84.6614 59.8392 84.8646C62.5381 85.0679 65.2174 84.2697 67.3651 82.6225L67.9774 83.421Z" stroke="#333333" stroke-width="2" mask="url(#path-42-inside-33_2202_15509)"/>
<mask id="path-43-inside-34_2202_15509" fill="white">
<path d="M68.3585 64.6588C70.2305 66.2192 71.5837 68.312 72.2385 70.6595C72.8933 73.007 72.8187 75.4982 72.0246 77.8023L71.0733 77.4744C71.8008 75.3633 71.8692 73.0808 71.2693 70.9299C70.6693 68.779 69.4294 66.8615 67.7142 65.4317L68.3585 64.6588Z"/>
</mask>
<path d="M68.3585 64.6588C70.2305 66.2192 71.5837 68.312 72.2385 70.6595C72.8933 73.007 72.8187 75.4982 72.0246 77.8023L71.0733 77.4744C71.8008 75.3633 71.8692 73.0808 71.2693 70.9299C70.6693 68.779 69.4294 66.8615 67.7142 65.4317L68.3585 64.6588Z" stroke="#333333" stroke-width="2" mask="url(#path-43-inside-34_2202_15509)"/>
<mask id="path-44-inside-35_2202_15509" fill="white">
<path d="M64.7106 62.5744C65.8225 62.9719 66.8697 63.5312 67.8185 64.2343L67.2195 65.0428C66.3501 64.3986 65.3906 63.8862 64.3718 63.5219L64.7106 62.5744Z"/>
</mask>
<path d="M64.7106 62.5744C65.8225 62.9719 66.8697 63.5312 67.8185 64.2343L67.2195 65.0428C66.3501 64.3986 65.3906 63.8862 64.3718 63.5219L64.7106 62.5744Z" stroke="#333333" stroke-width="2" mask="url(#path-44-inside-35_2202_15509)"/>
<mask id="path-45-inside-36_2202_15509" fill="white">
<path d="M60.3025 61.8786C61.4828 61.8429 62.662 61.9814 63.8019 62.2896L63.5393 63.261C62.4948 62.9786 61.4144 62.8517 60.3329 62.8844L60.3025 61.8786Z"/>
</mask>
<path d="M60.3025 61.8786C61.4828 61.8429 62.662 61.9814 63.8019 62.2896L63.5393 63.261C62.4948 62.9786 61.4144 62.8517 60.3329 62.8844L60.3025 61.8786Z" stroke="#333333" stroke-width="2" mask="url(#path-45-inside-36_2202_15509)"/>
<mask id="path-46-inside-37_2202_15509" fill="white">
<path d="M51.9173 65.6528C52.7267 64.793 53.6584 64.0571 54.6824 63.469L55.1835 64.3416C54.2453 64.8805 53.3916 65.5547 52.65 66.3425L51.9173 65.6528Z"/>
</mask>
<path d="M51.9173 65.6528C52.7267 64.793 53.6584 64.0571 54.6824 63.469L55.1835 64.3416C54.2453 64.8805 53.3916 65.5547 52.65 66.3425L51.9173 65.6528Z" stroke="#333333" stroke-width="2" mask="url(#path-46-inside-37_2202_15509)"/>
<mask id="path-47-inside-38_2202_15509" fill="white">
<path d="M51.5669 81.7334C50.7958 80.8391 50.1607 79.836 49.6822 78.7564L50.6021 78.3486C51.0406 79.3377 51.6225 80.2568 52.329 81.0762L51.5669 81.7334Z"/>
</mask>
<path d="M51.5669 81.7334C50.7958 80.8391 50.1607 79.836 49.6822 78.7564L50.6021 78.3486C51.0406 79.3377 51.6225 80.2568 52.329 81.0762L51.5669 81.7334Z" stroke="#333333" stroke-width="2" mask="url(#path-47-inside-38_2202_15509)"/>
<mask id="path-48-inside-39_2202_15509" fill="white">
<path d="M49.4889 78.2947C49.3448 77.9291 49.2186 77.5567 49.111 77.1787L50.0787 76.9031C50.1774 77.2494 50.293 77.5906 50.425 77.9256L49.4889 78.2947Z"/>
</mask>
<path d="M49.4889 78.2947C49.3448 77.9291 49.2186 77.5567 49.111 77.1787L50.0787 76.9031C50.1774 77.2494 50.293 77.5906 50.425 77.9256L49.4889 78.2947Z" stroke="#333333" stroke-width="2" mask="url(#path-48-inside-39_2202_15509)"/>
<mask id="path-49-inside-40_2202_15509" fill="white">
<path d="M58.6899 62.0367C59.0719 61.973 59.4568 61.9278 59.8431 61.9013L59.912 62.9052C59.558 62.9295 59.2054 62.9709 58.8554 63.0293L58.6899 62.0367Z"/>
</mask>
<path d="M58.6899 62.0367C59.0719 61.973 59.4568 61.9278 59.8431 61.9013L59.912 62.9052C59.558 62.9295 59.2054 62.9709 58.8554 63.0293L58.6899 62.0367Z" stroke="#333333" stroke-width="2" mask="url(#path-49-inside-40_2202_15509)"/>
<line y1="-0.5" x2="12.2524" y2="-0.5" transform="matrix(-0.168565 -0.985691 -0.985691 0.168565 58.3872 64.3501)" stroke="#333333"/>
</svg>
