<svg width="909" height="262" viewBox="0 0 909 262" fill="none" xmlns="http://www.w3.org/2000/svg">
<circle cx="15.5" cy="138.5" r="7" fill="#DEDFD1" stroke="#A6A6A6"/>
<circle cx="72.5" cy="140.5" r="7" fill="#E8FC00" fill-opacity="0.75" stroke="#A6A6A6"/>
<circle cx="115.5" cy="155.5" r="7" fill="#E8FC00" fill-opacity="0.75" stroke="#A6A6A6"/>
<circle cx="40.5" cy="197.5" r="7" fill="#D60000" fill-opacity="0.75" stroke="#A6A6A6"/>
<circle cx="98.5" cy="166.5" r="7" fill="#D60000" fill-opacity="0.75" stroke="#A6A6A6"/>
<circle cx="176.5" cy="203.5" r="7" fill="#E8FC00" fill-opacity="0.75" stroke="#A6A6A6"/>
<circle cx="257.5" cy="159.5" r="7" fill="#E8FC00" fill-opacity="0.75" stroke="#A6A6A6"/>
<circle cx="334.5" cy="216.5" r="7" fill="#E8FC00" fill-opacity="0.75" stroke="#A6A6A6"/>
<circle cx="282.5" cy="218.5" r="7" fill="#FF7A00" fill-opacity="0.75" stroke="#A6A6A6"/>
<circle cx="298.5" cy="220.5" r="7" fill="#E8FC00" fill-opacity="0.75" stroke="#A6A6A6"/>
<circle cx="16.5" cy="176.5" r="7" fill="#E8FC00" fill-opacity="0.75" stroke="#A6A6A6"/>
<circle cx="104.5" cy="175.5" r="7" fill="#D60000" fill-opacity="0.75" stroke="#A6A6A6"/>
<circle cx="152.5" cy="182.5" r="7" fill="#E8FC00" fill-opacity="0.75" stroke="#A6A6A6"/>
<circle cx="41.5" cy="235.5" r="7" fill="#E8FC00" fill-opacity="0.75" stroke="#A6A6A6"/>
<circle cx="98.5" cy="237.5" r="7" fill="#DEDFD1" stroke="#A6A6A6"/>
<circle cx="177.5" cy="241.5" r="7" fill="#E8FC00" fill-opacity="0.75" stroke="#A6A6A6"/>
<circle cx="258.5" cy="197.5" r="7" fill="#FF7A00" fill-opacity="0.75" stroke="#A6A6A6"/>
<circle cx="335.5" cy="254.5" r="7" fill="#D60000" fill-opacity="0.75" stroke="#A6A6A6"/>
<circle cx="259.5" cy="237.5" r="7" fill="#FF7A00" fill-opacity="0.75" stroke="#A6A6A6"/>
<circle cx="275.5" cy="239.5" r="7" fill="#E8FC00" fill-opacity="0.75" stroke="#A6A6A6"/>
<circle cx="48.5" cy="153.5" r="7" fill="#DEDFD1" stroke="#A6A6A6"/>
<circle cx="105.5" cy="155.5" r="7" fill="#FF7A00" fill-opacity="0.75" stroke="#A6A6A6"/>
<circle cx="184.5" cy="159.5" r="7" fill="#FF7A00" fill-opacity="0.75" stroke="#A6A6A6"/>
<circle cx="73.5" cy="212.5" r="7" fill="#D60000" fill-opacity="0.75" stroke="#A6A6A6"/>
<circle cx="130.5" cy="214.5" r="7" fill="#DEDFD1" stroke="#A6A6A6"/>
<circle cx="209.5" cy="218.5" r="7" fill="#E8FC00" fill-opacity="0.75" stroke="#A6A6A6"/>
<circle cx="310.5" cy="229.5" r="7" fill="#E8FC00" fill-opacity="0.75" stroke="#A6A6A6"/>
<circle cx="367.5" cy="231.5" r="7" fill="#E8FC00" fill-opacity="0.75" stroke="#A6A6A6"/>
<circle cx="274.5" cy="233.5" r="7" fill="#E8FC00" fill-opacity="0.75" stroke="#A6A6A6"/>
<circle cx="65.5" cy="158.5" r="7" fill="#E8FC00" fill-opacity="0.75" stroke="#A6A6A6"/>
<circle cx="7.5" cy="10.5" r="7" fill="#DEDFD1" stroke="#A6A6A6"/>
<circle cx="64.5" cy="12.5" r="7" fill="#DEDFD1" stroke="#A6A6A6"/>
<circle cx="105.5" cy="33.5" r="7" fill="#D60000" fill-opacity="0.75" stroke="#A6A6A6"/>
<circle cx="32.5" cy="69.5" r="7" fill="#E8FC00" fill-opacity="0.75" stroke="#A6A6A6"/>
<circle cx="89.5" cy="71.5" r="7" fill="#E8FC00" fill-opacity="0.75" stroke="#A6A6A6"/>
<circle cx="82.5" cy="155.5" r="7" fill="#E8FC00" fill-opacity="0.75" stroke="#A6A6A6"/>
<circle cx="101.5" cy="109.5" r="7" fill="#E8FC00" fill-opacity="0.75" stroke="#A6A6A6"/>
<circle cx="158.5" cy="111.5" r="7" fill="#DEDFD1" stroke="#A6A6A6"/>
<circle cx="164.5" cy="151.5" r="7" fill="#FF7A00" fill-opacity="0.75" stroke="#A6A6A6"/>
<circle cx="221.5" cy="153.5" r="7" fill="#E8FC00" fill-opacity="0.75" stroke="#A6A6A6"/>
<circle cx="8.5" cy="48.5" r="7" fill="#D60000" fill-opacity="0.75" stroke="#A6A6A6"/>
<circle cx="65.5" cy="50.5" r="7" fill="#FF7A00" fill-opacity="0.75" stroke="#A6A6A6"/>
<circle cx="106.5" cy="71.5" r="7" fill="#E8FC00" fill-opacity="0.75" stroke="#A6A6A6"/>
<circle cx="33.5" cy="107.5" r="7" fill="#E8FC00" fill-opacity="0.75" stroke="#A6A6A6"/>
<circle cx="90.5" cy="109.5" r="7" fill="#E8FC00" fill-opacity="0.75" stroke="#A6A6A6"/>
<circle cx="83.5" cy="193.5" r="7" fill="#E8FC00" fill-opacity="0.75" stroke="#A6A6A6"/>
<circle cx="102.5" cy="147.5" r="7" fill="#E8FC00" fill-opacity="0.75" stroke="#A6A6A6"/>
<circle cx="159.5" cy="149.5" r="7" fill="#FF7A00" fill-opacity="0.75" stroke="#A6A6A6"/>
<circle cx="165.5" cy="189.5" r="7" fill="#E8FC00" fill-opacity="0.75" stroke="#A6A6A6"/>
<circle cx="222.5" cy="191.5" r="7" fill="#FF7A00" fill-opacity="0.75" stroke="#A6A6A6"/>
<circle cx="40.5" cy="25.5" r="7" fill="#DEDFD1" stroke="#A6A6A6"/>
<circle cx="97.5" cy="27.5" r="7" fill="#E8FC00" fill-opacity="0.75" stroke="#A6A6A6"/>
<circle cx="90.5" cy="111.5" r="7" fill="#FF7A00" fill-opacity="0.75" stroke="#A6A6A6"/>
<circle cx="65.5" cy="84.5" r="7" fill="#FF7A00" fill-opacity="0.75" stroke="#A6A6A6"/>
<circle cx="84.5" cy="103.5" r="7" fill="#FF7A00" fill-opacity="0.75" stroke="#A6A6A6"/>
<circle cx="115.5" cy="170.5" r="7" fill="#D60000" fill-opacity="0.75" stroke="#A6A6A6"/>
<circle cx="134.5" cy="124.5" r="7" fill="#D60000" fill-opacity="0.75" stroke="#A6A6A6"/>
<circle cx="191.5" cy="126.5" r="7" fill="#E8FC00" fill-opacity="0.75" stroke="#A6A6A6"/>
<circle cx="197.5" cy="166.5" r="7" fill="#E8FC00" fill-opacity="0.75" stroke="#A6A6A6"/>
<circle cx="298.5" cy="242.5" r="7" fill="#E8FC00" fill-opacity="0.75" stroke="#A6A6A6"/>
<circle cx="729.5" cy="193.5" r="7" fill="#E8FC00" fill-opacity="0.75" stroke="#A6A6A6"/>
<circle cx="540.5" cy="232.5" r="7" fill="#E8FC00" fill-opacity="0.75" stroke="#A6A6A6"/>
<circle cx="597.5" cy="234.5" r="7" fill="#E8FC00" fill-opacity="0.75" stroke="#A6A6A6"/>
<circle cx="811.5" cy="189.5" r="7" fill="#E8FC00" fill-opacity="0.75" stroke="#A6A6A6"/>
<circle cx="868.5" cy="191.5" r="7" fill="#DEDFD1" stroke="#A6A6A6"/>
<circle cx="730.5" cy="231.5" r="7" fill="#E8FC00" fill-opacity="0.75" stroke="#A6A6A6"/>
<circle cx="787.5" cy="168.5" r="7" fill="#D60000" fill-opacity="0.75" stroke="#A6A6A6"/>
<circle cx="844.5" cy="170.5" r="7" fill="#E8FC00" fill-opacity="0.75" stroke="#A6A6A6"/>
<circle cx="812.5" cy="227.5" r="7" fill="#D60000" fill-opacity="0.75" stroke="#A6A6A6"/>
<circle cx="869.5" cy="229.5" r="7" fill="#E8FC00" fill-opacity="0.75" stroke="#A6A6A6"/>
<circle cx="737.5" cy="149.5" r="7" fill="#E8FC00" fill-opacity="0.75" stroke="#A6A6A6"/>
<circle cx="762.5" cy="208.5" r="7" fill="#E8FC00" fill-opacity="0.75" stroke="#A6A6A6"/>
<circle cx="770.5" cy="7.5" r="7" fill="#D60000" fill-opacity="0.75" stroke="#A6A6A6"/>
<circle cx="851.5" cy="51.5" r="7" fill="#E8FC00" fill-opacity="0.75" stroke="#A6A6A6"/>
<circle cx="844.5" cy="204.5" r="7" fill="#D60000" fill-opacity="0.75" stroke="#A6A6A6"/>
<circle cx="901.5" cy="206.5" r="7" fill="#E8FC00" fill-opacity="0.75" stroke="#A6A6A6"/>
<circle cx="345.5" cy="212.5" r="7" fill="#DEDFD1" stroke="#A6A6A6"/>
<circle cx="416.5" cy="229.5" r="7" fill="#E8FC00" fill-opacity="0.75" stroke="#A6A6A6"/>
<circle cx="473.5" cy="231.5" r="7" fill="#E8FC00" fill-opacity="0.75" stroke="#A6A6A6"/>
<circle cx="625.5" cy="192.5" r="7" fill="#E8FC00" fill-opacity="0.75" stroke="#A6A6A6"/>
<circle cx="682.5" cy="194.5" r="7" fill="#FF7A00" fill-opacity="0.75" stroke="#A6A6A6"/>
<circle cx="346.5" cy="250.5" r="7" fill="#E8FC00" fill-opacity="0.75" stroke="#A6A6A6"/>
<circle cx="421.5" cy="246.5" r="7" fill="#FF7A00" fill-opacity="0.75" stroke="#A6A6A6"/>
<circle cx="478.5" cy="248.5" r="7" fill="#E8FC00" fill-opacity="0.75" stroke="#A6A6A6"/>
<circle cx="626.5" cy="230.5" r="7" fill="#FF7A00" fill-opacity="0.75" stroke="#A6A6A6"/>
<circle cx="683.5" cy="232.5" r="7" fill="#E8FC00" fill-opacity="0.75" stroke="#A6A6A6"/>
<circle cx="367.5" cy="248.5" r="7" fill="#E8FC00" fill-opacity="0.75" stroke="#A6A6A6"/>
<circle cx="576.5" cy="211.5" r="7" fill="#E8FC00" fill-opacity="0.75" stroke="#A6A6A6"/>
<circle cx="449.5" cy="244.5" r="7" fill="#D60000" fill-opacity="0.75" stroke="#A6A6A6"/>
<circle cx="510.5" cy="225.5" r="7" fill="#E8FC00" fill-opacity="0.75" stroke="#A6A6A6"/>
<circle cx="658.5" cy="207.5" r="7" fill="#E8FC00" fill-opacity="0.75" stroke="#A6A6A6"/>
<circle cx="715.5" cy="209.5" r="7" fill="#FF7A00" fill-opacity="0.75" stroke="#A6A6A6"/>
</svg>
