<svg width="8" height="8" viewBox="0 0 8 8" fill="none" xmlns="http://www.w3.org/2000/svg">
<circle cx="4.29389" cy="3.69069" r="1.91031" transform="rotate(-41.6615 4.29389 3.69069)" stroke="white"/>
<mask id="path-2-inside-1_2204_9513" fill="white">
<path d="M5.93528 1.67031C5.43852 1.26673 4.81049 1.0603 4.17117 1.09047C3.53184 1.12063 2.92604 1.38527 2.46948 1.83383L2.62228 1.98935C3.0406 1.57836 3.59566 1.33589 4.18144 1.30825C4.76722 1.28061 5.34265 1.46975 5.7978 1.83953L5.93528 1.67031Z"/>
</mask>
<path d="M5.93528 1.67031C5.43852 1.26673 4.81049 1.0603 4.17117 1.09047C3.53184 1.12063 2.92604 1.38527 2.46948 1.83383L2.62228 1.98935C3.0406 1.57836 3.59566 1.33589 4.18144 1.30825C4.76722 1.28061 5.34265 1.46975 5.7978 1.83953L5.93528 1.67031Z" stroke="white" stroke-width="2" mask="url(#path-2-inside-1_2204_9513)"/>
<mask id="path-3-inside-2_2204_9513" fill="white">
<path d="M5.90391 5.73619C6.31883 5.40959 6.62462 4.96453 6.78068 4.46008C6.93675 3.95563 6.93571 3.41565 6.77772 2.9118L6.56968 2.97704C6.71444 3.43868 6.71539 3.93344 6.5724 4.39564C6.4294 4.85784 6.14923 5.26562 5.76906 5.56487L5.90391 5.73619Z"/>
</mask>
<path d="M5.90391 5.73619C6.31883 5.40959 6.62462 4.96453 6.78068 4.46008C6.93675 3.95563 6.93571 3.41565 6.77772 2.9118L6.56968 2.97704C6.71444 3.43868 6.71539 3.93344 6.5724 4.39564C6.4294 4.85784 6.14923 5.26562 5.76906 5.56487L5.90391 5.73619Z" stroke="white" stroke-width="2" mask="url(#path-3-inside-2_2204_9513)"/>
<mask id="path-4-inside-3_2204_9513" fill="white">
<path d="M5.10118 6.16548C5.34442 6.08613 5.57463 5.97135 5.78439 5.82485L5.65955 5.6461C5.46736 5.78033 5.25643 5.8855 5.03356 5.9582L5.10118 6.16548Z"/>
</mask>
<path d="M5.10118 6.16548C5.34442 6.08613 5.57463 5.97135 5.78439 5.82485L5.65955 5.6461C5.46736 5.78033 5.25643 5.8855 5.03356 5.9582L5.10118 6.16548Z" stroke="white" stroke-width="2" mask="url(#path-4-inside-3_2204_9513)"/>
<mask id="path-5-inside-4_2204_9513" fill="white">
<path d="M4.14226 6.28942C4.39768 6.30432 4.6539 6.28148 4.90266 6.22164L4.85167 6.00966C4.62374 6.06449 4.38898 6.08541 4.15495 6.07176L4.14226 6.28942Z"/>
</mask>
<path d="M4.14226 6.28942C4.39768 6.30432 4.6539 6.28148 4.90266 6.22164L4.85167 6.00966C4.62374 6.06449 4.38898 6.08541 4.15495 6.07176L4.14226 6.28942Z" stroke="white" stroke-width="2" mask="url(#path-5-inside-4_2204_9513)"/>
<mask id="path-6-inside-5_2204_9513" fill="white">
<path d="M2.34909 5.42108C2.51916 5.61222 2.71649 5.77725 2.9347 5.91084L3.04853 5.72489C2.8486 5.60249 2.6678 5.45129 2.51197 5.27615L2.34909 5.42108Z"/>
</mask>
<path d="M2.34909 5.42108C2.51916 5.61222 2.71649 5.77725 2.9347 5.91084L3.04853 5.72489C2.8486 5.60249 2.6678 5.45129 2.51197 5.27615L2.34909 5.42108Z" stroke="white" stroke-width="2" mask="url(#path-6-inside-5_2204_9513)"/>
<mask id="path-7-inside-6_2204_9513" fill="white">
<path d="M2.37082 1.9362C2.19838 2.12521 2.05474 2.33861 1.94454 2.56952L2.14131 2.66343C2.24228 2.45186 2.37388 2.25633 2.53189 2.08315L2.37082 1.9362Z"/>
</mask>
<path d="M2.37082 1.9362C2.19838 2.12521 2.05474 2.33861 1.94454 2.56952L2.14131 2.66343C2.24228 2.45186 2.37388 2.25633 2.53189 2.08315L2.37082 1.9362Z" stroke="white" stroke-width="2" mask="url(#path-7-inside-6_2204_9513)"/>
<mask id="path-8-inside-7_2204_9513" fill="white">
<path d="M1.89989 2.66833C1.86645 2.74664 1.83687 2.82654 1.81125 2.90775L2.01918 2.97333C2.04265 2.89892 2.06975 2.82571 2.10039 2.75396L1.89989 2.66833Z"/>
</mask>
<path d="M1.89989 2.66833C1.86645 2.74664 1.83687 2.82654 1.81125 2.90775L2.01918 2.97333C2.04265 2.89892 2.06975 2.82571 2.10039 2.75396L1.89989 2.66833Z" stroke="white" stroke-width="2" mask="url(#path-8-inside-7_2204_9513)"/>
<mask id="path-9-inside-8_2204_9513" fill="white">
<path d="M3.79396 6.24539C3.8763 6.2615 3.95938 6.27362 4.0429 6.28171L4.06392 6.0647C3.98739 6.05729 3.91128 6.04618 3.83583 6.03142L3.79396 6.24539Z"/>
</mask>
<path d="M3.79396 6.24539C3.8763 6.2615 3.95938 6.27362 4.0429 6.28171L4.06392 6.0647C3.98739 6.05729 3.91128 6.04618 3.83583 6.03142L3.79396 6.24539Z" stroke="white" stroke-width="2" mask="url(#path-9-inside-8_2204_9513)"/>
</svg>
