<svg width="8" height="8" viewBox="0 0 8 8" fill="none" xmlns="http://www.w3.org/2000/svg">
<circle cx="4.29377" cy="3.69118" r="1.91031" transform="rotate(-41.6615 4.29377 3.69118)" stroke="white"/>
<mask id="path-2-inside-1_2204_11072" fill="white">
<path d="M5.93522 1.67056C5.43846 1.26697 4.81043 1.06055 4.17111 1.09071C3.53178 1.12087 2.92598 1.38551 2.46942 1.83407L2.62222 1.9896C3.04054 1.5786 3.5956 1.33613 4.18138 1.30849C4.76716 1.28086 5.34259 1.46999 5.79774 1.83977L5.93522 1.67056Z"/>
</mask>
<path d="M5.93522 1.67056C5.43846 1.26697 4.81043 1.06055 4.17111 1.09071C3.53178 1.12087 2.92598 1.38551 2.46942 1.83407L2.62222 1.9896C3.04054 1.5786 3.5956 1.33613 4.18138 1.30849C4.76716 1.28086 5.34259 1.46999 5.79774 1.83977L5.93522 1.67056Z" stroke="white" stroke-width="2" mask="url(#path-2-inside-1_2204_11072)"/>
<mask id="path-3-inside-2_2204_11072" fill="white">
<path d="M5.90385 5.73643C6.31877 5.40983 6.62456 4.96477 6.78062 4.46032C6.93669 3.95587 6.93565 3.41589 6.77765 2.91204L6.56962 2.97728C6.71438 3.43893 6.71533 3.93369 6.57234 4.39589C6.42934 4.85808 6.14917 5.26587 5.76899 5.56511L5.90385 5.73643Z"/>
</mask>
<path d="M5.90385 5.73643C6.31877 5.40983 6.62456 4.96477 6.78062 4.46032C6.93669 3.95587 6.93565 3.41589 6.77765 2.91204L6.56962 2.97728C6.71438 3.43893 6.71533 3.93369 6.57234 4.39589C6.42934 4.85808 6.14917 5.26587 5.76899 5.56511L5.90385 5.73643Z" stroke="white" stroke-width="2" mask="url(#path-3-inside-2_2204_11072)"/>
<mask id="path-4-inside-3_2204_11072" fill="white">
<path d="M5.10112 6.16572C5.34436 6.08637 5.57457 5.97159 5.78433 5.82509L5.65949 5.64635C5.4673 5.78058 5.25637 5.88574 5.0335 5.95845L5.10112 6.16572Z"/>
</mask>
<path d="M5.10112 6.16572C5.34436 6.08637 5.57457 5.97159 5.78433 5.82509L5.65949 5.64635C5.4673 5.78058 5.25637 5.88574 5.0335 5.95845L5.10112 6.16572Z" stroke="white" stroke-width="2" mask="url(#path-4-inside-3_2204_11072)"/>
<mask id="path-5-inside-4_2204_11072" fill="white">
<path d="M4.14219 6.28966C4.39761 6.30456 4.65384 6.28172 4.9026 6.22188L4.85161 6.00991C4.62368 6.06473 4.38892 6.08566 4.15489 6.07201L4.14219 6.28966Z"/>
</mask>
<path d="M4.14219 6.28966C4.39761 6.30456 4.65384 6.28172 4.9026 6.22188L4.85161 6.00991C4.62368 6.06473 4.38892 6.08566 4.15489 6.07201L4.14219 6.28966Z" stroke="white" stroke-width="2" mask="url(#path-5-inside-4_2204_11072)"/>
<mask id="path-6-inside-5_2204_11072" fill="white">
<path d="M2.34903 5.42132C2.5191 5.61247 2.71643 5.7775 2.93464 5.91108L3.04847 5.72514C2.84854 5.60274 2.66774 5.45153 2.51191 5.27639L2.34903 5.42132Z"/>
</mask>
<path d="M2.34903 5.42132C2.5191 5.61247 2.71643 5.7775 2.93464 5.91108L3.04847 5.72514C2.84854 5.60274 2.66774 5.45153 2.51191 5.27639L2.34903 5.42132Z" stroke="white" stroke-width="2" mask="url(#path-6-inside-5_2204_11072)"/>
<mask id="path-7-inside-6_2204_11072" fill="white">
<path d="M2.37076 1.93645C2.19832 2.12546 2.05468 2.33886 1.94448 2.56977L2.14125 2.66367C2.24222 2.4521 2.37382 2.25658 2.53183 2.0834L2.37076 1.93645Z"/>
</mask>
<path d="M2.37076 1.93645C2.19832 2.12546 2.05468 2.33886 1.94448 2.56977L2.14125 2.66367C2.24222 2.4521 2.37382 2.25658 2.53183 2.0834L2.37076 1.93645Z" stroke="white" stroke-width="2" mask="url(#path-7-inside-6_2204_11072)"/>
<mask id="path-8-inside-7_2204_11072" fill="white">
<path d="M1.89983 2.66858C1.86638 2.74688 1.8368 2.82679 1.81119 2.90799L2.01912 2.97357C2.04259 2.89916 2.06969 2.82595 2.10033 2.7542L1.89983 2.66858Z"/>
</mask>
<path d="M1.89983 2.66858C1.86638 2.74688 1.8368 2.82679 1.81119 2.90799L2.01912 2.97357C2.04259 2.89916 2.06969 2.82595 2.10033 2.7542L1.89983 2.66858Z" stroke="white" stroke-width="2" mask="url(#path-8-inside-7_2204_11072)"/>
<mask id="path-9-inside-8_2204_11072" fill="white">
<path d="M3.7939 6.24563C3.87624 6.26174 3.95932 6.27386 4.04284 6.28195L4.06386 6.06494C3.98733 6.05753 3.91121 6.04643 3.83577 6.03166L3.7939 6.24563Z"/>
</mask>
<path d="M3.7939 6.24563C3.87624 6.26174 3.95932 6.27386 4.04284 6.28195L4.06386 6.06494C3.98733 6.05753 3.91121 6.04643 3.83577 6.03166L3.7939 6.24563Z" stroke="white" stroke-width="2" mask="url(#path-9-inside-8_2204_11072)"/>
</svg>
