<svg width="52" height="52" viewBox="0 0 52 52" fill="none" xmlns="http://www.w3.org/2000/svg">
<circle cx="25.9902" cy="26.156" r="16.1867" transform="rotate(-41.6615 25.9902 26.156)" stroke="#333333"/>
<mask id="path-2-inside-1_2202_15398" fill="white">
<path d="M37.3539 12.1687C33.9148 9.37472 29.5669 7.94561 25.1408 8.15443C20.7147 8.36326 16.5207 10.1954 13.3599 13.3008L14.4177 14.3775C17.3138 11.5322 21.1565 9.8535 25.2119 9.66216C29.2673 9.47083 33.2511 10.7802 36.4021 13.3403L37.3539 12.1687Z"/>
</mask>
<path d="M37.3539 12.1687C33.9148 9.37472 29.5669 7.94561 25.1408 8.15443C20.7147 8.36326 16.5207 10.1954 13.3599 13.3008L14.4177 14.3775C17.3138 11.5322 21.1565 9.8535 25.2119 9.66216C29.2673 9.47083 33.2511 10.7802 36.4021 13.3403L37.3539 12.1687Z" stroke="#333333" stroke-width="2" mask="url(#path-2-inside-1_2202_15398)"/>
<mask id="path-3-inside-2_2202_15398" fill="white">
<path d="M37.1367 40.3171C40.0092 38.0561 42.1262 34.9749 43.2067 31.4825C44.2871 27.9902 44.28 24.2518 43.1861 20.7637L41.7459 21.2153C42.7481 24.4113 42.7547 27.8366 41.7647 31.0364C40.7747 34.2363 38.835 37.0594 36.2031 39.1311L37.1367 40.3171Z"/>
</mask>
<path d="M37.1367 40.3171C40.0092 38.0561 42.1262 34.9749 43.2067 31.4825C44.2871 27.9902 44.28 24.2518 43.1861 20.7637L41.7459 21.2153C42.7481 24.4113 42.7547 27.8366 41.7647 31.0364C40.7747 34.2363 38.835 37.0594 36.2031 39.1311L37.1367 40.3171Z" stroke="#333333" stroke-width="2" mask="url(#path-3-inside-2_2202_15398)"/>
<mask id="path-4-inside-3_2202_15398" fill="white">
<path d="M31.5793 43.2891C33.2633 42.7398 34.8571 41.9452 36.3093 40.9309L35.445 39.6935C34.1144 40.6227 32.6541 41.3508 31.1112 41.8541L31.5793 43.2891Z"/>
</mask>
<path d="M31.5793 43.2891C33.2633 42.7398 34.8571 41.9452 36.3093 40.9309L35.445 39.6935C34.1144 40.6227 32.6541 41.3508 31.1112 41.8541L31.5793 43.2891Z" stroke="#333333" stroke-width="2" mask="url(#path-4-inside-3_2202_15398)"/>
<mask id="path-5-inside-4_2202_15398" fill="white">
<path d="M24.9406 44.1472C26.7089 44.2503 28.4828 44.0922 30.2049 43.6779L29.8519 42.2104C28.274 42.59 26.6487 42.7348 25.0285 42.6403L24.9406 44.1472Z"/>
</mask>
<path d="M24.9406 44.1472C26.7089 44.2503 28.4828 44.0922 30.2049 43.6779L29.8519 42.2104C28.274 42.59 26.6487 42.7348 25.0285 42.6403L24.9406 44.1472Z" stroke="#333333" stroke-width="2" mask="url(#path-5-inside-4_2202_15398)"/>
<mask id="path-6-inside-5_2202_15398" fill="white">
<path d="M12.5264 38.1356C13.7038 39.4589 15.0699 40.6014 16.5806 41.5262L17.3687 40.2389C15.9845 39.3915 14.7329 38.3447 13.654 37.1323L12.5264 38.1356Z"/>
</mask>
<path d="M12.5264 38.1356C13.7038 39.4589 15.0699 40.6014 16.5806 41.5262L17.3687 40.2389C15.9845 39.3915 14.7329 38.3447 13.654 37.1323L12.5264 38.1356Z" stroke="#333333" stroke-width="2" mask="url(#path-6-inside-5_2202_15398)"/>
<mask id="path-7-inside-6_2202_15398" fill="white">
<path d="M12.6769 14.0095C11.483 15.3181 10.4886 16.7955 9.72569 18.394L11.0879 19.0442C11.7869 17.5795 12.6981 16.2258 13.7919 15.0269L12.6769 14.0095Z"/>
</mask>
<path d="M12.6769 14.0095C11.483 15.3181 10.4886 16.7955 9.72569 18.394L11.0879 19.0442C11.7869 17.5795 12.6981 16.2258 13.7919 15.0269L12.6769 14.0095Z" stroke="#333333" stroke-width="2" mask="url(#path-7-inside-6_2202_15398)"/>
<mask id="path-8-inside-7_2202_15398" fill="white">
<path d="M9.41655 19.0781C9.18502 19.6203 8.98024 20.1734 8.80293 20.7356L10.2424 21.1896C10.4049 20.6745 10.5925 20.1677 10.8047 19.6709L9.41655 19.0781Z"/>
</mask>
<path d="M9.41655 19.0781C9.18502 19.6203 8.98024 20.1734 8.80293 20.7356L10.2424 21.1896C10.4049 20.6745 10.5925 20.1677 10.8047 19.6709L9.41655 19.0781Z" stroke="#333333" stroke-width="2" mask="url(#path-8-inside-7_2202_15398)"/>
<mask id="path-9-inside-8_2202_15398" fill="white">
<path d="M22.5293 43.8423C23.0994 43.9539 23.6746 44.0378 24.2528 44.0938L24.3983 42.5914C23.8685 42.5401 23.3415 42.4632 22.8192 42.361L22.5293 43.8423Z"/>
</mask>
<path d="M22.5293 43.8423C23.0994 43.9539 23.6746 44.0378 24.2528 44.0938L24.3983 42.5914C23.8685 42.5401 23.3415 42.4632 22.8192 42.361L22.5293 43.8423Z" stroke="#333333" stroke-width="2" mask="url(#path-9-inside-8_2202_15398)"/>
</svg>
