<svg width="12" height="12" viewBox="0 0 12 12" fill="none" xmlns="http://www.w3.org/2000/svg">
<circle cx="6.06456" cy="5.81729" r="3.11546" transform="rotate(-41.6615 6.06456 5.81729)" stroke="white"/>
<mask id="path-2-inside-1_2204_10757" fill="white">
<path d="M8.52661 2.78659C7.78147 2.18122 6.83943 1.87158 5.88044 1.91683C4.92145 1.96207 4.01274 2.35903 3.32791 3.03187L3.55711 3.26515C4.18459 2.64867 5.01718 2.28496 5.89585 2.2435C6.77452 2.20204 7.63766 2.48575 8.32039 3.04042L8.52661 2.78659Z"/>
</mask>
<path d="M8.52661 2.78659C7.78147 2.18122 6.83943 1.87158 5.88044 1.91683C4.92145 1.96207 4.01274 2.35903 3.32791 3.03187L3.55711 3.26515C4.18459 2.64867 5.01718 2.28496 5.89585 2.2435C6.77452 2.20204 7.63766 2.48575 8.32039 3.04042L8.52661 2.78659Z" stroke="white" stroke-width="2" mask="url(#path-2-inside-1_2204_10757)"/>
<mask id="path-3-inside-2_2204_10757" fill="white">
<path d="M8.47955 8.88541C9.10193 8.39551 9.56061 7.72792 9.79471 6.97125C10.0288 6.21457 10.0273 5.4046 9.79026 4.64882L9.47821 4.74668C9.69535 5.43915 9.69678 6.18129 9.48228 6.87459C9.26779 7.56789 8.84753 8.17956 8.27727 8.62843L8.47955 8.88541Z"/>
</mask>
<path d="M8.47955 8.88541C9.10193 8.39551 9.56061 7.72792 9.79471 6.97125C10.0288 6.21457 10.0273 5.4046 9.79026 4.64882L9.47821 4.74668C9.69535 5.43915 9.69678 6.18129 9.48228 6.87459C9.26779 7.56789 8.84753 8.17956 8.27727 8.62843L8.47955 8.88541Z" stroke="white" stroke-width="2" mask="url(#path-3-inside-2_2204_10757)"/>
<mask id="path-4-inside-3_2204_10757" fill="white">
<path d="M7.27546 9.52934C7.64032 9.41032 7.98563 9.23815 8.30027 9.0184L8.11301 8.75028C7.82473 8.95163 7.50833 9.10937 7.17403 9.21843L7.27546 9.52934Z"/>
</mask>
<path d="M7.27546 9.52934C7.64032 9.41032 7.98563 9.23815 8.30027 9.0184L8.11301 8.75028C7.82473 8.95163 7.50833 9.10937 7.17403 9.21843L7.27546 9.52934Z" stroke="white" stroke-width="2" mask="url(#path-4-inside-3_2204_10757)"/>
<mask id="path-5-inside-4_2204_10757" fill="white">
<path d="M5.83707 9.71525C6.2202 9.7376 6.60453 9.70335 6.97767 9.61359L6.90119 9.29562C6.5593 9.37786 6.20716 9.40925 5.85611 9.38877L5.83707 9.71525Z"/>
</mask>
<path d="M5.83707 9.71525C6.2202 9.7376 6.60453 9.70335 6.97767 9.61359L6.90119 9.29562C6.5593 9.37786 6.20716 9.40925 5.85611 9.38877L5.83707 9.71525Z" stroke="white" stroke-width="2" mask="url(#path-5-inside-4_2204_10757)"/>
<mask id="path-6-inside-5_2204_10757" fill="white">
<path d="M3.14732 8.41275C3.40243 8.69946 3.69842 8.947 4.02573 9.14739L4.19649 8.86846C3.89659 8.68487 3.62539 8.45806 3.39164 8.19535L3.14732 8.41275Z"/>
</mask>
<path d="M3.14732 8.41275C3.40243 8.69946 3.69842 8.947 4.02573 9.14739L4.19649 8.86846C3.89659 8.68487 3.62539 8.45806 3.39164 8.19535L3.14732 8.41275Z" stroke="white" stroke-width="2" mask="url(#path-6-inside-5_2204_10757)"/>
<mask id="path-7-inside-6_2204_10757" fill="white">
<path d="M3.17992 3.18543C2.92126 3.46895 2.7058 3.78905 2.5405 4.13541L2.83565 4.27627C2.9871 3.95891 3.18451 3.66563 3.42152 3.40586L3.17992 3.18543Z"/>
</mask>
<path d="M3.17992 3.18543C2.92126 3.46895 2.7058 3.78905 2.5405 4.13541L2.83565 4.27627C2.9871 3.95891 3.18451 3.66563 3.42152 3.40586L3.17992 3.18543Z" stroke="white" stroke-width="2" mask="url(#path-7-inside-6_2204_10757)"/>
<mask id="path-8-inside-7_2204_10757" fill="white">
<path d="M2.47352 4.28362C2.42336 4.40109 2.37899 4.52094 2.34057 4.64275L2.65246 4.74112C2.68766 4.62951 2.72832 4.51969 2.77428 4.41207L2.47352 4.28362Z"/>
</mask>
<path d="M2.47352 4.28362C2.42336 4.40109 2.37899 4.52094 2.34057 4.64275L2.65246 4.74112C2.68766 4.62951 2.72832 4.51969 2.77428 4.41207L2.47352 4.28362Z" stroke="white" stroke-width="2" mask="url(#path-8-inside-7_2204_10757)"/>
<mask id="path-9-inside-8_2204_10757" fill="white">
<path d="M5.31463 9.64921C5.43814 9.67338 5.56276 9.69156 5.68803 9.70369L5.71956 9.37818C5.60478 9.36706 5.4906 9.3504 5.37743 9.32825L5.31463 9.64921Z"/>
</mask>
<path d="M5.31463 9.64921C5.43814 9.67338 5.56276 9.69156 5.68803 9.70369L5.71956 9.37818C5.60478 9.36706 5.4906 9.3504 5.37743 9.32825L5.31463 9.64921Z" stroke="white" stroke-width="2" mask="url(#path-9-inside-8_2204_10757)"/>
</svg>
