<svg width="8" height="8" viewBox="0 0 8 8" fill="none" xmlns="http://www.w3.org/2000/svg">
<circle cx="4.29377" cy="3.69069" r="1.91031" transform="rotate(-41.6615 4.29377 3.69069)" stroke="white"/>
<mask id="path-2-inside-1_2204_8727" fill="white">
<path d="M5.93522 1.67031C5.43846 1.26673 4.81043 1.0603 4.17111 1.09047C3.53178 1.12063 2.92598 1.38527 2.46942 1.83383L2.62222 1.98935C3.04054 1.57836 3.5956 1.33589 4.18138 1.30825C4.76716 1.28061 5.34259 1.46975 5.79774 1.83953L5.93522 1.67031Z"/>
</mask>
<path d="M5.93522 1.67031C5.43846 1.26673 4.81043 1.0603 4.17111 1.09047C3.53178 1.12063 2.92598 1.38527 2.46942 1.83383L2.62222 1.98935C3.04054 1.57836 3.5956 1.33589 4.18138 1.30825C4.76716 1.28061 5.34259 1.46975 5.79774 1.83953L5.93522 1.67031Z" stroke="white" stroke-width="2" mask="url(#path-2-inside-1_2204_8727)"/>
<mask id="path-3-inside-2_2204_8727" fill="white">
<path d="M5.90385 5.73619C6.31877 5.40959 6.62456 4.96453 6.78062 4.46008C6.93669 3.95563 6.93565 3.41565 6.77765 2.9118L6.56962 2.97704C6.71438 3.43868 6.71533 3.93344 6.57234 4.39564C6.42934 4.85784 6.14917 5.26562 5.76899 5.56487L5.90385 5.73619Z"/>
</mask>
<path d="M5.90385 5.73619C6.31877 5.40959 6.62456 4.96453 6.78062 4.46008C6.93669 3.95563 6.93565 3.41565 6.77765 2.9118L6.56962 2.97704C6.71438 3.43868 6.71533 3.93344 6.57234 4.39564C6.42934 4.85784 6.14917 5.26562 5.76899 5.56487L5.90385 5.73619Z" stroke="white" stroke-width="2" mask="url(#path-3-inside-2_2204_8727)"/>
<mask id="path-4-inside-3_2204_8727" fill="white">
<path d="M5.10112 6.16548C5.34436 6.08613 5.57457 5.97135 5.78433 5.82485L5.65949 5.6461C5.4673 5.78033 5.25637 5.8855 5.0335 5.9582L5.10112 6.16548Z"/>
</mask>
<path d="M5.10112 6.16548C5.34436 6.08613 5.57457 5.97135 5.78433 5.82485L5.65949 5.6461C5.4673 5.78033 5.25637 5.8855 5.0335 5.9582L5.10112 6.16548Z" stroke="white" stroke-width="2" mask="url(#path-4-inside-3_2204_8727)"/>
<mask id="path-5-inside-4_2204_8727" fill="white">
<path d="M4.14219 6.28942C4.39761 6.30432 4.65384 6.28148 4.9026 6.22164L4.85161 6.00966C4.62368 6.06449 4.38892 6.08541 4.15489 6.07176L4.14219 6.28942Z"/>
</mask>
<path d="M4.14219 6.28942C4.39761 6.30432 4.65384 6.28148 4.9026 6.22164L4.85161 6.00966C4.62368 6.06449 4.38892 6.08541 4.15489 6.07176L4.14219 6.28942Z" stroke="white" stroke-width="2" mask="url(#path-5-inside-4_2204_8727)"/>
<mask id="path-6-inside-5_2204_8727" fill="white">
<path d="M2.34903 5.42108C2.5191 5.61222 2.71643 5.77725 2.93464 5.91084L3.04847 5.72489C2.84854 5.60249 2.66774 5.45129 2.51191 5.27615L2.34903 5.42108Z"/>
</mask>
<path d="M2.34903 5.42108C2.5191 5.61222 2.71643 5.77725 2.93464 5.91084L3.04847 5.72489C2.84854 5.60249 2.66774 5.45129 2.51191 5.27615L2.34903 5.42108Z" stroke="white" stroke-width="2" mask="url(#path-6-inside-5_2204_8727)"/>
<mask id="path-7-inside-6_2204_8727" fill="white">
<path d="M2.37076 1.9362C2.19832 2.12521 2.05468 2.33861 1.94448 2.56952L2.14125 2.66343C2.24222 2.45186 2.37382 2.25633 2.53183 2.08315L2.37076 1.9362Z"/>
</mask>
<path d="M2.37076 1.9362C2.19832 2.12521 2.05468 2.33861 1.94448 2.56952L2.14125 2.66343C2.24222 2.45186 2.37382 2.25633 2.53183 2.08315L2.37076 1.9362Z" stroke="white" stroke-width="2" mask="url(#path-7-inside-6_2204_8727)"/>
<mask id="path-8-inside-7_2204_8727" fill="white">
<path d="M1.89983 2.66833C1.86638 2.74664 1.8368 2.82654 1.81119 2.90775L2.01912 2.97333C2.04259 2.89892 2.06969 2.82571 2.10033 2.75396L1.89983 2.66833Z"/>
</mask>
<path d="M1.89983 2.66833C1.86638 2.74664 1.8368 2.82654 1.81119 2.90775L2.01912 2.97333C2.04259 2.89892 2.06969 2.82571 2.10033 2.75396L1.89983 2.66833Z" stroke="white" stroke-width="2" mask="url(#path-8-inside-7_2204_8727)"/>
<mask id="path-9-inside-8_2204_8727" fill="white">
<path d="M3.7939 6.24539C3.87624 6.2615 3.95932 6.27362 4.04284 6.28171L4.06386 6.0647C3.98733 6.05729 3.91121 6.04618 3.83577 6.03142L3.7939 6.24539Z"/>
</mask>
<path d="M3.7939 6.24539C3.87624 6.2615 3.95932 6.27362 4.04284 6.28171L4.06386 6.0647C3.98733 6.05729 3.91121 6.04618 3.83577 6.03142L3.7939 6.24539Z" stroke="white" stroke-width="2" mask="url(#path-9-inside-8_2204_8727)"/>
</svg>
