<svg width="12" height="12" viewBox="0 0 12 12" fill="none" xmlns="http://www.w3.org/2000/svg">
<circle cx="6.00767" cy="5.77578" r="3.11546" transform="rotate(-41.6615 6.00767 5.77578)" stroke="white"/>
<mask id="path-2-inside-1_2204_11038" fill="white">
<path d="M8.46972 2.74509C7.72459 2.13972 6.78254 1.83008 5.82355 1.87532C4.86457 1.92057 3.95586 2.31753 3.27103 2.99037L3.50023 3.22365C4.1277 2.60716 4.9603 2.24345 5.83897 2.202C6.71764 2.16054 7.58078 2.44425 8.26351 2.99892L8.46972 2.74509Z"/>
</mask>
<path d="M8.46972 2.74509C7.72459 2.13972 6.78254 1.83008 5.82355 1.87532C4.86457 1.92057 3.95586 2.31753 3.27103 2.99037L3.50023 3.22365C4.1277 2.60716 4.9603 2.24345 5.83897 2.202C6.71764 2.16054 7.58078 2.44425 8.26351 2.99892L8.46972 2.74509Z" stroke="white" stroke-width="2" mask="url(#path-2-inside-1_2204_11038)"/>
<mask id="path-3-inside-2_2204_11038" fill="white">
<path d="M8.42266 8.8439C9.04505 8.35401 9.50373 7.68642 9.73783 6.92974C9.97193 6.17307 9.97037 5.36309 9.73337 4.60732L9.42132 4.70518C9.63847 5.39765 9.63989 6.13979 9.4254 6.83308C9.21091 7.52638 8.79064 8.13806 8.22039 8.58692L8.42266 8.8439Z"/>
</mask>
<path d="M8.42266 8.8439C9.04505 8.35401 9.50373 7.68642 9.73783 6.92974C9.97193 6.17307 9.97037 5.36309 9.73337 4.60732L9.42132 4.70518C9.63847 5.39765 9.63989 6.13979 9.4254 6.83308C9.21091 7.52638 8.79064 8.13806 8.22039 8.58692L8.42266 8.8439Z" stroke="white" stroke-width="2" mask="url(#path-3-inside-2_2204_11038)"/>
<mask id="path-4-inside-3_2204_11038" fill="white">
<path d="M7.21857 9.48784C7.58343 9.36881 7.92875 9.19665 8.24339 8.9769L8.05613 8.70878C7.76784 8.91012 7.45145 9.06787 7.11715 9.17693L7.21857 9.48784Z"/>
</mask>
<path d="M7.21857 9.48784C7.58343 9.36881 7.92875 9.19665 8.24339 8.9769L8.05613 8.70878C7.76784 8.91012 7.45145 9.06787 7.11715 9.17693L7.21857 9.48784Z" stroke="white" stroke-width="2" mask="url(#path-4-inside-3_2204_11038)"/>
<mask id="path-5-inside-4_2204_11038" fill="white">
<path d="M5.78019 9.67375C6.16332 9.6961 6.54765 9.66184 6.92079 9.57208L6.8443 9.25412C6.50242 9.33636 6.15027 9.36774 5.79923 9.34727L5.78019 9.67375Z"/>
</mask>
<path d="M5.78019 9.67375C6.16332 9.6961 6.54765 9.66184 6.92079 9.57208L6.8443 9.25412C6.50242 9.33636 6.15027 9.36774 5.79923 9.34727L5.78019 9.67375Z" stroke="white" stroke-width="2" mask="url(#path-5-inside-4_2204_11038)"/>
<mask id="path-6-inside-5_2204_11038" fill="white">
<path d="M3.09043 8.37124C3.34555 8.65796 3.64153 8.9055 3.96885 9.10588L4.1396 8.82696C3.8397 8.64336 3.5685 8.41655 3.33476 8.15385L3.09043 8.37124Z"/>
</mask>
<path d="M3.09043 8.37124C3.34555 8.65796 3.64153 8.9055 3.96885 9.10588L4.1396 8.82696C3.8397 8.64336 3.5685 8.41655 3.33476 8.15385L3.09043 8.37124Z" stroke="white" stroke-width="2" mask="url(#path-6-inside-5_2204_11038)"/>
<mask id="path-7-inside-6_2204_11038" fill="white">
<path d="M3.12304 3.14393C2.86437 3.42744 2.64891 3.74754 2.48362 4.09391L2.77877 4.23476C2.93022 3.91741 3.12763 3.62412 3.36463 3.36435L3.12304 3.14393Z"/>
</mask>
<path d="M3.12304 3.14393C2.86437 3.42744 2.64891 3.74754 2.48362 4.09391L2.77877 4.23476C2.93022 3.91741 3.12763 3.62412 3.36463 3.36435L3.12304 3.14393Z" stroke="white" stroke-width="2" mask="url(#path-7-inside-6_2204_11038)"/>
<mask id="path-8-inside-7_2204_11038" fill="white">
<path d="M2.41664 4.24212C2.36647 4.35958 2.3221 4.47944 2.28368 4.60125L2.59558 4.69961C2.63078 4.588 2.67143 4.47819 2.71739 4.37056L2.41664 4.24212Z"/>
</mask>
<path d="M2.41664 4.24212C2.36647 4.35958 2.3221 4.47944 2.28368 4.60125L2.59558 4.69961C2.63078 4.588 2.67143 4.47819 2.71739 4.37056L2.41664 4.24212Z" stroke="white" stroke-width="2" mask="url(#path-8-inside-7_2204_11038)"/>
<mask id="path-9-inside-8_2204_11038" fill="white">
<path d="M5.25774 9.6077C5.38126 9.63187 5.50587 9.65005 5.63115 9.66219L5.66268 9.33667C5.54789 9.32556 5.43372 9.3089 5.32054 9.28675L5.25774 9.6077Z"/>
</mask>
<path d="M5.25774 9.6077C5.38126 9.63187 5.50587 9.65005 5.63115 9.66219L5.66268 9.33667C5.54789 9.32556 5.43372 9.3089 5.32054 9.28675L5.25774 9.6077Z" stroke="white" stroke-width="2" mask="url(#path-9-inside-8_2204_11038)"/>
</svg>
