<svg width="8" height="8" viewBox="0 0 8 8" fill="none" xmlns="http://www.w3.org/2000/svg">
<circle cx="4.29377" cy="3.69081" r="1.91031" transform="rotate(-41.6615 4.29377 3.69081)" stroke="white"/>
<mask id="path-2-inside-1_2204_10299" fill="white">
<path d="M5.93522 1.67043C5.43846 1.26685 4.81043 1.06042 4.17111 1.09059C3.53178 1.12075 2.92598 1.38539 2.46942 1.83395L2.62222 1.98947C3.04054 1.57848 3.5956 1.33601 4.18138 1.30837C4.76716 1.28073 5.34259 1.46987 5.79774 1.83965L5.93522 1.67043Z"/>
</mask>
<path d="M5.93522 1.67043C5.43846 1.26685 4.81043 1.06042 4.17111 1.09059C3.53178 1.12075 2.92598 1.38539 2.46942 1.83395L2.62222 1.98947C3.04054 1.57848 3.5956 1.33601 4.18138 1.30837C4.76716 1.28073 5.34259 1.46987 5.79774 1.83965L5.93522 1.67043Z" stroke="white" stroke-width="2" mask="url(#path-2-inside-1_2204_10299)"/>
<mask id="path-3-inside-2_2204_10299" fill="white">
<path d="M5.90385 5.73631C6.31877 5.40971 6.62456 4.96465 6.78062 4.4602C6.93669 3.95575 6.93565 3.41577 6.77765 2.91192L6.56962 2.97716C6.71438 3.4388 6.71533 3.93356 6.57234 4.39576C6.42934 4.85796 6.14917 5.26575 5.76899 5.56499L5.90385 5.73631Z"/>
</mask>
<path d="M5.90385 5.73631C6.31877 5.40971 6.62456 4.96465 6.78062 4.4602C6.93669 3.95575 6.93565 3.41577 6.77765 2.91192L6.56962 2.97716C6.71438 3.4388 6.71533 3.93356 6.57234 4.39576C6.42934 4.85796 6.14917 5.26575 5.76899 5.56499L5.90385 5.73631Z" stroke="white" stroke-width="2" mask="url(#path-3-inside-2_2204_10299)"/>
<mask id="path-4-inside-3_2204_10299" fill="white">
<path d="M5.10112 6.1656C5.34436 6.08625 5.57457 5.97147 5.78433 5.82497L5.65949 5.64622C5.4673 5.78046 5.25637 5.88562 5.0335 5.95832L5.10112 6.1656Z"/>
</mask>
<path d="M5.10112 6.1656C5.34436 6.08625 5.57457 5.97147 5.78433 5.82497L5.65949 5.64622C5.4673 5.78046 5.25637 5.88562 5.0335 5.95832L5.10112 6.1656Z" stroke="white" stroke-width="2" mask="url(#path-4-inside-3_2204_10299)"/>
<mask id="path-5-inside-4_2204_10299" fill="white">
<path d="M4.14219 6.28954C4.39761 6.30444 4.65384 6.2816 4.9026 6.22176L4.85161 6.00978C4.62368 6.06461 4.38892 6.08554 4.15489 6.07188L4.14219 6.28954Z"/>
</mask>
<path d="M4.14219 6.28954C4.39761 6.30444 4.65384 6.2816 4.9026 6.22176L4.85161 6.00978C4.62368 6.06461 4.38892 6.08554 4.15489 6.07188L4.14219 6.28954Z" stroke="white" stroke-width="2" mask="url(#path-5-inside-4_2204_10299)"/>
<mask id="path-6-inside-5_2204_10299" fill="white">
<path d="M2.34903 5.4212C2.5191 5.61235 2.71643 5.77737 2.93464 5.91096L3.04847 5.72501C2.84854 5.60261 2.66774 5.45141 2.51191 5.27627L2.34903 5.4212Z"/>
</mask>
<path d="M2.34903 5.4212C2.5191 5.61235 2.71643 5.77737 2.93464 5.91096L3.04847 5.72501C2.84854 5.60261 2.66774 5.45141 2.51191 5.27627L2.34903 5.4212Z" stroke="white" stroke-width="2" mask="url(#path-6-inside-5_2204_10299)"/>
<mask id="path-7-inside-6_2204_10299" fill="white">
<path d="M2.37076 1.93633C2.19832 2.12534 2.05468 2.33874 1.94448 2.56964L2.14125 2.66355C2.24222 2.45198 2.37382 2.25645 2.53183 2.08327L2.37076 1.93633Z"/>
</mask>
<path d="M2.37076 1.93633C2.19832 2.12534 2.05468 2.33874 1.94448 2.56964L2.14125 2.66355C2.24222 2.45198 2.37382 2.25645 2.53183 2.08327L2.37076 1.93633Z" stroke="white" stroke-width="2" mask="url(#path-7-inside-6_2204_10299)"/>
<mask id="path-8-inside-7_2204_10299" fill="white">
<path d="M1.89983 2.66845C1.86638 2.74676 1.8368 2.82666 1.81119 2.90787L2.01912 2.97345C2.04259 2.89904 2.06969 2.82583 2.10033 2.75408L1.89983 2.66845Z"/>
</mask>
<path d="M1.89983 2.66845C1.86638 2.74676 1.8368 2.82666 1.81119 2.90787L2.01912 2.97345C2.04259 2.89904 2.06969 2.82583 2.10033 2.75408L1.89983 2.66845Z" stroke="white" stroke-width="2" mask="url(#path-8-inside-7_2204_10299)"/>
<mask id="path-9-inside-8_2204_10299" fill="white">
<path d="M3.7939 6.24551C3.87624 6.26162 3.95932 6.27374 4.04284 6.28183L4.06386 6.06482C3.98733 6.05741 3.91121 6.0463 3.83577 6.03154L3.7939 6.24551Z"/>
</mask>
<path d="M3.7939 6.24551C3.87624 6.26162 3.95932 6.27374 4.04284 6.28183L4.06386 6.06482C3.98733 6.05741 3.91121 6.0463 3.83577 6.03154L3.7939 6.24551Z" stroke="white" stroke-width="2" mask="url(#path-9-inside-8_2204_10299)"/>
</svg>
