<svg width="52" height="52" viewBox="0 0 52 52" fill="none" xmlns="http://www.w3.org/2000/svg">
<circle cx="26.1123" cy="26.3503" r="16.1867" transform="rotate(-41.6615 26.1123 26.3503)" stroke="#333333"/>
<mask id="path-2-inside-1_2202_15721" fill="white">
<path d="M37.4759 12.3631C34.0369 9.56905 29.689 8.13994 25.2629 8.34877C20.8368 8.55759 16.6427 10.3897 13.482 13.4951L14.5398 14.5718C17.4358 11.7265 21.2786 10.0478 25.334 9.8565C29.3894 9.66516 33.3731 10.9746 36.5242 13.5346L37.4759 12.3631Z"/>
</mask>
<path d="M37.4759 12.3631C34.0369 9.56905 29.689 8.13994 25.2629 8.34877C20.8368 8.55759 16.6427 10.3897 13.482 13.4951L14.5398 14.5718C17.4358 11.7265 21.2786 10.0478 25.334 9.8565C29.3894 9.66516 33.3731 10.9746 36.5242 13.5346L37.4759 12.3631Z" stroke="#333333" stroke-width="2" mask="url(#path-2-inside-1_2202_15721)"/>
<mask id="path-3-inside-2_2202_15721" fill="white">
<path d="M37.2587 40.5115C40.1313 38.2504 42.2483 35.1692 43.3287 31.6769C44.4092 28.1845 44.402 24.4462 43.3082 20.958L41.8679 21.4096C42.8702 24.6057 42.8767 28.0309 41.8868 31.2308C40.8968 34.4306 38.9571 37.2537 36.3252 39.3254L37.2587 40.5115Z"/>
</mask>
<path d="M37.2587 40.5115C40.1313 38.2504 42.2483 35.1692 43.3287 31.6769C44.4092 28.1845 44.402 24.4462 43.3082 20.958L41.8679 21.4096C42.8702 24.6057 42.8767 28.0309 41.8868 31.2308C40.8968 34.4306 38.9571 37.2537 36.3252 39.3254L37.2587 40.5115Z" stroke="#333333" stroke-width="2" mask="url(#path-3-inside-2_2202_15721)"/>
<mask id="path-4-inside-3_2202_15721" fill="white">
<path d="M31.7014 43.4835C33.3854 42.9341 34.9791 42.1395 36.4313 41.1253L35.567 39.8878C34.2365 40.8171 32.7762 41.5451 31.2333 42.0485L31.7014 43.4835Z"/>
</mask>
<path d="M31.7014 43.4835C33.3854 42.9341 34.9791 42.1395 36.4313 41.1253L35.567 39.8878C34.2365 40.8171 32.7762 41.5451 31.2333 42.0485L31.7014 43.4835Z" stroke="#333333" stroke-width="2" mask="url(#path-4-inside-3_2202_15721)"/>
<mask id="path-5-inside-4_2202_15721" fill="white">
<path d="M25.0627 44.3415C26.831 44.4447 28.6048 44.2865 30.327 43.8723L29.974 42.4047C28.3961 42.7843 26.7708 42.9292 25.1506 42.8347L25.0627 44.3415Z"/>
</mask>
<path d="M25.0627 44.3415C26.831 44.4447 28.6048 44.2865 30.327 43.8723L29.974 42.4047C28.3961 42.7843 26.7708 42.9292 25.1506 42.8347L25.0627 44.3415Z" stroke="#333333" stroke-width="2" mask="url(#path-5-inside-4_2202_15721)"/>
<mask id="path-6-inside-5_2202_15721" fill="white">
<path d="M12.6485 38.3299C13.8259 39.6532 15.192 40.7957 16.7027 41.7206L17.4908 40.4333C16.1066 39.5859 14.8549 38.5391 13.7761 37.3266L12.6485 38.3299Z"/>
</mask>
<path d="M12.6485 38.3299C13.8259 39.6532 15.192 40.7957 16.7027 41.7206L17.4908 40.4333C16.1066 39.5859 14.8549 38.5391 13.7761 37.3266L12.6485 38.3299Z" stroke="#333333" stroke-width="2" mask="url(#path-6-inside-5_2202_15721)"/>
<mask id="path-7-inside-6_2202_15721" fill="white">
<path d="M12.7989 14.2039C11.6051 15.5124 10.6107 16.9898 9.84776 18.5884L11.21 19.2385C11.909 17.7738 12.8201 16.4201 13.914 15.2212L12.7989 14.2039Z"/>
</mask>
<path d="M12.7989 14.2039C11.6051 15.5124 10.6107 16.9898 9.84776 18.5884L11.21 19.2385C11.909 17.7738 12.8201 16.4201 13.914 15.2212L12.7989 14.2039Z" stroke="#333333" stroke-width="2" mask="url(#path-7-inside-6_2202_15721)"/>
<mask id="path-8-inside-7_2202_15721" fill="white">
<path d="M9.53862 19.2725C9.30709 19.8146 9.10231 20.3678 8.925 20.93L10.3645 21.384C10.527 20.8688 10.7146 20.362 10.9267 19.8653L9.53862 19.2725Z"/>
</mask>
<path d="M9.53862 19.2725C9.30709 19.8146 9.10231 20.3678 8.925 20.93L10.3645 21.384C10.527 20.8688 10.7146 20.362 10.9267 19.8653L9.53862 19.2725Z" stroke="#333333" stroke-width="2" mask="url(#path-8-inside-7_2202_15721)"/>
<mask id="path-9-inside-8_2202_15721" fill="white">
<path d="M22.6514 44.0367C23.2215 44.1482 23.7966 44.2321 24.3748 44.2881L24.5203 42.7858C23.9906 42.7345 23.4636 42.6576 22.9413 42.5554L22.6514 44.0367Z"/>
</mask>
<path d="M22.6514 44.0367C23.2215 44.1482 23.7966 44.2321 24.3748 44.2881L24.5203 42.7858C23.9906 42.7345 23.4636 42.6576 22.9413 42.5554L22.6514 44.0367Z" stroke="#333333" stroke-width="2" mask="url(#path-9-inside-8_2202_15721)"/>
</svg>
