<svg width="35" height="34" viewBox="0 0 35 34" fill="none" xmlns="http://www.w3.org/2000/svg">
<circle cx="17.0485" cy="17.0343" r="10.6245" transform="rotate(-41.6615 17.0485 17.0343)" stroke="#333333"/>
<mask id="path-2-inside-1_2202_15755" fill="white">
<path d="M24.6244 7.7095C22.3317 5.84682 19.4331 4.89408 16.4824 5.03329C13.5316 5.17251 10.7356 6.39392 8.62845 8.4642L9.33367 9.182C11.2644 7.28512 13.8262 6.166 16.5298 6.03845C19.2334 5.91089 21.8892 6.78383 23.9899 8.49051L24.6244 7.7095Z"/>
</mask>
<path d="M24.6244 7.7095C22.3317 5.84682 19.4331 4.89408 16.4824 5.03329C13.5316 5.17251 10.7356 6.39392 8.62845 8.4642L9.33367 9.182C11.2644 7.28512 13.8262 6.166 16.5298 6.03845C19.2334 5.91089 21.8892 6.78383 23.9899 8.49051L24.6244 7.7095Z" stroke="#333333" stroke-width="2" mask="url(#path-2-inside-1_2202_15755)"/>
<mask id="path-3-inside-2_2202_15755" fill="white">
<path d="M24.4796 26.4751C26.3946 24.9677 27.806 22.9136 28.5263 20.5854C29.2466 18.2571 29.2418 15.7649 28.5126 13.4394L27.5524 13.7405C28.2206 15.8712 28.2249 18.1547 27.565 20.2879C26.905 22.4212 25.6119 24.3033 23.8572 25.6844L24.4796 26.4751Z"/>
</mask>
<path d="M24.4796 26.4751C26.3946 24.9677 27.806 22.9136 28.5263 20.5854C29.2466 18.2571 29.2418 15.7649 28.5126 13.4394L27.5524 13.7405C28.2206 15.8712 28.2249 18.1547 27.565 20.2879C26.905 22.4212 25.6119 24.3033 23.8572 25.6844L24.4796 26.4751Z" stroke="#333333" stroke-width="2" mask="url(#path-3-inside-2_2202_15755)"/>
<mask id="path-4-inside-3_2202_15755" fill="white">
<path d="M20.7747 28.4564C21.8974 28.0902 22.9599 27.5604 23.928 26.8843L23.3518 26.0593C22.4648 26.6788 21.4913 27.1642 20.4627 27.4998L20.7747 28.4564Z"/>
</mask>
<path d="M20.7747 28.4564C21.8974 28.0902 22.9599 27.5604 23.928 26.8843L23.3518 26.0593C22.4648 26.6788 21.4913 27.1642 20.4627 27.4998L20.7747 28.4564Z" stroke="#333333" stroke-width="2" mask="url(#path-4-inside-3_2202_15755)"/>
<mask id="path-5-inside-4_2202_15755" fill="white">
<path d="M16.3489 29.0285C17.5278 29.0972 18.7104 28.9918 19.8585 28.7156L19.6231 27.7373C18.5712 27.9903 17.4877 28.0869 16.4075 28.0239L16.3489 29.0285Z"/>
</mask>
<path d="M16.3489 29.0285C17.5278 29.0972 18.7104 28.9918 19.8585 28.7156L19.6231 27.7373C18.5712 27.9903 17.4877 28.0869 16.4075 28.0239L16.3489 29.0285Z" stroke="#333333" stroke-width="2" mask="url(#path-5-inside-4_2202_15755)"/>
<mask id="path-6-inside-5_2202_15755" fill="white">
<path d="M8.07277 25.0207C8.85773 25.9029 9.76846 26.6646 10.7756 27.2812L11.301 26.423C10.3782 25.858 9.54375 25.1602 8.82454 24.3518L8.07277 25.0207Z"/>
</mask>
<path d="M8.07277 25.0207C8.85773 25.9029 9.76846 26.6646 10.7756 27.2812L11.301 26.423C10.3782 25.858 9.54375 25.1602 8.82454 24.3518L8.07277 25.0207Z" stroke="#333333" stroke-width="2" mask="url(#path-6-inside-5_2202_15755)"/>
<mask id="path-7-inside-6_2202_15755" fill="white">
<path d="M8.17309 8.9367C7.37719 9.80905 6.71424 10.794 6.20564 11.8597L7.11379 12.2931C7.5798 11.3166 8.18722 10.4142 8.91646 9.61493L8.17309 8.9367Z"/>
</mask>
<path d="M8.17309 8.9367C7.37719 9.80905 6.71424 10.794 6.20564 11.8597L7.11379 12.2931C7.5798 11.3166 8.18722 10.4142 8.91646 9.61493L8.17309 8.9367Z" stroke="#333333" stroke-width="2" mask="url(#path-7-inside-6_2202_15755)"/>
<mask id="path-8-inside-7_2202_15755" fill="white">
<path d="M5.99954 12.3158C5.84519 12.6772 5.70867 13.046 5.59046 13.4208L6.55014 13.7234C6.65844 13.38 6.78353 13.0421 6.92495 12.711L5.99954 12.3158Z"/>
</mask>
<path d="M5.99954 12.3158C5.84519 12.6772 5.70867 13.046 5.59046 13.4208L6.55014 13.7234C6.65844 13.38 6.78353 13.0421 6.92495 12.711L5.99954 12.3158Z" stroke="#333333" stroke-width="2" mask="url(#path-8-inside-7_2202_15755)"/>
<mask id="path-9-inside-8_2202_15755" fill="white">
<path d="M14.7414 28.8252C15.1215 28.8996 15.5049 28.9555 15.8904 28.9929L15.9874 27.9913C15.6342 27.9571 15.2829 27.9058 14.9346 27.8377L14.7414 28.8252Z"/>
</mask>
<path d="M14.7414 28.8252C15.1215 28.8996 15.5049 28.9555 15.8904 28.9929L15.9874 27.9913C15.6342 27.9571 15.2829 27.9058 14.9346 27.8377L14.7414 28.8252Z" stroke="#333333" stroke-width="2" mask="url(#path-9-inside-8_2202_15755)"/>
</svg>
