<svg width="35" height="35" viewBox="0 0 35 35" fill="none" xmlns="http://www.w3.org/2000/svg">
<circle cx="17.1996" cy="17.4518" r="10.6245" transform="rotate(-41.6615 17.1996 17.4518)" stroke="#333333"/>
<mask id="path-2-inside-1_2202_15179" fill="white">
<path d="M24.7753 8.12698C22.4826 6.2643 19.584 5.31156 16.6332 5.45077C13.6825 5.58999 10.8865 6.8114 8.77932 8.88168L9.48455 9.59948C11.4152 7.7026 13.9771 6.58348 16.6807 6.45593C19.3843 6.32837 22.0401 7.20131 24.1408 8.90799L24.7753 8.12698Z"/>
</mask>
<path d="M24.7753 8.12698C22.4826 6.2643 19.584 5.31156 16.6332 5.45077C13.6825 5.58999 10.8865 6.8114 8.77932 8.88168L9.48455 9.59948C11.4152 7.7026 13.9771 6.58348 16.6807 6.45593C19.3843 6.32837 22.0401 7.20131 24.1408 8.90799L24.7753 8.12698Z" stroke="#333333" stroke-width="2" mask="url(#path-2-inside-1_2202_15179)"/>
<mask id="path-3-inside-2_2202_15179" fill="white">
<path d="M24.6305 26.8926C26.5455 25.3852 27.9569 23.3311 28.6772 21.0028C29.3975 18.6746 29.3927 16.1824 28.6635 13.8569L27.7033 14.158C28.3714 16.2887 28.3758 18.5722 27.7158 20.7054C27.0559 22.8387 25.7627 24.7207 24.0081 26.1019L24.6305 26.8926Z"/>
</mask>
<path d="M24.6305 26.8926C26.5455 25.3852 27.9569 23.3311 28.6772 21.0028C29.3975 18.6746 29.3927 16.1824 28.6635 13.8569L27.7033 14.158C28.3714 16.2887 28.3758 18.5722 27.7158 20.7054C27.0559 22.8387 25.7627 24.7207 24.0081 26.1019L24.6305 26.8926Z" stroke="#333333" stroke-width="2" mask="url(#path-3-inside-2_2202_15179)"/>
<mask id="path-4-inside-3_2202_15179" fill="white">
<path d="M20.9256 28.8739C22.0483 28.5077 23.1108 27.9779 24.0789 27.3018L23.5027 26.4768C22.6157 27.0963 21.6421 27.5817 20.6135 27.9173L20.9256 28.8739Z"/>
</mask>
<path d="M20.9256 28.8739C22.0483 28.5077 23.1108 27.9779 24.0789 27.3018L23.5027 26.4768C22.6157 27.0963 21.6421 27.5817 20.6135 27.9173L20.9256 28.8739Z" stroke="#333333" stroke-width="2" mask="url(#path-4-inside-3_2202_15179)"/>
<mask id="path-5-inside-4_2202_15179" fill="white">
<path d="M16.4998 29.4459C17.6787 29.5147 18.8612 29.4093 20.0094 29.1331L19.774 28.1548C18.7221 28.4078 17.6385 28.5044 16.5584 28.4414L16.4998 29.4459Z"/>
</mask>
<path d="M16.4998 29.4459C17.6787 29.5147 18.8612 29.4093 20.0094 29.1331L19.774 28.1548C18.7221 28.4078 17.6385 28.5044 16.5584 28.4414L16.4998 29.4459Z" stroke="#333333" stroke-width="2" mask="url(#path-5-inside-4_2202_15179)"/>
<mask id="path-6-inside-5_2202_15179" fill="white">
<path d="M8.22365 25.4382C9.00861 26.3204 9.91934 27.0821 10.9265 27.6986L11.4519 26.8404C10.5291 26.2755 9.69463 25.5776 8.97542 24.7693L8.22365 25.4382Z"/>
</mask>
<path d="M8.22365 25.4382C9.00861 26.3204 9.91934 27.0821 10.9265 27.6986L11.4519 26.8404C10.5291 26.2755 9.69463 25.5776 8.97542 24.7693L8.22365 25.4382Z" stroke="#333333" stroke-width="2" mask="url(#path-6-inside-5_2202_15179)"/>
<mask id="path-7-inside-6_2202_15179" fill="white">
<path d="M8.32397 9.35418C7.52807 10.2265 6.86512 11.2115 6.35652 12.2772L7.26467 12.7106C7.73068 11.7341 8.3381 10.8317 9.06734 10.0324L8.32397 9.35418Z"/>
</mask>
<path d="M8.32397 9.35418C7.52807 10.2265 6.86512 11.2115 6.35652 12.2772L7.26467 12.7106C7.73068 11.7341 8.3381 10.8317 9.06734 10.0324L8.32397 9.35418Z" stroke="#333333" stroke-width="2" mask="url(#path-7-inside-6_2202_15179)"/>
<mask id="path-8-inside-7_2202_15179" fill="white">
<path d="M6.15042 12.7332C5.99607 13.0947 5.85955 13.4634 5.74134 13.8382L6.70102 14.1409C6.80932 13.7975 6.93441 13.4596 7.07583 13.1284L6.15042 12.7332Z"/>
</mask>
<path d="M6.15042 12.7332C5.99607 13.0947 5.85955 13.4634 5.74134 13.8382L6.70102 14.1409C6.80932 13.7975 6.93441 13.4596 7.07583 13.1284L6.15042 12.7332Z" stroke="#333333" stroke-width="2" mask="url(#path-8-inside-7_2202_15179)"/>
<mask id="path-9-inside-8_2202_15179" fill="white">
<path d="M14.8923 29.2427C15.2723 29.3171 15.6558 29.373 16.0412 29.4104L16.1382 28.4088C15.7851 28.3746 15.4337 28.3233 15.0855 28.2552L14.8923 29.2427Z"/>
</mask>
<path d="M14.8923 29.2427C15.2723 29.3171 15.6558 29.373 16.0412 29.4104L16.1382 28.4088C15.7851 28.3746 15.4337 28.3233 15.0855 28.2552L14.8923 29.2427Z" stroke="#333333" stroke-width="2" mask="url(#path-9-inside-8_2202_15179)"/>
</svg>
