<svg width="15" height="15" viewBox="0 0 15 15" fill="none" xmlns="http://www.w3.org/2000/svg">
<path d="M13.0518 7.22462C13.0518 10.5427 10.362 13.2324 7.04396 13.2324C3.72593 13.2324 1.03613 10.5427 1.03613 7.22462C1.03613 3.90659 3.72593 1.2168 7.04396 1.2168C10.362 1.2168 13.0518 3.90659 13.0518 7.22462Z" stroke="white"/>
<mask id="path-2-inside-1_2204_9197" fill="white">
<path d="M13.9812 6.09534C13.7035 4.38969 12.8072 2.84614 11.4634 1.75954C10.1197 0.672945 8.42274 0.11948 6.69676 0.204876L6.72585 0.792825C8.30727 0.714581 9.8621 1.22169 11.0933 2.21728C12.3245 3.21287 13.1457 4.62714 13.4002 6.18993L13.9812 6.09534Z"/>
</mask>
<path d="M13.9812 6.09534C13.7035 4.38969 12.8072 2.84614 11.4634 1.75954C10.1197 0.672945 8.42274 0.11948 6.69676 0.204876L6.72585 0.792825C8.30727 0.714581 9.8621 1.22169 11.0933 2.21728C12.3245 3.21287 13.1457 4.62714 13.4002 6.18993L13.9812 6.09534Z" stroke="white" stroke-width="2" mask="url(#path-2-inside-1_2204_9197)"/>
<mask id="path-3-inside-2_2204_9197" fill="white">
<path d="M6.62061 14.2404C8.04373 14.3263 9.45932 13.9774 10.6795 13.24C11.8997 12.5025 12.8667 11.4114 13.4523 10.1115L12.9156 9.86976C12.3791 11.0608 11.493 12.0605 10.375 12.7362C9.25703 13.4118 7.96 13.7315 6.65608 13.6528L6.62061 14.2404Z"/>
</mask>
<path d="M6.62061 14.2404C8.04373 14.3263 9.45932 13.9774 10.6795 13.24C11.8997 12.5025 12.8667 11.4114 13.4523 10.1115L12.9156 9.86976C12.3791 11.0608 11.493 12.0605 10.375 12.7362C9.25703 13.4118 7.96 13.7315 6.65608 13.6528L6.62061 14.2404Z" stroke="white" stroke-width="2" mask="url(#path-3-inside-2_2204_9197)"/>
<mask id="path-4-inside-3_2204_9197" fill="white">
<path d="M4.23093 13.6657C4.86399 13.9421 5.53436 14.1238 6.22041 14.2048L6.28939 13.6201C5.6608 13.546 5.04658 13.3795 4.46655 13.1262L4.23093 13.6657Z"/>
</mask>
<path d="M4.23093 13.6657C4.86399 13.9421 5.53436 14.1238 6.22041 14.2048L6.28939 13.6201C5.6608 13.546 5.04658 13.3795 4.46655 13.1262L4.23093 13.6657Z" stroke="white" stroke-width="2" mask="url(#path-4-inside-3_2204_9197)"/>
<mask id="path-5-inside-4_2204_9197" fill="white">
<path d="M2.07421 12.1946C2.56269 12.6831 3.12051 13.0969 3.72968 13.4226L4.00728 12.9035C3.44913 12.6051 2.93803 12.2259 2.49046 11.7784L2.07421 12.1946Z"/>
</mask>
<path d="M2.07421 12.1946C2.56269 12.6831 3.12051 13.0969 3.72968 13.4226L4.00728 12.9035C3.44913 12.6051 2.93803 12.2259 2.49046 11.7784L2.07421 12.1946Z" stroke="white" stroke-width="2" mask="url(#path-5-inside-4_2204_9197)"/>
<mask id="path-6-inside-5_2204_9197" fill="white">
<path d="M0.015625 7.22474C0.0156249 7.91555 0.117469 8.60258 0.317871 9.26368L0.881225 9.09291C0.697607 8.48718 0.604293 7.85769 0.604293 7.22474H0.015625Z"/>
</mask>
<path d="M0.015625 7.22474C0.0156249 7.91555 0.117469 8.60258 0.317871 9.26368L0.881225 9.09291C0.697607 8.48718 0.604293 7.85769 0.604293 7.22474H0.015625Z" stroke="white" stroke-width="2" mask="url(#path-6-inside-5_2204_9197)"/>
<mask id="path-7-inside-6_2204_9197" fill="white">
<path d="M6.314 0.23431C5.62693 0.306067 4.95419 0.478725 4.31748 0.746715L4.54585 1.28928C5.12923 1.04374 5.74563 0.88554 6.37515 0.819793L6.314 0.23431Z"/>
</mask>
<path d="M6.314 0.23431C5.62693 0.306067 4.95419 0.478725 4.31748 0.746715L4.54585 1.28928C5.12923 1.04374 5.74563 0.88554 6.37515 0.819793L6.314 0.23431Z" stroke="white" stroke-width="2" mask="url(#path-7-inside-6_2204_9197)"/>
<mask id="path-8-inside-7_2204_9197" fill="white">
<path d="M4.05007 0.865885C3.84207 0.963821 3.63899 1.0719 3.44158 1.18974L3.74331 1.69521C3.92419 1.58723 4.11025 1.4882 4.30083 1.39847L4.05007 0.865885Z"/>
</mask>
<path d="M4.05007 0.865885C3.84207 0.963821 3.63899 1.0719 3.44158 1.18974L3.74331 1.69521C3.92419 1.58723 4.11025 1.4882 4.30083 1.39847L4.05007 0.865885Z" stroke="white" stroke-width="2" mask="url(#path-8-inside-7_2204_9197)"/>
<mask id="path-9-inside-8_2204_9197" fill="white">
<path d="M1.45068 11.4807C1.58786 11.661 1.73368 11.8345 1.88763 12.0007L2.31951 11.6007C2.17845 11.4484 2.04485 11.2894 1.91915 11.1242L1.45068 11.4807Z"/>
</mask>
<path d="M1.45068 11.4807C1.58786 11.661 1.73368 11.8345 1.88763 12.0007L2.31951 11.6007C2.17845 11.4484 2.04485 11.2894 1.91915 11.1242L1.45068 11.4807Z" stroke="white" stroke-width="2" mask="url(#path-9-inside-8_2204_9197)"/>
</svg>
