<svg width="12" height="12" viewBox="0 0 12 12" fill="none" xmlns="http://www.w3.org/2000/svg">
<circle cx="6.00767" cy="5.77603" r="3.11546" transform="rotate(-41.6615 6.00767 5.77603)" stroke="white"/>
<mask id="path-2-inside-1_2204_9217" fill="white">
<path d="M8.46972 2.74533C7.72459 2.13996 6.78254 1.83032 5.82355 1.87557C4.86457 1.92081 3.95586 2.31777 3.27103 2.99061L3.50023 3.22389C4.1277 2.60741 4.9603 2.2437 5.83897 2.20224C6.71764 2.16079 7.58078 2.44449 8.26351 2.99916L8.46972 2.74533Z"/>
</mask>
<path d="M8.46972 2.74533C7.72459 2.13996 6.78254 1.83032 5.82355 1.87557C4.86457 1.92081 3.95586 2.31777 3.27103 2.99061L3.50023 3.22389C4.1277 2.60741 4.9603 2.2437 5.83897 2.20224C6.71764 2.16079 7.58078 2.44449 8.26351 2.99916L8.46972 2.74533Z" stroke="white" stroke-width="2" mask="url(#path-2-inside-1_2204_9217)"/>
<mask id="path-3-inside-2_2204_9217" fill="white">
<path d="M8.42266 8.84415C9.04505 8.35425 9.50373 7.68666 9.73783 6.92999C9.97193 6.17331 9.97037 5.36334 9.73337 4.60756L9.42132 4.70542C9.63847 5.39789 9.63989 6.14003 9.4254 6.83333C9.21091 7.52663 8.79064 8.1383 8.22039 8.58717L8.42266 8.84415Z"/>
</mask>
<path d="M8.42266 8.84415C9.04505 8.35425 9.50373 7.68666 9.73783 6.92999C9.97193 6.17331 9.97037 5.36334 9.73337 4.60756L9.42132 4.70542C9.63847 5.39789 9.63989 6.14003 9.4254 6.83333C9.21091 7.52663 8.79064 8.1383 8.22039 8.58717L8.42266 8.84415Z" stroke="white" stroke-width="2" mask="url(#path-3-inside-2_2204_9217)"/>
<mask id="path-4-inside-3_2204_9217" fill="white">
<path d="M7.21857 9.48808C7.58343 9.36906 7.92875 9.19689 8.24339 8.97714L8.05613 8.70902C7.76784 8.91037 7.45145 9.06811 7.11715 9.17717L7.21857 9.48808Z"/>
</mask>
<path d="M7.21857 9.48808C7.58343 9.36906 7.92875 9.19689 8.24339 8.97714L8.05613 8.70902C7.76784 8.91037 7.45145 9.06811 7.11715 9.17717L7.21857 9.48808Z" stroke="white" stroke-width="2" mask="url(#path-4-inside-3_2204_9217)"/>
<mask id="path-5-inside-4_2204_9217" fill="white">
<path d="M5.78019 9.67399C6.16332 9.69634 6.54765 9.66209 6.92079 9.57233L6.8443 9.25436C6.50242 9.3366 6.15027 9.36799 5.79923 9.34751L5.78019 9.67399Z"/>
</mask>
<path d="M5.78019 9.67399C6.16332 9.69634 6.54765 9.66209 6.92079 9.57233L6.8443 9.25436C6.50242 9.3366 6.15027 9.36799 5.79923 9.34751L5.78019 9.67399Z" stroke="white" stroke-width="2" mask="url(#path-5-inside-4_2204_9217)"/>
<mask id="path-6-inside-5_2204_9217" fill="white">
<path d="M3.09043 8.37149C3.34555 8.6582 3.64153 8.90575 3.96885 9.10613L4.1396 8.8272C3.8397 8.64361 3.5685 8.4168 3.33476 8.15409L3.09043 8.37149Z"/>
</mask>
<path d="M3.09043 8.37149C3.34555 8.6582 3.64153 8.90575 3.96885 9.10613L4.1396 8.8272C3.8397 8.64361 3.5685 8.4168 3.33476 8.15409L3.09043 8.37149Z" stroke="white" stroke-width="2" mask="url(#path-6-inside-5_2204_9217)"/>
<mask id="path-7-inside-6_2204_9217" fill="white">
<path d="M3.12304 3.14418C2.86437 3.42769 2.64891 3.74779 2.48362 4.09415L2.77877 4.23501C2.93022 3.91765 3.12763 3.62437 3.36463 3.3646L3.12304 3.14418Z"/>
</mask>
<path d="M3.12304 3.14418C2.86437 3.42769 2.64891 3.74779 2.48362 4.09415L2.77877 4.23501C2.93022 3.91765 3.12763 3.62437 3.36463 3.3646L3.12304 3.14418Z" stroke="white" stroke-width="2" mask="url(#path-7-inside-6_2204_9217)"/>
<mask id="path-8-inside-7_2204_9217" fill="white">
<path d="M2.41664 4.24237C2.36647 4.35983 2.3221 4.47968 2.28368 4.60149L2.59558 4.69986C2.63078 4.58825 2.67143 4.47843 2.71739 4.37081L2.41664 4.24237Z"/>
</mask>
<path d="M2.41664 4.24237C2.36647 4.35983 2.3221 4.47968 2.28368 4.60149L2.59558 4.69986C2.63078 4.58825 2.67143 4.47843 2.71739 4.37081L2.41664 4.24237Z" stroke="white" stroke-width="2" mask="url(#path-8-inside-7_2204_9217)"/>
<mask id="path-9-inside-8_2204_9217" fill="white">
<path d="M5.25774 9.60795C5.38126 9.63212 5.50587 9.6503 5.63115 9.66243L5.66268 9.33692C5.54789 9.3258 5.43372 9.30914 5.32054 9.28699L5.25774 9.60795Z"/>
</mask>
<path d="M5.25774 9.60795C5.38126 9.63212 5.50587 9.6503 5.63115 9.66243L5.66268 9.33692C5.54789 9.3258 5.43372 9.30914 5.32054 9.28699L5.25774 9.60795Z" stroke="white" stroke-width="2" mask="url(#path-9-inside-8_2204_9217)"/>
</svg>
