<svg width="8" height="9" viewBox="0 0 8 9" fill="none" xmlns="http://www.w3.org/2000/svg">
<circle cx="3.92268" cy="4.66506" r="1.91031" transform="rotate(-41.6615 3.92268 4.66506)" stroke="white"/>
<mask id="path-2-inside-1_2204_9227" fill="white">
<path d="M5.56413 2.64468C5.06737 2.24109 4.43934 2.03467 3.80001 2.06483C3.16069 2.09499 2.55488 2.35963 2.09833 2.80819L2.25113 2.96372C2.66944 2.55273 3.22451 2.31025 3.81029 2.28261C4.39607 2.25498 4.9715 2.44411 5.42665 2.81389L5.56413 2.64468Z"/>
</mask>
<path d="M5.56413 2.64468C5.06737 2.24109 4.43934 2.03467 3.80001 2.06483C3.16069 2.09499 2.55488 2.35963 2.09833 2.80819L2.25113 2.96372C2.66944 2.55273 3.22451 2.31025 3.81029 2.28261C4.39607 2.25498 4.9715 2.44411 5.42665 2.81389L5.56413 2.64468Z" stroke="white" stroke-width="2" mask="url(#path-2-inside-1_2204_9227)"/>
<mask id="path-3-inside-2_2204_9227" fill="white">
<path d="M5.53275 6.71055C5.94767 6.38395 6.25346 5.93889 6.40953 5.43445C6.5656 4.93 6.56456 4.39001 6.40656 3.88616L6.19852 3.9514C6.34329 4.41305 6.34424 4.90781 6.20124 5.37001C6.05825 5.83221 5.77807 6.23999 5.3979 6.53923L5.53275 6.71055Z"/>
</mask>
<path d="M5.53275 6.71055C5.94767 6.38395 6.25346 5.93889 6.40953 5.43445C6.5656 4.93 6.56456 4.39001 6.40656 3.88616L6.19852 3.9514C6.34329 4.41305 6.34424 4.90781 6.20124 5.37001C6.05825 5.83221 5.77807 6.23999 5.3979 6.53923L5.53275 6.71055Z" stroke="white" stroke-width="2" mask="url(#path-3-inside-2_2204_9227)"/>
<mask id="path-4-inside-3_2204_9227" fill="white">
<path d="M4.73003 7.13984C4.97326 7.06049 5.20348 6.94571 5.41324 6.79921L5.2884 6.62047C5.0962 6.7547 4.88527 6.85986 4.66241 6.93257L4.73003 7.13984Z"/>
</mask>
<path d="M4.73003 7.13984C4.97326 7.06049 5.20348 6.94571 5.41324 6.79921L5.2884 6.62047C5.0962 6.7547 4.88527 6.85986 4.66241 6.93257L4.73003 7.13984Z" stroke="white" stroke-width="2" mask="url(#path-4-inside-3_2204_9227)"/>
<mask id="path-5-inside-4_2204_9227" fill="white">
<path d="M3.7711 7.26378C4.02652 7.27868 4.28274 7.25584 4.5315 7.19601L4.48051 6.98403C4.25259 7.03885 4.01783 7.05978 3.7838 7.04613L3.7711 7.26378Z"/>
</mask>
<path d="M3.7711 7.26378C4.02652 7.27868 4.28274 7.25584 4.5315 7.19601L4.48051 6.98403C4.25259 7.03885 4.01783 7.05978 3.7838 7.04613L3.7711 7.26378Z" stroke="white" stroke-width="2" mask="url(#path-5-inside-4_2204_9227)"/>
<mask id="path-6-inside-5_2204_9227" fill="white">
<path d="M1.97793 6.39544C2.14801 6.58659 2.34533 6.75162 2.56354 6.8852L2.67738 6.69926C2.47744 6.57686 2.29665 6.42565 2.14082 6.25052L1.97793 6.39544Z"/>
</mask>
<path d="M1.97793 6.39544C2.14801 6.58659 2.34533 6.75162 2.56354 6.8852L2.67738 6.69926C2.47744 6.57686 2.29665 6.42565 2.14082 6.25052L1.97793 6.39544Z" stroke="white" stroke-width="2" mask="url(#path-6-inside-5_2204_9227)"/>
<mask id="path-7-inside-6_2204_9227" fill="white">
<path d="M1.99967 2.91057C1.82722 3.09958 1.68359 3.31298 1.57339 3.54389L1.77015 3.63779C1.87112 3.42622 2.00273 3.2307 2.16073 3.05752L1.99967 2.91057Z"/>
</mask>
<path d="M1.99967 2.91057C1.82722 3.09958 1.68359 3.31298 1.57339 3.54389L1.77015 3.63779C1.87112 3.42622 2.00273 3.2307 2.16073 3.05752L1.99967 2.91057Z" stroke="white" stroke-width="2" mask="url(#path-7-inside-6_2204_9227)"/>
<mask id="path-8-inside-7_2204_9227" fill="white">
<path d="M1.52873 3.6427C1.49529 3.721 1.46571 3.80091 1.4401 3.88211L1.64803 3.94769C1.6715 3.87328 1.6986 3.80007 1.72924 3.72833L1.52873 3.6427Z"/>
</mask>
<path d="M1.52873 3.6427C1.49529 3.721 1.46571 3.80091 1.4401 3.88211L1.64803 3.94769C1.6715 3.87328 1.6986 3.80007 1.72924 3.72833L1.52873 3.6427Z" stroke="white" stroke-width="2" mask="url(#path-8-inside-7_2204_9227)"/>
<mask id="path-9-inside-8_2204_9227" fill="white">
<path d="M3.4228 7.21975C3.50515 7.23586 3.58823 7.24799 3.67174 7.25607L3.69276 7.03907C3.61624 7.03165 3.54012 7.02055 3.46467 7.00578L3.4228 7.21975Z"/>
</mask>
<path d="M3.4228 7.21975C3.50515 7.23586 3.58823 7.24799 3.67174 7.25607L3.69276 7.03907C3.61624 7.03165 3.54012 7.02055 3.46467 7.00578L3.4228 7.21975Z" stroke="white" stroke-width="2" mask="url(#path-9-inside-8_2204_9227)"/>
</svg>
