<svg width="12" height="12" viewBox="0 0 12 12" fill="none" xmlns="http://www.w3.org/2000/svg">
<circle cx="6.00767" cy="5.77603" r="3.11546" transform="rotate(-41.6615 6.00767 5.77603)" stroke="white"/>
<mask id="path-2-inside-1_2204_9479" fill="white">
<path d="M8.46985 2.74533C7.72471 2.13996 6.78266 1.83032 5.82368 1.87557C4.86469 1.92081 3.95598 2.31777 3.27115 2.99061L3.50035 3.22389C4.12782 2.60741 4.96042 2.2437 5.83909 2.20224C6.71776 2.16079 7.5809 2.44449 8.26363 2.99916L8.46985 2.74533Z"/>
</mask>
<path d="M8.46985 2.74533C7.72471 2.13996 6.78266 1.83032 5.82368 1.87557C4.86469 1.92081 3.95598 2.31777 3.27115 2.99061L3.50035 3.22389C4.12782 2.60741 4.96042 2.2437 5.83909 2.20224C6.71776 2.16079 7.5809 2.44449 8.26363 2.99916L8.46985 2.74533Z" stroke="white" stroke-width="2" mask="url(#path-2-inside-1_2204_9479)"/>
<mask id="path-3-inside-2_2204_9479" fill="white">
<path d="M8.42278 8.84415C9.04517 8.35425 9.50385 7.68666 9.73795 6.92999C9.97205 6.17331 9.9705 5.36334 9.7335 4.60756L9.42144 4.70542C9.63859 5.39789 9.64001 6.14003 9.42552 6.83333C9.21103 7.52663 8.79076 8.1383 8.22051 8.58717L8.42278 8.84415Z"/>
</mask>
<path d="M8.42278 8.84415C9.04517 8.35425 9.50385 7.68666 9.73795 6.92999C9.97205 6.17331 9.9705 5.36334 9.7335 4.60756L9.42144 4.70542C9.63859 5.39789 9.64001 6.14003 9.42552 6.83333C9.21103 7.52663 8.79076 8.1383 8.22051 8.58717L8.42278 8.84415Z" stroke="white" stroke-width="2" mask="url(#path-3-inside-2_2204_9479)"/>
<mask id="path-4-inside-3_2204_9479" fill="white">
<path d="M7.2187 9.48808C7.58355 9.36906 7.92887 9.19689 8.24351 8.97714L8.05625 8.70902C7.76796 8.91037 7.45157 9.06811 7.11727 9.17717L7.2187 9.48808Z"/>
</mask>
<path d="M7.2187 9.48808C7.58355 9.36906 7.92887 9.19689 8.24351 8.97714L8.05625 8.70902C7.76796 8.91037 7.45157 9.06811 7.11727 9.17717L7.2187 9.48808Z" stroke="white" stroke-width="2" mask="url(#path-4-inside-3_2204_9479)"/>
<mask id="path-5-inside-4_2204_9479" fill="white">
<path d="M5.78031 9.67399C6.16344 9.69634 6.54777 9.66209 6.92091 9.57233L6.84442 9.25436C6.50254 9.3366 6.15039 9.36799 5.79935 9.34751L5.78031 9.67399Z"/>
</mask>
<path d="M5.78031 9.67399C6.16344 9.69634 6.54777 9.66209 6.92091 9.57233L6.84442 9.25436C6.50254 9.3366 6.15039 9.36799 5.79935 9.34751L5.78031 9.67399Z" stroke="white" stroke-width="2" mask="url(#path-5-inside-4_2204_9479)"/>
<mask id="path-6-inside-5_2204_9479" fill="white">
<path d="M3.09056 8.37149C3.34567 8.6582 3.64166 8.90575 3.96897 9.10613L4.13973 8.8272C3.83982 8.64361 3.56863 8.4168 3.33488 8.15409L3.09056 8.37149Z"/>
</mask>
<path d="M3.09056 8.37149C3.34567 8.6582 3.64166 8.90575 3.96897 9.10613L4.13973 8.8272C3.83982 8.64361 3.56863 8.4168 3.33488 8.15409L3.09056 8.37149Z" stroke="white" stroke-width="2" mask="url(#path-6-inside-5_2204_9479)"/>
<mask id="path-7-inside-6_2204_9479" fill="white">
<path d="M3.12316 3.14418C2.86449 3.42769 2.64904 3.74779 2.48374 4.09415L2.77889 4.23501C2.93034 3.91765 3.12775 3.62437 3.36476 3.3646L3.12316 3.14418Z"/>
</mask>
<path d="M3.12316 3.14418C2.86449 3.42769 2.64904 3.74779 2.48374 4.09415L2.77889 4.23501C2.93034 3.91765 3.12775 3.62437 3.36476 3.3646L3.12316 3.14418Z" stroke="white" stroke-width="2" mask="url(#path-7-inside-6_2204_9479)"/>
<mask id="path-8-inside-7_2204_9479" fill="white">
<path d="M2.41676 4.24237C2.36659 4.35983 2.32222 4.47968 2.28381 4.60149L2.5957 4.69986C2.6309 4.58825 2.67155 4.47843 2.71752 4.37081L2.41676 4.24237Z"/>
</mask>
<path d="M2.41676 4.24237C2.36659 4.35983 2.32222 4.47968 2.28381 4.60149L2.5957 4.69986C2.6309 4.58825 2.67155 4.47843 2.71752 4.37081L2.41676 4.24237Z" stroke="white" stroke-width="2" mask="url(#path-8-inside-7_2204_9479)"/>
<mask id="path-9-inside-8_2204_9479" fill="white">
<path d="M5.25786 9.60795C5.38138 9.63212 5.506 9.6503 5.63127 9.66243L5.6628 9.33692C5.54802 9.3258 5.43384 9.30914 5.32066 9.28699L5.25786 9.60795Z"/>
</mask>
<path d="M5.25786 9.60795C5.38138 9.63212 5.506 9.6503 5.63127 9.66243L5.6628 9.33692C5.54802 9.3258 5.43384 9.30914 5.32066 9.28699L5.25786 9.60795Z" stroke="white" stroke-width="2" mask="url(#path-9-inside-8_2204_9479)"/>
</svg>
