<svg width="52" height="52" viewBox="0 0 52 52" fill="none" xmlns="http://www.w3.org/2000/svg">
<circle cx="26.1125" cy="26.3503" r="16.1867" transform="rotate(-41.6615 26.1125 26.3503)" stroke="#333333"/>
<mask id="path-2-inside-1_2202_15159" fill="white">
<path d="M37.4762 12.3631C34.0371 9.56905 29.6892 8.13994 25.2631 8.34877C20.837 8.55759 16.643 10.3897 13.4822 13.4951L14.5401 14.5718C17.4361 11.7265 21.2788 10.0478 25.3342 9.8565C29.3896 9.66516 33.3734 10.9746 36.5244 13.5346L37.4762 12.3631Z"/>
</mask>
<path d="M37.4762 12.3631C34.0371 9.56905 29.6892 8.13994 25.2631 8.34877C20.837 8.55759 16.643 10.3897 13.4822 13.4951L14.5401 14.5718C17.4361 11.7265 21.2788 10.0478 25.3342 9.8565C29.3896 9.66516 33.3734 10.9746 36.5244 13.5346L37.4762 12.3631Z" stroke="#333333" stroke-width="2" mask="url(#path-2-inside-1_2202_15159)"/>
<mask id="path-3-inside-2_2202_15159" fill="white">
<path d="M37.259 40.5115C40.1315 38.2504 42.2485 35.1692 43.329 31.6769C44.4094 28.1845 44.4023 24.4462 43.3084 20.958L41.8682 21.4096C42.8704 24.6057 42.877 28.0309 41.887 31.2308C40.897 34.4306 38.9574 37.2537 36.3254 39.3254L37.259 40.5115Z"/>
</mask>
<path d="M37.259 40.5115C40.1315 38.2504 42.2485 35.1692 43.329 31.6769C44.4094 28.1845 44.4023 24.4462 43.3084 20.958L41.8682 21.4096C42.8704 24.6057 42.877 28.0309 41.887 31.2308C40.897 34.4306 38.9574 37.2537 36.3254 39.3254L37.259 40.5115Z" stroke="#333333" stroke-width="2" mask="url(#path-3-inside-2_2202_15159)"/>
<mask id="path-4-inside-3_2202_15159" fill="white">
<path d="M31.7017 43.4835C33.3856 42.9341 34.9794 42.1395 36.4316 41.1253L35.5673 39.8878C34.2367 40.8171 32.7764 41.5451 31.2335 42.0485L31.7017 43.4835Z"/>
</mask>
<path d="M31.7017 43.4835C33.3856 42.9341 34.9794 42.1395 36.4316 41.1253L35.5673 39.8878C34.2367 40.8171 32.7764 41.5451 31.2335 42.0485L31.7017 43.4835Z" stroke="#333333" stroke-width="2" mask="url(#path-4-inside-3_2202_15159)"/>
<mask id="path-5-inside-4_2202_15159" fill="white">
<path d="M25.0629 44.3415C26.8312 44.4447 28.6051 44.2865 30.3273 43.8723L29.9742 42.4047C28.3963 42.7843 26.771 42.9292 25.1508 42.8347L25.0629 44.3415Z"/>
</mask>
<path d="M25.0629 44.3415C26.8312 44.4447 28.6051 44.2865 30.3273 43.8723L29.9742 42.4047C28.3963 42.7843 26.771 42.9292 25.1508 42.8347L25.0629 44.3415Z" stroke="#333333" stroke-width="2" mask="url(#path-5-inside-4_2202_15159)"/>
<mask id="path-6-inside-5_2202_15159" fill="white">
<path d="M12.6487 38.3299C13.8261 39.6532 15.1922 40.7957 16.7029 41.7206L17.491 40.4333C16.1069 39.5859 14.8552 38.5391 13.7764 37.3266L12.6487 38.3299Z"/>
</mask>
<path d="M12.6487 38.3299C13.8261 39.6532 15.1922 40.7957 16.7029 41.7206L17.491 40.4333C16.1069 39.5859 14.8552 38.5391 13.7764 37.3266L12.6487 38.3299Z" stroke="#333333" stroke-width="2" mask="url(#path-6-inside-5_2202_15159)"/>
<mask id="path-7-inside-6_2202_15159" fill="white">
<path d="M12.7992 14.2039C11.6053 15.5124 10.6109 16.9898 9.848 18.5884L11.2102 19.2385C11.9092 17.7738 12.8204 16.4201 13.9142 15.2212L12.7992 14.2039Z"/>
</mask>
<path d="M12.7992 14.2039C11.6053 15.5124 10.6109 16.9898 9.848 18.5884L11.2102 19.2385C11.9092 17.7738 12.8204 16.4201 13.9142 15.2212L12.7992 14.2039Z" stroke="#333333" stroke-width="2" mask="url(#path-7-inside-6_2202_15159)"/>
<mask id="path-8-inside-7_2202_15159" fill="white">
<path d="M9.53886 19.2725C9.30734 19.8146 9.10255 20.3678 8.92524 20.93L10.3648 21.384C10.5272 20.8688 10.7148 20.362 10.927 19.8653L9.53886 19.2725Z"/>
</mask>
<path d="M9.53886 19.2725C9.30734 19.8146 9.10255 20.3678 8.92524 20.93L10.3648 21.384C10.5272 20.8688 10.7148 20.362 10.927 19.8653L9.53886 19.2725Z" stroke="#333333" stroke-width="2" mask="url(#path-8-inside-7_2202_15159)"/>
<mask id="path-9-inside-8_2202_15159" fill="white">
<path d="M22.6517 44.0367C23.2217 44.1482 23.7969 44.2321 24.3751 44.2881L24.5206 42.7858C23.9908 42.7345 23.4639 42.6576 22.9415 42.5554L22.6517 44.0367Z"/>
</mask>
<path d="M22.6517 44.0367C23.2217 44.1482 23.7969 44.2321 24.3751 44.2881L24.5206 42.7858C23.9908 42.7345 23.4639 42.6576 22.9415 42.5554L22.6517 44.0367Z" stroke="#333333" stroke-width="2" mask="url(#path-9-inside-8_2202_15159)"/>
</svg>
