<svg width="8" height="9" viewBox="0 0 8 9" fill="none" xmlns="http://www.w3.org/2000/svg">
<circle cx="3.92262" cy="4.66506" r="1.91031" transform="rotate(-41.6615 3.92262 4.66506)" stroke="white"/>
<mask id="path-2-inside-1_2204_9489" fill="white">
<path d="M5.564 2.64468C5.06725 2.24109 4.43922 2.03467 3.79989 2.06483C3.16057 2.09499 2.55476 2.35963 2.09821 2.80819L2.25101 2.96372C2.66932 2.55273 3.22439 2.31025 3.81017 2.28261C4.39595 2.25498 4.97137 2.44411 5.42653 2.81389L5.564 2.64468Z"/>
</mask>
<path d="M5.564 2.64468C5.06725 2.24109 4.43922 2.03467 3.79989 2.06483C3.16057 2.09499 2.55476 2.35963 2.09821 2.80819L2.25101 2.96372C2.66932 2.55273 3.22439 2.31025 3.81017 2.28261C4.39595 2.25498 4.97137 2.44411 5.42653 2.81389L5.564 2.64468Z" stroke="white" stroke-width="2" mask="url(#path-2-inside-1_2204_9489)"/>
<mask id="path-3-inside-2_2204_9489" fill="white">
<path d="M5.53263 6.71055C5.94755 6.38395 6.25334 5.93889 6.40941 5.43445C6.56547 4.93 6.56444 4.39001 6.40644 3.88616L6.1984 3.9514C6.34317 4.41305 6.34412 4.90781 6.20112 5.37001C6.05813 5.83221 5.77795 6.23999 5.39778 6.53923L5.53263 6.71055Z"/>
</mask>
<path d="M5.53263 6.71055C5.94755 6.38395 6.25334 5.93889 6.40941 5.43445C6.56547 4.93 6.56444 4.39001 6.40644 3.88616L6.1984 3.9514C6.34317 4.41305 6.34412 4.90781 6.20112 5.37001C6.05813 5.83221 5.77795 6.23999 5.39778 6.53923L5.53263 6.71055Z" stroke="white" stroke-width="2" mask="url(#path-3-inside-2_2204_9489)"/>
<mask id="path-4-inside-3_2204_9489" fill="white">
<path d="M4.7299 7.13984C4.97314 7.06049 5.20335 6.94571 5.41311 6.79921L5.28827 6.62047C5.09608 6.7547 4.88515 6.85986 4.66229 6.93257L4.7299 7.13984Z"/>
</mask>
<path d="M4.7299 7.13984C4.97314 7.06049 5.20335 6.94571 5.41311 6.79921L5.28827 6.62047C5.09608 6.7547 4.88515 6.85986 4.66229 6.93257L4.7299 7.13984Z" stroke="white" stroke-width="2" mask="url(#path-4-inside-3_2204_9489)"/>
<mask id="path-5-inside-4_2204_9489" fill="white">
<path d="M3.77098 7.26378C4.0264 7.27868 4.28262 7.25584 4.53138 7.19601L4.48039 6.98403C4.25247 7.03885 4.0177 7.05978 3.78367 7.04613L3.77098 7.26378Z"/>
</mask>
<path d="M3.77098 7.26378C4.0264 7.27868 4.28262 7.25584 4.53138 7.19601L4.48039 6.98403C4.25247 7.03885 4.0177 7.05978 3.78367 7.04613L3.77098 7.26378Z" stroke="white" stroke-width="2" mask="url(#path-5-inside-4_2204_9489)"/>
<mask id="path-6-inside-5_2204_9489" fill="white">
<path d="M1.97781 6.39544C2.14789 6.58659 2.34521 6.75162 2.56342 6.8852L2.67726 6.69926C2.47732 6.57686 2.29652 6.42565 2.14069 6.25052L1.97781 6.39544Z"/>
</mask>
<path d="M1.97781 6.39544C2.14789 6.58659 2.34521 6.75162 2.56342 6.8852L2.67726 6.69926C2.47732 6.57686 2.29652 6.42565 2.14069 6.25052L1.97781 6.39544Z" stroke="white" stroke-width="2" mask="url(#path-6-inside-5_2204_9489)"/>
<mask id="path-7-inside-6_2204_9489" fill="white">
<path d="M1.99955 2.91057C1.8271 3.09958 1.68346 3.31298 1.57327 3.54389L1.77003 3.63779C1.871 3.42622 2.00261 3.2307 2.16061 3.05752L1.99955 2.91057Z"/>
</mask>
<path d="M1.99955 2.91057C1.8271 3.09958 1.68346 3.31298 1.57327 3.54389L1.77003 3.63779C1.871 3.42622 2.00261 3.2307 2.16061 3.05752L1.99955 2.91057Z" stroke="white" stroke-width="2" mask="url(#path-7-inside-6_2204_9489)"/>
<mask id="path-8-inside-7_2204_9489" fill="white">
<path d="M1.52861 3.6427C1.49517 3.721 1.46559 3.80091 1.43998 3.88211L1.64791 3.94769C1.67137 3.87328 1.69848 3.80007 1.72912 3.72833L1.52861 3.6427Z"/>
</mask>
<path d="M1.52861 3.6427C1.49517 3.721 1.46559 3.80091 1.43998 3.88211L1.64791 3.94769C1.67137 3.87328 1.69848 3.80007 1.72912 3.72833L1.52861 3.6427Z" stroke="white" stroke-width="2" mask="url(#path-8-inside-7_2204_9489)"/>
<mask id="path-9-inside-8_2204_9489" fill="white">
<path d="M3.42268 7.21975C3.50503 7.23586 3.5881 7.24799 3.67162 7.25607L3.69264 7.03907C3.61612 7.03165 3.54 7.02055 3.46455 7.00578L3.42268 7.21975Z"/>
</mask>
<path d="M3.42268 7.21975C3.50503 7.23586 3.5881 7.24799 3.67162 7.25607L3.69264 7.03907C3.61612 7.03165 3.54 7.02055 3.46455 7.00578L3.42268 7.21975Z" stroke="white" stroke-width="2" mask="url(#path-9-inside-8_2204_9489)"/>
</svg>
