<svg width="65" height="66" viewBox="0 0 65 66" fill="none" xmlns="http://www.w3.org/2000/svg">
<path d="M62.0469 32.8066C62.0469 49.119 48.8231 62.3427 32.5107 62.3427C16.1984 62.3427 2.97461 49.119 2.97461 32.8066C2.97461 16.4943 16.1984 3.27051 32.5107 3.27051C48.8231 3.27051 62.0469 16.4943 62.0469 32.8066Z" stroke="#333333"/>
<mask id="path-2-inside-1_2202_15701" fill="white">
<path d="M64.5282 27.594C63.2466 19.7219 59.1097 12.5977 52.9078 7.58269C46.706 2.56763 38.8739 0.0131703 30.9078 0.407308L31.042 3.12092C38.3409 2.75979 45.517 5.1003 51.1995 9.69532C56.8819 14.2903 60.6723 20.8178 61.8466 28.0306L64.5282 27.594Z"/>
</mask>
<path d="M64.5282 27.594C63.2466 19.7219 59.1097 12.5977 52.9078 7.58269C46.706 2.56763 38.8739 0.0131703 30.9078 0.407308L31.042 3.12092C38.3409 2.75979 45.517 5.1003 51.1995 9.69532C56.8819 14.2903 60.6723 20.8178 61.8466 28.0306L64.5282 27.594Z" stroke="#333333" stroke-width="2" mask="url(#path-2-inside-1_2202_15701)"/>
<mask id="path-3-inside-2_2202_15701" fill="white">
<path d="M30.5563 65.1868C37.1246 65.5832 43.6581 63.9728 49.2896 60.5692C54.9212 57.1657 59.3846 52.1299 62.0873 46.1304L59.6101 45.0145C57.1337 50.5115 53.0442 55.1255 47.8843 58.244C42.7244 61.3625 36.7381 62.838 30.72 62.4748L30.5563 65.1868Z"/>
</mask>
<path d="M30.5563 65.1868C37.1246 65.5832 43.6581 63.9728 49.2896 60.5692C54.9212 57.1657 59.3846 52.1299 62.0873 46.1304L59.6101 45.0145C57.1337 50.5115 53.0442 55.1255 47.8843 58.244C42.7244 61.3625 36.7381 62.838 30.72 62.4748L30.5563 65.1868Z" stroke="#333333" stroke-width="2" mask="url(#path-3-inside-2_2202_15701)"/>
<mask id="path-4-inside-3_2202_15701" fill="white">
<path d="M19.527 62.534C22.4488 63.8101 25.5428 64.6485 28.7092 65.0222L29.0276 62.324C26.1264 61.9816 23.2916 61.2134 20.6145 60.0442L19.527 62.534Z"/>
</mask>
<path d="M19.527 62.534C22.4488 63.8101 25.5428 64.6485 28.7092 65.0222L29.0276 62.324C26.1264 61.9816 23.2916 61.2134 20.6145 60.0442L19.527 62.534Z" stroke="#333333" stroke-width="2" mask="url(#path-4-inside-3_2202_15701)"/>
<mask id="path-5-inside-4_2202_15701" fill="white">
<path d="M9.57294 55.7445C11.8274 57.999 14.402 59.9088 17.2136 61.4124L18.4948 59.0165C15.9187 57.6389 13.5598 55.889 11.4941 53.8234L9.57294 55.7445Z"/>
</mask>
<path d="M9.57294 55.7445C11.8274 57.999 14.402 59.9088 17.2136 61.4124L18.4948 59.0165C15.9187 57.6389 13.5598 55.889 11.4941 53.8234L9.57294 55.7445Z" stroke="#333333" stroke-width="2" mask="url(#path-5-inside-4_2202_15701)"/>
<mask id="path-6-inside-5_2202_15701" fill="white">
<path d="M0.0717773 32.8067C0.0717771 35.995 0.541824 39.166 1.46676 42.2172L4.06685 41.429C3.21939 38.6333 2.78871 35.728 2.78871 32.8067L0.0717773 32.8067Z"/>
</mask>
<path d="M0.0717773 32.8067C0.0717771 35.995 0.541824 39.166 1.46676 42.2172L4.06685 41.429C3.21939 38.6333 2.78871 35.728 2.78871 32.8067L0.0717773 32.8067Z" stroke="#333333" stroke-width="2" mask="url(#path-6-inside-5_2202_15701)"/>
<mask id="path-7-inside-6_2202_15701" fill="white">
<path d="M29.1412 0.543155C25.9701 0.874341 22.8652 1.67122 19.9265 2.9081L20.9805 5.41226C23.673 4.27898 26.5179 3.54884 29.4234 3.24539L29.1412 0.543155Z"/>
</mask>
<path d="M29.1412 0.543155C25.9701 0.874341 22.8652 1.67122 19.9265 2.9081L20.9805 5.41226C23.673 4.27898 26.5179 3.54884 29.4234 3.24539L29.1412 0.543155Z" stroke="#333333" stroke-width="2" mask="url(#path-7-inside-6_2202_15701)"/>
<mask id="path-8-inside-7_2202_15701" fill="white">
<path d="M18.6923 3.45812C17.7323 3.91013 16.795 4.40898 15.8839 4.95285L17.2765 7.28575C18.1113 6.78743 18.97 6.33036 19.8497 5.91621L18.6923 3.45812Z"/>
</mask>
<path d="M18.6923 3.45812C17.7323 3.91013 16.795 4.40898 15.8839 4.95285L17.2765 7.28575C18.1113 6.78743 18.97 6.33036 19.8497 5.91621L18.6923 3.45812Z" stroke="#333333" stroke-width="2" mask="url(#path-8-inside-7_2202_15701)"/>
<mask id="path-9-inside-8_2202_15701" fill="white">
<path d="M6.6951 52.4495C7.32825 53.2816 8.00126 54.0826 8.71178 54.8497L10.7051 53.0035C10.0541 52.3007 9.43741 51.5667 8.85729 50.8043L6.6951 52.4495Z"/>
</mask>
<path d="M6.6951 52.4495C7.32825 53.2816 8.00126 54.0826 8.71178 54.8497L10.7051 53.0035C10.0541 52.3007 9.43741 51.5667 8.85729 50.8043L6.6951 52.4495Z" stroke="#333333" stroke-width="2" mask="url(#path-9-inside-8_2202_15701)"/>
</svg>
