<svg width="35" height="35" viewBox="0 0 35 35" fill="none" xmlns="http://www.w3.org/2000/svg">
<circle cx="17.7965" cy="17.3009" r="10.6245" transform="rotate(-41.6615 17.7965 17.3009)" stroke="#333333"/>
<mask id="path-2-inside-1_2202_15418" fill="white">
<path d="M25.3725 7.9761C23.0797 6.11342 20.1811 5.16068 17.2304 5.2999C14.2797 5.43911 11.4837 6.66053 9.37649 8.7308L10.0817 9.4486C12.0124 7.55172 14.5742 6.4326 17.2778 6.30505C19.9814 6.17749 22.6373 7.05043 24.738 8.75711L25.3725 7.9761Z"/>
</mask>
<path d="M25.3725 7.9761C23.0797 6.11342 20.1811 5.16068 17.2304 5.2999C14.2797 5.43911 11.4837 6.66053 9.37649 8.7308L10.0817 9.4486C12.0124 7.55172 14.5742 6.4326 17.2778 6.30505C19.9814 6.17749 22.6373 7.05043 24.738 8.75711L25.3725 7.9761Z" stroke="#333333" stroke-width="2" mask="url(#path-2-inside-1_2202_15418)"/>
<mask id="path-3-inside-2_2202_15418" fill="white">
<path d="M25.2277 26.7417C27.1427 25.2343 28.554 23.1802 29.2743 20.852C29.9946 18.5237 29.9899 16.0315 29.2606 13.706L28.3005 14.0071C28.9686 16.1378 28.973 18.4213 28.313 20.5545C27.653 22.6878 26.3599 24.5699 24.6053 25.951L25.2277 26.7417Z"/>
</mask>
<path d="M25.2277 26.7417C27.1427 25.2343 28.554 23.1802 29.2743 20.852C29.9946 18.5237 29.9899 16.0315 29.2606 13.706L28.3005 14.0071C28.9686 16.1378 28.973 18.4213 28.313 20.5545C27.653 22.6878 26.3599 24.5699 24.6053 25.951L25.2277 26.7417Z" stroke="#333333" stroke-width="2" mask="url(#path-3-inside-2_2202_15418)"/>
<mask id="path-4-inside-3_2202_15418" fill="white">
<path d="M21.5228 28.723C22.6454 28.3568 23.7079 27.827 24.6761 27.1509L24.0999 26.3259C23.2128 26.9454 22.2393 27.4308 21.2107 27.7664L21.5228 28.723Z"/>
</mask>
<path d="M21.5228 28.723C22.6454 28.3568 23.7079 27.827 24.6761 27.1509L24.0999 26.3259C23.2128 26.9454 22.2393 27.4308 21.2107 27.7664L21.5228 28.723Z" stroke="#333333" stroke-width="2" mask="url(#path-4-inside-3_2202_15418)"/>
<mask id="path-5-inside-4_2202_15418" fill="white">
<path d="M17.097 29.2951C18.2758 29.3638 19.4584 29.2584 20.6065 28.9822L20.3712 28.0039C19.3192 28.2569 18.2357 28.3535 17.1556 28.2905L17.097 29.2951Z"/>
</mask>
<path d="M17.097 29.2951C18.2758 29.3638 19.4584 29.2584 20.6065 28.9822L20.3712 28.0039C19.3192 28.2569 18.2357 28.3535 17.1556 28.2905L17.097 29.2951Z" stroke="#333333" stroke-width="2" mask="url(#path-5-inside-4_2202_15418)"/>
<mask id="path-6-inside-5_2202_15418" fill="white">
<path d="M8.82082 25.2873C9.60577 26.1695 10.5165 26.9312 11.5236 27.5478L12.049 26.6896C11.1263 26.1246 10.2918 25.4268 9.57259 24.6184L8.82082 25.2873Z"/>
</mask>
<path d="M8.82082 25.2873C9.60577 26.1695 10.5165 26.9312 11.5236 27.5478L12.049 26.6896C11.1263 26.1246 10.2918 25.4268 9.57259 24.6184L8.82082 25.2873Z" stroke="#333333" stroke-width="2" mask="url(#path-6-inside-5_2202_15418)"/>
<mask id="path-7-inside-6_2202_15418" fill="white">
<path d="M8.92114 9.20331C8.12524 10.0757 7.46229 11.0606 6.95368 12.1263L7.86183 12.5597C8.32784 11.5832 8.93526 10.6808 9.6645 9.88153L8.92114 9.20331Z"/>
</mask>
<path d="M8.92114 9.20331C8.12524 10.0757 7.46229 11.0606 6.95368 12.1263L7.86183 12.5597C8.32784 11.5832 8.93526 10.6808 9.6645 9.88153L8.92114 9.20331Z" stroke="#333333" stroke-width="2" mask="url(#path-7-inside-6_2202_15418)"/>
<mask id="path-8-inside-7_2202_15418" fill="white">
<path d="M6.74759 12.5824C6.59324 12.9438 6.45671 13.3126 6.33851 13.6874L7.29818 13.99C7.40649 13.6466 7.53158 13.3087 7.673 12.9776L6.74759 12.5824Z"/>
</mask>
<path d="M6.74759 12.5824C6.59324 12.9438 6.45671 13.3126 6.33851 13.6874L7.29818 13.99C7.40649 13.6466 7.53158 13.3087 7.673 12.9776L6.74759 12.5824Z" stroke="#333333" stroke-width="2" mask="url(#path-8-inside-7_2202_15418)"/>
<mask id="path-9-inside-8_2202_15418" fill="white">
<path d="M15.4894 29.0918C15.8695 29.1662 16.2529 29.2221 16.6384 29.2595L16.7354 28.2579C16.3822 28.2237 16.0309 28.1724 15.6827 28.1043L15.4894 29.0918Z"/>
</mask>
<path d="M15.4894 29.0918C15.8695 29.1662 16.2529 29.2221 16.6384 29.2595L16.7354 28.2579C16.3822 28.2237 16.0309 28.1724 15.6827 28.1043L15.4894 29.0918Z" stroke="#333333" stroke-width="2" mask="url(#path-9-inside-8_2202_15418)"/>
</svg>
