<svg width="8" height="9" viewBox="0 0 8 9" fill="none" xmlns="http://www.w3.org/2000/svg">
<circle cx="3.92268" cy="4.66518" r="1.91031" transform="rotate(-41.6615 3.92268 4.66518)" stroke="white"/>
<mask id="path-2-inside-1_2204_8965" fill="white">
<path d="M5.56413 2.6448C5.06737 2.24122 4.43934 2.03479 3.80001 2.06495C3.16069 2.09512 2.55488 2.35976 2.09833 2.80832L2.25113 2.96384C2.66944 2.55285 3.22451 2.31037 3.81029 2.28274C4.39607 2.2551 4.9715 2.44424 5.42665 2.81402L5.56413 2.6448Z"/>
</mask>
<path d="M5.56413 2.6448C5.06737 2.24122 4.43934 2.03479 3.80001 2.06495C3.16069 2.09512 2.55488 2.35976 2.09833 2.80832L2.25113 2.96384C2.66944 2.55285 3.22451 2.31037 3.81029 2.28274C4.39607 2.2551 4.9715 2.44424 5.42665 2.81402L5.56413 2.6448Z" stroke="white" stroke-width="2" mask="url(#path-2-inside-1_2204_8965)"/>
<mask id="path-3-inside-2_2204_8965" fill="white">
<path d="M5.53275 6.71067C5.94767 6.38408 6.25346 5.93902 6.40953 5.43457C6.5656 4.93012 6.56456 4.39013 6.40656 3.88628L6.19852 3.95152C6.34329 4.41317 6.34424 4.90793 6.20124 5.37013C6.05825 5.83233 5.77807 6.24011 5.3979 6.53935L5.53275 6.71067Z"/>
</mask>
<path d="M5.53275 6.71067C5.94767 6.38408 6.25346 5.93902 6.40953 5.43457C6.5656 4.93012 6.56456 4.39013 6.40656 3.88628L6.19852 3.95152C6.34329 4.41317 6.34424 4.90793 6.20124 5.37013C6.05825 5.83233 5.77807 6.24011 5.3979 6.53935L5.53275 6.71067Z" stroke="white" stroke-width="2" mask="url(#path-3-inside-2_2204_8965)"/>
<mask id="path-4-inside-3_2204_8965" fill="white">
<path d="M4.73003 7.13996C4.97326 7.06061 5.20348 6.94584 5.41324 6.79933L5.2884 6.62059C5.0962 6.75482 4.88527 6.85998 4.66241 6.93269L4.73003 7.13996Z"/>
</mask>
<path d="M4.73003 7.13996C4.97326 7.06061 5.20348 6.94584 5.41324 6.79933L5.2884 6.62059C5.0962 6.75482 4.88527 6.85998 4.66241 6.93269L4.73003 7.13996Z" stroke="white" stroke-width="2" mask="url(#path-4-inside-3_2204_8965)"/>
<mask id="path-5-inside-4_2204_8965" fill="white">
<path d="M3.7711 7.2639C4.02652 7.2788 4.28274 7.25597 4.5315 7.19613L4.48051 6.98415C4.25259 7.03898 4.01783 7.0599 3.7838 7.04625L3.7711 7.2639Z"/>
</mask>
<path d="M3.7711 7.2639C4.02652 7.2788 4.28274 7.25597 4.5315 7.19613L4.48051 6.98415C4.25259 7.03898 4.01783 7.0599 3.7838 7.04625L3.7711 7.2639Z" stroke="white" stroke-width="2" mask="url(#path-5-inside-4_2204_8965)"/>
<mask id="path-6-inside-5_2204_8965" fill="white">
<path d="M1.97793 6.39557C2.14801 6.58671 2.34533 6.75174 2.56354 6.88533L2.67738 6.69938C2.47744 6.57698 2.29665 6.42577 2.14082 6.25064L1.97793 6.39557Z"/>
</mask>
<path d="M1.97793 6.39557C2.14801 6.58671 2.34533 6.75174 2.56354 6.88533L2.67738 6.69938C2.47744 6.57698 2.29665 6.42577 2.14082 6.25064L1.97793 6.39557Z" stroke="white" stroke-width="2" mask="url(#path-6-inside-5_2204_8965)"/>
<mask id="path-7-inside-6_2204_8965" fill="white">
<path d="M1.99967 2.91069C1.82722 3.0997 1.68359 3.3131 1.57339 3.54401L1.77015 3.63791C1.87112 3.42635 2.00273 3.23082 2.16073 3.05764L1.99967 2.91069Z"/>
</mask>
<path d="M1.99967 2.91069C1.82722 3.0997 1.68359 3.3131 1.57339 3.54401L1.77015 3.63791C1.87112 3.42635 2.00273 3.23082 2.16073 3.05764L1.99967 2.91069Z" stroke="white" stroke-width="2" mask="url(#path-7-inside-6_2204_8965)"/>
<mask id="path-8-inside-7_2204_8965" fill="white">
<path d="M1.52873 3.64282C1.49529 3.72113 1.46571 3.80103 1.4401 3.88224L1.64803 3.94781C1.6715 3.87341 1.6986 3.8002 1.72924 3.72845L1.52873 3.64282Z"/>
</mask>
<path d="M1.52873 3.64282C1.49529 3.72113 1.46571 3.80103 1.4401 3.88224L1.64803 3.94781C1.6715 3.87341 1.6986 3.8002 1.72924 3.72845L1.52873 3.64282Z" stroke="white" stroke-width="2" mask="url(#path-8-inside-7_2204_8965)"/>
<mask id="path-9-inside-8_2204_8965" fill="white">
<path d="M3.4228 7.21987C3.50515 7.23599 3.58823 7.24811 3.67174 7.2562L3.69276 7.03919C3.61624 7.03178 3.54012 7.02067 3.46467 7.00591L3.4228 7.21987Z"/>
</mask>
<path d="M3.4228 7.21987C3.50515 7.23599 3.58823 7.24811 3.67174 7.2562L3.69276 7.03919C3.61624 7.03178 3.54012 7.02067 3.46467 7.00591L3.4228 7.21987Z" stroke="white" stroke-width="2" mask="url(#path-9-inside-8_2204_8965)"/>
</svg>
