<svg width="8" height="8" viewBox="0 0 8 8" fill="none" xmlns="http://www.w3.org/2000/svg">
<circle cx="4.29377" cy="3.69075" r="1.91031" transform="rotate(-41.6615 4.29377 3.69075)" stroke="white"/>
<mask id="path-2-inside-1_2204_8989" fill="white">
<path d="M5.93522 1.67037C5.43846 1.26679 4.81043 1.06036 4.17111 1.09053C3.53178 1.12069 2.92598 1.38533 2.46942 1.83389L2.62222 1.98941C3.04054 1.57842 3.5956 1.33595 4.18138 1.30831C4.76716 1.28067 5.34259 1.46981 5.79774 1.83959L5.93522 1.67037Z"/>
</mask>
<path d="M5.93522 1.67037C5.43846 1.26679 4.81043 1.06036 4.17111 1.09053C3.53178 1.12069 2.92598 1.38533 2.46942 1.83389L2.62222 1.98941C3.04054 1.57842 3.5956 1.33595 4.18138 1.30831C4.76716 1.28067 5.34259 1.46981 5.79774 1.83959L5.93522 1.67037Z" stroke="white" stroke-width="2" mask="url(#path-2-inside-1_2204_8989)"/>
<mask id="path-3-inside-2_2204_8989" fill="white">
<path d="M5.90385 5.73625C6.31877 5.40965 6.62456 4.96459 6.78062 4.46014C6.93669 3.95569 6.93565 3.41571 6.77765 2.91186L6.56962 2.9771C6.71438 3.43874 6.71533 3.9335 6.57234 4.3957C6.42934 4.8579 6.14917 5.26569 5.76899 5.56493L5.90385 5.73625Z"/>
</mask>
<path d="M5.90385 5.73625C6.31877 5.40965 6.62456 4.96459 6.78062 4.46014C6.93669 3.95569 6.93565 3.41571 6.77765 2.91186L6.56962 2.9771C6.71438 3.43874 6.71533 3.9335 6.57234 4.3957C6.42934 4.8579 6.14917 5.26569 5.76899 5.56493L5.90385 5.73625Z" stroke="white" stroke-width="2" mask="url(#path-3-inside-2_2204_8989)"/>
<mask id="path-4-inside-3_2204_8989" fill="white">
<path d="M5.10112 6.16554C5.34436 6.08619 5.57457 5.97141 5.78433 5.82491L5.65949 5.64616C5.4673 5.78039 5.25637 5.88556 5.0335 5.95826L5.10112 6.16554Z"/>
</mask>
<path d="M5.10112 6.16554C5.34436 6.08619 5.57457 5.97141 5.78433 5.82491L5.65949 5.64616C5.4673 5.78039 5.25637 5.88556 5.0335 5.95826L5.10112 6.16554Z" stroke="white" stroke-width="2" mask="url(#path-4-inside-3_2204_8989)"/>
<mask id="path-5-inside-4_2204_8989" fill="white">
<path d="M4.14219 6.28948C4.39761 6.30438 4.65384 6.28154 4.9026 6.2217L4.85161 6.00972C4.62368 6.06455 4.38892 6.08547 4.15489 6.07182L4.14219 6.28948Z"/>
</mask>
<path d="M4.14219 6.28948C4.39761 6.30438 4.65384 6.28154 4.9026 6.2217L4.85161 6.00972C4.62368 6.06455 4.38892 6.08547 4.15489 6.07182L4.14219 6.28948Z" stroke="white" stroke-width="2" mask="url(#path-5-inside-4_2204_8989)"/>
<mask id="path-6-inside-5_2204_8989" fill="white">
<path d="M2.34903 5.42114C2.5191 5.61228 2.71643 5.77731 2.93464 5.9109L3.04847 5.72495C2.84854 5.60255 2.66774 5.45135 2.51191 5.27621L2.34903 5.42114Z"/>
</mask>
<path d="M2.34903 5.42114C2.5191 5.61228 2.71643 5.77731 2.93464 5.9109L3.04847 5.72495C2.84854 5.60255 2.66774 5.45135 2.51191 5.27621L2.34903 5.42114Z" stroke="white" stroke-width="2" mask="url(#path-6-inside-5_2204_8989)"/>
<mask id="path-7-inside-6_2204_8989" fill="white">
<path d="M2.37076 1.93627C2.19832 2.12527 2.05468 2.33867 1.94448 2.56958L2.14125 2.66349C2.24222 2.45192 2.37382 2.25639 2.53183 2.08321L2.37076 1.93627Z"/>
</mask>
<path d="M2.37076 1.93627C2.19832 2.12527 2.05468 2.33867 1.94448 2.56958L2.14125 2.66349C2.24222 2.45192 2.37382 2.25639 2.53183 2.08321L2.37076 1.93627Z" stroke="white" stroke-width="2" mask="url(#path-7-inside-6_2204_8989)"/>
<mask id="path-8-inside-7_2204_8989" fill="white">
<path d="M1.89983 2.66839C1.86638 2.7467 1.8368 2.8266 1.81119 2.90781L2.01912 2.97339C2.04259 2.89898 2.06969 2.82577 2.10033 2.75402L1.89983 2.66839Z"/>
</mask>
<path d="M1.89983 2.66839C1.86638 2.7467 1.8368 2.8266 1.81119 2.90781L2.01912 2.97339C2.04259 2.89898 2.06969 2.82577 2.10033 2.75402L1.89983 2.66839Z" stroke="white" stroke-width="2" mask="url(#path-8-inside-7_2204_8989)"/>
<mask id="path-9-inside-8_2204_8989" fill="white">
<path d="M3.7939 6.24545C3.87624 6.26156 3.95932 6.27368 4.04284 6.28177L4.06386 6.06476C3.98733 6.05735 3.91121 6.04624 3.83577 6.03148L3.7939 6.24545Z"/>
</mask>
<path d="M3.7939 6.24545C3.87624 6.26156 3.95932 6.27368 4.04284 6.28177L4.06386 6.06476C3.98733 6.05735 3.91121 6.04624 3.83577 6.03148L3.7939 6.24545Z" stroke="white" stroke-width="2" mask="url(#path-9-inside-8_2204_8989)"/>
</svg>
