<svg width="9" height="8" viewBox="0 0 9 8" fill="none" xmlns="http://www.w3.org/2000/svg">
<circle cx="4.44319" cy="3.81453" r="1.91031" transform="rotate(-41.6615 4.44319 3.81453)" stroke="white"/>
<mask id="path-2-inside-1_2204_8975" fill="white">
<path d="M6.08463 1.79415C5.58788 1.39057 4.95985 1.18414 4.32052 1.21431C3.6812 1.24447 3.07539 1.50911 2.61884 1.95767L2.77164 2.11319C3.18995 1.7022 3.74502 1.45973 4.3308 1.43209C4.91657 1.40445 5.492 1.59359 5.94716 1.96337L6.08463 1.79415Z"/>
</mask>
<path d="M6.08463 1.79415C5.58788 1.39057 4.95985 1.18414 4.32052 1.21431C3.6812 1.24447 3.07539 1.50911 2.61884 1.95767L2.77164 2.11319C3.18995 1.7022 3.74502 1.45973 4.3308 1.43209C4.91657 1.40445 5.492 1.59359 5.94716 1.96337L6.08463 1.79415Z" stroke="white" stroke-width="2" mask="url(#path-2-inside-1_2204_8975)"/>
<mask id="path-3-inside-2_2204_8975" fill="white">
<path d="M6.05326 5.86003C6.46818 5.53343 6.77397 5.08837 6.93004 4.58392C7.0861 4.07947 7.08507 3.53949 6.92707 3.03564L6.71903 3.10088C6.8638 3.56252 6.86475 4.05728 6.72175 4.51948C6.57876 4.98168 6.29858 5.38946 5.91841 5.68871L6.05326 5.86003Z"/>
</mask>
<path d="M6.05326 5.86003C6.46818 5.53343 6.77397 5.08837 6.93004 4.58392C7.0861 4.07947 7.08507 3.53949 6.92707 3.03564L6.71903 3.10088C6.8638 3.56252 6.86475 4.05728 6.72175 4.51948C6.57876 4.98168 6.29858 5.38946 5.91841 5.68871L6.05326 5.86003Z" stroke="white" stroke-width="2" mask="url(#path-3-inside-2_2204_8975)"/>
<mask id="path-4-inside-3_2204_8975" fill="white">
<path d="M5.25053 6.28932C5.49377 6.20997 5.72398 6.09519 5.93374 5.94869L5.8089 5.76994C5.61671 5.90417 5.40578 6.00934 5.18292 6.08204L5.25053 6.28932Z"/>
</mask>
<path d="M5.25053 6.28932C5.49377 6.20997 5.72398 6.09519 5.93374 5.94869L5.8089 5.76994C5.61671 5.90417 5.40578 6.00934 5.18292 6.08204L5.25053 6.28932Z" stroke="white" stroke-width="2" mask="url(#path-4-inside-3_2204_8975)"/>
<mask id="path-5-inside-4_2204_8975" fill="white">
<path d="M4.29161 6.41326C4.54703 6.42816 4.80325 6.40532 5.05201 6.34548L5.00102 6.1335C4.7731 6.18833 4.53833 6.20925 4.3043 6.1956L4.29161 6.41326Z"/>
</mask>
<path d="M4.29161 6.41326C4.54703 6.42816 4.80325 6.40532 5.05201 6.34548L5.00102 6.1335C4.7731 6.18833 4.53833 6.20925 4.3043 6.1956L4.29161 6.41326Z" stroke="white" stroke-width="2" mask="url(#path-5-inside-4_2204_8975)"/>
<mask id="path-6-inside-5_2204_8975" fill="white">
<path d="M2.49844 5.54492C2.66852 5.73606 2.86584 5.90109 3.08405 6.03468L3.19789 5.84873C2.99795 5.72633 2.81715 5.57513 2.66132 5.39999L2.49844 5.54492Z"/>
</mask>
<path d="M2.49844 5.54492C2.66852 5.73606 2.86584 5.90109 3.08405 6.03468L3.19789 5.84873C2.99795 5.72633 2.81715 5.57513 2.66132 5.39999L2.49844 5.54492Z" stroke="white" stroke-width="2" mask="url(#path-6-inside-5_2204_8975)"/>
<mask id="path-7-inside-6_2204_8975" fill="white">
<path d="M2.52018 2.06004C2.34773 2.24905 2.20409 2.46245 2.0939 2.69336L2.29066 2.78727C2.39163 2.5757 2.52324 2.38017 2.68124 2.20699L2.52018 2.06004Z"/>
</mask>
<path d="M2.52018 2.06004C2.34773 2.24905 2.20409 2.46245 2.0939 2.69336L2.29066 2.78727C2.39163 2.5757 2.52324 2.38017 2.68124 2.20699L2.52018 2.06004Z" stroke="white" stroke-width="2" mask="url(#path-7-inside-6_2204_8975)"/>
<mask id="path-8-inside-7_2204_8975" fill="white">
<path d="M2.04924 2.79217C2.0158 2.87048 1.98622 2.95038 1.96061 3.03159L2.16854 3.09717C2.192 3.02276 2.21911 2.94955 2.24975 2.8778L2.04924 2.79217Z"/>
</mask>
<path d="M2.04924 2.79217C2.0158 2.87048 1.98622 2.95038 1.96061 3.03159L2.16854 3.09717C2.192 3.02276 2.21911 2.94955 2.24975 2.8778L2.04924 2.79217Z" stroke="white" stroke-width="2" mask="url(#path-8-inside-7_2204_8975)"/>
<mask id="path-9-inside-8_2204_8975" fill="white">
<path d="M3.94331 6.36923C4.02566 6.38534 4.10873 6.39746 4.19225 6.40555L4.21327 6.18854C4.13675 6.18113 4.06063 6.17002 3.98518 6.15526L3.94331 6.36923Z"/>
</mask>
<path d="M3.94331 6.36923C4.02566 6.38534 4.10873 6.39746 4.19225 6.40555L4.21327 6.18854C4.13675 6.18113 4.06063 6.17002 3.98518 6.15526L3.94331 6.36923Z" stroke="white" stroke-width="2" mask="url(#path-9-inside-8_2204_8975)"/>
</svg>
