<svg width="9" height="8" viewBox="0 0 9 8" fill="none" xmlns="http://www.w3.org/2000/svg">
<circle cx="4.44319" cy="3.81447" r="1.91031" transform="rotate(-41.6615 4.44319 3.81447)" stroke="white"/>
<mask id="path-2-inside-1_2204_10285" fill="white">
<path d="M6.08463 1.79409C5.58788 1.39051 4.95985 1.18408 4.32052 1.21424C3.6812 1.24441 3.07539 1.50905 2.61884 1.95761L2.77164 2.11313C3.18995 1.70214 3.74502 1.45966 4.3308 1.43203C4.91657 1.40439 5.492 1.59353 5.94716 1.96331L6.08463 1.79409Z"/>
</mask>
<path d="M6.08463 1.79409C5.58788 1.39051 4.95985 1.18408 4.32052 1.21424C3.6812 1.24441 3.07539 1.50905 2.61884 1.95761L2.77164 2.11313C3.18995 1.70214 3.74502 1.45966 4.3308 1.43203C4.91657 1.40439 5.492 1.59353 5.94716 1.96331L6.08463 1.79409Z" stroke="white" stroke-width="2" mask="url(#path-2-inside-1_2204_10285)"/>
<mask id="path-3-inside-2_2204_10285" fill="white">
<path d="M6.05326 5.85997C6.46818 5.53337 6.77397 5.08831 6.93004 4.58386C7.0861 4.07941 7.08507 3.53942 6.92707 3.03558L6.71903 3.10081C6.8638 3.56246 6.86475 4.05722 6.72175 4.51942C6.57876 4.98162 6.29858 5.3894 5.91841 5.68865L6.05326 5.85997Z"/>
</mask>
<path d="M6.05326 5.85997C6.46818 5.53337 6.77397 5.08831 6.93004 4.58386C7.0861 4.07941 7.08507 3.53942 6.92707 3.03558L6.71903 3.10081C6.8638 3.56246 6.86475 4.05722 6.72175 4.51942C6.57876 4.98162 6.29858 5.3894 5.91841 5.68865L6.05326 5.85997Z" stroke="white" stroke-width="2" mask="url(#path-3-inside-2_2204_10285)"/>
<mask id="path-4-inside-3_2204_10285" fill="white">
<path d="M5.25053 6.28926C5.49377 6.20991 5.72398 6.09513 5.93374 5.94863L5.8089 5.76988C5.61671 5.90411 5.40578 6.00928 5.18292 6.08198L5.25053 6.28926Z"/>
</mask>
<path d="M5.25053 6.28926C5.49377 6.20991 5.72398 6.09513 5.93374 5.94863L5.8089 5.76988C5.61671 5.90411 5.40578 6.00928 5.18292 6.08198L5.25053 6.28926Z" stroke="white" stroke-width="2" mask="url(#path-4-inside-3_2204_10285)"/>
<mask id="path-5-inside-4_2204_10285" fill="white">
<path d="M4.29161 6.4132C4.54703 6.4281 4.80325 6.40526 5.05201 6.34542L5.00102 6.13344C4.7731 6.18827 4.53833 6.20919 4.3043 6.19554L4.29161 6.4132Z"/>
</mask>
<path d="M4.29161 6.4132C4.54703 6.4281 4.80325 6.40526 5.05201 6.34542L5.00102 6.13344C4.7731 6.18827 4.53833 6.20919 4.3043 6.19554L4.29161 6.4132Z" stroke="white" stroke-width="2" mask="url(#path-5-inside-4_2204_10285)"/>
<mask id="path-6-inside-5_2204_10285" fill="white">
<path d="M2.49844 5.54486C2.66852 5.736 2.86584 5.90103 3.08405 6.03462L3.19789 5.84867C2.99795 5.72627 2.81715 5.57507 2.66132 5.39993L2.49844 5.54486Z"/>
</mask>
<path d="M2.49844 5.54486C2.66852 5.736 2.86584 5.90103 3.08405 6.03462L3.19789 5.84867C2.99795 5.72627 2.81715 5.57507 2.66132 5.39993L2.49844 5.54486Z" stroke="white" stroke-width="2" mask="url(#path-6-inside-5_2204_10285)"/>
<mask id="path-7-inside-6_2204_10285" fill="white">
<path d="M2.52018 2.05998C2.34773 2.24899 2.20409 2.46239 2.0939 2.6933L2.29066 2.7872C2.39163 2.57564 2.52324 2.38011 2.68124 2.20693L2.52018 2.05998Z"/>
</mask>
<path d="M2.52018 2.05998C2.34773 2.24899 2.20409 2.46239 2.0939 2.6933L2.29066 2.7872C2.39163 2.57564 2.52324 2.38011 2.68124 2.20693L2.52018 2.05998Z" stroke="white" stroke-width="2" mask="url(#path-7-inside-6_2204_10285)"/>
<mask id="path-8-inside-7_2204_10285" fill="white">
<path d="M2.04924 2.79211C2.0158 2.87042 1.98622 2.95032 1.96061 3.03153L2.16854 3.0971C2.192 3.0227 2.21911 2.94949 2.24975 2.87774L2.04924 2.79211Z"/>
</mask>
<path d="M2.04924 2.79211C2.0158 2.87042 1.98622 2.95032 1.96061 3.03153L2.16854 3.0971C2.192 3.0227 2.21911 2.94949 2.24975 2.87774L2.04924 2.79211Z" stroke="white" stroke-width="2" mask="url(#path-8-inside-7_2204_10285)"/>
<mask id="path-9-inside-8_2204_10285" fill="white">
<path d="M3.94331 6.36916C4.02566 6.38528 4.10873 6.3974 4.19225 6.40549L4.21327 6.18848C4.13675 6.18107 4.06063 6.16996 3.98518 6.1552L3.94331 6.36916Z"/>
</mask>
<path d="M3.94331 6.36916C4.02566 6.38528 4.10873 6.3974 4.19225 6.40549L4.21327 6.18848C4.13675 6.18107 4.06063 6.16996 3.98518 6.1552L3.94331 6.36916Z" stroke="white" stroke-width="2" mask="url(#path-9-inside-8_2204_10285)"/>
</svg>
