<svg width="12" height="12" viewBox="0 0 12 12" fill="none" xmlns="http://www.w3.org/2000/svg">
<circle cx="6.00767" cy="5.77585" r="3.11546" transform="rotate(-41.6615 6.00767 5.77585)" stroke="white"/>
<mask id="path-2-inside-1_2204_8955" fill="white">
<path d="M8.46972 2.74527C7.72459 2.1399 6.78254 1.83026 5.82355 1.87551C4.86457 1.92075 3.95586 2.31771 3.27103 2.99055L3.50023 3.22383C4.1277 2.60735 4.9603 2.24364 5.83897 2.20218C6.71764 2.16072 7.58078 2.44443 8.26351 2.9991L8.46972 2.74527Z"/>
</mask>
<path d="M8.46972 2.74527C7.72459 2.1399 6.78254 1.83026 5.82355 1.87551C4.86457 1.92075 3.95586 2.31771 3.27103 2.99055L3.50023 3.22383C4.1277 2.60735 4.9603 2.24364 5.83897 2.20218C6.71764 2.16072 7.58078 2.44443 8.26351 2.9991L8.46972 2.74527Z" stroke="white" stroke-width="2" mask="url(#path-2-inside-1_2204_8955)"/>
<mask id="path-3-inside-2_2204_8955" fill="white">
<path d="M8.42266 8.84409C9.04505 8.35419 9.50373 7.6866 9.73783 6.92993C9.97193 6.17325 9.97037 5.36328 9.73337 4.6075L9.42132 4.70536C9.63847 5.39783 9.63989 6.13997 9.4254 6.83327C9.21091 7.52657 8.79064 8.13824 8.22039 8.58711L8.42266 8.84409Z"/>
</mask>
<path d="M8.42266 8.84409C9.04505 8.35419 9.50373 7.6866 9.73783 6.92993C9.97193 6.17325 9.97037 5.36328 9.73337 4.6075L9.42132 4.70536C9.63847 5.39783 9.63989 6.13997 9.4254 6.83327C9.21091 7.52657 8.79064 8.13824 8.22039 8.58711L8.42266 8.84409Z" stroke="white" stroke-width="2" mask="url(#path-3-inside-2_2204_8955)"/>
<mask id="path-4-inside-3_2204_8955" fill="white">
<path d="M7.21857 9.48802C7.58343 9.369 7.92875 9.19683 8.24339 8.97708L8.05613 8.70896C7.76784 8.91031 7.45145 9.06805 7.11715 9.17711L7.21857 9.48802Z"/>
</mask>
<path d="M7.21857 9.48802C7.58343 9.369 7.92875 9.19683 8.24339 8.97708L8.05613 8.70896C7.76784 8.91031 7.45145 9.06805 7.11715 9.17711L7.21857 9.48802Z" stroke="white" stroke-width="2" mask="url(#path-4-inside-3_2204_8955)"/>
<mask id="path-5-inside-4_2204_8955" fill="white">
<path d="M5.78019 9.67393C6.16332 9.69628 6.54765 9.66202 6.92079 9.57227L6.8443 9.2543C6.50242 9.33654 6.15027 9.36793 5.79923 9.34745L5.78019 9.67393Z"/>
</mask>
<path d="M5.78019 9.67393C6.16332 9.69628 6.54765 9.66202 6.92079 9.57227L6.8443 9.2543C6.50242 9.33654 6.15027 9.36793 5.79923 9.34745L5.78019 9.67393Z" stroke="white" stroke-width="2" mask="url(#path-5-inside-4_2204_8955)"/>
<mask id="path-6-inside-5_2204_8955" fill="white">
<path d="M3.09043 8.37142C3.34555 8.65814 3.64153 8.90568 3.96885 9.10606L4.1396 8.82714C3.8397 8.64355 3.5685 8.41674 3.33476 8.15403L3.09043 8.37142Z"/>
</mask>
<path d="M3.09043 8.37142C3.34555 8.65814 3.64153 8.90568 3.96885 9.10606L4.1396 8.82714C3.8397 8.64355 3.5685 8.41674 3.33476 8.15403L3.09043 8.37142Z" stroke="white" stroke-width="2" mask="url(#path-6-inside-5_2204_8955)"/>
<mask id="path-7-inside-6_2204_8955" fill="white">
<path d="M3.12304 3.14411C2.86437 3.42763 2.64891 3.74773 2.48362 4.09409L2.77877 4.23495C2.93022 3.91759 3.12763 3.6243 3.36463 3.36454L3.12304 3.14411Z"/>
</mask>
<path d="M3.12304 3.14411C2.86437 3.42763 2.64891 3.74773 2.48362 4.09409L2.77877 4.23495C2.93022 3.91759 3.12763 3.6243 3.36463 3.36454L3.12304 3.14411Z" stroke="white" stroke-width="2" mask="url(#path-7-inside-6_2204_8955)"/>
<mask id="path-8-inside-7_2204_8955" fill="white">
<path d="M2.41664 4.2423C2.36647 4.35977 2.3221 4.47962 2.28368 4.60143L2.59558 4.6998C2.63078 4.58819 2.67143 4.47837 2.71739 4.37075L2.41664 4.2423Z"/>
</mask>
<path d="M2.41664 4.2423C2.36647 4.35977 2.3221 4.47962 2.28368 4.60143L2.59558 4.6998C2.63078 4.58819 2.67143 4.47837 2.71739 4.37075L2.41664 4.2423Z" stroke="white" stroke-width="2" mask="url(#path-8-inside-7_2204_8955)"/>
<mask id="path-9-inside-8_2204_8955" fill="white">
<path d="M5.25774 9.60788C5.38126 9.63205 5.50587 9.65024 5.63115 9.66237L5.66268 9.33686C5.54789 9.32574 5.43372 9.30908 5.32054 9.28693L5.25774 9.60788Z"/>
</mask>
<path d="M5.25774 9.60788C5.38126 9.63205 5.50587 9.65024 5.63115 9.66237L5.66268 9.33686C5.54789 9.32574 5.43372 9.30908 5.32054 9.28693L5.25774 9.60788Z" stroke="white" stroke-width="2" mask="url(#path-9-inside-8_2204_8955)"/>
</svg>
