<svg width="12" height="12" viewBox="0 0 12 12" fill="none" xmlns="http://www.w3.org/2000/svg">
<circle cx="6.06456" cy="5.81711" r="3.11546" transform="rotate(-41.6615 6.06456 5.81711)" stroke="white"/>
<mask id="path-2-inside-1_2204_8945" fill="white">
<path d="M8.52661 2.78653C7.78147 2.18116 6.83943 1.87152 5.88044 1.91677C4.92145 1.96201 4.01274 2.35897 3.32791 3.03181L3.55711 3.26509C4.18459 2.64861 5.01718 2.2849 5.89585 2.24344C6.77452 2.20198 7.63766 2.48569 8.32039 3.04036L8.52661 2.78653Z"/>
</mask>
<path d="M8.52661 2.78653C7.78147 2.18116 6.83943 1.87152 5.88044 1.91677C4.92145 1.96201 4.01274 2.35897 3.32791 3.03181L3.55711 3.26509C4.18459 2.64861 5.01718 2.2849 5.89585 2.24344C6.77452 2.20198 7.63766 2.48569 8.32039 3.04036L8.52661 2.78653Z" stroke="white" stroke-width="2" mask="url(#path-2-inside-1_2204_8945)"/>
<mask id="path-3-inside-2_2204_8945" fill="white">
<path d="M8.47955 8.88535C9.10193 8.39545 9.56061 7.72786 9.79471 6.97119C10.0288 6.21451 10.0273 5.40454 9.79026 4.64876L9.47821 4.74662C9.69535 5.43909 9.69678 6.18123 9.48228 6.87453C9.26779 7.56783 8.84753 8.1795 8.27727 8.62837L8.47955 8.88535Z"/>
</mask>
<path d="M8.47955 8.88535C9.10193 8.39545 9.56061 7.72786 9.79471 6.97119C10.0288 6.21451 10.0273 5.40454 9.79026 4.64876L9.47821 4.74662C9.69535 5.43909 9.69678 6.18123 9.48228 6.87453C9.26779 7.56783 8.84753 8.1795 8.27727 8.62837L8.47955 8.88535Z" stroke="white" stroke-width="2" mask="url(#path-3-inside-2_2204_8945)"/>
<mask id="path-4-inside-3_2204_8945" fill="white">
<path d="M7.27546 9.52928C7.64032 9.41026 7.98563 9.23809 8.30027 9.01834L8.11301 8.75022C7.82473 8.95157 7.50833 9.10931 7.17403 9.21837L7.27546 9.52928Z"/>
</mask>
<path d="M7.27546 9.52928C7.64032 9.41026 7.98563 9.23809 8.30027 9.01834L8.11301 8.75022C7.82473 8.95157 7.50833 9.10931 7.17403 9.21837L7.27546 9.52928Z" stroke="white" stroke-width="2" mask="url(#path-4-inside-3_2204_8945)"/>
<mask id="path-5-inside-4_2204_8945" fill="white">
<path d="M5.83707 9.71519C6.2202 9.73754 6.60453 9.70328 6.97767 9.61353L6.90119 9.29556C6.5593 9.3778 6.20716 9.40919 5.85611 9.38871L5.83707 9.71519Z"/>
</mask>
<path d="M5.83707 9.71519C6.2202 9.73754 6.60453 9.70328 6.97767 9.61353L6.90119 9.29556C6.5593 9.3778 6.20716 9.40919 5.85611 9.38871L5.83707 9.71519Z" stroke="white" stroke-width="2" mask="url(#path-5-inside-4_2204_8945)"/>
<mask id="path-6-inside-5_2204_8945" fill="white">
<path d="M3.14732 8.41268C3.40243 8.6994 3.69842 8.94694 4.02573 9.14732L4.19649 8.8684C3.89659 8.68481 3.62539 8.458 3.39164 8.19529L3.14732 8.41268Z"/>
</mask>
<path d="M3.14732 8.41268C3.40243 8.6994 3.69842 8.94694 4.02573 9.14732L4.19649 8.8684C3.89659 8.68481 3.62539 8.458 3.39164 8.19529L3.14732 8.41268Z" stroke="white" stroke-width="2" mask="url(#path-6-inside-5_2204_8945)"/>
<mask id="path-7-inside-6_2204_8945" fill="white">
<path d="M3.17992 3.18537C2.92126 3.46889 2.7058 3.78899 2.5405 4.13535L2.83565 4.27621C2.9871 3.95885 3.18451 3.66556 3.42152 3.4058L3.17992 3.18537Z"/>
</mask>
<path d="M3.17992 3.18537C2.92126 3.46889 2.7058 3.78899 2.5405 4.13535L2.83565 4.27621C2.9871 3.95885 3.18451 3.66556 3.42152 3.4058L3.17992 3.18537Z" stroke="white" stroke-width="2" mask="url(#path-7-inside-6_2204_8945)"/>
<mask id="path-8-inside-7_2204_8945" fill="white">
<path d="M2.47352 4.28356C2.42336 4.40103 2.37899 4.52088 2.34057 4.64269L2.65246 4.74105C2.68766 4.62945 2.72832 4.51963 2.77428 4.41201L2.47352 4.28356Z"/>
</mask>
<path d="M2.47352 4.28356C2.42336 4.40103 2.37899 4.52088 2.34057 4.64269L2.65246 4.74105C2.68766 4.62945 2.72832 4.51963 2.77428 4.41201L2.47352 4.28356Z" stroke="white" stroke-width="2" mask="url(#path-8-inside-7_2204_8945)"/>
<mask id="path-9-inside-8_2204_8945" fill="white">
<path d="M5.31463 9.64914C5.43814 9.67331 5.56276 9.6915 5.68803 9.70363L5.71956 9.37812C5.60478 9.367 5.4906 9.35034 5.37743 9.32819L5.31463 9.64914Z"/>
</mask>
<path d="M5.31463 9.64914C5.43814 9.67331 5.56276 9.6915 5.68803 9.70363L5.71956 9.37812C5.60478 9.367 5.4906 9.35034 5.37743 9.32819L5.31463 9.64914Z" stroke="white" stroke-width="2" mask="url(#path-9-inside-8_2204_8945)"/>
</svg>
