<svg width="52" height="52" viewBox="0 0 52 52" fill="none" xmlns="http://www.w3.org/2000/svg">
<circle cx="26.1123" cy="26.3503" r="16.1867" transform="rotate(-41.6615 26.1123 26.3503)" stroke="#333333"/>
<mask id="path-2-inside-1_2202_11326" fill="white">
<path d="M37.4761 12.3631C34.037 9.56905 29.6891 8.13994 25.263 8.34877C20.8369 8.55759 16.6429 10.3897 13.4821 13.4951L14.5399 14.5718C17.436 11.7265 21.2787 10.0478 25.3341 9.8565C29.3895 9.66516 33.3732 10.9746 36.5243 13.5346L37.4761 12.3631Z"/>
</mask>
<path d="M37.4761 12.3631C34.037 9.56905 29.6891 8.13994 25.263 8.34877C20.8369 8.55759 16.6429 10.3897 13.4821 13.4951L14.5399 14.5718C17.436 11.7265 21.2787 10.0478 25.3341 9.8565C29.3895 9.66516 33.3732 10.9746 36.5243 13.5346L37.4761 12.3631Z" stroke="#333333" stroke-width="2" mask="url(#path-2-inside-1_2202_11326)"/>
<mask id="path-3-inside-2_2202_11326" fill="white">
<path d="M37.2589 40.5115C40.1314 38.2504 42.2484 35.1692 43.3289 31.6769C44.4093 28.1845 44.4021 24.4462 43.3083 20.958L41.8681 21.4096C42.8703 24.6057 42.8768 28.0309 41.8869 31.2308C40.8969 34.4306 38.9572 37.2537 36.3253 39.3254L37.2589 40.5115Z"/>
</mask>
<path d="M37.2589 40.5115C40.1314 38.2504 42.2484 35.1692 43.3289 31.6769C44.4093 28.1845 44.4021 24.4462 43.3083 20.958L41.8681 21.4096C42.8703 24.6057 42.8768 28.0309 41.8869 31.2308C40.8969 34.4306 38.9572 37.2537 36.3253 39.3254L37.2589 40.5115Z" stroke="#333333" stroke-width="2" mask="url(#path-3-inside-2_2202_11326)"/>
<mask id="path-4-inside-3_2202_11326" fill="white">
<path d="M31.7015 43.4835C33.3855 42.9341 34.9793 42.1395 36.4314 41.1253L35.5672 39.8878C34.2366 40.8171 32.7763 41.5451 31.2334 42.0485L31.7015 43.4835Z"/>
</mask>
<path d="M31.7015 43.4835C33.3855 42.9341 34.9793 42.1395 36.4314 41.1253L35.5672 39.8878C34.2366 40.8171 32.7763 41.5451 31.2334 42.0485L31.7015 43.4835Z" stroke="#333333" stroke-width="2" mask="url(#path-4-inside-3_2202_11326)"/>
<mask id="path-5-inside-4_2202_11326" fill="white">
<path d="M25.0628 44.3415C26.8311 44.4447 28.605 44.2865 30.3271 43.8723L29.9741 42.4047C28.3962 42.7843 26.7709 42.9292 25.1507 42.8347L25.0628 44.3415Z"/>
</mask>
<path d="M25.0628 44.3415C26.8311 44.4447 28.605 44.2865 30.3271 43.8723L29.9741 42.4047C28.3962 42.7843 26.7709 42.9292 25.1507 42.8347L25.0628 44.3415Z" stroke="#333333" stroke-width="2" mask="url(#path-5-inside-4_2202_11326)"/>
<mask id="path-6-inside-5_2202_11326" fill="white">
<path d="M12.6486 38.3299C13.826 39.6532 15.1921 40.7957 16.7028 41.7206L17.4909 40.4333C16.1067 39.5859 14.8551 38.5391 13.7762 37.3266L12.6486 38.3299Z"/>
</mask>
<path d="M12.6486 38.3299C13.826 39.6532 15.1921 40.7957 16.7028 41.7206L17.4909 40.4333C16.1067 39.5859 14.8551 38.5391 13.7762 37.3266L12.6486 38.3299Z" stroke="#333333" stroke-width="2" mask="url(#path-6-inside-5_2202_11326)"/>
<mask id="path-7-inside-6_2202_11326" fill="white">
<path d="M12.7991 14.2039C11.6052 15.5124 10.6108 16.9898 9.84788 18.5884L11.2101 19.2385C11.9091 17.7738 12.8203 16.4201 13.9141 15.2212L12.7991 14.2039Z"/>
</mask>
<path d="M12.7991 14.2039C11.6052 15.5124 10.6108 16.9898 9.84788 18.5884L11.2101 19.2385C11.9091 17.7738 12.8203 16.4201 13.9141 15.2212L12.7991 14.2039Z" stroke="#333333" stroke-width="2" mask="url(#path-7-inside-6_2202_11326)"/>
<mask id="path-8-inside-7_2202_11326" fill="white">
<path d="M9.53874 19.2725C9.30721 19.8146 9.10243 20.3678 8.92512 20.93L10.3646 21.384C10.5271 20.8688 10.7147 20.362 10.9269 19.8653L9.53874 19.2725Z"/>
</mask>
<path d="M9.53874 19.2725C9.30721 19.8146 9.10243 20.3678 8.92512 20.93L10.3646 21.384C10.5271 20.8688 10.7147 20.362 10.9269 19.8653L9.53874 19.2725Z" stroke="#333333" stroke-width="2" mask="url(#path-8-inside-7_2202_11326)"/>
<mask id="path-9-inside-8_2202_11326" fill="white">
<path d="M22.6515 44.0367C23.2216 44.1482 23.7968 44.2321 24.375 44.2881L24.5205 42.7858C23.9907 42.7345 23.4637 42.6576 22.9414 42.5554L22.6515 44.0367Z"/>
</mask>
<path d="M22.6515 44.0367C23.2216 44.1482 23.7968 44.2321 24.375 44.2881L24.5205 42.7858C23.9907 42.7345 23.4637 42.6576 22.9414 42.5554L22.6515 44.0367Z" stroke="#333333" stroke-width="2" mask="url(#path-9-inside-8_2202_11326)"/>
</svg>
