<svg width="52" height="52" viewBox="0 0 52 52" fill="none" xmlns="http://www.w3.org/2000/svg">
<circle cx="25.9904" cy="26.156" r="16.1867" transform="rotate(-41.6615 25.9904 26.156)" stroke="#333333"/>
<mask id="path-2-inside-1_2202_15149" fill="white">
<path d="M37.3541 12.1687C33.915 9.37472 29.5671 7.94561 25.141 8.15443C20.7149 8.36326 16.5209 10.1954 13.3601 13.3008L14.418 14.3775C17.314 11.5322 21.1568 9.8535 25.2122 9.66216C29.2676 9.47083 33.2513 10.7802 36.4024 13.3403L37.3541 12.1687Z"/>
</mask>
<path d="M37.3541 12.1687C33.915 9.37472 29.5671 7.94561 25.141 8.15443C20.7149 8.36326 16.5209 10.1954 13.3601 13.3008L14.418 14.3775C17.314 11.5322 21.1568 9.8535 25.2122 9.66216C29.2676 9.47083 33.2513 10.7802 36.4024 13.3403L37.3541 12.1687Z" stroke="#333333" stroke-width="2" mask="url(#path-2-inside-1_2202_15149)"/>
<mask id="path-3-inside-2_2202_15149" fill="white">
<path d="M37.1369 40.3171C40.0095 38.0561 42.1264 34.9749 43.2069 31.4825C44.2874 27.9902 44.2802 24.2518 43.1864 20.7637L41.7461 21.2153C42.7483 24.4113 42.7549 27.8366 41.7649 31.0364C40.775 34.2363 38.8353 37.0594 36.2033 39.1311L37.1369 40.3171Z"/>
</mask>
<path d="M37.1369 40.3171C40.0095 38.0561 42.1264 34.9749 43.2069 31.4825C44.2874 27.9902 44.2802 24.2518 43.1864 20.7637L41.7461 21.2153C42.7483 24.4113 42.7549 27.8366 41.7649 31.0364C40.775 34.2363 38.8353 37.0594 36.2033 39.1311L37.1369 40.3171Z" stroke="#333333" stroke-width="2" mask="url(#path-3-inside-2_2202_15149)"/>
<mask id="path-4-inside-3_2202_15149" fill="white">
<path d="M31.5796 43.2891C33.2635 42.7398 34.8573 41.9452 36.3095 40.9309L35.4452 39.6935C34.1147 40.6227 32.6544 41.3508 31.1115 41.8541L31.5796 43.2891Z"/>
</mask>
<path d="M31.5796 43.2891C33.2635 42.7398 34.8573 41.9452 36.3095 40.9309L35.4452 39.6935C34.1147 40.6227 32.6544 41.3508 31.1115 41.8541L31.5796 43.2891Z" stroke="#333333" stroke-width="2" mask="url(#path-4-inside-3_2202_15149)"/>
<mask id="path-5-inside-4_2202_15149" fill="white">
<path d="M24.9409 44.1472C26.7092 44.2503 28.483 44.0922 30.2052 43.6779L29.8522 42.2104C28.2742 42.59 26.649 42.7348 25.0288 42.6403L24.9409 44.1472Z"/>
</mask>
<path d="M24.9409 44.1472C26.7092 44.2503 28.483 44.0922 30.2052 43.6779L29.8522 42.2104C28.2742 42.59 26.649 42.7348 25.0288 42.6403L24.9409 44.1472Z" stroke="#333333" stroke-width="2" mask="url(#path-5-inside-4_2202_15149)"/>
<mask id="path-6-inside-5_2202_15149" fill="white">
<path d="M12.5266 38.1356C13.7041 39.4589 15.0702 40.6014 16.5809 41.5262L17.369 40.2389C15.9848 39.3915 14.7331 38.3447 13.6543 37.1323L12.5266 38.1356Z"/>
</mask>
<path d="M12.5266 38.1356C13.7041 39.4589 15.0702 40.6014 16.5809 41.5262L17.369 40.2389C15.9848 39.3915 14.7331 38.3447 13.6543 37.1323L12.5266 38.1356Z" stroke="#333333" stroke-width="2" mask="url(#path-6-inside-5_2202_15149)"/>
<mask id="path-7-inside-6_2202_15149" fill="white">
<path d="M12.6771 14.0095C11.4833 15.3181 10.4888 16.7955 9.72593 18.394L11.0882 19.0442C11.7872 17.5795 12.6983 16.2258 13.7922 15.0269L12.6771 14.0095Z"/>
</mask>
<path d="M12.6771 14.0095C11.4833 15.3181 10.4888 16.7955 9.72593 18.394L11.0882 19.0442C11.7872 17.5795 12.6983 16.2258 13.7922 15.0269L12.6771 14.0095Z" stroke="#333333" stroke-width="2" mask="url(#path-7-inside-6_2202_15149)"/>
<mask id="path-8-inside-7_2202_15149" fill="white">
<path d="M9.41679 19.0781C9.18527 19.6203 8.98048 20.1734 8.80317 20.7356L10.2427 21.1896C10.4051 20.6745 10.5928 20.1677 10.8049 19.6709L9.41679 19.0781Z"/>
</mask>
<path d="M9.41679 19.0781C9.18527 19.6203 8.98048 20.1734 8.80317 20.7356L10.2427 21.1896C10.4051 20.6745 10.5928 20.1677 10.8049 19.6709L9.41679 19.0781Z" stroke="#333333" stroke-width="2" mask="url(#path-8-inside-7_2202_15149)"/>
<mask id="path-9-inside-8_2202_15149" fill="white">
<path d="M22.5296 43.8423C23.0997 43.9539 23.6748 44.0378 24.253 44.0938L24.3985 42.5914C23.8688 42.5401 23.3418 42.4632 22.8194 42.361L22.5296 43.8423Z"/>
</mask>
<path d="M22.5296 43.8423C23.0997 43.9539 23.6748 44.0378 24.253 44.0938L24.3985 42.5914C23.8688 42.5401 23.3418 42.4632 22.8194 42.361L22.5296 43.8423Z" stroke="#333333" stroke-width="2" mask="url(#path-9-inside-8_2202_15149)"/>
</svg>
