<svg width="12" height="12" viewBox="0 0 12 12" fill="none" xmlns="http://www.w3.org/2000/svg">
<circle cx="6.06456" cy="5.81729" r="3.11546" transform="rotate(-41.6615 6.06456 5.81729)" stroke="white"/>
<mask id="path-2-inside-1_2204_9469" fill="white">
<path d="M8.52673 2.78659C7.78159 2.18122 6.83955 1.87158 5.88056 1.91683C4.92157 1.96207 4.01287 2.35903 3.32804 3.03187L3.55724 3.26515C4.18471 2.64867 5.01731 2.28496 5.89597 2.2435C6.77464 2.20204 7.63779 2.48575 8.32051 3.04042L8.52673 2.78659Z"/>
</mask>
<path d="M8.52673 2.78659C7.78159 2.18122 6.83955 1.87158 5.88056 1.91683C4.92157 1.96207 4.01287 2.35903 3.32804 3.03187L3.55724 3.26515C4.18471 2.64867 5.01731 2.28496 5.89597 2.2435C6.77464 2.20204 7.63779 2.48575 8.32051 3.04042L8.52673 2.78659Z" stroke="white" stroke-width="2" mask="url(#path-2-inside-1_2204_9469)"/>
<mask id="path-3-inside-2_2204_9469" fill="white">
<path d="M8.47967 8.88541C9.10205 8.39551 9.56073 7.72792 9.79483 6.97125C10.0289 6.21457 10.0274 5.4046 9.79038 4.64882L9.47833 4.74668C9.69548 5.43915 9.6969 6.18129 9.48241 6.87459C9.26791 7.56789 8.84765 8.17956 8.27739 8.62843L8.47967 8.88541Z"/>
</mask>
<path d="M8.47967 8.88541C9.10205 8.39551 9.56073 7.72792 9.79483 6.97125C10.0289 6.21457 10.0274 5.4046 9.79038 4.64882L9.47833 4.74668C9.69548 5.43915 9.6969 6.18129 9.48241 6.87459C9.26791 7.56789 8.84765 8.17956 8.27739 8.62843L8.47967 8.88541Z" stroke="white" stroke-width="2" mask="url(#path-3-inside-2_2204_9469)"/>
<mask id="path-4-inside-3_2204_9469" fill="white">
<path d="M7.27558 9.52934C7.64044 9.41032 7.98576 9.23815 8.3004 9.0184L8.11314 8.75028C7.82485 8.95163 7.50845 9.10937 7.17415 9.21843L7.27558 9.52934Z"/>
</mask>
<path d="M7.27558 9.52934C7.64044 9.41032 7.98576 9.23815 8.3004 9.0184L8.11314 8.75028C7.82485 8.95163 7.50845 9.10937 7.17415 9.21843L7.27558 9.52934Z" stroke="white" stroke-width="2" mask="url(#path-4-inside-3_2204_9469)"/>
<mask id="path-5-inside-4_2204_9469" fill="white">
<path d="M5.83719 9.71525C6.22032 9.7376 6.60466 9.70335 6.97779 9.61359L6.90131 9.29562C6.55942 9.37786 6.20728 9.40925 5.85624 9.38877L5.83719 9.71525Z"/>
</mask>
<path d="M5.83719 9.71525C6.22032 9.7376 6.60466 9.70335 6.97779 9.61359L6.90131 9.29562C6.55942 9.37786 6.20728 9.40925 5.85624 9.38877L5.83719 9.71525Z" stroke="white" stroke-width="2" mask="url(#path-5-inside-4_2204_9469)"/>
<mask id="path-6-inside-5_2204_9469" fill="white">
<path d="M3.14744 8.41275C3.40255 8.69946 3.69854 8.947 4.02586 9.14739L4.19661 8.86846C3.89671 8.68487 3.62551 8.45806 3.39177 8.19535L3.14744 8.41275Z"/>
</mask>
<path d="M3.14744 8.41275C3.40255 8.69946 3.69854 8.947 4.02586 9.14739L4.19661 8.86846C3.89671 8.68487 3.62551 8.45806 3.39177 8.19535L3.14744 8.41275Z" stroke="white" stroke-width="2" mask="url(#path-6-inside-5_2204_9469)"/>
<mask id="path-7-inside-6_2204_9469" fill="white">
<path d="M3.18005 3.18543C2.92138 3.46895 2.70592 3.78905 2.54062 4.13541L2.83577 4.27627C2.98723 3.95891 3.18464 3.66563 3.42164 3.40586L3.18005 3.18543Z"/>
</mask>
<path d="M3.18005 3.18543C2.92138 3.46895 2.70592 3.78905 2.54062 4.13541L2.83577 4.27627C2.98723 3.95891 3.18464 3.66563 3.42164 3.40586L3.18005 3.18543Z" stroke="white" stroke-width="2" mask="url(#path-7-inside-6_2204_9469)"/>
<mask id="path-8-inside-7_2204_9469" fill="white">
<path d="M2.47364 4.28362C2.42348 4.40109 2.37911 4.52094 2.34069 4.64275L2.65259 4.74112C2.68779 4.62951 2.72844 4.51969 2.7744 4.41207L2.47364 4.28362Z"/>
</mask>
<path d="M2.47364 4.28362C2.42348 4.40109 2.37911 4.52094 2.34069 4.64275L2.65259 4.74112C2.68779 4.62951 2.72844 4.51969 2.7744 4.41207L2.47364 4.28362Z" stroke="white" stroke-width="2" mask="url(#path-8-inside-7_2204_9469)"/>
<mask id="path-9-inside-8_2204_9469" fill="white">
<path d="M5.31475 9.64921C5.43827 9.67338 5.56288 9.69156 5.68816 9.70369L5.71968 9.37818C5.6049 9.36706 5.49072 9.3504 5.37755 9.32825L5.31475 9.64921Z"/>
</mask>
<path d="M5.31475 9.64921C5.43827 9.67338 5.56288 9.69156 5.68816 9.70369L5.71968 9.37818C5.6049 9.36706 5.49072 9.3504 5.37755 9.32825L5.31475 9.64921Z" stroke="white" stroke-width="2" mask="url(#path-9-inside-8_2204_9469)"/>
</svg>
